<svg xmlns="http://www.w3.org/2000/svg" xmlns:xlink="http://www.w3.org/1999/xlink" id="Lager_1" x="0" y="0" version="1.1" viewBox="0 0 300.3 74.7" xml:space="preserve"><style>.st0{fill:#030303}.st10{fill:#29282a}.st12{opacity:.5}.st96{fill:#ffb6f5}</style><path d="M32.5 31.5h63v12h-63z" class="st0"/><path d="M288.6 33.7c-.3-.9-.5-1.8-.8-2.7-.3-.9-.5-1.8-.8-2.7l-1.6-5.2s-1-3.1-1.2-4.1c-.4-1.3-.8-2.7-1.2-4l-.1-.2 5.6-6.7-2.6-8.2h-28.2l-.9 1.4-.3-1.4h-28.4l-.7 1.6-.3-1.6h-28.6l-.5 1.9-.1-1.8H169l-.3 3.1-.1-3.1h-29l-.1 2.8-.3-2.8h-28.8l-.2 1.8-.5-1.8H95.8l-1.1 7.7-.7-1.5h-.3L91.3.1H77.6l-.3 1.5-.7-1.5H63l-.3 1.4-.8-1.4H48.4l-1.6 6h-3.6l-.7 2.6L36.2 0H23.1L11.9 34.9l11.9 11h13l2.1-7.7 1 1.1h3.5l5.8 6.6h13.3l.3-1.3.9 1.3h13.4l.2-1.4.9 1.4h13.6l1-7.3 3.5 7.3H110l.2-1.7.6 1.7h28.6l.1-2.6.3 2.6h28.8l.3-2.9.1 2.9h14l.4-2 .1 2h14l.6-1.7.2 1.7h13.8l.7-1.6.2 1.6h13.7l.8-1.4.2 1.4h13.6l7.8-11.2-.4-1.8h4.3l6.1-8.5 5.3 21.4h13.3l11.1-11.1-.2-1zm-134.5-8.2l.1-4.7h13.6l.1-1.6.2 6.3h-14z" class="st0"/><linearGradient id="SVGID_1_" x1="37.3843" x2="37.3843" y1="34.1148" y2="2.0357" gradientUnits="userSpaceOnUse"><stop offset="0" stop-color="#d9cdca"/><stop offset="1" stop-color="#a89f9c"/></linearGradient><path fill="url(#SVGID_1_)" d="M36.8 8L35 14.3h8l1.7-6.2h3.7L49.9 2h10.6l-7.4 32.1H41.7l3.4-13.6H41l-1.8 6.6h-7.4l1.8-6.6h-4.1l-4.1 13.6H14.2l10.3-32h10.4l-1.7 5.8z"/><linearGradient id="SVGID_2_" x1="66.2666" x2="66.2666" y1="34.1812" y2="2.1002" gradientUnits="userSpaceOnUse"><stop offset="0" stop-color="#d9cdca"/><stop offset="1" stop-color="#a89f9c"/></linearGradient><path fill="url(#SVGID_2_)" d="M75.1 2.1l-6.3 32.1H57.4l7.1-32.1z"/><linearGradient id="SVGID_3_" x1="90.6303" x2="90.6303" y1="34.0963" y2="1.9898" gradientUnits="userSpaceOnUse"><stop offset="0" stop-color="#d9cdca"/><stop offset="1" stop-color="#a89f9c"/></linearGradient><path fill="url(#SVGID_3_)" d="M90.6 23.8l.9-6.7h-4.1l-2.8 17H73.2l6-32.1h10.6l-.9 5.9 3.6.1-.9 6.2 4.1.1L97.4 2H108l-3.7 32.1H92.9l1.4-10.2z"/><linearGradient id="SVGID_4_" x1="123.0303" x2="123.0303" y1="34.0836" y2="1.9605" gradientUnits="userSpaceOnUse"><stop offset="0" stop-color="#d9cdca"/><stop offset="1" stop-color="#a89f9c"/></linearGradient><path fill="url(#SVGID_4_)" d="M136.2 27.5l-.2 6.6h-27.3L112.1 2h25.3l-.3 5.6-14.9.1-.4 6.5h15l-.2 6.2-15.4.1-.5 6.9z"/><linearGradient id="SVGID_5_" x1="272.8433" x2="272.8433" y1="34.0279" y2="1.815" gradientUnits="userSpaceOnUse"><stop offset="0" stop-color="#d9cdca"/><stop offset="1" stop-color="#a89f9c"/></linearGradient><path fill="url(#SVGID_5_)" d="M284.5 1.8l1.8 5.7h-7.4v.2c.3 1.2.6 2.5 1 3.8.4 1.3.7 2.6 1.1 4 .4 1.3.8 2.7 1.2 4.1.4 1.4.8 2.8 1.3 4.1.3.8.5 1.7.8 2.5.3.9.5 1.7.8 2.6.3.9.5 1.7.8 2.6.3.9.5 1.8.8 2.6h-11.5L268 7.5h-7.4L259 1.8h25.5z"/><linearGradient id="SVGID_6_" x1="244.5517" x2="244.5517" y1="34.0416" y2="1.8434" gradientUnits="userSpaceOnUse"><stop offset="0" stop-color="#d9cdca"/><stop offset="1" stop-color="#a89f9c"/></linearGradient><path fill="url(#SVGID_6_)" d="M257.9 14l1.6 6.4h-15.4L247 34h-11.5l-5.9-32.1 25.4-.1 1.4 5.7-15 .1 1.4 6.4z"/><linearGradient id="SVGID_7_" x1="215.6177" x2="215.6177" y1="34.0523" y2="1.8727" gradientUnits="userSpaceOnUse"><stop offset="0" stop-color="#d9cdca"/><stop offset="1" stop-color="#a89f9c"/></linearGradient><path fill="url(#SVGID_7_)" d="M213.8 23.7l1.4 10.4h-11.5l-3.6-32.2h25.4l5.6 32.2h-11.5l-1.5-10.4h-4.3zm7.4-12.7l-.6-4h-5l.5 3.7h-3.9l-.6-3.7h-4.9l.5 4.1h4.5l.2 1.5h-2.2l.8 6.3h2.7l-.2-2.1h4l.3 2.2h2.7l-1-6.3h-2.2l-.2-1.5 4.6-.2"/><linearGradient id="SVGID_8_" x1="185.0513" x2="185.0513" y1="34.0641" y2="1.9029" gradientUnits="userSpaceOnUse"><stop offset="0" stop-color="#d9cdca"/><stop offset="1" stop-color="#a89f9c"/></linearGradient><path fill="url(#SVGID_8_)" d="M193.9 17.4h3.8l1.7 16.7h-11.5l-1-13.6-4.2-.1.9 13.7h-11.5L170.9 2h25.3l1.2 11.9h-3.8l.3 3.5zm-7.5-3.2l-.5-6.6h-4.1l.4 6.6h4.2"/><linearGradient id="SVGID_9_" x1="153.979" x2="153.979" y1="34.0738" y2="1.9312" gradientUnits="userSpaceOnUse"><stop offset="0" stop-color="#d9cdca"/><stop offset="1" stop-color="#a89f9c"/></linearGradient><path fill="url(#SVGID_9_)" d="M152.2 7.6h14.7l-.2-5.7-25.3.1-1.1 32.1h27.3l-.2-6.6h-15.6z"/><path d="M15.7 34.1c-.8 0-1 .5-.4 1l8.1 7.8c.6.6 1.8 1 2.6 1h7.1c.8 0 1-.5.5-1.1l-7.2-7.7c-.6-.6-1.7-1.1-2.5-1.1l-8.2.1zm27.5 0c-.8 0-1.1.5-.5 1.1l6.3 7.6c.5.6 1.6 1.1 2.5 1.1H59c.8 0 1.1-.5.6-1.2L54 35.3c-.5-.7-1.6-1.2-2.4-1.2h-8.4z" class="st10"/><path d="M33.3 27.1c-.8 0-1.1.5-.5 1.1l7.1 8c.5.6 1.5 1.1 2.2 1.1s.8-.6.4-1.3l-.5-.7c-.5-.7-.7-1.9-.5-2.7l.1-.5c.2-.8 0-2-.5-2.6l-1-1.2c-.5-.6-1.6-1.2-2.4-1.2h-4.4zm25.6 7.1c-.8 0-1.1.5-.6 1.2l5.4 7.4c.5.7 1.6 1.2 2.4 1.2h7.4c.8 0 1.1-.6.7-1.3l-4.6-7.3c-.4-.7-1.5-1.3-2.3-1.3l-8.4.1zm15.8-.1c-.8 0-1.1.6-.7 1.3l4.4 7.2c.4.7 1.5 1.3 2.3 1.3H88c.8 0 1.2-.6.8-1.3l-3.5-7.1c-.4-.7-1.3-1.3-2.2-1.3l-8.4-.1zm19.7 0c-.8 0-1.2.6-.9 1.4l3.3 7.2c.3.7 1.3 1.4 2.1 1.4h7.5c.8 0 1.3-.6 1-1.4l-2.6-7.1c-.3-.8-1.2-1.4-2-1.4l-8.4-.1zm15.8 0c-.8 0-1.3.6-1 1.4l2.4 6.8c.3.8 1.2 1.4 2 1.4h22.2c.8 0 1.4-.7 1.3-1.5l-.9-6.7c-.1-.8-.9-1.5-1.7-1.5l-24.3.1zm31.6 0c-.8 0-1.4.7-1.3 1.5l.7 6.9c.1.8.8 1.5 1.7 1.5H165c.8 0 1.6-.7 1.7-1.5l.8-6.9c.1-.8-.5-1.5-1.3-1.5h-24.4zm31.7 0c-.8 0-1.6.7-1.7 1.5l-.9 6.8c-.1.8.5 1.5 1.3 1.5h7.4c.8 0 1.7-.7 1.8-1.5l1.6-6.9c.2-.8-.3-1.5-1.1-1.5l-8.4.1zm15.9 0c-.8 0-1.7.7-1.8 1.5l-1.6 6.8c-.2.8.3 1.5 1.2 1.5h7.4c.8 0 1.7-.6 2-1.4l2.4-6.9c.3-.8-.2-1.4-1-1.4l-8.6-.1zm15.8 0c-.8 0-1.7.6-2 1.4l-2.5 7c-.3.8.2 1.4 1 1.4h7.4c.8 0 1.8-.6 2.1-1.4l3.3-7.1c.3-.7 0-1.4-.9-1.4l-8.4.1zm15.9-.1c-.8 0-1.8.6-2.2 1.3l-3.5 7.1c-.4.7 0 1.3.8 1.3h7.6c.8 0 1.8-.6 2.2-1.3l4.2-7.2c.4-.7.1-1.3-.7-1.3l-8.4.1zm15.9 0c-.8 0-1.8.6-2.3 1.3l-4.4 7.3c-.4.7-.1 1.3.7 1.3h7.5c.8 0 1.9-.5 2.4-1.2l5.2-7.4c.5-.7.2-1.2-.6-1.2L237 34zm39.6 0c-.8 0-1.9.5-2.5 1.1l-6.6 7.5c-.5.6-.3 1.1.5 1.1h7.1c.8 0 2-.5 2.6-1l7.8-7.6c.6-.6.4-1-.4-1l-8.5-.1z" class="st10"/><path d="M22.6 7.4c-.1.2.5.4 1.4.4h7.8c.8 0 1.5-.2 1.5-.4s-.7-.4-1.5-.4h-7.6c-.8 0-1.5.2-1.6.4zm-.5 16.3c.3-.8-.2-1.4-1-1.4h-1.9c-.8 0-1.5.2-1.5.3 0 .2.7.3 1.5.3h1c.8 0 1.3.6 1 1.4l-1.7 5.3c-.3.8.2 1.4 1 1.4h5.9c.8 0 1.5-.2 1.5-.3s-.7-.3-1.5-.3h-4.9c-.8 0-1.3-.6-1-1.4l.1-.4c.3-.8 1.1-1.4 2-1.4H27c.8 0 1.5-.2 1.5-.3s-.7-.3-1.5-.3h-4.3c-.8 0-1.3-.6-1-1.4l.4-1.5zM53.4 8.8c.1-.8-.5-1.5-1.3-1.5h-2.3c-.8 0-1.6.2-1.6.3-.1.2.5.4 1.3.4h1.7c.8 0 1.4.7 1.3 1.5l-.3 2.4c-.1.8-.9 1.5-1.7 1.5h-7.2c-.8 0-1.5.2-1.5.3s.7.3 1.5.3h14.1c.8 0 1.5-.2 1.5-.3s-.7-.3-1.5-.3h-3.2c-.8 0-1.4-.7-1.3-1.5l.5-3.1zm9.9 21.4c.1-.8.1-1.1-.2-.7s-.6 1.4-.8 2.2l-.2 1.2c-.2.8.1 2 .6 2.7l.4.6c.5.7 1.2 1.5 1.6 1.8.4.3.4 0 0-.7l-1.3-1.9c-.5-.7-.7-1.9-.6-2.7l.5-2.5zM74.5 8.5c0-.2-.7-.3-1.5-.3l-2.9.1c-.8 0-1.2.2-.7.3.4.2 1.4.3 2.3.3H73c.8 0 1.5-.2 1.5-.4zm4.3 23.4c.2-.8.1-1.1-.2-.7-.3.4-.6 1.3-.8 1.8-.1.6 0 1.6.2 2.3s.7 1.6 1 2c.3.4.3.1.1-.7l-.4-1.1c-.3-.8-.3-2.1-.1-2.9l.2-.7zM76 23.8c-.8 0-1.5.1-1.5.3 0 .2.7.4 1.5.4l8.4.4c.8 0 1.7.4 2 .8.3.4.6.7.8.6.2-.1 0-.6-.3-1.1-.3-.5-1.2-.9-2.1-1l-8.8-.4zm8.9-16.4c.3.2 1.3.4 2.1.4h.6c.8 0 1.5-.2 1.5-.3 0-.2-.7-.4-1.5-.4h-1.8c-.8-.1-1.2.1-.9.3zm10 16.6c-.8 0-1.5.2-1.5.4s.7.3 1.5.3l4.9-.2c.8 0 1.4.6 1.3 1.4l-1 6.7c-.1.8 0 2.1.2 2.9l.2.7c.2.8.7 1.8 1.1 2.3.3.5.4.2.2-.6l-.8-2.5c-.2-.8-.3-2.1-.2-2.9l1.1-7.4c.1-.8-.4-1.5-1.3-1.4l-5.7.3zm1.6-16.7c0 .2.6.5 1.4.6l8.3 1c.8.1 1.5 0 1.5-.2s-.7-.4-1.5-.5l-8.2-1c-.7-.2-1.4-.1-1.5.1zm18.1 21c0-.8-.6-1.5-1.4-1.5h-3c-.8 0-1.5.2-1.5.3s.7.3 1.5.3h2.2c.8 0 1.5.7 1.4 1.5l-.1 3.5c0 .8.1 2.1.3 2.9l.6 2.2c.2.8.6 1.8.9 2.3.3.5.3.2.2-.6l-.9-3.9c-.2-.8-.3-2.1-.3-3l.1-4zm-4.2-17c0 .2.7.4 1.5.4h2.8c.8 0 1.8-.2 2.3-.4.4-.2.1-.4-.7-.4l-4.3.1c-.9 0-1.6.1-1.6.3zm19.3 3.6c0-.8-.2-1.5-.4-1.5s-.4.7-.4 1.5v3.4c0 .8.2 1.1.4.6.2-.5.4-1.5.4-2.4v-1.6zm3.4 12.8c0 .8-.7 1.5-1.5 1.5h-2.3c-.8 0-1.5.7-1.5 1.5V33c0 .8.2 1.5.3 1.5s.3-.7.3-1.5v-1.6c0-.8.7-1.5 1.5-1.5h2.2c.8 0 1.5-.7 1.5-1.5v-.7c0-.8-.1-1.5-.3-1.5s-.2.6-.2 1.5zm28.6 1.5c-.2.3-.2 1.2-.1 2l.1 1.4c.1.8.1 2.2 0 3l-1 7.1c-.1.8 0 1.5.2 1.5s.5-.7.6-1.5l.9-7.1c.1-.8.1-2.2 0-3l-.3-2.5c0-.8-.2-1.2-.4-.9zm-21 11c0 .2.7.3 1.5.3h.4c.8 0 1.5-.2 1.5-.3 0-.2-.7-.3-1.5-.3h-.4c-.8 0-1.5.1-1.5.3zm2.7-27.9c.4.2 1.4.5 2.2.7l5.8 1c.8.3 1.4.4 1.5.3.1-.2-.5-.5-1.3-.8l-7.4-1.3c-.9-.2-1.2-.1-.8.1zm-.1 6.4c.3-.2-.1-.4-.9-.4h-.3c-.8 0-1.5.2-1.5.4s.5.3 1 .3c.6.1 1.3 0 1.7-.3zm32.5-6.1c0 .4.8.8 1.6.8h.7c.8 0 1.6 0 1.7.1.1 0 .6.4.8.3s0-.4-.3-.6-1.3-.4-2.1-.4h-.1c-.8 0-1.6-.7-1.7-1.5l-.9-8.3c-.1-.8-.3-1.5-.5-1.4-.2 0-.3.7-.2 1.5l.7 6.5c.1.8-.5 1.5-1.3 1.5h-2.4c-.8 0-1.5.2-1.5.3 0 .2.7.3 1.5.3h2.5c.8.1 1.5.5 1.5.9zm-1 16.4c.1.8-.2 2.1-.6 2.8l-.6.7c-.2.8-.2 1.5 0 1.5s.5-.6.8-1.4c0 0 .1-.3.4-.8.3-.4.6-.8.7-.8s.1-.7.1-1.5l-.3-3.8c-.1-.8.6-1.5 1.4-1.5h5.6c.8 0 1.5-.2 1.5-.3 0-.2-.7-.3-1.5-.3H176c-.8 0-1.5.7-1.4 1.5l.2 3.9zm11.8-2.9c0 .2.7.3 1.5.3h3.8c.8 0 1.8-.2 2.1-.4.4-.2 0-.4-.9-.3h-5c-.8.1-1.5.2-1.5.4zm3.2-9.8c.2.2 1.1.3 1.9.3h1.1c.8 0 1.5-.2 1.5-.3 0-.2-.7-.3-1.5-.3H191c-.9-.1-1.4.1-1.2.3zm-19.2 24.5c0 .2.6.4 1.5.5l8.3.6c.8.1 1.5 0 1.5-.2s-.6-.4-1.5-.5l-8.3-.6c-.8-.1-1.4 0-1.5.2zm48.6-14.9c-.8 0-1.5.2-1.5.4s.7.3 1.5.3l10.2 1.1c.8.1 1.5 0 1.6-.2.1-.2-.5-.4-1.4-.5l-10.4-1.1zM250.9 13c-.2.1-.3.8-.3 1.6l.9 4.7c-.4.7-.5 1.4-.3 1.5s.6-.5 1-1.2l-.9-5.2c0-.9-.2-1.5-.4-1.4zm-5.4-8.8c-.7 0-1.5-.6-1.8-1.4s-.6-1.3-.8-1.3c-.2.1-.1.7.1 1.5l.1.4c.2.8 1 1.4 1.8 1.4s1.6.6 1.8 1.4l.3 1c.3.8.6 1.4.8 1.3s.1-.8-.2-1.5l-.5-1.5c0-.6-.8-1.3-1.6-1.3zm27.7 20.3c-.8 0-1.5.2-1.5.3s.7.3 1.5.3h9.6c.8 0 1.5-.2 1.5-.3s-.7-.3-1.5-.3h-9.6zm7.2-16.4c.2-.1.2-.7-.1-1.5l-1-3.5c-.2-.8-.5-1.4-.7-1.4-.2.1-.2.7.1 1.5l1 3.5c.2.8.5 1.4.7 1.4z" class="st0" opacity=".44"/><path d="M47.9 7.9H51c.8 0 .8-.1 0-.3l-1-.2c-.8-.2-1.4 0-1.4.3l-.7.2zm-17.6 31c-.3-.4-1.3-.6-2.1-.5l-1.8.2c-.8.1-.8.3 0 .4l3 .3c.9.2 1.3-.1.9-.4zM60 42.7c-.2-.4-1.1-.6-1.9-.5l-3.9.3c-.8.1-.8.2 0 .3l4.7.4c.8.1 1.3-.1 1.1-.5zm35.9-1.4c-.1-.3.5-.6 1.3-.5h1c.8 0 .8.2.1.5l-.7.2c-.9.2-1.6.1-1.7-.2zM137 39c-.1-.5-.8-.8-1.6-.7l-2.7.4c-.8.1-.8.3 0 .4l3 .5c.7.2 1.3-.1 1.3-.6zm3.4 1.7c0-.5.6-.8 1.4-.7h.1c.8.1.9.5.1.8l-.2.1c-.7.4-1.4.3-1.4-.2zm-26-8c-.1-.7-.3-.8-.4-.1s0 1.8.2 2.6l.2.6c.2.8.4.8.3-.1v-.3c-.1-.8-.2-2-.3-2.7zm13.7.5c-.2-.3-.3.1-.2 1v.4c0 .8.2 1 .3.3 0-.7 0-1.4-.1-1.7zm-27.7-.3c0-.7-.2-.7-.3 0-.1.7 0 1.9.2 2.7l.2.7c.3.8.4.8.2-.1l-.1-.5c0-.9-.1-2.1-.2-2.8zm-22.2.5c-.1-.3-.3-.2-.5.1-.1.4 0 1 .3 1.5.3.4.5.4.5-.1s-.1-1.2-.3-1.5zm-15.5-.5c-.2-.7-.4-.6-.6.2-.2.8.1 1.9.7 2.5.6.6.9.5.6-.2s-.5-1.8-.7-2.5zm-27.9-1c-.2-.3.3-.5 1.1-.4l2.4.2c.8.1.8.2 0 .3l-1.6.2c-.8.1-1.6 0-1.9-.3zm127.1.5c.1-.8.4-.8.5 0l.1.3c.2.8.1 2.1-.1 2.9l-.3 1.1c-.2.8-.4.8-.4 0v-1c0-.8.1-2.2.2-3v-.3zm-9.3-18c0 .4-.6.3-1.2-.2l-.4-.3c-.7-.5-.6-.7.2-.5.7.2 1.4.7 1.4 1zm45.5 23.7c.1-.3-.5-.6-1.3-.5h-1.1c-.8 0-.8.2-.1.4l.8.2c.9.3 1.6.3 1.7-.1zm-5.8-4.9c-.2-.5-.4-.2-.4.6v.2c0 .8.2 1.2.4.8s.2-1.1 0-1.6zm20.7 6.4c.1-.4-.4-.6-1.3-.5l-2.8.2c-.8.1-.8.2 0 .3l2.4.4c.8.1 1.5-.1 1.7-.4zm-3-6.2c-.1-.4-.3-.4-.4-.1-.1.4-.1 1.1.1 1.7.1.6.3.6.4.1.1-.6.1-1.4-.1-1.7zm41.3-12.5c-.3-.1-.3-.8.1-1.5.3-.7.6-.7.5.2 0 .9-.3 1.4-.6 1.3zm-19.5 17.9c.3-.4 1.2-.5 2-.4l4 .6c.8.1.8.2 0 .3l-5 .1c-.9 0-1.3-.3-1-.6zm38.2 0c.4-.5 1.3-.7 2.1-.6l3.7.7c.8.2.8.3 0 .4l-4.9.3c-.9 0-1.3-.3-.9-.8zm1.5-14c-.2-.5.4-.9 1.2-.8l3.3.5c.8.1.8.3 0 .5l-2.8.5c-.7.2-1.5-.2-1.7-.7z" class="st0"/><g class="st12"><path d="M267.6 8.6c-.3-.2-.5-1.1-.5-1.9v-.2c0-.8.1-.8.3 0l.3 1.1c.2.8.2 1.2-.1 1z" class="st0"/></g><path d="M230.5 28.1l-2.1-.8c-.8-.3-.7-.5.1-.4l2.2.2" class="st0"/><g class="st12"><path d="M150.5 34.9c.2-.4.2-1.2 0-1.6-.2-.4-1-.8-1.8-.8h-.9c-.8 0-1.7.4-2 .9s.1 1.1.9 1.3l2 .6c.9.2 1.7 0 1.8-.4z" class="st0"/></g><path d="M149.1 33.7c-.5-.6-.5-1 .1-1s1.3.3 1.6.6c.3.4.2 1.2-.3 1.9l-.2.3c-.4.7-.7.8-.5.3.2-.6-.1-1.5-.7-2.1zM96.4 7.5c.1-.5.8-.7 1.6-.5l.4.1c.8.2.8.5 0 .7l-.6.2c-.8.2-1.4-.1-1.4-.5zm-37.7 6.3c-.2.3-.9.4-1.7.2l-.5-.1c-.8-.2-.8-.4 0-.4l1-.1c.8 0 1.4.2 1.2.4zM28.4 26.7c.1-.4-.4-.6-1.2-.4l-1.3.2c-.8.2-.8.4 0 .5l.8.1c.8.2 1.5 0 1.7-.4z" class="st0"/><path d="M30.7 39c-.3-.3-.3-1.2 0-2l.3-1c.2-.8.4-.8.4.1l-.1 2c-.1.8-.3 1.2-.6.9zm29.1 3.9c-.3-.2-.3-.9 0-1.6s.5-.6.5.2v.2c0 .8-.2 1.3-.5 1.2zm26.3-17.6c0-.5.2-.3.5.5l.2.5c.3.8.3 1.1 0 .7s-.7-1.2-.7-1.7zm146 13.9c.3-.2.3-1.1.1-1.8l-.3-1.2c-.2-.8-.4-.8-.4.1v1.9c.1.8.3 1.3.6 1zm38.5-.2c.4-.2.5-1 .1-1.8l-1.5-3.3c-.3-.7-.5-.7-.4.1l.7 3.9c.2.9.7 1.3 1.1 1.1zm1.6-14.3c-.2-.3-.6 0-1 .8l-1.6 3.3c-.4.7-.3.8.2.1l1.7-2.4c.6-.6.9-1.4.7-1.8z" class="st10"/><path d="M247.2 8.8l.1-1.9c0-.8.2-.8.4 0l.6 2.2" class="st0"/><path d="M25.2 39.8c-.7-.2-.7-.4.1-.3.8.1 2 .2 2.6.3.6.1.6.2-.1.3-.7.1-1.9 0-2.6-.3zm36.9-4.1c-.6-.6-.7-.5-.2.2l.6.8c.5.7 1.2 1.5 1.7 1.7.4.3.4.1-.1-.5s-1.4-1.5-2-2.2zm15-1.6c-.2 0-.1.6.2 1.2.3.7.5.7.4 0-.2-.7-.4-1.2-.6-1.2zm21.4 7.4c-.6-.1-.5-.2.3-.4l.9-.2c.8-.1 1.1-.1.7.2-.4.3-1.2.5-1.9.4zm15-6.2c-.3-.4-.4-.2-.2.6.2.7.6 1.9.9 2.5s.5.5.3-.3l-.1-.6c-.2-.8-.6-1.8-.9-2.2zm49.5 1.3c-.1-.5-.3-.4-.5.2-.2.6-.3 1.7-.3 2.4 0 .8.2.8.5 0l.1-.3c.2-.8.3-1.9.2-2.3zm-16.5-3.2c-.2-.5-.5-.4-.8.2-.3.6.1 1.4.8 1.7.7.4 1.1.3.8-.2-.2-.5-.6-1.3-.8-1.7zm27.7 8.4c-.7-.2-.7-.3.2-.3h.3c.8 0 2.1.2 2.8.5.7.3.7.4-.2.4h-.3c-.8-.3-2.1-.5-2.8-.6zm18.7-6.5c-.1-.3-.3 0-.5.6s-.2.8.1.5.5-.8.4-1.1zm18-.7c-.1-.3-.3 0-.5.6s-.2.8.1.5c.3-.3.5-.8.4-1.1zm-2.9 5.5c-.8-.2-.8-.3 0-.4l.6-.1c.8-.1 1.8.1 2.2.3.4.3.3.5-.3.5s-1.6-.2-2.5-.3zm26.5-.1c-.7.1-.7-.1 0-.3.7-.2 2-.4 2.8-.3l1.1.1c.8.1.8.2 0 .2l-1.1.1c-.8 0-2.1.1-2.8.2z" fill="#5a5558"/><path d="M251.5 21.2c-.4.2-1 .9-1.3 1.7-.3.8-.2.8.3.2l.8-1c.5-.7.6-1.1.2-.9z" class="st10"/><path d="M280.5 8.4c-.4 0-.7-.7-.8-1.5l-.1-.6c-.1-.8.1-.9.5-.1l.4.9c.3.7.3 1.3 0 1.3zm-110.1 3.3c0-.4.6-.7 1.4-.7h.5c.8 0 .9.3.1.6l-.6.3c-.8.3-1.4.3-1.4-.2zm-41 1.6c-.3-.2-.5.4-.4 1.2l.1.6c.1.8.3.8.5 0V15c.2-.8.1-1.6-.2-1.7zM92.7 24.6c-.1-.3.5-.6 1.3-.6h3.2c.8 0 .8.1 0 .3l-2.9.6c-.7.2-1.5 0-1.6-.3zm-65 6.4c0-.2-.6-.4-1.4-.4h-.8c-.8 0-.8.2 0 .4l.7.2c.8.1 1.4.1 1.5-.2z" class="st0"/><path d="M16.1 33.7c-.8 0-1.4.1-1.2.3.2.2 1 .3 1.8.3h6.1c.8 0 1.6-.2 1.8-.3.2-.2-.4-.3-1.2-.3h-7.3zm27.6 0c-.8 0-1.4.1-1.2.3.2.2 1 .3 1.8.3h6.1c.8 0 1.6-.2 1.8-.3.2-.2-.4-.3-1.2-.3h-7.3zm15.6-.1c-.8 0-1.5.2-1.4.3.1.2.8.3 1.6.3h.1c.8 0 1.5-.2 1.6-.4.1-.2-.6-.3-1.4-.3l-.5.1zM31.5 20c-.8 0-1.5.2-1.4.3.1.2.8.3 1.6.3h.1c.8 0 1.5-.2 1.6-.3s-.5-.3-1.3-.3h-.6zM43 20c-.8 0-1.5.2-1.4.3.1.2.8.3 1.6.3h.1c.8 0 1.5-.2 1.6-.3s-.6-.3-1.4-.3H43zm-22.9 1.9c-.8 0-1.5.2-1.4.3 0 .2.7.3 1.5.3s1.4-.2 1.5-.3c0-.2-.6-.3-1.4-.3h-.2zm13.7 4.6c-.8 0-1.4.2-1.3.3.1.2.9.3 1.7.3h2.7c.8 0 1.6-.2 1.7-.4s-.5-.3-1.3-.3l-3.5.1zM27.5 6.6c-.8 0-1.4.2-1.3.3.1.2.9.3 1.7.3h2.7c.8 0 1.6-.2 1.7-.3.1-.2-.5-.3-1.3-.3h-3.5zm47.7 27c-.8 0-1.5.2-1.4.3.1.2.8.3 1.6.3h.1c.8 0 1.5-.2 1.6-.4s-.6-.3-1.4-.3l-.5.1zm27.1 0c-.8 0-1.5.2-1.4.3 0 .2.7.3 1.5.3s1.4-.2 1.5-.4c0-.2-.6-.3-1.4-.3l-.2.1zm-22.1 0c-.8 0-1.4.2-1.3.3.1.2.8.3 1.7.3h2c.8 0 1.6-.2 1.7-.4s-.5-.3-1.3-.3l-2.8.1zm14.5 0c-.8 0-1.4.2-1.3.3.1.2.9.3 1.7.3h2.6c.8 0 1.6-.2 1.7-.4.1-.2-.5-.3-1.3-.3l-3.4.1zm15.9 0c-.8 0-1.4.2-1.4.3.1.2.8.3 1.6.3h1.1c.8 0 1.6-.2 1.6-.4s-.5-.3-1.4-.3l-1.5.1zm31.5 0c-.8 0-1.4.2-1.4.3.1.2.8.3 1.6.3h1.1c.8 0 1.6-.2 1.6-.4.1-.2-.5-.3-1.4-.3l-1.5.1zm22.5 0c-.8 0-1.4.2-1.4.3.1.2.8.3 1.6.3h.6c.8 0 1.5-.2 1.6-.4.1-.2-.6-.3-1.4-.3l-1 .1zm11.2 0c-.8 0-1.4.2-1.2.3.1.2.9.3 1.7.3h4.9c.8 0 1.6-.2 1.7-.4.1-.2-.4-.3-1.2-.3l-5.9.1zm13.8 0c-.8 0-1.4.2-1.4.3.1.2.8.3 1.6.3h.2c.8 0 1.5-.2 1.6-.4.1-.2-.6-.3-1.4-.3l-.6.1zm4.9 0c-.8 0-1.4.2-1.3.3.1.2.8.3 1.7.3h2.1c.8 0 1.6-.2 1.7-.4s-.5-.3-1.3-.3l-2.9.1zm11.1 0c-.8 0-1.4.2-1.4.3.1.2.8.3 1.6.3h1.3c.8 0 1.6-.2 1.6-.4.1-.2-.5-.3-1.4-.3l-1.7.1zm6.5 0c-.8 0-1.4.2-1.4.3.1.2.8.3 1.6.3h.5c.8 0 1.5-.2 1.6-.4s-.6-.3-1.4-.3l-.9.1zm9.3 0c-.8 0-1.4.1-1.2.3.2.2 1 .3 1.8.3h6.7c.8 0 1.6-.2 1.8-.4s-.4-.3-1.2-.3l-7.9.1zm15.7 0c-.8 0-1.4.1-1.2.3.2.2 1 .3 1.8.3h6.7c.8 0 1.6-.2 1.8-.4s-.4-.3-1.2-.3l-7.9.1zm39.8 0c-.8 0-1.4.1-1.2.3.2.2 1 .3 1.8.3h6.7c.8 0 1.6-.2 1.8-.4s-.4-.3-1.2-.3l-7.9.1zM262.3 7.1c-.8 0-1.4.2-1.3.3.1.2.9.3 1.7.3h2.5c.8 0 1.6-.2 1.7-.3.1-.2-.5-.3-1.3-.3h-3.3zm-12.4 0c-.8 0-1.4.2-1.3.3.1.2.9.3 1.7.3h3.3c.8 0 1.6-.2 1.7-.3s-.5-.4-1.4-.4l-4 .1zm-6.3 0c-.8 0-1.4.2-1.4.3s.8.3 1.6.3h1.4c.8 0 1.6-.2 1.6-.3s-.5-.3-1.4-.3h-1.8zm2.1 12.9c-.8 0-1.4.2-1.3.3.1.2.9.3 1.7.3h2.6c.8 0 1.6-.2 1.7-.3.1-.2-.5-.3-1.3-.3h-3.4zM207.3 6.2c-.8 0-1.4.2-1.4.3s.8.3 1.6.3h1.4c.8 0 1.6-.2 1.6-.4.1-.2-.5-.3-1.4-.3l-1.8.1zm8.9 0c-.8 0-1.4.2-1.4.3.1.2.8.3 1.6.3h1.4c.8 0 1.6-.2 1.6-.4.1-.2-.5-.3-1.4-.3l-1.8.1zm-5.7 5.7c-.7 0-1.2.2-1.1.3s.6.3 1.1.3 1.1-.2 1.1-.3c.1-.2-.4-.3-1.1-.3zm3.2-1.8c-.8 0-1.5.2-1.4.3s.7.3 1.4.3 1.4-.2 1.4-.4-.5-.3-1.4-.2zm-39.7.3c-.8 0-1.5.2-1.4.3s.7.3 1.4.3 1.4-.2 1.4-.4c.1-.1-.5-.2-1.4-.2zm10 9.3c-.8 0-1.4.2-1.4.3s.8.3 1.6.3h.3c.8 0 1.5-.2 1.6-.3.1-.2-.6-.3-1.4-.3h-.7zm-7 3.3c-.8 0-1.4.2-1.3.3s.8.3 1.7.3h2c.8 0 1.6-.2 1.7-.3s-.5-.3-1.3-.3H177zm98.9.7c-.8 0-1.4.2-1.3.3.1.2.8.3 1.7.3h2c.8 0 1.6-.2 1.7-.3.1-.2-.5-.3-1.3-.3h-2.8zm-164.6 2.6c-.8 0-1.4.2-1.4.3.1.2.8.3 1.6.3h.8c.8 0 1.6-.2 1.6-.3.1-.2-.6-.3-1.4-.3h-1.2zm-13.9-2.8c-.8 0-1.4.2-1.4.3s.8.3 1.6.3h.8c.8 0 1.6-.2 1.6-.3.1-.2-.6-.3-1.4-.3h-1.2zm-20-.2c-.8 0-1.4.2-1.4.3.1.2.8.3 1.6.3h.8c.8 0 1.6-.2 1.6-.3.1-.2-.6-.3-1.4-.3h-1.2zM47.3 12.6c-.8 0-1.4.2-1.3.3.1.2.8.3 1.7.3h2.2c.8 0 1.6-.2 1.7-.3.1-.2-.5-.3-1.3-.3h-3zm56.6-5.1c-.8-.1-1.5 0-1.4.1s.7.4 1.6.5l.8.1c.8.1 1.6.1 1.7-.1.1-.2-.5-.4-1.3-.5l-1.4-.1zm85.8 17.7c-.8 0-1.4.2-1.4.3.1.2.8.3 1.6.3h.8c.8 0 1.6-.2 1.6-.3.1-.2-.6-.3-1.4-.3h-1.2zm25.1-2.5c-.8 0-1.4.2-1.4.3s.8.3 1.6.3h.8c.8 0 1.6-.2 1.6-.4.1-.2-.6-.3-1.4-.3l-1.2.1zM154.3 6.9c-.8 0-1.3.1-1.1.3.2.2 1.1.3 1.9.3h8.9c.8 0 1.7-.2 1.9-.3.2-.2-.3-.3-1.1-.3h-10.5zm-29.9.1c-.8 0-1.3.1-1.1.3s1.1.3 1.9.3h9.2c.8 0 1.7-.2 1.9-.3.2-.2-.3-.3-1.1-.3h-10.8zm-1.6 12.7c-.8 0-1.4.2-1.3.3s.9.3 1.7.3h3.7c.8 0 1.6-.2 1.7-.3s-.5-.3-1.3-.3h-4.5zm8 0c-.8 0-1.4.2-1.3.3.1.2.9.3 1.7.3h3.3c.8 0 1.6-.2 1.7-.3.1-.2-.5-.3-1.3-.3h-4.1zm17.3 12.2c-.8 0-1.5.2-1.4.3.1.2.8.3 1.6.3s1.5-.2 1.6-.3c.1-.2-.6-.3-1.4-.3h-.4zm-2.4-20.5c-.8-.1-1.4 0-1.4.1.1.2.8.4 1.6.5l1.5.2c.8.1 1.6.1 1.7-.1.1-.2-.5-.4-1.3-.5l-2.1-.2zm75.2 13.8c-.8-.1-1.4 0-1.4.1.1.2.8.4 1.6.5l1.5.2c.8.1 1.6.1 1.7-.1s-.5-.4-1.3-.5l-2.1-.2zm-2.8-13.3c-.6 0-1.1.2-1.1.3s.5.3 1.1.3 1-.2 1.1-.3-.5-.3-1.1-.3zm35.5 8.1c-.8 0-1.4.2-1.3.3.1.2.9.3 1.7.3h3.3c.8 0 1.6-.2 1.7-.3.1-.2-.5-.3-1.3-.3h-4.1zm28.9-12.9c-.8 0-1.4.2-1.4.3s.8.3 1.6.3h1.5c.8 0 1.6-.2 1.6-.3s-.5-.3-1.4-.3h-1.9zM153.1 33.6c-.8 0-1.4.1-1.2.3.2.2.9.3 1.8.3h5.6c.8 0 1.6-.2 1.8-.4s-.4-.3-1.2-.3l-6.8.1zm-36.7 0c-.8 0-1.3.1-1.1.3.2.2 1 .3 1.9.3h8.3c.8 0 1.7-.2 1.9-.4s-.3-.3-1.1-.3l-9.9.1zm13.6 0c-.8 0-1.4.2-1.3.3.1.2.9.3 1.7.3h3.2c.8 0 1.6-.2 1.7-.4s-.5-.3-1.3-.3l-4 .1zm-64.8.1c-.8 0-1.4.2-1.4.3.1.2.8.3 1.6.3h1.3c.8 0 1.6-.2 1.6-.3.1-.2-.5-.3-1.4-.3h-1.7z" fill="#e0dbd6"/><path d="M300.3 63.8l-3.2-9.8h-4.7l-.9-2.7 4.1-2-3-9.2h-22.1l-4.6 2.9-.7-2.9h-8.4l-8.6 6-1.3-6h-8.6l-10.4 8.8 1.8 9.8h-7.3l-2.9-18.6h-8.9l-3.7 4.5h-.4l-.6-4.5h-23.1l-4.1 9.2 1.7 25.4h8.7l5.6-6.6-.2-2.3h6.7l3.7-3.9 1.6 12.8h25.6l4.4-2.4.5 2.4h16.7l4.5-1.9.5 1.9h20.9l17.5-6-1.1-3.4zM173.4 54l1.7-5.4-.4-8.5h-24l.1 4.5h-3.3l-.3-4.5h-10l-.2 4.5h-7.1l-1.5-4.5h-9.6l-1.3 18.6h-11.8l1.1-9.6-6.3-9h-9l-.7 4.7-4.1-4.7h-18l-.7 3.7-4.3-3.7h-27l-.7 2.8-4.5-2.8H9.4L0 68.8l18 5.9h7.8l.9-3.3 8.7 3.3h7.8l.1-.2.6.2h25.4l.1-.2.4.2H78l.7-4.4h2l6.4 4.4h8.3v-.1l.2.1h34.5l.5-8.9h5.8v1.9l1.8 7h30.5l1.6-4.4h2.4l3.2-7.4-.5-8.9z" class="st0"/><defs><path id="SVGID_10_" d="M203.6 51.2l-5.5 6.8-.2-2.7 5.3-7z"/></defs><use overflow="visible" xlink:href="#SVGID_10_"/><clipPath id="SVGID_11_"><use overflow="visible" xlink:href="#SVGID_10_"/></clipPath><path d="M203.6 51.2l-5.5 6.8-.2-2.7 5.3-7z" clip-path="url(#SVGID_11_)"/><defs><path id="SVGID_12_" d="M126.9 42.1l2.5 7.6-.2 4.1-2.5-7.2z"/></defs><use overflow="visible" xlink:href="#SVGID_12_"/><clipPath id="SVGID_13_"><use overflow="visible" xlink:href="#SVGID_12_"/></clipPath><path d="M126.9 42.1l2.5 7.6-.2 4.1-2.5-7.2z" clip-path="url(#SVGID_13_)"/><defs><path id="SVGID_14_" d="M24.8 57.7L38 63.8H26.7l-14.5-6.1z"/></defs><use fill="#500039" overflow="visible" xlink:href="#SVGID_14_"/><clipPath id="SVGID_15_"><use overflow="visible" xlink:href="#SVGID_14_"/></clipPath><path fill="#500039" d="M24.8 57.7L38 63.8H26.7l-14.5-6.1z" clip-path="url(#SVGID_15_)"/><defs><path id="SVGID_16_" d="M27.5 48.3l12.6 7h-11l-13.9-7z"/></defs><use overflow="visible" xlink:href="#SVGID_16_"/><clipPath id="SVGID_17_"><use overflow="visible" xlink:href="#SVGID_16_"/></clipPath><path d="M27.5 48.3l12.6 7h-11l-13.9-7z" clip-path="url(#SVGID_17_)"/><defs><path id="SVGID_18_" d="M26.6 51.2l.9-2.9 12.6 7-.6 2.7z"/></defs><use overflow="visible" xlink:href="#SVGID_18_"/><clipPath id="SVGID_19_"><use overflow="visible" xlink:href="#SVGID_18_"/></clipPath><path d="M26.6 51.2l.9-2.9 12.6 7-.6 2.7z" clip-path="url(#SVGID_19_)"/><defs><path id="SVGID_20_" d="M14.2 51.2h12.4L39.5 58H28.3z"/></defs><use overflow="visible" xlink:href="#SVGID_20_"/><clipPath id="SVGID_21_"><use overflow="visible" xlink:href="#SVGID_20_"/></clipPath><path d="M14.2 51.2h12.4L39.5 58H28.3z" clip-path="url(#SVGID_21_)"/><defs><path id="SVGID_22_" d="M27.9 52.9l12.7 6.6-.7 2.8L27 56z"/></defs><use overflow="visible" xlink:href="#SVGID_22_"/><clipPath id="SVGID_23_"><use overflow="visible" xlink:href="#SVGID_22_"/></clipPath><path d="M27.9 52.9l12.7 6.6-.7 2.8L27 56z" clip-path="url(#SVGID_23_)"/><defs><path id="SVGID_24_" d="M31.7 56l12.5 6.3-2.5 10.4-13.1-5.2z"/></defs><use overflow="visible" xlink:href="#SVGID_24_"/><clipPath id="SVGID_25_"><use overflow="visible" xlink:href="#SVGID_24_"/></clipPath><path d="M31.7 56l12.5 6.3-2.5 10.4-13.1-5.2z" clip-path="url(#SVGID_25_)"/><defs><path id="SVGID_26_" d="M12.2 57.7l14.5 6.1-2.4 8.9-15.1-5.2z"/></defs><use overflow="visible" xlink:href="#SVGID_26_"/><clipPath id="SVGID_27_"><use overflow="visible" xlink:href="#SVGID_26_"/></clipPath><path d="M12.2 57.7l14.5 6.1-2.4 8.9-15.1-5.2z" clip-path="url(#SVGID_27_)"/><defs><path id="SVGID_28_" d="M30.9 42.1L43 49.7l-1 4.1-12.4-7.2z"/></defs><use overflow="visible" xlink:href="#SVGID_28_"/><clipPath id="SVGID_29_"><use overflow="visible" xlink:href="#SVGID_28_"/></clipPath><path d="M30.9 42.1L43 49.7l-1 4.1-12.4-7.2z" clip-path="url(#SVGID_29_)"/><defs><path id="SVGID_30_" d="M34.3 46.6l11.9 7.2-1.4 5.7-12.2-6.6z"/></defs><use overflow="visible" xlink:href="#SVGID_30_"/><clipPath id="SVGID_31_"><use overflow="visible" xlink:href="#SVGID_30_"/></clipPath><path d="M34.3 46.6l11.9 7.2-1.4 5.7-12.2-6.6z" clip-path="url(#SVGID_31_)"/><defs><path id="SVGID_32_" d="M15.2 48.3l13.9 7-.8 2.7-14.1-6.8z"/></defs><use overflow="visible" xlink:href="#SVGID_32_"/><clipPath id="SVGID_33_"><use overflow="visible" xlink:href="#SVGID_32_"/></clipPath><path d="M15.2 48.3l13.9 7-.8 2.7-14.1-6.8z" clip-path="url(#SVGID_33_)"/><defs><path id="SVGID_34_" d="M293.1 48.3l-14.6 7h-16.7l12.7-7z"/></defs><use overflow="visible" xlink:href="#SVGID_34_"/><clipPath id="SVGID_35_"><use overflow="visible" xlink:href="#SVGID_34_"/></clipPath><path d="M293.1 48.3l-14.6 7h-16.7l12.7-7z" clip-path="url(#SVGID_35_)"/><defs><path id="SVGID_36_" d="M289.7 57.7l-14.5 6.1h-12.8l13-6.1z"/></defs><use overflow="visible" xlink:href="#SVGID_36_"/><clipPath id="SVGID_37_"><use overflow="visible" xlink:href="#SVGID_36_"/></clipPath><path d="M289.7 57.7l-14.5 6.1h-12.8l13-6.1z" clip-path="url(#SVGID_37_)"/><defs><path id="SVGID_38_" d="M274.1 52.9l-12.8 6.6h-4.2l12.3-6.6z"/></defs><use overflow="visible" xlink:href="#SVGID_38_"/><clipPath id="SVGID_39_"><use overflow="visible" xlink:href="#SVGID_38_"/></clipPath><path d="M274.1 52.9l-12.8 6.6h-4.2l12.3-6.6z" clip-path="url(#SVGID_39_)"/><defs><path id="SVGID_40_" d="M297.8 62.5l-15.5 5.8H278l15-5.8z"/></defs><use fill="#500039" overflow="visible" xlink:href="#SVGID_40_"/><clipPath id="SVGID_41_"><use overflow="visible" xlink:href="#SVGID_40_"/></clipPath><path fill="#500039" d="M297.8 62.5l-15.5 5.8H278l15-5.8z" clip-path="url(#SVGID_41_)"/><defs><path id="SVGID_42_" d="M273.3 67.5l-13 5.2-1.5-6.1 12.7-5.9z"/></defs><use overflow="visible" xlink:href="#SVGID_42_"/><clipPath id="SVGID_43_"><use overflow="visible" xlink:href="#SVGID_42_"/></clipPath><path d="M273.3 67.5l-13 5.2-1.5-6.1 12.7-5.9z" clip-path="url(#SVGID_43_)"/><defs><path id="SVGID_44_" d="M275.4 57.7l-13 6.1-1.1-4.3 12.8-6.6z"/></defs><use overflow="visible" xlink:href="#SVGID_44_"/><clipPath id="SVGID_45_"><use overflow="visible" xlink:href="#SVGID_44_"/></clipPath><path d="M275.4 57.7l-13 6.1-1.1-4.3 12.8-6.6z" clip-path="url(#SVGID_45_)"/><defs><path id="SVGID_46_" d="M272.3 46.6l-12.4 7.2-1-4.1 12.2-7.6z"/></defs><use overflow="visible" xlink:href="#SVGID_46_"/><clipPath id="SVGID_47_"><use overflow="visible" xlink:href="#SVGID_46_"/></clipPath><path d="M272.3 46.6l-12.4 7.2-1-4.1 12.2-7.6z" clip-path="url(#SVGID_47_)"/><defs><path id="SVGID_48_" d="M290.7 60.7L276 66.6l-.8-2.8 14.5-6.1z"/></defs><use overflow="visible" xlink:href="#SVGID_48_"/><clipPath id="SVGID_49_"><use overflow="visible" xlink:href="#SVGID_48_"/></clipPath><path d="M290.7 60.7L276 66.6l-.8-2.8 14.5-6.1z" clip-path="url(#SVGID_49_)"/><defs><path id="SVGID_50_" d="M215.1 67.5l-6.8 5.2-2.9-23 6.1-7.6z"/></defs><use overflow="visible" xlink:href="#SVGID_50_"/><clipPath id="SVGID_51_"><use overflow="visible" xlink:href="#SVGID_50_"/></clipPath><path d="M215.1 67.5l-6.8 5.2-2.9-23 6.1-7.6z" clip-path="url(#SVGID_51_)"/><defs><path id="SVGID_52_" d="M61.7 48.3l9.1 7H54.1l-11.1-7z"/></defs><use overflow="visible" xlink:href="#SVGID_52_"/><clipPath id="SVGID_53_"><use overflow="visible" xlink:href="#SVGID_52_"/></clipPath><path d="M61.7 48.3l9.1 7H54.1l-11.1-7z" clip-path="url(#SVGID_53_)"/><defs><path id="SVGID_54_" d="M50.2 57.7l10.5 6.1h-8.5l-11.5-6.1z"/></defs><use overflow="visible" xlink:href="#SVGID_54_"/><clipPath id="SVGID_55_"><use overflow="visible" xlink:href="#SVGID_54_"/></clipPath><path d="M50.2 57.7l10.5 6.1h-8.5l-11.5-6.1z" clip-path="url(#SVGID_55_)"/><defs><path id="SVGID_56_" d="M81 62.5l7.4 5.8H77l-8.7-5.8z"/></defs><use fill="#500039" overflow="visible" xlink:href="#SVGID_56_"/><clipPath id="SVGID_57_"><use overflow="visible" xlink:href="#SVGID_56_"/></clipPath><path fill="#500039" d="M81 62.5l7.4 5.8H77l-8.7-5.8z" clip-path="url(#SVGID_57_)"/><defs><path id="SVGID_58_" d="M83.2 48.3l7 7H79.1l-8.2-7z"/></defs><use overflow="visible" xlink:href="#SVGID_58_"/><clipPath id="SVGID_59_"><use overflow="visible" xlink:href="#SVGID_58_"/></clipPath><path d="M83.2 48.3l7 7H79.1l-8.2-7z" clip-path="url(#SVGID_59_)"/><defs><path id="SVGID_60_" d="M173.1 48.3l-2.3 7h-16.7l.4-7z"/></defs><use overflow="visible" xlink:href="#SVGID_60_"/><clipPath id="SVGID_61_"><use overflow="visible" xlink:href="#SVGID_60_"/></clipPath><path d="M173.1 48.3l-2.3 7h-16.7l.4-7z" clip-path="url(#SVGID_61_)"/><defs><path id="SVGID_62_" d="M173.8 62.5l-2.4 5.8h-4.3l1.9-5.8z"/></defs><use fill="#500039" overflow="visible" xlink:href="#SVGID_62_"/><clipPath id="SVGID_63_"><use overflow="visible" xlink:href="#SVGID_62_"/></clipPath><path fill="#500039" d="M173.8 62.5l-2.4 5.8h-4.3l1.9-5.8z" clip-path="url(#SVGID_63_)"/><defs><path id="SVGID_64_" d="M167.1 57.7l-1.7 6.1h-12.8l.2-6.1z"/></defs><use overflow="visible" xlink:href="#SVGID_64_"/><clipPath id="SVGID_65_"><use overflow="visible" xlink:href="#SVGID_64_"/></clipPath><path d="M167.1 57.7l-1.7 6.1h-12.8l.2-6.1z" clip-path="url(#SVGID_65_)"/><defs><path id="SVGID_66_" d="M152.8 52.9l-.2 6.6h-4.2l-.3-6.6z"/></defs><use overflow="visible" xlink:href="#SVGID_66_"/><clipPath id="SVGID_67_"><use overflow="visible" xlink:href="#SVGID_66_"/></clipPath><path d="M152.8 52.9l-.2 6.6h-4.2l-.3-6.6z" clip-path="url(#SVGID_67_)"/><defs><path id="SVGID_68_" d="M206.1 57.7l-5.8 6.1h-12.8l4.3-6.1z"/></defs><use fill="#500039" overflow="visible" xlink:href="#SVGID_68_"/><clipPath id="SVGID_69_"><use overflow="visible" xlink:href="#SVGID_68_"/></clipPath><path fill="#500039" d="M206.1 57.7l-5.8 6.1h-12.8l4.3-6.1z" clip-path="url(#SVGID_69_)"/><defs><path id="SVGID_70_" d="M248 62.5l-10.2 5.8h-4.3l9.7-5.8z"/></defs><linearGradient id="SVGID_71_" x1="240.7376" x2="240.7376" y1="74.0534" y2="65.5433" gradientUnits="userSpaceOnUse"><stop offset="0" stop-color="#3942bd"/><stop offset="1" stop-color="#500039"/></linearGradient><use fill="url(#SVGID_71_)" overflow="visible" xlink:href="#SVGID_70_"/><clipPath id="SVGID_72_"><use overflow="visible" xlink:href="#SVGID_70_"/></clipPath><linearGradient id="SVGID_73_" x1="240.7376" x2="240.7376" y1="74.0534" y2="65.5433" gradientUnits="userSpaceOnUse"><stop offset="0" stop-color="#3942bd"/><stop offset="1" stop-color="#500039"/></linearGradient><path fill="url(#SVGID_73_)" d="M248 62.5l-10.2 5.8h-4.3l9.7-5.8z" clip-path="url(#SVGID_72_)"/><defs><path id="SVGID_74_" d="M269 62.5l-12.4 5.8h-4.3l11.9-5.8z"/></defs><use fill="#500039" overflow="visible" xlink:href="#SVGID_74_"/><clipPath id="SVGID_75_"><use overflow="visible" xlink:href="#SVGID_74_"/></clipPath><path fill="#500039" d="M269 62.5l-12.4 5.8h-4.3l11.9-5.8z" clip-path="url(#SVGID_75_)"/><defs><path id="SVGID_76_" d="M138.8 52.9l1.3 6.6h-2.8l-1.5-6.6z"/></defs><use overflow="visible" xlink:href="#SVGID_76_"/><clipPath id="SVGID_77_"><use overflow="visible" xlink:href="#SVGID_76_"/></clipPath><path d="M138.8 52.9l1.3 6.6h-2.8l-1.5-6.6z" clip-path="url(#SVGID_77_)"/><defs><path id="SVGID_78_" d="M129.3 52.9l2.3 6.6h-2.7l-2.6-6.6z"/></defs><use overflow="visible" xlink:href="#SVGID_78_"/><clipPath id="SVGID_79_"><use overflow="visible" xlink:href="#SVGID_78_"/></clipPath><path d="M129.3 52.9l2.3 6.6h-2.7l-2.6-6.6z" clip-path="url(#SVGID_79_)"/><defs><path id="SVGID_80_" d="M203.2 48.3l-5.3 7h-11.1l4.1-7z"/></defs><use overflow="visible" xlink:href="#SVGID_80_"/><clipPath id="SVGID_81_"><use overflow="visible" xlink:href="#SVGID_80_"/></clipPath><path d="M203.2 48.3l-5.3 7h-11.1l4.1-7z" clip-path="url(#SVGID_81_)"/><defs><path id="SVGID_82_" d="M43 48.3l11.1 7-.6 2.7-11.2-6.8z"/></defs><use overflow="visible" xlink:href="#SVGID_82_"/><clipPath id="SVGID_83_"><use overflow="visible" xlink:href="#SVGID_82_"/></clipPath><path d="M43 48.3l11.1 7-.6 2.7-11.2-6.8z" clip-path="url(#SVGID_83_)"/><defs><path id="SVGID_84_" d="M51.7 51.2L61.9 58l-1.2 5.8-10.5-6.1z"/></defs><use overflow="visible" xlink:href="#SVGID_84_"/><clipPath id="SVGID_85_"><use overflow="visible" xlink:href="#SVGID_84_"/></clipPath><path d="M51.7 51.2L61.9 58l-1.2 5.8-10.5-6.1z" clip-path="url(#SVGID_85_)"/><defs><path id="SVGID_86_" d="M40.7 57.7l11.5 6.1-.6 2.8-11.7-5.9z"/></defs><use overflow="visible" xlink:href="#SVGID_86_"/><clipPath id="SVGID_87_"><use overflow="visible" xlink:href="#SVGID_86_"/></clipPath><path d="M40.7 57.7l11.5 6.1-.6 2.8-11.7-5.9z" clip-path="url(#SVGID_87_)"/><defs><path id="SVGID_88_" d="M59.1 60.7l9.7 5.9-1.1 6.1-10-5.2z"/></defs><use overflow="visible" xlink:href="#SVGID_88_"/><clipPath id="SVGID_89_"><use overflow="visible" xlink:href="#SVGID_88_"/></clipPath><path d="M59.1 60.7l9.7 5.9-1.1 6.1-10-5.2z" clip-path="url(#SVGID_89_)"/><defs><path id="SVGID_90_" d="M89.8 46.6l6.2 7.2-2.3 18.9-6.9-5.2z"/></defs><use overflow="visible" xlink:href="#SVGID_90_"/><clipPath id="SVGID_91_"><use overflow="visible" xlink:href="#SVGID_90_"/></clipPath><path d="M89.8 46.6l6.2 7.2-2.3 18.9-6.9-5.2z" clip-path="url(#SVGID_91_)"/><defs><path id="SVGID_92_" d="M68.3 62.5l8.7 5.8-.7 4.4-9-5.2z"/></defs><use overflow="visible" xlink:href="#SVGID_92_"/><clipPath id="SVGID_93_"><use overflow="visible" xlink:href="#SVGID_92_"/></clipPath><path d="M68.3 62.5l8.7 5.8-.7 4.4-9-5.2z" clip-path="url(#SVGID_93_)"/><defs><path id="SVGID_94_" d="M85.8 42.1l6.6 7.6-.5 4.1-6.8-7.2z"/></defs><use overflow="visible" xlink:href="#SVGID_94_"/><clipPath id="SVGID_95_"><use overflow="visible" xlink:href="#SVGID_94_"/></clipPath><path d="M85.8 42.1l6.6 7.6-.5 4.1-6.8-7.2z" clip-path="url(#SVGID_95_)"/><g><defs><path id="SVGID_96_" d="M70.9 48.3l8.2 7-1.1 7-8.5-6.3z"/></defs><use overflow="visible" xlink:href="#SVGID_96_"/><clipPath id="SVGID_97_"><use overflow="visible" xlink:href="#SVGID_96_"/></clipPath><path d="M70.9 48.3l8.2 7-1.1 7-8.5-6.3z" clip-path="url(#SVGID_97_)"/></g><g><defs><path id="SVGID_98_" d="M99.5 42.1l5.2 7.6-1.8 16.9-5.7-5.9z"/></defs><use overflow="visible" xlink:href="#SVGID_98_"/><clipPath id="SVGID_99_"><use overflow="visible" xlink:href="#SVGID_98_"/></clipPath><path d="M99.5 42.1l5.2 7.6-1.8 16.9-5.7-5.9z" clip-path="url(#SVGID_99_)"/></g><g><defs><path id="SVGID_100_" d="M116.4 60.7l3.7 5.9-.5 6.1-3.7-5.2z"/></defs><use overflow="visible" xlink:href="#SVGID_100_"/><clipPath id="SVGID_101_"><use overflow="visible" xlink:href="#SVGID_100_"/></clipPath><path d="M116.4 60.7l3.7 5.9-.5 6.1-3.7-5.2z" clip-path="url(#SVGID_101_)"/></g><g><defs><path id="SVGID_102_" d="M145.3 42.1l.6 7.6-.3 23-.6-5.2z"/></defs><use overflow="visible" xlink:href="#SVGID_102_"/><clipPath id="SVGID_103_"><use overflow="visible" xlink:href="#SVGID_102_"/></clipPath><path d="M145.3 42.1l.6 7.6-.3 23-.6-5.2z" clip-path="url(#SVGID_103_)"/></g><g><defs><path id="SVGID_104_" d="M135.8 52.9l1.5 6.6-.1 4.3-1.6-6.1z"/></defs><use overflow="visible" xlink:href="#SVGID_104_"/><clipPath id="SVGID_105_"><use overflow="visible" xlink:href="#SVGID_104_"/></clipPath><path d="M135.8 52.9l1.5 6.6-.1 4.3-1.6-6.1z" clip-path="url(#SVGID_105_)"/></g><g><defs><path id="SVGID_106_" d="M126.3 52.9l2.6 6.6-.7 13.2-2.7-5.2z"/></defs><use overflow="visible" xlink:href="#SVGID_106_"/><clipPath id="SVGID_107_"><use overflow="visible" xlink:href="#SVGID_106_"/></clipPath><path d="M126.3 52.9l2.6 6.6-.7 13.2-2.7-5.2z" clip-path="url(#SVGID_107_)"/></g><g><defs><path id="SVGID_108_" d="M131.4 46.6l2 7.2-.2 4.2-2.1-6.8z"/></defs><use overflow="visible" xlink:href="#SVGID_108_"/><clipPath id="SVGID_109_"><use overflow="visible" xlink:href="#SVGID_108_"/></clipPath><path d="M131.4 46.6l2 7.2-.2 4.2-2.1-6.8z" clip-path="url(#SVGID_109_)"/></g><g><defs><path id="SVGID_110_" d="M186 67.5l-3.7 5.2-1.6-23 3.4-7.6z"/></defs><use overflow="visible" xlink:href="#SVGID_110_"/><clipPath id="SVGID_111_"><use overflow="visible" xlink:href="#SVGID_110_"/></clipPath><path d="M186 67.5l-3.7 5.2-1.6-23 3.4-7.6z" clip-path="url(#SVGID_111_)"/></g><g><defs><path id="SVGID_112_" d="M249.1 67.5l-10.5 5.2-.8-4.4 10.2-5.8z"/></defs><use overflow="visible" xlink:href="#SVGID_112_"/><clipPath id="SVGID_113_"><use overflow="visible" xlink:href="#SVGID_112_"/></clipPath><path d="M249.1 67.5l-10.5 5.2-.8-4.4 10.2-5.8z" clip-path="url(#SVGID_113_)"/></g><g><defs><path id="SVGID_114_" d="M262 60.7l-11.6 5.9-3.8-16.9 10.8-7.6z"/></defs><use overflow="visible" xlink:href="#SVGID_114_"/><clipPath id="SVGID_115_"><use overflow="visible" xlink:href="#SVGID_114_"/></clipPath><path d="M262 60.7l-11.6 5.9-3.8-16.9 10.8-7.6z" clip-path="url(#SVGID_115_)"/></g><g><defs><path id="SVGID_116_" d="M269.4 52.9l-12.3 6.6-1.4-5.7 12-7.2z"/></defs><use overflow="visible" xlink:href="#SVGID_116_"/><clipPath id="SVGID_117_"><use overflow="visible" xlink:href="#SVGID_116_"/></clipPath><path d="M269.4 52.9l-12.3 6.6-1.4-5.7 12-7.2z" clip-path="url(#SVGID_117_)"/></g><g><defs><path id="SVGID_118_" d="M62.9 42.1l9 7.6-1.1 5.6-9.1-7z"/></defs><use overflow="visible" xlink:href="#SVGID_118_"/><clipPath id="SVGID_119_"><use overflow="visible" xlink:href="#SVGID_118_"/></clipPath><path d="M62.9 42.1l9 7.6-1.1 5.6-9.1-7z" clip-path="url(#SVGID_119_)"/></g><g><defs><path id="SVGID_120_" d="M167.2 60.7l-1.7 5.9-.1-2.8 1.7-6.1z"/></defs><use overflow="visible" xlink:href="#SVGID_120_"/><clipPath id="SVGID_121_"><use overflow="visible" xlink:href="#SVGID_120_"/></clipPath><path d="M167.2 60.7l-1.7 5.9-.1-2.8 1.7-6.1z" clip-path="url(#SVGID_121_)"/></g><g><defs><path id="SVGID_122_" d="M152.8 57.7l-.2 6.1v-4.3l.2-6.6z"/></defs><use overflow="visible" xlink:href="#SVGID_122_"/><clipPath id="SVGID_123_"><use overflow="visible" xlink:href="#SVGID_122_"/></clipPath><path d="M152.8 57.7l-.2 6.1v-4.3l.2-6.6z" clip-path="url(#SVGID_123_)"/></g><g><linearGradient id="SVGID_124_" x1="18.3876" x2="18.3876" y1="43.0605" y2="67.0879" gradientUnits="userSpaceOnUse"><stop offset="0" stop-color="#ff3ebd"/><stop offset="1" stop-color="#ff4fff"/></linearGradient><path fill="url(#SVGID_124_)" d="M27 56l.9-3h4.7l1.7-6.3h-4.6l1.3-4.5H10.8L2.5 67.5h6.6l3.1-9.8h12.6L22 67.5h6.6L31.7 56H27zm-12.8-4.8l.9-2.9h12.3l-.8 2.9H14.2z"/><linearGradient id="SVGID_125_" x1="282.7281" x2="282.7281" y1="43.0605" y2="67.0879" gradientUnits="userSpaceOnUse"><stop offset="0" stop-color="#ff3ebd"/><stop offset="1" stop-color="#ff4fff"/></linearGradient><path fill="url(#SVGID_125_)" d="M297.8 62.5l-2.2-6.5h-4.7l-1.5-4.8h-14.1l-.8-2.9h18.6l-2-6.2h-20l1.2 4.5h-4.6l1.7 6.3h4.7l1.3 4.8h14.3l1 3h-19.2l1.8 6.8h21.3l-1.6-5z"/><linearGradient id="SVGID_126_" x1="47.275" x2="47.275" y1="43.0605" y2="67.0879" gradientUnits="userSpaceOnUse"><stop offset="0" stop-color="#ff3ebd"/><stop offset="1" stop-color="#ff4fff"/></linearGradient><path fill="url(#SVGID_126_)" d="M40.7 57.7h9.5l1.5-6.5h-9.4l.7-2.9h18.7l1.2-6.2H38.3l-6.7 25.4h26.1l1.4-6.8H39.9z"/><linearGradient id="SVGID_127_" x1="75.2389" x2="75.2389" y1="43.0605" y2="67.0879" gradientUnits="userSpaceOnUse"><stop offset="0" stop-color="#ff3ebd"/><stop offset="1" stop-color="#ff4fff"/></linearGradient><path fill="url(#SVGID_127_)" d="M85.8 42.1H70.4l-.8 4.5h-4.7l-4.2 20.9h6.6l.9-4.9H81l-.8 4.9h6.6l3-20.9h-4.6l.6-4.5zM82 56H69.5l1.4-7.7h12.3L82 56z"/><linearGradient id="SVGID_128_" x1="103.1141" x2="103.1141" y1="43.0605" y2="67.0879" gradientUnits="userSpaceOnUse"><stop offset="0" stop-color="#ff3ebd"/><stop offset="1" stop-color="#ff4fff"/></linearGradient><path fill="url(#SVGID_128_)" d="M99.5 42.1h-6.3l-3.4 25.4h26.1l.5-6.8H97.2z"/><linearGradient id="SVGID_129_" x1="132.1105" x2="132.1105" y1="43.0605" y2="67.0879" gradientUnits="userSpaceOnUse"><stop offset="0" stop-color="#ff3ebd"/><stop offset="1" stop-color="#ff4fff"/></linearGradient><path fill="url(#SVGID_129_)" d="M139 46.6h-4.7l-.2 4.6h-3l.3-4.6h-4.7l.2-4.5h-6.2l-1.8 25.4h6.6l.8-14.6h3l-.2 4.8h6.5l.2-4.8h3l-.4 14.6h6.6l.3-25.4h-6.2z"/><linearGradient id="SVGID_130_" x1="160.9078" x2="160.9078" y1="43.0605" y2="67.0879" gradientUnits="userSpaceOnUse"><stop offset="0" stop-color="#ff3ebd"/><stop offset="1" stop-color="#ff4fff"/></linearGradient><path fill="url(#SVGID_130_)" d="M173.5 56h-4.7l-.2-4.8h-14.1v-2.9h18.6l-.3-6.2h-20v4.5h-4.7v6.3h4.7v4.8h14.3l.1 3H148v6.8h21.2l-.2-5h4.8z"/><linearGradient id="SVGID_131_" x1="197.1171" x2="197.1171" y1="43.0605" y2="67.0879" gradientUnits="userSpaceOnUse"><stop offset="0" stop-color="#ff3ebd"/><stop offset="1" stop-color="#ff4fff"/></linearGradient><path fill="url(#SVGID_131_)" d="M209.3 46.6h-4.6l-.6-4.5H184l2 25.4h6.6l-.9-9.8H206l-.6-4.8h4.7l-.8-6.3zm-18.1 4.6l-.3-2.9h12.3l.4 2.9h-12.4z"/><linearGradient id="SVGID_132_" x1="226.3761" x2="226.3761" y1="43.0605" y2="67.0879" gradientUnits="userSpaceOnUse"><stop offset="0" stop-color="#ff3ebd"/><stop offset="1" stop-color="#ff4fff"/></linearGradient><path fill="url(#SVGID_132_)" d="M220.7 60.7l-2.9-18.6h-6.3l3.6 25.4h26.1l-1.3-6.8z"/><linearGradient id="SVGID_133_" x1="254.0033" x2="254.0033" y1="43.0605" y2="67.0879" gradientUnits="userSpaceOnUse"><stop offset="0" stop-color="#ff3ebd"/><stop offset="1" stop-color="#ff4fff"/></linearGradient><path fill="url(#SVGID_133_)" d="M263.6 42.1h-6.2l4.6 18.6h-12.6l-4.1-18.6H239l4.2 20.4h4.8l1.1 5h16.4l-1.3-5h4.8z"/></g><g><defs><path id="SVGID_134_" d="M28.6 67.5l13.1 5.2h-5.9L22 67.5z"/></defs><use fill="#500039" overflow="visible" xlink:href="#SVGID_134_"/><clipPath id="SVGID_135_"><use overflow="visible" xlink:href="#SVGID_134_"/></clipPath><path fill="#500039" d="M28.6 67.5l13.1 5.2h-5.9L22 67.5z" clip-path="url(#SVGID_135_)"/><defs><path id="SVGID_136_" d="M9.2 67.5l15.1 5.2h-6L2.5 67.5z"/></defs><use fill="#500039" overflow="visible" xlink:href="#SVGID_136_"/><clipPath id="SVGID_137_"><use overflow="visible" xlink:href="#SVGID_136_"/></clipPath><path fill="#500039" d="M9.2 67.5l15.1 5.2h-6L2.5 67.5z" clip-path="url(#SVGID_137_)"/><defs><path id="SVGID_138_" d="M57.7 67.5l10 5.2H44.3l-12.7-5.2z"/></defs><use fill="#500039" overflow="visible" xlink:href="#SVGID_138_"/><clipPath id="SVGID_139_"><use overflow="visible" xlink:href="#SVGID_138_"/></clipPath><path fill="#500039" d="M57.7 67.5l10 5.2H44.3l-12.7-5.2z" clip-path="url(#SVGID_139_)"/><defs><path id="SVGID_140_" d="M86.8 67.5l6.9 5.2h-5.9l-7.6-5.2z"/></defs><use fill="#500039" overflow="visible" xlink:href="#SVGID_140_"/><clipPath id="SVGID_141_"><use overflow="visible" xlink:href="#SVGID_140_"/></clipPath><path fill="#500039" d="M86.8 67.5l6.9 5.2h-5.9l-7.6-5.2z" clip-path="url(#SVGID_141_)"/><defs><path id="SVGID_142_" d="M67.3 67.5l9 5.2h-6l-9.6-5.2z"/></defs><use fill="#500039" overflow="visible" xlink:href="#SVGID_142_"/><clipPath id="SVGID_143_"><use overflow="visible" xlink:href="#SVGID_142_"/></clipPath><path fill="#500039" d="M67.3 67.5l9 5.2h-6l-9.6-5.2z" clip-path="url(#SVGID_143_)"/><defs><path id="SVGID_144_" d="M115.9 67.5l3.7 5.2H96.3l-6.5-5.2z"/></defs><use fill="#500039" overflow="visible" xlink:href="#SVGID_144_"/><clipPath id="SVGID_145_"><use overflow="visible" xlink:href="#SVGID_144_"/></clipPath><path fill="#500039" d="M115.9 67.5l3.7 5.2H96.3l-6.5-5.2z" clip-path="url(#SVGID_145_)"/><defs><path id="SVGID_146_" d="M169.2 67.5l-1.9 5.2h-19l-.3-5.2z"/></defs><use fill="#500039" overflow="visible" xlink:href="#SVGID_146_"/><clipPath id="SVGID_147_"><use overflow="visible" xlink:href="#SVGID_146_"/></clipPath><path fill="#500039" d="M169.2 67.5l-1.9 5.2h-19l-.3-5.2z" clip-path="url(#SVGID_147_)"/><g><defs><path id="SVGID_148_" d="M192.7 67.5l-4.5 5.2h-5.9l3.7-5.2z"/></defs><use fill="#500039" overflow="visible" xlink:href="#SVGID_148_"/><clipPath id="SVGID_149_"><use overflow="visible" xlink:href="#SVGID_148_"/></clipPath><path fill="#500039" d="M192.7 67.5l-4.5 5.2h-5.9l3.7-5.2z" clip-path="url(#SVGID_149_)"/></g><g><defs><path id="SVGID_150_" d="M241.2 67.5l-9.6 5.2h-23.3l6.8-5.2z"/></defs><use fill="#500039" overflow="visible" xlink:href="#SVGID_150_"/><clipPath id="SVGID_151_"><use overflow="visible" xlink:href="#SVGID_150_"/></clipPath><path fill="#500039" d="M241.2 67.5l-9.6 5.2h-23.3l6.8-5.2z" clip-path="url(#SVGID_151_)"/></g><g><defs><path id="SVGID_152_" d="M265.5 67.5l-12.2 5.2h-14.7l10.5-5.2z"/></defs><use fill="#500039" overflow="visible" xlink:href="#SVGID_152_"/><clipPath id="SVGID_153_"><use overflow="visible" xlink:href="#SVGID_152_"/></clipPath><path fill="#500039" d="M265.5 67.5l-12.2 5.2h-14.7l10.5-5.2z" clip-path="url(#SVGID_153_)"/></g><g><defs><path id="SVGID_154_" d="M294.6 67.5l-15.4 5.2h-18.9l13-5.2z"/></defs><use fill="#500039" overflow="visible" xlink:href="#SVGID_154_"/><clipPath id="SVGID_155_"><use overflow="visible" xlink:href="#SVGID_154_"/></clipPath><path fill="#500039" d="M294.6 67.5l-15.4 5.2h-18.9l13-5.2z" clip-path="url(#SVGID_155_)"/></g><g><defs><path id="SVGID_156_" d="M145 67.5l.6 5.2h-5.9l-1.3-5.2z"/></defs><use fill="#500039" overflow="visible" xlink:href="#SVGID_156_"/><clipPath id="SVGID_157_"><use overflow="visible" xlink:href="#SVGID_156_"/></clipPath><path fill="#500039" d="M145 67.5l.6 5.2h-5.9l-1.3-5.2z" clip-path="url(#SVGID_157_)"/></g><g><defs><path id="SVGID_158_" d="M125.5 67.5l2.7 5.2h-5.9l-3.4-5.2z"/></defs><use fill="#500039" overflow="visible" xlink:href="#SVGID_158_"/><clipPath id="SVGID_159_"><use overflow="visible" xlink:href="#SVGID_158_"/></clipPath><path fill="#500039" d="M125.5 67.5l2.7 5.2h-5.9l-3.4-5.2z" clip-path="url(#SVGID_159_)"/></g></g><g><defs><path id="SVGID_160_" d="M210.2 52.9l-4.2 4.5-.3-2.6-.2-1.9z"/></defs><use overflow="visible" xlink:href="#SVGID_160_"/><clipPath id="SVGID_161_"><use overflow="visible" xlink:href="#SVGID_160_"/></clipPath><path d="M210.2 52.9l-4.2 4.5-.4-3.6-.1-.9z" clip-path="url(#SVGID_161_)"/></g><g><defs><path id="SVGID_162_" d="M135.6 57.7l1.6 6.1h-5.8l-2.3-6.1z"/></defs><use fill="#500039" overflow="visible" xlink:href="#SVGID_162_"/><clipPath id="SVGID_163_"><use overflow="visible" xlink:href="#SVGID_162_"/></clipPath><path fill="#500039" d="M135.6 57.7l1.6 6.1h-5.8l-2.3-6.1z" clip-path="url(#SVGID_163_)"/></g><g><path d="M91.4 67c-.8 0-1.3.1-1.1.3.2.2 1.1.3 1.9.3h21.5c.8 0 1.7-.2 1.9-.4s-.3-.4-1.1-.3l-23.1.1z" class="st96"/></g><g><path d="M149.3 67c-.8 0-1.3.1-1.1.3.2.2 1.1.3 1.9.3h16.8c.8 0 1.7-.2 1.9-.4.2-.2-.3-.3-1.1-.3l-18.4.1z" class="st96"/></g><g><path d="M154.8 57.1c-.8 0-1.5.1-1.4.3 0 .2.7.3 1.6.3h10.3c.8 0 1.5-.2 1.5-.4s-.7-.3-1.5-.3l-10.5.1z" class="st96"/></g><g><path d="M149.8 52.3c-.9 0-1.5.2-1.5.3s.8.3 1.6.3h1c.9 0 1.6-.2 1.6-.4s-.7-.3-1.5-.3l-1.2.1z" class="st96"/></g><g><path d="M170 61.9c-.8 0-1.3.2-1.1.3s1.1.3 1.9.3h.9c.8 0 1.7-.2 1.9-.4.2-.2-.3-.3-1.1-.3l-2.5.1z" class="st96"/></g><g><path d="M156.3 47.5c-.8 0-1.5.1-1.5.3s.6.3 1.5.3H171c.8 0 1.5-.2 1.5-.4s-.7-.3-1.5-.3l-14.7.1z" class="st96"/></g><g><path d="M33.1 67c-.8 0-1.3.1-1.1.3.2.2 1.1.3 1.9.3h21.5c.8 0 1.7-.2 1.9-.4s-.3-.4-1.1-.3l-23.1.1z" class="st96"/></g><g><path d="M44.7 47.5c-.8 0-1.3.1-1.1.3s1 .3 1.8.3h13.7c.8 0 1.5-.2 1.6-.4.1-.2-.5-.3-1.3-.3l-14.7.1z" class="st96"/></g><g><path d="M81.6 67c-.8 0-1.3.2-1.1.3.2.2 1.1.3 1.9.3h2.3c.8 0 1.7-.2 1.9-.4.2-.2-.3-.3-1.1-.3l-3.9.1z" class="st96"/></g><g><path d="M120.3 67c-.8 0-1.3.2-1.1.3.2.2 1.1.3 1.9.3h2.3c.8 0 1.7-.2 1.9-.4s-.3-.3-1.1-.3l-3.9.1z" class="st96"/></g><g><path d="M139.7 67c-.8 0-1.3.2-1.1.3.2.2 1.1.3 1.9.3h2.3c.8 0 1.7-.2 1.9-.4.2-.2-.3-.3-1.1-.3l-3.9.1z" class="st96"/></g><g><path d="M187.3 67c-.8 0-1.3.2-1.1.3.2.2 1.1.3 1.9.3h2.3c.8 0 1.7-.2 1.9-.4.2-.2-.3-.3-1.1-.3l-3.9.1z" class="st96"/></g><g><path d="M130.9 57.1c-.8 0-1.5.2-1.4.3s.8.3 1.6.3h2.6c.8 0 1.5-.2 1.6-.4s-.6-.3-1.4-.3l-3 .1z" class="st96"/></g><g><path d="M127.7 52.3c-.8 0-1.4.2-1.3.3s.7.3 1.4.3 1.3-.2 1.4-.4-.5-.3-1.3-.3l-.2.1z" class="st96"/></g><g><path d="M137.2 52.3c-.8 0-1.4.2-1.3.4s.7.3 1.4.3 1.3-.2 1.3-.4-.6-.4-1.4-.3z" class="st96"/></g><g><path d="M192.2 47.6c-.8 0-1.4.1-1.3.3s.9.3 1.7.3h8.7c.8 0 1.6-.2 1.6-.4.1-.2-.6-.3-1.4-.3l-9.3.1z" class="st96"/></g><g><path d="M207.2 52.4c-.8 0-1.4.2-1.3.3s.7.3 1.5.3h.8c.8 0 1.5-.2 1.6-.4.1-.2-.4-.3-1.2-.3l-1.4.1z" class="st96"/></g><g><path d="M193.5 57.2c-.8 0-1.4.1-1.3.3s.9.3 1.7.3h9.9c.8 0 1.5-.2 1.6-.4.1-.2-.6-.3-1.4-.3l-10.5.1z" class="st96"/></g><g><path d="M216.4 67c-.8 0-1.3.1-1.1.3.2.2 1.1.3 1.9.3H239c.8 0 1.7-.2 1.9-.4.2-.2-.3-.4-1.1-.3l-23.4.1z" class="st96"/></g><g><path d="M250.2 67c-.8 0-1.3.1-1.1.3.2.2 1.1.3 1.9.3h12.1c.8 0 1.7-.2 1.9-.4s-.3-.3-1.1-.3l-13.7.1z" class="st96"/></g><g><path d="M244.5 62.1c-.8 0-1.3.2-1.1.3s1 .3 1.8.3h.7c.8 0 1.6-.2 1.8-.4s-.3-.3-1.1-.3l-2.1.1z" class="st96"/></g><g><path d="M265.7 62.1c-.8 0-1.3.2-1.2.3s.9.3 1.7.3h1c.8 0 1.5-.2 1.5-.4s-.6-.3-1.4-.3l-1.6.1z" class="st96"/></g><g><path d="M274.6 67c-.8 0-1.3.1-1.1.3.2.2 1.1.3 1.9.3h16.9c.8 0 1.7-.2 1.9-.4s-.3-.3-1.1-.3l-18.5.1z" class="st96"/></g><g><path d="M294.8 62c-.8 0-1.4.2-1.4.3 0 .2.6.3 1.4.3h.9c.8 0 1.4-.2 1.5-.4 0-.2-.6-.3-1.4-.3l-1 .1z" class="st96"/></g><g><path d="M277.3 57.1c-.8 0-1.4.1-1.3.3.1.2.8.3 1.6.3h9.9c.8 0 1.6-.2 1.9-.4.2-.2-.3-.3-1.1-.3l-11 .1z" class="st96"/></g><g><path d="M270.8 52.4c-.8 0-1.2.2-1 .3s1 .3 1.7.3h.7c.8 0 1.5-.2 1.6-.4.1-.2-.4-.3-1.2-.3l-1.8.1z" class="st96"/></g><g><path d="M276.1 47.5c-.8 0-1.4.1-1.3.3s.8.3 1.7.3H291c.8 0 1.5-.2 1.5-.4s-.7-.3-1.5-.3l-14.9.1z" class="st96"/></g><g><path d="M62.1 67c-.8 0-1.3.2-1.1.3.2.2 1.1.3 1.9.3h2.3c.8 0 1.7-.2 1.9-.4.2-.2-.3-.3-1.1-.3l-3.9.1z" class="st96"/></g><g><path d="M23.7 67c-.8 0-1.3.2-1.1.3.2.2 1.1.3 1.9.3h2c.8 0 1.7-.2 1.9-.4s-.3-.3-1.1-.3l-3.6.1z" class="st96"/></g><g><path d="M4.2 67c-.8 0-1.3.2-1.1.3.2.2 1.1.3 1.9.3h2.1c.8 0 1.7-.2 1.9-.4.2-.2-.3-.3-1.1-.3l-3.7.1z" class="st96"/></g><g><path d="M29.5 52.3c-.8 0-1.2.2-1 .3s1 .3 1.7.3h.5c.8 0 1.4-.2 1.5-.4.1-.2-.5-.3-1.2-.3l-1.5.1z" class="st96"/></g><g><path d="M70.1 62c-.8 0-1.5.1-1.5.3 0 .2.6.3 1.4.3h8.9c.8 0 1.5-.2 1.5-.4s-.6-.3-1.4-.3l-8.9.1z" class="st96"/></g><g><path d="M42.6 57.1c-.8 0-1.5.2-1.5.3 0 .2.6.3 1.5.3h5.7c.8 0 1.6-.2 1.6-.4.1-.2-.5-.3-1.4-.3l-5.9.1z" class="st96"/></g><g><path d="M14.3 57.1c-.8 0-1.5.1-1.5.3 0 .2.7.3 1.5.3h8.4c.8 0 1.5-.2 1.5-.4s-.6-.3-1.4-.3l-8.5.1z" class="st96"/></g><g><path d="M72.7 47.6c-.8 0-1.5.1-1.4.3s.8.3 1.6.3h8.4c.8 0 1.5-.2 1.6-.4 0-.2-.6-.3-1.4-.3l-8.8.1z" class="st96"/></g><g><path d="M17 47.5c-.8 0-1.4.1-1.4.3s.8.3 1.6.3h8.2c.8 0 1.6-.2 1.7-.4s-.5-.3-1.3-.3l-8.8.1z" class="st96"/></g></svg>