<svg id="Lager_1" data-name="Lager 1" xmlns="http://www.w3.org/2000/svg" xmlns:xlink="http://www.w3.org/1999/xlink" viewBox="0 0 642.9 135">
<defs>
<style>.cls-1{fill:#02261c;}.cls-2{fill:url(#Namnlös_övertoning_6);}.cls-3{fill:url(#Namnlös_övertoning_6-2);}.cls-4{fill:url(#Namnlös_övertoning_6-3);}.cls-5{fill:url(#Namnlös_övertoning_6-4);}.cls-6{fill:url(#Namnlös_övertoning_6-5);}.cls-7{fill:url(#Namnlös_övertoning_6-6);}.cls-8{fill:#3b80e2;}.cls-9{fill:#b9c698;}.cls-10,.cls-44{isolation:isolate;}.cls-11{fill:#21477e;}.cls-12{fill:#254f8c;}.cls-13{fill:#25508e;}.cls-14{fill:#244e8a;}.cls-15{fill:#25508d;}.cls-16{fill:#234c87;}.cls-17{fill:#0a4a2a;}.cls-18{fill:#9aec8e;}.cls-19{fill:#49ad53;}.cls-20{fill:#1e7e3c;}.cls-21{fill:url(#Namnlös_övertoning_13);}.cls-22{fill:url(#Namnlös_övertoning_13-2);}.cls-23{fill:url(#Namnlös_övertoning_13-3);}.cls-24{fill:#1e4071;}.cls-25{fill:url(#Namnlös_övertoning_13-4);}.cls-26{fill:url(#Namnlös_övertoning_13-5);}.cls-27{fill:#24202f;}.cls-28{fill:#878787;}.cls-29{fill:#98cb7e;}.cls-30{fill:#6ab54b;}.cls-31{fill:#7bc163;}.cls-32{fill:#58a145;}.cls-33{fill:#73bb58;}.cls-34{fill:#65b047;}.cls-35{fill:#71ba54;}.cls-36{fill:#68b54a;}.cls-37{fill:none;}.cls-38{fill:#737474;}.cls-39{opacity:0.5;}.cls-40,.cls-44{fill:#00b222;}.cls-41{fill:#200008;}.cls-42{opacity:0.6;}.cls-43{opacity:0.81;}.cls-44{opacity:0.48;}.cls-45{fill:#11491e;}.cls-46{fill:#010101;}.cls-47{fill:#2a282b;}.cls-48{fill:url(#Namnlös_övertoning_14);}.cls-49{fill:url(#Namnlös_övertoning_28);}.cls-50{fill:url(#Namnlös_övertoning_28-2);}.cls-51{fill:url(#Namnlös_övertoning_28-3);}.cls-52{fill:url(#Namnlös_övertoning_28-4);}.cls-53{fill:url(#Namnlös_övertoning_28-5);}.cls-54{fill:url(#Namnlös_övertoning_28-6);}.cls-55{fill:url(#Namnlös_övertoning_28-7);}.cls-56{opacity:0.34;}.cls-57{fill:url(#Namnlös_övertoning_42);}.cls-58{fill:url(#Namnlös_övertoning_42-2);}.cls-59{fill:url(#Namnlös_övertoning_42-3);}.cls-60{fill:url(#Namnlös_övertoning_42-4);}.cls-61{fill:url(#Namnlös_övertoning_42-5);}.cls-62{fill:url(#Namnlös_övertoning_42-6);}.cls-63{fill:url(#Namnlös_övertoning_42-7);}.cls-64{fill:#eeeded;}.cls-65{fill:#e0dbd6;}.cls-66{fill:#5b5659;}
</style>
<linearGradient id="Namnlös_övertoning_6" x1="120.04" y1="130.72" x2="122.29" y2="176.47" gradientTransform="matrix(1, 0, 0, -1, -2.3, 277.4)" gradientUnits="userSpaceOnUse">
<stop offset="0" stop-color="#47b34f"/>
<stop offset="1" stop-color="#082302"/>
</linearGradient>
<linearGradient id="Namnlös_övertoning_6-2" x1="220.58" y1="122.6" x2="221.99" y2="177.74" xlink:href="#Namnlös_övertoning_6"/>
<linearGradient id="Namnlös_övertoning_6-3" x1="506.87" y1="122.09" x2="496.54" y2="168.76" xlink:href="#Namnlös_övertoning_6"/>
<linearGradient id="Namnlös_övertoning_6-4" x1="558.07" y1="123.57" x2="543.57" y2="177.07" xlink:href="#Namnlös_övertoning_6"/>
<linearGradient id="Namnlös_övertoning_6-5" x1="427.51" y1="127.12" x2="425.51" y2="159.78" xlink:href="#Namnlös_övertoning_6"/>
<linearGradient id="Namnlös_övertoning_6-6" x1="323.5" y1="118.84" x2="323.5" y2="179.1" xlink:href="#Namnlös_övertoning_6"/>
<linearGradient id="Namnlös_övertoning_13" x1="324.74" y1="81.61" x2="326.49" y2="27.11" gradientTransform="matrix(1, 0, 0, -1, 0, 282)" gradientUnits="userSpaceOnUse">
<stop offset="0" stop-color="#80c165"/>
<stop offset="1" stop-color="#47b34f"/>
</linearGradient>
<linearGradient id="Namnlös_övertoning_13-2" x1="224.7" y1="102.53" x2="243.45" y2="24.53" xlink:href="#Namnlös_övertoning_13"/>
<linearGradient id="Namnlös_övertoning_13-3" x1="135.57" y1="85.76" x2="167.57" y2="25.76" gradientTransform="matrix(1, 0, 0, -1, -2.3, 277.4)" xlink:href="#Namnlös_övertoning_13"/>
<linearGradient id="Namnlös_övertoning_13-4" x1="421.83" y1="100.45" x2="407.58" y2="42.7" gradientTransform="matrix(1, 0, 0, -1, -2.3, 277.4)" xlink:href="#Namnlös_övertoning_13"/>
<linearGradient id="Namnlös_övertoning_13-5" x1="515.03" y1="84.63" x2="492.03" y2="24.63" gradientTransform="matrix(1, 0, 0, -1, -2.3, 277.4)" xlink:href="#Namnlös_övertoning_13"/>
<linearGradient id="Namnlös_övertoning_14" x1="85.15" y1="-615.48" x2="85.15" y2="-583.02" gradientTransform="translate(-2.3 692.68)" gradientUnits="userSpaceOnUse">
<stop offset="0" stop-color="#2a282b"/>
<stop offset="0.02" stop-color="#272528"/>
<stop offset="0.14" stop-color="#161517"/>
<stop offset="0.3" stop-color="#0a0a0a"/>
<stop offset="0.51" stop-color="#030303"/>
<stop offset="1" stop-color="#010101"/>
</linearGradient>
<linearGradient id="Namnlös_övertoning_28" x1="75.95" y1="-594.88" x2="75.95" y2="-686.08" gradientTransform="translate(-2.3 692.68)" gradientUnits="userSpaceOnUse">
<stop offset="0" stop-color="#dacecb"/>
<stop offset="1" stop-color="#a99f9c"/>
</linearGradient>
<linearGradient id="Namnlös_övertoning_28-2" x1="159.6" y1="-594.88" x2="159.6" y2="-686.08" xlink:href="#Namnlös_övertoning_28"/>
<linearGradient id="Namnlös_övertoning_28-3" x1="229.15" y1="-594.88" x2="229.15" y2="-686.08" xlink:href="#Namnlös_övertoning_28"/>
<linearGradient id="Namnlös_övertoning_28-4" x1="581.95" y1="-594.88" x2="581.95" y2="-686.08" xlink:href="#Namnlös_övertoning_28"/>
<linearGradient id="Namnlös_övertoning_28-5" x1="489.15" y1="-594.98" x2="489.15" y2="-686.08" gradientTransform="translate(0 697.28)" xlink:href="#Namnlös_övertoning_28"/>
<linearGradient id="Namnlös_övertoning_28-6" x1="407.25" y1="-594.88" x2="407.25" y2="-686.08" xlink:href="#Namnlös_övertoning_28"/>
<linearGradient id="Namnlös_övertoning_28-7" x1="323.85" y1="-594.88" x2="323.85" y2="-686.08" xlink:href="#Namnlös_övertoning_28"/>
<linearGradient id="Namnlös_övertoning_42" x1="75.95" y1="-615.48" x2="75.95" y2="-772.22" gradientTransform="translate(-2.3 692.68)" gradientUnits="userSpaceOnUse">
<stop offset="0" stop-color="#fff"/>
<stop offset="1" stop-color="#1e1e1c"/>
</linearGradient>
<linearGradient id="Namnlös_övertoning_42-2" x1="159.6" y1="-615.48" x2="159.6" y2="-772.22" xlink:href="#Namnlös_övertoning_42"/>
<linearGradient id="Namnlös_övertoning_42-3" x1="229.15" y1="-615.48" x2="229.15" y2="-772.22" xlink:href="#Namnlös_övertoning_42"/>
<linearGradient id="Namnlös_övertoning_42-4" x1="581.95" y1="-615.48" x2="581.95" y2="-772.22" xlink:href="#Namnlös_övertoning_42"/>
<linearGradient id="Namnlös_övertoning_42-5" x1="489.15" y1="-615.48" x2="489.15" y2="-772.22" gradientTransform="translate(0 697.28)" xlink:href="#Namnlös_övertoning_42"/>
<linearGradient id="Namnlös_övertoning_42-6" x1="407.25" y1="-615.48" x2="407.25" y2="-772.22" xlink:href="#Namnlös_övertoning_42"/>
<linearGradient id="Namnlös_övertoning_42-7" x1="323.85" y1="-615.48" x2="323.85" y2="-772.22" xlink:href="#Namnlös_övertoning_42"/>
</defs>
<polygon class="cls-46" points="241.2 133.8 235.3 115.5 232.9 115.5 232.6 114.8 230.7 133.8 191.8 133.8 190 130.6 189.6 133.8 151.3 133.8 149.1 130.6 148.5 133.8 110.8 133.8 94.6 115.5 85.3 115.5 83.2 113.2 77.8 133.8 41 133.8 0 99.3 34.1 0 72 0 88.8 23.6 90.6 16.8 101 16.8 105.3 0 144.1 0 145.9 3.5 146.7 0 186.2 0 187.5 3.4 188.1 0 228.2 0 232.8 16.8 236.7 16.8 237.1 18.3 238.8 0 280 0 285.7 43 281.2 133.8 241.2 133.8"/>
<path class="cls-46" d="M567.6,138.4l-2.8-10.6-10.3,10.6H517.1l-.7-3.1-2.5,3.1H435.5l-.4-3-1.4,3H364l-4.4-90.8,5.6-43h71.6l.4,3.3,1.1-3.3h80.5l.8,3.6,2-3.6h38.5l3.7,13.1,9.3-13.1H611l34.2,99.3-41,34.5ZM427.9,76.2l-1-7.8-.4,1.1H412.6l.6,6.8h14.7Z" transform="translate(-2.3 -4.6)"/>
<polygon class="cls-46" points="281.3 133.8 275.9 97.7 280.2 0 363 0 364 22.8 359.4 64.8 354.1 64.8 353.5 71.6 366.1 71.6 367.2 97.7 361.8 133.8 281.3 133.8"/>
<polygon class="cls-46" points="99.7 63 100.7 59 93.9 49.5 95.5 43.2 69 5.8 63.8 22.7 71.3 32.6 69.1 40.2 84.9 60.4 80.3 77.5 79.9 77.5 63.7 58.4 52.8 58.4 40.9 97.4 73.3 127.9 80.2 101.4 87.9 109.7 107.6 109.7 111.7 92.1 121.3 92.1 99.7 63"/>
<polygon class="cls-46" points="120.4 97.4 143.6 127.9 159.5 43.2 140.5 5.8 120.4 97.4"/>
<polygon class="cls-46" points="166.6 97.4 184.5 127.9 196.8 43.2 182.1 5.8 166.6 97.4"/>
<polygon class="cls-46" points="233.3 50.6 240.3 75.2 241.7 59 232.2 22.7 231.1 32.7 223.7 5.8 221.7 22.7 232.4 59 233.3 50.6"/>
<polygon class="cls-46" points="234.2 77.5 228.4 58.4 217.5 58.4 212.9 97.4 225.4 127.9 229 92.1 231.2 92.1 237.1 109.7 247 109.7 237.4 77.5 234.2 77.5"/>
<polygon class="cls-46" points="269.7 97.4 275.6 127.9 279.8 43.2 274.9 5.8 269.7 97.4"/>
<polygon class="cls-46" points="596.1 77.5 585 77.5 579.4 58.4 569.8 58.4 584.7 40.2 574.1 5.8 547.6 43.2 555.7 74.2 543.5 89.2 523 5.8 501.9 43.2 519.6 127.9 545.5 97.4 544.2 92.1 550.8 92.1 555.2 109.7 565.1 109.7 569.9 127.9 602.2 97.4 596.1 77.5"/>
<polygon class="cls-46" points="474.3 22.7 457.9 59 467.2 59 475.7 109.7 495.3 77.5 484.7 22.7 474.3 22.7"/>
<polygon class="cls-46" points="428 43.2 438.5 127.9 453.8 97.4 440.5 5.8 428 43.2"/>
<polygon class="cls-46" points="400.5 22.7 392.1 59 420 59 431.8 22.7 400.5 22.7"/>
<polygon class="cls-46" points="363.4 43.2 367.5 127.9 373.5 97.4 368.3 5.8 363.4 43.2"/>
<polygon class="cls-46" points="316.2 40.2 316.5 58.4 316.1 58.4 316 77.5 316.6 109.7 316.7 92.1 345.7 92.1 348.7 59 354.2 59 358.1 22.7 316.4 22.7 316.2 40.2"/>
<polygon class="cls-47" points="6.8 97.4 43.1 127.9 73.3 127.9 40.9 97.4 6.8 97.4"/>
<polygon class="cls-47" points="6.8 97.4 43.1 127.9 73.3 127.9 40.9 97.4 6.8 97.4"/>
<polygon class="cls-47" points="132.5 97.4 154.3 127.9 184.5 127.9 166.6 97.4 132.5 97.4"/>
<polygon class="cls-47" points="132.5 97.4 154.3 127.9 184.5 127.9 166.6 97.4 132.5 97.4"/>
<polygon class="cls-47" points="178.8 97.4 195.3 127.9 225.4 127.9 212.9 97.4 178.8 97.4"/>
<polygon class="cls-47" points="178.8 97.4 195.3 127.9 225.4 127.9 212.9 97.4 178.8 97.4"/>
<polygon class="cls-47" points="235.6 97.4 245.5 127.9 275.6 127.9 269.7 97.4 235.6 97.4"/>
<polygon class="cls-47" points="235.6 97.4 245.5 127.9 275.6 127.9 269.7 97.4 235.6 97.4"/>
<polygon class="cls-47" points="545.5 97.4 519.6 127.9 549.8 127.9 579.5 97.4 545.5 97.4"/>
<polygon class="cls-47" points="545.5 97.4 519.6 127.9 549.8 127.9 579.5 97.4 545.5 97.4"/>
<polygon class="cls-47" points="602.2 97.4 569.9 127.9 600 127.9 636.3 97.4 602.2 97.4"/>
<polygon class="cls-47" points="602.2 97.4 569.9 127.9 600 127.9 636.3 97.4 602.2 97.4"/>
<polygon class="cls-47" points="453.8 97.4 438.5 127.9 508.9 127.9 533.3 97.4 453.8 97.4"/>
<polygon class="cls-47" points="453.8 97.4 438.5 127.9 508.9 127.9 533.3 97.4 453.8 97.4"/>
<polygon class="cls-47" points="373.5 97.4 367.5 127.9 427.8 127.9 441.6 97.4 373.5 97.4"/>
<polygon class="cls-47" points="373.5 97.4 367.5 127.9 427.8 127.9 441.6 97.4 373.5 97.4"/>
<polygon class="cls-47" points="286.4 127.9 356.7 127.9 361.3 97.4 281.8 97.4 286.4 127.9"/>
<polygon class="cls-47" points="286.4 127.9 356.7 127.9 361.3 97.4 281.8 97.4 286.4 127.9"/>
<polygon class="cls-47" points="58.1 77.2 87.9 109.5 107.6 109.7 80.3 77.2 58.1 77.2"/>
<polygon class="cls-47" points="58.1 77.2 87.9 109.5 107.6 109.7 80.3 77.2 58.1 77.2"/>
<polygon class="cls-47" points="86.3 97.4 113.4 127.9 143.6 127.9 120.4 97.4 86.3 97.4"/>
<polygon class="cls-47" points="86.3 97.4 113.4 127.9 143.6 127.9 120.4 97.4 86.3 97.4"/>
<polygon class="cls-47" points="6.8 97.4 43.1 127.9 73.3 127.9 40.9 97.4 6.8 97.4"/>
<polygon class="cls-47" points="132.5 97.4 154.3 127.9 184.5 127.9 166.6 97.4 132.5 97.4"/>
<polygon class="cls-47" points="178.8 97.4 195.3 127.9 225.4 127.9 212.9 97.4 178.8 97.4"/>
<polygon class="cls-47" points="235.6 97.4 245.5 127.9 275.6 127.9 269.7 97.4 235.6 97.4"/>
<polygon class="cls-47" points="545.5 97.4 519.6 127.9 549.8 127.9 579.5 97.4 545.5 97.4"/>
<polygon class="cls-47" points="602.2 97.4 569.9 127.9 600 127.9 636.3 97.4 602.2 97.4"/>
<polygon class="cls-47" points="453.8 97.4 438.5 127.9 508.9 127.9 533.3 97.4 453.8 97.4"/>
<polygon class="cls-47" points="373.5 97.4 367.5 127.9 427.8 127.9 441.6 97.4 373.5 97.4"/>
<polygon class="cls-47" points="286.4 127.9 356.7 127.9 361.3 97.4 281.8 97.4 286.4 127.9"/>
<polygon class="cls-48" points="58.1 77.2 87.9 109.5 107.6 109.7 80.3 77.2 58.1 77.2"/>
<polygon class="cls-47" points="86.3 97.4 113.4 127.9 143.6 127.9 120.4 97.4 86.3 97.4"/>
<polygon class="cls-49" points="109.9 6.6 105.5 21.3 95.1 21.3 90.4 39 69.1 39 74.3 21.3 63.8 21.3 69 6.6 38.3 6.6 6.8 97.8 40.9 97.8 52.8 59.6 63.7 59.6 58.1 77.2 80.3 77.2 85.5 59.6 96.3 59.6 86.3 97.8 120.4 97.8 140.5 6.6 109.9 6.6"/>
<polygon class="cls-50" points="151.5 6.6 132.5 97.8 166.6 97.8 182.1 6.6 151.5 6.6"/>
<polygon class="cls-51" points="241 39 230.3 39 232.2 21.3 221.7 21.3 223.7 6.6 193.1 6.6 178.8 97.8 212.9 97.8 217.5 59.6 228.4 59.6 226.3 77.2 237.4 77.2 235.6 97.8 269.7 97.8 274.9 6.6 244.2 6.6 241 39"/>
<polygon class="cls-52" points="604.8 6.6 574.1 6.6 584.7 39 574 39 568.9 21.3 558.4 21.3 553.7 6.6 523 6.6 545.5 97.8 579.5 97.8 568.5 59.6 579.4 59.6 585 77.2 596.1 77.2 602.2 97.8 636.3 97.8 604.8 6.6"/>
<path class="cls-53" d="M442.8,11.2,456,102.3h79.5L514.3,11.2Zm43.7,70.6-10-55.9H487l10.7,55.9Z" transform="translate(-2.3 -4.6)"/>
<polygon class="cls-54" points="405.7 77.2 400.5 21.3 431.8 21.3 429.6 6.6 368.3 6.6 373.5 97.8 441.6 97.8 439 77.2 405.7 77.2"/>
<polygon class="cls-55" points="316 77.2 316.1 59.6 348.7 59.6 348.2 39 316.2 39 316.4 21.3 358.1 21.3 357.3 6.6 285.8 6.6 281.8 97.8 361.3 97.8 360.5 77.2 316 77.2"/>
<polygon class="cls-49" points="109.9 6.6 105.5 21.3 95.1 21.3 90.4 39 69.1 39 74.3 21.3 63.8 21.3 69 6.6 38.3 6.6 6.8 97.8 40.9 97.8 52.8 59.6 63.7 59.6 58.1 77.2 80.3 77.2 85.5 59.6 96.3 59.6 86.3 97.8 120.4 97.8 140.5 6.6 109.9 6.6"/>
<polygon class="cls-50" points="151.5 6.6 132.5 97.8 166.6 97.8 182.1 6.6 151.5 6.6"/>
<polygon class="cls-51" points="241 39 230.3 39 232.2 21.3 221.7 21.3 223.7 6.6 193.1 6.6 178.8 97.8 212.9 97.8 217.5 59.6 228.4 59.6 226.3 77.2 237.4 77.2 235.6 97.8 269.7 97.8 274.9 6.6 244.2 6.6 241 39"/>
<polygon class="cls-52" points="604.8 6.6 574.1 6.6 584.7 39 574 39 568.9 21.3 558.4 21.3 553.7 6.6 523 6.6 545.5 97.8 579.5 97.8 568.5 59.6 579.4 59.6 585 77.2 596.1 77.2 602.2 97.8 636.3 97.8 604.8 6.6"/>
<path class="cls-53" d="M442.8,11.2,456,102.3h79.5L514.3,11.2Zm43.7,70.6-10-55.9H487l10.7,55.9Z" transform="translate(-2.3 -4.6)"/>
<polygon class="cls-54" points="405.7 77.2 400.5 21.3 431.8 21.3 429.6 6.6 368.3 6.6 373.5 97.8 441.6 97.8 439 77.2 405.7 77.2"/>
<polygon class="cls-55" points="316 77.2 316.1 59.6 348.7 59.6 348.2 39 316.2 39 316.4 21.3 358.1 21.3 357.3 6.6 285.8 6.6 281.8 97.8 361.3 97.8 360.5 77.2 316 77.2"/>
<g class="cls-56">
<polygon class="cls-57" points="109.9 6.6 105.5 21.3 95.1 21.3 90.4 39 69.1 39 74.3 21.3 63.8 21.3 69 6.6 38.3 6.6 6.8 97.8 40.9 97.8 52.8 59.6 63.7 59.6 58.1 77.2 80.3 77.2 85.5 59.6 96.3 59.6 86.3 97.8 120.4 97.8 140.5 6.6 109.9 6.6"/>
<polygon class="cls-58" points="151.5 6.6 132.5 97.8 166.6 97.8 182.1 6.6 151.5 6.6"/>
<polygon class="cls-59" points="241 39 230.3 39 232.2 21.3 221.7 21.3 223.7 6.6 193.1 6.6 178.8 97.8 212.9 97.8 217.5 59.6 228.4 59.6 226.3 77.2 237.4 77.2 235.6 97.8 269.7 97.8 274.9 6.6 244.2 6.6 241 39"/>
<polygon class="cls-60" points="604.8 6.6 574.1 6.6 584.7 39 574 39 568.9 21.3 558.4 21.3 553.7 6.6 523 6.6 545.5 97.8 579.5 97.8 568.5 59.6 579.4 59.6 585 77.2 596.1 77.2 602.2 97.8 636.3 97.8 604.8 6.6"/>
<path class="cls-61" d="M442.8,11.2,456,102.3h79.5L514.3,11.2Zm43.7,70.6-10-55.9H487l10.7,55.9Z" transform="translate(-2.3 -4.6)"/>
<polygon class="cls-62" points="405.7 77.2 400.5 21.3 431.8 21.3 429.6 6.6 368.3 6.6 373.5 97.8 441.6 97.8 439 77.2 405.7 77.2"/>
<polygon class="cls-63" points="316 77.2 316.1 59.6 348.7 59.6 348.2 39 316.2 39 316.4 21.3 358.1 21.3 357.3 6.6 285.8 6.6 281.8 97.8 361.3 97.8 360.5 77.2 316 77.2"/>
<polygon class="cls-57" points="109.9 6.6 105.5 21.3 95.1 21.3 90.4 39 69.1 39 74.3 21.3 63.8 21.3 69 6.6 38.3 6.6 6.8 97.8 40.9 97.8 52.8 59.6 63.7 59.6 58.1 77.2 80.3 77.2 85.5 59.6 96.3 59.6 86.3 97.8 120.4 97.8 140.5 6.6 109.9 6.6"/>
<polygon class="cls-58" points="151.5 6.6 132.5 97.8 166.6 97.8 182.1 6.6 151.5 6.6"/>
<polygon class="cls-59" points="241 39 230.3 39 232.2 21.3 221.7 21.3 223.7 6.6 193.1 6.6 178.8 97.8 212.9 97.8 217.5 59.6 228.4 59.6 226.3 77.2 237.4 77.2 235.6 97.8 269.7 97.8 274.9 6.6 244.2 6.6 241 39"/>
<polygon class="cls-60" points="604.8 6.6 574.1 6.6 584.7 39 574 39 568.9 21.3 558.4 21.3 553.7 6.6 523 6.6 545.5 97.8 579.5 97.8 568.5 59.6 579.4 59.6 585 77.2 596.1 77.2 602.2 97.8 636.3 97.8 604.8 6.6"/>
<path class="cls-61" d="M442.8,11.2,456,102.3h79.5L514.3,11.2Zm43.7,70.6-10-55.9H487l10.7,55.9Z" transform="translate(-2.3 -4.6)"/>
<polygon class="cls-62" points="405.7 77.2 400.5 21.3 431.8 21.3 429.6 6.6 368.3 6.6 373.5 97.8 441.6 97.8 439 77.2 405.7 77.2"/>
<polygon class="cls-63" points="316 77.2 316.1 59.6 348.7 59.6 348.2 39 316.2 39 316.4 21.3 358.1 21.3 357.3 6.6 285.8 6.6 281.8 97.8 361.3 97.8 360.5 77.2 316 77.2"/>
</g>
<path class="cls-64" d="M13.7,101.2c-2.4,0-4.2.5-3.9,1s2.4.9,4.9.9h5.7c2.4,0,4.6-.5,4.9-1s-1.5-1-3.9-.9Z" transform="translate(-2.3 -4.6)"/>
<path class="cls-64" d="M34.4,101.2c-2.4.1-4.2.5-4,1s2.3.9,4.8.9h2.6c2.4,0,4.6-.5,4.8-1s-1.6-1-4-.9Z" transform="translate(-2.3 -4.6)"/>
<path class="cls-64" d="M93,101.2c-2.4,0-4,.4-3.4.9s2.9.9,5.4.9h21.4c2.4,0,4.8-.5,5.4-1s-1-1-3.4-1Z" transform="translate(-2.3 -4.6)"/>
<path class="cls-64" d="M139.3,101.2c-2.4,0-4,.4-3.4.9s3,.9,5.4.9h21.4c2.4,0,4.8-.5,5.4-1s-1-1-3.4-1Z" transform="translate(-2.3 -4.6)"/>
<path class="cls-64" d="M185.7,101.2c-2.4.1-4.2.5-4,1s2.4.9,4.8.9h2.7c2.4,0,4.6-.5,4.8-1s-1.6-1-4-.9Z" transform="translate(-2.3 -4.6)"/>
<path class="cls-64" d="M201.4,101.2c-2.4,0-4.2.5-3.9.9s2.5.9,4.9.9H210c2.4,0,4.6-.5,4.9-1s-1.5-1-3.9-1Z" transform="translate(-2.3 -4.6)"/>
<path class="cls-64" d="M242.3,101.2c-2.4,0-4,.4-3.4.9s3,.9,5.4.9h21.4c2.4,0,4.8-.5,5.4-1s-1-1-3.4-1Z" transform="translate(-2.3 -4.6)"/>
<path class="cls-64" d="M288.5,101.2c-2.4,0-4.2.5-3.9.9s2.5.9,4.9.9h7.9c2.4,0,4.6-.5,4.9-1s-1.5-1-3.9-1Z" transform="translate(-2.3 -4.6)"/>
<path class="cls-64" d="M311.3,101.3c-2.4,0-3.7.4-2.8.9a20.29,20.29,0,0,0,6,.9H356a16.32,16.32,0,0,0,6-1c.9-.5-.4-1-2.8-1Z" transform="translate(-2.3 -4.6)"/>
<path class="cls-64" d="M380.4,101.3c-2.4,0-3.5.4-2.5.9a19.49,19.49,0,0,0,6.3.8l51.4-.2a16.73,16.73,0,0,0,6.3-1.1c1.1-.6-.1-1-2.5-1Z" transform="translate(-2.3 -4.6)"/>
<path class="cls-64" d="M460.7,101.3c-2.4,0-3.4.4-2.1.9a21.6,21.6,0,0,0,6.7.8l61.6-.2a19.22,19.22,0,0,0,6.7-1.1c1.2-.6.3-1-2.2-1Z" transform="translate(-2.3 -4.6)"/>
<path class="cls-64" d="M552.3,101.3c-2.4,0-4,.5-3.4.9a12.54,12.54,0,0,0,5.4.8l21.3-.1c2.4,0,4.8-.5,5.4-1s-1-1-3.4-1Z" transform="translate(-2.3 -4.6)"/>
<path class="cls-64" d="M609,101.3c-2.4.1-4.2.5-3.9,1s2.5.9,4.9.8h6.2c2.4,0,4.6-.5,4.9-1s-1.5-1-3.9-.9Z" transform="translate(-2.3 -4.6)"/>
<path class="cls-64" d="M630.1,101.2c-2.4.1-4.2.5-4,1s2.3.9,4.8.8h2.6c2.4,0,4.6-.5,4.8-1s-1.6-1-4-.9Z" transform="translate(-2.3 -4.6)"/>
<path class="cls-65" d="M64.8,81c-2.4,0-4.1.4-3.8.9s2.6.9,5,.9H77.2c2.4,0,4.7-.5,5-1s-1.3-1-3.8-1Z" transform="translate(-2.3 -4.6)"/>
<path class="cls-65" d="M224.1,62.2c-2.4.1-4.2.5-4.1,1s2.3.9,4.7.9h1.5c2.4,0,4.6-.5,4.7-1s-1.6-1-4.1-.9Z" transform="translate(-2.3 -4.6)"/>
<path class="cls-65" d="M233.5,80c-2.4.1-4.2.5-4.1,1s2.3.9,4.7.9h1.5c2.4,0,4.6-.5,4.7-1s-1.6-1-4.1-.9Z" transform="translate(-2.3 -4.6)"/>
<path class="cls-65" d="M322.8,62.3c-2.4,0-4,.4-3.5.9s2.9.9,5.3.9h19.9c2.4,0,4.8-.5,5.3-1s-1.1-1-3.5-1Z" transform="translate(-2.3 -4.6)"/>
<path class="cls-65" d="M322.8,25.4c-2.4.1-4.2.5-4,1s2.4.9,4.8.9h4.3c2.4,0,4.6-.5,4.8-1s-1.6-1-4-.9Z" transform="translate(-2.3 -4.6)"/>
<path class="cls-65" d="M341.1,25.5c-2.4,0-4.1.5-3.7.9s2.7.9,5.1.9h12.6c2.4,0,4.7-.5,5.1-1s-1.3-1-3.7-1Z" transform="translate(-2.3 -4.6)"/>
<path class="cls-65" d="M407.4,24.5c-2.4,0-4,.4-3.5.9s2.8.9,5.3.9h18.5c2.4,0,4.8-.5,5.3-1s-1.1-1-3.5-1Z" transform="translate(-2.3 -4.6)"/>
<path class="cls-65" d="M481,24.4c-2.4.1-4.3.5-4.1,1s2.3.9,4.7.9h.5c2.4,0,4.5-.5,4.7-1s-1.7-1-4.1-.9Z" transform="translate(-2.3 -4.6)"/>
<path class="cls-65" d="M575.3,62.2c-2.4.1-4.3.5-4.1,1s2.3.9,4.7.9h.5c2.4,0,4.5-.5,4.7-1s-1.7-1-4.1-.9Z" transform="translate(-2.3 -4.6)"/>
<path class="cls-65" d="M591.4,79.8c-2.4.1-4.3.5-4.1,1s2.3.9,4.7.9h.5c2.4,0,4.5-.5,4.7-1s-1.7-1-4.1-.9Z" transform="translate(-2.3 -4.6)"/>
<path class="cls-65" d="M58.6,62.2c-2.4.1-4.2.5-4.1,1s2.3.9,4.7.9h1.4c2.4,0,4.5-.5,4.7-1s-1.7-1-4.1-.9Z" transform="translate(-2.3 -4.6)"/>
<path class="cls-65" d="M91,62.2c-2.4.1-4.2.5-4.1,1s2.3.9,4.7.9H93c2.4,0,4.6-.5,4.7-1s-1.6-1-4.1-.9Z" transform="translate(-2.3 -4.6)"/>
<path class="cls-46" d="M196,94.1l-1.1,4.7a31.62,31.62,0,0,0-.5,8.7v.2c.3,2.4,1,2.6,1.6.4l1.1-4" transform="translate(-2.3 -4.6)"/>
<path class="cls-46" d="M179.1,47.5l-3.7.9c-2,.5-2.1,1.2-.1,1.6l3.6.7" transform="translate(-2.3 -4.6)"/>
<path class="cls-46" d="M94.7,73h4.4c2.4,0,2.5.5.1,1.1l-5.8,1.6" transform="translate(-2.3 -4.6)"/>
<path class="cls-46" d="M28.6,96.7,27,99.4a5.25,5.25,0,0,0,.7,5.5c1.2,1.5,2.2,1.6,2.2.1v-2.7" transform="translate(-2.3 -4.6)"/>
<path class="cls-46" d="M71.1,17.1H68.2c-1.6,0-1.6.7,0,1.5l2.9,1.5" transform="translate(-2.3 -4.6)"/>
<path class="cls-46" d="M139.9,32.3l-4,1.4c-2.2.7-2,1.6.4,1.8l4.7.5" transform="translate(-2.3 -4.6)"/>
<path class="cls-46" d="M276.9,58.3h-4.4c-2.4,0-2.5.7-.3,1.6l5.7,2.2" transform="translate(-2.3 -4.6)"/>
<path class="cls-46" d="M302.7,103.1l.7-2.5c.4-1.4,1.5-1.5,2.3-.3a12,12,0,0,1,1.2,6.4l-.4,4.2" transform="translate(-2.3 -4.6)"/>
<path class="cls-46" d="M408.4,37.7l-5.1,2.4c-2.2,1-2,2.2.4,2.6l5.5.9" transform="translate(-2.3 -4.6)"/>
<path class="cls-46" d="M371,87.7h6.3c2.4,0,2.8,1.2.8,2.6l-5.4,3.9" transform="translate(-2.3 -4.6)"/>
<path class="cls-46" d="M332.1,30.6l1.3-4.4c.7-2.3,1.7-2.7,2.3-.9l1.1,3.3" transform="translate(-2.3 -4.6)"/>
<path class="cls-46" d="M542.1,89.6l3.4-1c1.9-.5,2.6.5,1.7,2.2L545.5,94" transform="translate(-2.3 -4.6)"/>
<path class="cls-46" d="M453.4,90.9l2.9,1.3c1.6.7,1.6,2.3,0,3.4l-2.9,2.1" transform="translate(-2.3 -4.6)"/>
<path class="cls-46" d="M485.7,37.7h4.4c2.4,0,2.6.9.4,1.9L485.6,42" transform="translate(-2.3 -4.6)"/>
<path class="cls-46" d="M576.1,31.1l-4.9,2c-2.2.9-2.1,1.7.3,1.7h5.3" transform="translate(-2.3 -4.6)"/>
<path class="cls-46" d="M621.3,97.8l.1,2.1c.1,1.2-.9,3.4-2.1,4.9s-.5,1.8,1.6.7l4.7-2.5" transform="translate(-2.3 -4.6)"/>
<path class="cls-66" d="M26.4,104.5c-1.2-1.2-1.9-1-1.5.6s2.4,3.5,4.4,4.4,2.8.6,1.5-.6Z" transform="translate(-2.3 -4.6)"/>
<path class="cls-66" d="M191.7,105.3v1.5a6.58,6.58,0,0,0,2,3.4c1.1,1,1.7.9,1.3-.2l-.6-2.1" transform="translate(-2.3 -4.6)"/>
<path class="cls-66" d="M304.5,110.5c-.9-.7-.7.5.4,2.7,0,0,.7,1.5,1.2,1.1a2.34,2.34,0,0,0,.7-.7c1.3-2,1.7-3.3.8-2.8A2.91,2.91,0,0,1,304.5,110.5Z" transform="translate(-2.3 -4.6)"/>
<polygon class="cls-47" points="452 89.5 448.2 95.1 451.1 87 452 89.5"/>
<polygon class="cls-47" points="371.3 83.9 369.4 91 372.3 86.3 371.3 83.9"/>
<polygon class="cls-47" points="332.9 24 332.1 30.4 335.4 25.4 332.9 24"/>
<polygon class="cls-47" points="485.9 34 484.7 41.7 486.6 37.8 485.9 34"/>
<polygon class="cls-47" points="540.3 84.9 537.5 93.7 541.7 88.1 540.3 84.9"/>
<path class="cls-66" d="M623.2,106.1c.9-.8-.2-.6-2.3.4s-2.8,1.7-1.6,1.4A9.9,9.9,0,0,0,623.2,106.1Z" transform="translate(-2.3 -4.6)"/>
</svg>