<?xml version="1.0" encoding="UTF-8"?>
<svg xmlns="http://www.w3.org/2000/svg" xmlns:xlink="http://www.w3.org/1999/xlink" viewBox="0 0 187.95 90.87">
  <defs>
    <style>
      .cls-1 {
        fill: url(#linear-gradient-2);
      }

      .cls-2 {
        fill: url(#linear-gradient-17);
      }

      .cls-3 {
        fill: #f37d80;
      }

      .cls-3, .cls-4, .cls-5, .cls-6, .cls-7, .cls-8, .cls-9, .cls-10 {
        fill-rule: evenodd;
      }

      .cls-4, .cls-5 {
        opacity: .44;
      }

      .cls-4, .cls-5, .cls-11 {
        mix-blend-mode: darken;
      }

      .cls-4, .cls-12, .cls-13 {
        fill: #231f20;
      }

      .cls-14 {
        fill: url(#linear-gradient-15);
      }

      .cls-5, .cls-9 {
        fill: #040404;
      }

      .cls-6 {
        fill: #883839;
      }

      .cls-15 {
        fill: url(#linear-gradient-18);
      }

      .cls-16 {
        fill: url(#linear-gradient-14);
      }

      .cls-17 {
        fill: url(#linear-gradient-20);
      }

      .cls-18 {
        fill: url(#linear-gradient-6);
      }

      .cls-7 {
        fill: url(#linear-gradient-24);
      }

      .cls-19 {
        fill: url(#linear-gradient-11);
      }

      .cls-20 {
        fill: url(#linear-gradient-10);
      }

      .cls-11 {
        opacity: .5;
      }

      .cls-11, .cls-21 {
        fill: none;
      }

      .cls-22 {
        fill: url(#linear-gradient-16);
      }

      .cls-8 {
        fill: url(#linear-gradient-23);
      }

      .cls-21 {
        isolation: isolate;
      }

      .cls-23 {
        fill: url(#linear-gradient-21);
      }

      .cls-24 {
        fill: url(#linear-gradient-5);
      }

      .cls-25 {
        fill: url(#linear-gradient-7);
      }

      .cls-26 {
        fill: url(#linear-gradient-9);
      }

      .cls-27 {
        fill: url(#linear-gradient-3);
      }

      .cls-28 {
        fill: url(#linear-gradient);
      }

      .cls-10 {
        fill: url(#linear-gradient-22);
      }

      .cls-12 {
        stroke: #231f20;
        stroke-miterlimit: 10;
        stroke-width: 5px;
      }

      .cls-29 {
        fill: url(#linear-gradient-19);
      }

      .cls-30 {
        fill: url(#linear-gradient-4);
      }

      .cls-31 {
        fill: url(#linear-gradient-8);
      }

      .cls-32 {
        fill: url(#linear-gradient-12);
      }

      .cls-33 {
        fill: url(#linear-gradient-13);
      }
    </style>
    <linearGradient id="linear-gradient" x1="58.96" y1="34.1" x2="58.96" y2="6.61" gradientUnits="userSpaceOnUse">
      <stop offset="0" stop-color="#ed1848"/>
      <stop offset="1" stop-color="#981b1e"/>
    </linearGradient>
    <linearGradient id="linear-gradient-2" x1="57.41" y1="46.21" x2="57.41" y2="34.1" gradientUnits="userSpaceOnUse">
      <stop offset=".23" stop-color="#231f20"/>
      <stop offset=".23" stop-color="#221d1e"/>
      <stop offset=".23" stop-color="#1e1617"/>
      <stop offset=".23" stop-color="#190a0b"/>
      <stop offset=".23" stop-color="#190a0b"/>
      <stop offset=".4" stop-color="#391212"/>
      <stop offset="1" stop-color="#610c0d"/>
    </linearGradient>
    <linearGradient id="linear-gradient-3" x1="80" y1="46.21" x2="80" y2="34.1" xlink:href="#linear-gradient-2"/>
    <linearGradient id="linear-gradient-4" x1="79.96" y1="34.1" x2="79.96" y2="6.61" xlink:href="#linear-gradient"/>
    <linearGradient id="linear-gradient-5" x1="101" y1="46.21" x2="101" y2="34.1" xlink:href="#linear-gradient-2"/>
    <linearGradient id="linear-gradient-6" x1="101.04" y1="34.1" x2="101.04" y2="6.61" xlink:href="#linear-gradient"/>
    <linearGradient id="linear-gradient-7" x1="128.79" y1="46.21" x2="128.79" y2="34.1" xlink:href="#linear-gradient-2"/>
    <linearGradient id="linear-gradient-8" x1="128.88" y1="34.1" x2="128.88" y2="6.61" xlink:href="#linear-gradient"/>
    <linearGradient id="linear-gradient-9" x1="3.25" y1="82.92" x2="31.66" y2="82.92" gradientUnits="userSpaceOnUse">
      <stop offset="0" stop-color="#600c10"/>
      <stop offset=".91" stop-color="#600c0e"/>
      <stop offset="1" stop-color="#610c0d"/>
    </linearGradient>
    <linearGradient id="linear-gradient-10" x1="17.48" y1="77.42" x2="17.48" y2="45.85" xlink:href="#linear-gradient"/>
    <linearGradient id="linear-gradient-11" x1="41.01" y1="82.92" x2="53.67" y2="82.92" xlink:href="#linear-gradient-9"/>
    <linearGradient id="linear-gradient-12" x1="47.82" y1="77.42" x2="47.82" y2="45.85" xlink:href="#linear-gradient"/>
    <linearGradient id="linear-gradient-13" x1="28.88" y1="82.92" x2="29.38" y2="82.92" xlink:href="#linear-gradient-9"/>
    <linearGradient id="linear-gradient-14" x1="76.9" y1="77.42" x2="76.9" y2="45.85" xlink:href="#linear-gradient"/>
    <linearGradient id="linear-gradient-15" x1="28.88" y1="82.92" x2="29.38" y2="82.92" xlink:href="#linear-gradient-9"/>
    <linearGradient id="linear-gradient-16" x1="139.47" y1="77.42" x2="139.47" y2="45.85" xlink:href="#linear-gradient"/>
    <linearGradient id="linear-gradient-17" x1="170.41" y1="77.42" x2="170.41" y2="45.85" xlink:href="#linear-gradient"/>
    <linearGradient id="linear-gradient-18" x1="28.88" y1="82.92" x2="29.38" y2="82.92" xlink:href="#linear-gradient-9"/>
    <linearGradient id="linear-gradient-19" x1="28.88" y1="82.92" x2="29.38" y2="82.92" xlink:href="#linear-gradient-9"/>
    <linearGradient id="linear-gradient-20" x1="28.88" y1="82.92" x2="29.38" y2="82.92" xlink:href="#linear-gradient-9"/>
    <linearGradient id="linear-gradient-21" x1="109.18" y1="77.42" x2="109.18" y2="45.85" xlink:href="#linear-gradient"/>
    <linearGradient id="linear-gradient-22" x1="132.99" y1="71.19" x2="135.57" y2="71.19" gradientTransform="translate(-13.5 35.55) rotate(-14.42)" xlink:href="#linear-gradient-9"/>
    <linearGradient id="linear-gradient-23" x1="30.78" y1="81.53" x2="31.53" y2="81.53" xlink:href="#linear-gradient-9"/>
    <linearGradient id="linear-gradient-24" x1="155.63" y1="81.32" x2="156.84" y2="81.32" gradientTransform="translate(15.08 -24.02) rotate(9.24)" xlink:href="#linear-gradient-9"/>
  </defs>
  <g class="cls-21">
    <g id="Layer_1_copy" data-name="Layer 1 copy">
      <g>
        <path class="cls-12" d="m139.89,45.8l1.97-11.76-.46-5.7h-1.35l.89-5.61-.45-5.49h-1.25l.81-5.4-.43-5.29h-23.67l-.89,12.69.98,26.55h-3.37l.8-11.76-.19-5.7h-14.05l-.04-3.9h12.77l.77-12.59-.18-5.29h-23.66l-.25,27.48.22,11.76h-3.39l.38-26.55-.34-12.69h-10.14l-.91,27.48.8,11.76h-6.76l.1-2.44h3.39l.79-21.53-.9-12.64h-3.07l-.21-2.63h-20.28l-2.24,27.48,2.04,12.12h2.4l-.86,11.89h-.73l.03-.41-2.04-11.84h-10.85l-1.09,11.28-2.54-11.28H7.14l-4.57,31.57,4.16,11h25.44l.61-6.38-1.62-6.27h2.22l.59-6.14-1.45-6.03h1.85l-.08.8,2.66,11.36h1.59l1.43,6.27h1.7l1.41,6.38h10.92l.4-6.38h3.58l.35-6.27h3.57l.92-18.08-1.37-11.48h3.56l-1.51,31.21,1.39,11h25.44l.04-6.38-.1-6.27h.13l.03-6.14-.09-6.03h.12l.03-5.91-.15-11.48h3.61v42.21h10.9l.52-11-.09-4.74h2.86l.14,6.2h3.58l.27,9.54h10.9l1.39-11-1.51-31.21h3.57l-1.37,11.48.3,5.91h6.98l1.54,24.82h10.92l2.43-11-1.17-13.82h3.76l2.56-11.69-.58-6.06h-11.98ZM59.37,28.34l.23-3.9h1.22l-.22,3.9h-1.23Zm52.68,17.82l-.76,11.48v.41s-2.54,0-2.54,0l-.15-6.19h-3.66l-.1-5.7h7.22Z"/>
        <polygon class="cls-12" points="182.59 58.05 179.66 58.05 181.7 51.86 180.82 45.8 155.49 45.8 152.83 57.64 154.57 75.71 156.79 75.71 155.17 81.99 155.78 88.37 181.23 88.37 185.39 77.37 182.59 58.05"/>
      </g>
      <rect class="cls-13" x="106.64" y="47.67" width="3.4" height="2.43"/>
    </g>
    <g id="Layer_1" data-name="Layer 1">
      <g>
        <g class="cls-21">
          <polygon class="cls-13" points="68.58 6.61 69.61 19.3 69.5 21.88 68.46 9.24 68.58 6.61"/>
          <polygon class="cls-13" points="61.52 11.9 62.85 24.49 59.57 24.49 58.1 11.9 61.52 11.9"/>
          <polygon class="cls-13" points="112.72 11.9 111.95 24.49 98.86 24.49 99.07 11.9 112.72 11.9"/>
          <polygon class="cls-13" points="140.03 11.9 138.14 24.49 125.04 24.49 126.37 11.9 140.03 11.9"/>
          <polygon class="cls-13" points="140.92 22.78 138.96 35.15 125.62 35.15 127 22.78 140.92 22.78"/>
          <polygon class="cls-13" points="58.1 11.9 59.57 24.49 58.61 40.64 57.06 28.39 58.1 11.9"/>
          <polygon class="cls-13" points="71.86 9.24 72.76 21.88 71.97 43.42 71 31.23 71.86 9.24"/>
          <polygon class="cls-13" points="71 31.23 71.97 43.42 68.58 43.42 67.46 31.23 71 31.23"/>
          <path class="cls-28" d="m68.46,9.24h3.41s-.86,21.99-.86,21.99h-3.54s-.13,2.86-.13,2.86h-21.27s2.24-27.48,2.24-27.48h20.28s-.12,2.63-.12,2.63Zm-7.89,19.15l.94-16.49h-3.41s-1.04,16.49-1.04,16.49h3.51"/>
          <polygon class="cls-13" points="67.46 31.23 68.58 43.42 68.46 46.21 67.33 34.1 67.46 31.23"/>
          <path class="cls-1" d="m67.47,35.54l1,10.67h-20.37s-1.72-10.26-1.72-10.26c-.16-.97.59-1.86,1.57-1.86h17.94c.82,0,1.51.63,1.59,1.45Z"/>
          <path class="cls-27" d="m85.12,35.64l.33,10.57h-10.18s-.71-10.41-.71-10.41c-.06-.92.67-1.7,1.59-1.7h7.38c.86,0,1.57.68,1.59,1.54Z"/>
          <polygon class="cls-13" points="85.49 6.61 85.83 19.3 85.45 46.21 85.07 34.1 85.49 6.61"/>
          <polygon class="cls-30" points="85.49 6.61 85.07 34.1 74.44 34.1 75.35 6.61 85.49 6.61"/>
          <path class="cls-24" d="m113.34,35.8l-.71,10.41h-23.77s-.2-10.49-.2-10.49c-.02-.89.7-1.62,1.59-1.62h21.49c.92,0,1.65.78,1.59,1.7Z"/>
          <polygon class="cls-18" points="112.54 6.61 112.72 11.9 99.07 11.9 99.22 28.39 113.26 28.39 113.45 34.1 88.63 34.1 88.88 6.61 112.54 6.61"/>
          <polygon class="cls-13" points="117.01 34.1 116.03 46.21 115.04 19.3 115.93 6.61 117.01 34.1"/>
          <path class="cls-25" d="m141.53,35.95l-1.72,10.26h-23.77s.86-10.65.86-10.65c.07-.83.76-1.47,1.59-1.47h21.47c.99,0,1.74.89,1.57,1.86Z"/>
          <polygon class="cls-31" points="139.6 6.61 140.03 11.9 126.37 11.9 126.68 17.3 140.47 17.3 140.92 22.78 127 22.78 127.32 28.39 141.37 28.39 141.84 34.1 117.01 34.1 115.93 6.61 139.6 6.61"/>
          <polygon class="cls-13" points="32.43 45.85 35.09 57.69 34.53 63.6 31.81 51.91 32.43 45.85"/>
          <polygon class="cls-13" points="31.81 51.91 34.53 63.6 20.55 63.6 17.19 51.91 31.81 51.91"/>
          <polygon class="cls-13" points="90.33 45.85 90.48 57.69 90.45 63.6 90.29 51.91 90.33 45.85"/>
          <polygon class="cls-13" points="90.29 51.91 90.45 63.6 76.47 63.6 75.67 51.91 90.29 51.91"/>
          <polygon class="cls-13" points="126.85 51.91 125.41 63.6 125.11 57.69 126.52 45.85 126.85 51.91"/>
          <polygon class="cls-13" points="134.15 51.91 132.39 63.6 125.41 63.6 126.85 51.91 134.15 51.91"/>
          <polygon class="cls-13" points="152.43 51.91 149.87 63.6 142.89 63.6 145.12 51.91 152.43 51.91"/>
          <polygon class="cls-13" points="181.66 51.91 177.83 63.6 163.84 63.6 167.04 51.91 181.66 51.91"/>
          <polygon class="cls-13" points="17.19 51.91 20.55 63.6 19.83 69.63 16.41 58.1 17.19 51.91"/>
          <polygon class="cls-13" points="46.91 45.85 48.94 57.69 48.06 69.63 45.94 58.1 46.91 45.85"/>
          <polygon class="cls-13" points="75.67 51.91 76.47 63.6 76.3 69.63 75.48 58.1 75.67 51.91"/>
          <polygon class="cls-13" points="31.17 58.1 33.95 69.63 33.36 75.77 30.53 64.4 31.17 58.1"/>
          <polygon class="cls-13" points="30.53 64.4 33.36 75.77 19.11 75.77 15.61 64.4 30.53 64.4"/>
          <polygon class="cls-13" points="37.98 64.4 40.48 75.77 36.93 75.77 34.27 64.4 37.98 64.4"/>
          <polygon class="cls-13" points="60.38 64.4 61.87 75.77 58.3 75.77 56.63 64.4 60.38 64.4"/>
          <polygon class="cls-13" points="61.38 45.85 62.79 57.69 61.87 75.77 60.38 64.4 61.38 45.85"/>
          <polygon class="cls-13" points="90.25 58.1 90.42 69.63 90.38 75.77 90.21 64.4 90.25 58.1"/>
          <polygon class="cls-13" points="90.21 64.4 90.38 75.77 76.12 75.77 75.29 64.4 90.21 64.4"/>
          <polygon class="cls-13" points="157.36 64.4 154.54 75.77 152.8 57.69 155.46 45.85 157.36 64.4"/>
          <polygon class="cls-13" points="172.29 64.4 168.79 75.77 154.54 75.77 157.36 64.4 172.29 64.4"/>
          <polygon class="cls-13" points="15.61 64.4 19.11 75.77 18.36 82.04 14.8 70.85 15.61 64.4"/>
          <polygon class="cls-13" points="41.18 70.85 43.55 82.04 39.94 82.04 37.4 70.85 41.18 70.85"/>
          <polygon class="cls-13" points="56.63 64.4 58.3 75.77 57.94 82.04 56.25 70.85 56.63 64.4"/>
          <polygon class="cls-13" points="56.25 70.85 57.94 82.04 54.36 82.04 52.49 70.85 56.25 70.85"/>
          <polygon class="cls-13" points="75.29 64.4 76.12 75.77 75.94 82.04 75.1 70.85 75.29 64.4"/>
          <polygon class="cls-13" points="173.1 70.85 169.54 82.04 168.79 75.77 172.29 64.4 173.1 70.85"/>
          <path class="cls-26" d="m29.51,78.61l2.09,7.81c.27,1.01-.49,2.01-1.54,2.01H7.8c-.66,0-1.26-.41-1.49-1.03l-2.95-7.81c-.39-1.04.38-2.16,1.49-2.16h23.13c.72,0,1.35.48,1.54,1.18Z"/>
          <polygon class="cls-13" points="29.87 70.85 32.75 82.04 32.14 88.42 29.19 77.42 29.87 70.85"/>
          <polygon class="cls-20" points="32.43 45.85 31.81 51.91 17.19 51.91 16.41 58.1 31.17 58.1 30.53 64.4 15.61 64.4 14.8 70.85 29.87 70.85 29.19 77.42 2.53 77.42 7.1 45.85 32.43 45.85"/>
          <path class="cls-19" d="m52.29,78.75l1.35,7.81c.17.97-.58,1.87-1.57,1.87h-7.74c-.75,0-1.4-.52-1.56-1.25l-1.72-7.81c-.22-.99.54-1.94,1.56-1.94h8.11c.78,0,1.44.56,1.57,1.32Z"/>
          <polygon class="cls-32" points="61.38 45.85 60.38 64.4 56.63 64.4 56.25 70.85 52.49 70.85 52.06 77.42 40.62 77.42 41.18 70.85 37.4 70.85 37.98 64.4 34.27 64.4 36.06 45.85 46.91 45.85 45.94 58.1 49.64 58.1 50.52 45.85 61.38 45.85"/>
          <polygon class="cls-13" points="52.49 70.85 54.36 82.04 53.96 88.42 52.06 77.42 52.49 70.85"/>
          <path class="cls-33" d="m90.16,78.99l.12,7.81c.01.89-.7,1.62-1.59,1.62h-22.42c-.8,0-1.48-.6-1.58-1.39l-.98-7.81c-.12-.95.62-1.79,1.58-1.79h23.28c.87,0,1.58.7,1.59,1.57Z"/>
          <polygon class="cls-13" points="90.18 70.85 90.35 82.04 90.31 88.42 90.14 77.42 90.18 70.85"/>
          <polygon class="cls-16" points="90.33 45.85 90.29 51.91 75.67 51.91 75.48 58.1 90.25 58.1 90.21 64.4 75.29 64.4 75.1 70.85 90.18 70.85 90.14 77.42 63.48 77.42 65 45.85 90.33 45.85"/>
          <polygon class="cls-13" points="135.84 77.42 133.93 88.42 132.39 63.6 134.15 51.91 135.84 77.42"/>
          <path class="cls-14" d="m146.85,79.36l-1.72,7.81c-.16.73-.81,1.25-1.56,1.25h-7.74c-.99,0-1.74-.89-1.57-1.87l1.35-7.81c.13-.76.8-1.32,1.57-1.32h8.11c1.02,0,1.78.94,1.56,1.94Z"/>
          <polygon class="cls-22" points="151.84 45.85 152.43 51.91 145.12 51.91 147.28 77.42 135.84 77.42 134.15 51.91 126.85 51.91 126.52 45.85 151.84 45.85"/>
          <polygon class="cls-13" points="158.7 77.42 155.75 88.42 155.14 82.04 158.02 70.85 158.7 77.42"/>
          <polygon class="cls-2" points="180.79 45.85 181.66 51.91 167.04 51.91 167.79 58.1 182.56 58.1 185.36 77.42 158.7 77.42 158.02 70.85 173.1 70.85 172.29 64.4 157.36 64.4 155.46 45.85 180.79 45.85"/>
          <path class="cls-15" d="m184.54,79.58l-2.95,7.81c-.23.62-.83,1.03-1.49,1.03h-22.27c-1.05,0-1.81-.99-1.54-2.01l2.09-7.81c.19-.7.82-1.18,1.54-1.18h23.13c1.11,0,1.89,1.12,1.49,2.16Z"/>
        </g>
        <g class="cls-21">
          <polygon class="cls-13" points="112.41 58.1 111.59 69.63 111.26 57.69 112.04 45.85 112.41 58.1"/>
          <polygon class="cls-13" points="108.79 61.23 108.13 72.68 104.58 72.68 105.07 61.23 108.79 61.23"/>
          <polygon class="cls-13" points="108.95 67.61 108.27 78.88 108.13 72.68 108.79 61.23 108.95 67.61"/>
          <polygon class="cls-13" points="112.7 67.61 111.86 78.88 108.27 78.88 108.95 67.61 112.7 67.61"/>
          <path class="cls-29" d="m105.29,79.09l-.37,7.81c-.04.85-.74,1.52-1.59,1.52h-7.79c-.88,0-1.59-.71-1.59-1.59v-7.81c0-.88.71-1.59,1.59-1.59h8.15c.91,0,1.64.76,1.59,1.67Z"/>
          <polygon class="cls-13" points="112.99 77.42 112.13 88.42 111.86 78.88 112.7 67.61 112.99 77.42"/>
          <path class="cls-17" d="m124.19,79.22l-.98,7.81c-.1.8-.78,1.39-1.58,1.39h-7.77c-.93,0-1.66-.79-1.59-1.72l.62-7.81c.07-.83.76-1.47,1.59-1.47h8.14c.96,0,1.7.84,1.58,1.79Z"/>
          <polygon class="cls-23" points="122.89 45.85 124.41 77.42 112.99 77.42 112.7 67.61 108.95 67.61 108.79 61.23 105.07 61.23 105.36 77.42 93.95 77.42 93.95 45.85 104.79 45.85 104.9 51.91 108.57 51.91 108.72 58.1 112.41 58.1 112.04 45.85 122.89 45.85"/>
        </g>
      </g>
      <path class="cls-5" d="m93.41,83.92c0,.2.69.4,1.72.4l8.36.5c.92.1,1.72,0,1.72-.2s-.69-.4-1.72-.4l-8.36-.5c-.92-.1-1.6,0-1.72.2Z"/>
      <path id="Shape" class="cls-6" d="m97.19,84.72c-.8-.2-.57-.3.34-.3s2.29.2,3.09.4c.8.2.57.4-.34.3-1.03,0-2.4-.2-3.09-.4Z"/>
      <path id="Shape-2" data-name="Shape" class="cls-9" d="m53.41,83.74c.1-.3-.5-.5-1.3-.5l-2.3.2c-.8.1-.8.2,0,.3l1.9.3c.8.2,1.6,0,1.7-.3Z"/>
      <path id="Shape-3" data-name="Shape" class="cls-6" d="m48.91,84.14c-.8-.1-.7-.3.1-.4h.3c.8-.1,1.8,0,2.2.3.4.2.3.4-.3.4-.5,0-1.5-.2-2.3-.3Z"/>
      <path id="Shape-4" data-name="Shape" class="cls-9" d="m90.71,83.27c-.14-.31-.43-.51-.35-.67.06-.12.26-.12.26-.17,0-.1-.72-.12-.72-.12-.77-.02-1.26.04-2.36.17-.7.08-.96.1-.97.2-.02.12.26.28.81.43l.79.16c.94.05,1.46.35,1.78.68.3.31.41.63.57.6.22-.04.43-.76.19-1.28Z"/>
    </g>
    <g id="Layer_3" data-name="Layer 3">
      <g>
        <path class="cls-4" d="m43.64,53.45c.1-.8-.4-1.5-1.3-1.5h-1.8c-.6,0-5.3-.05-5.3-.05h0s-.21.04-.62.11c-.23.07-.34.14-.34.2,0,.12.39.22,1.16.31,2.06,0,4.13.02,6.19.03.8,0,1.4.7,1.3,1.5l-.2,1.9c-.1.8-.9,1.5-1.7,1.5h-6.3c-.8,0-1.5.1-1.5.3s.7.3,1.5.3h12.6c.8,0,1.5-.1,1.5-.3s-.7-.3-1.5-.3h-2.7c-.8,0-1.4-.7-1.3-1.5l.3-2.5Z"/>
        <path id="Shape-5" data-name="Shape" class="cls-9" d="m34.24,52.45h2.7c.8,0,.8-.1,0-.3l-.7-.1c-.8-.2-1.4,0-1.4.3l-.6.1Z"/>
        <path id="Shape-6" data-name="Shape" class="cls-9" d="m46.63,57.81c-.1.3-.9.3-1.7.1h-.2c-.8-.2-.8-.4,0-.4h.6c.9-.1,1.4.1,1.3.3Z"/>
        <path id="Shape-7" data-name="Shape" class="cls-3" d="m37.99,56.98c-.8,0-1.4.08-1.3.24.1.16.8.24,1.6.24h1.7c.8,0,1.6-.08,1.6-.24.1-.16-.5-.24-1.3-.24h-2.3Z"/>
        <path class="cls-5" d="m145.31,52.05s.03.08.07.17c.03.07.05.13.05.13,0,0,0,0,0,0,0,0,.04,0,.15-.01.12-.43.18-.65.18-.65,0,0-.55-5.76-.55-5.76,0,0-.24-.95-.33-.93-.03,0-.02.11-.05.35-.04.26-.08.35-.11.52-.03.16-.05.4,0,.71.25,1.48.28,2.99.47,4.48.07.55.11.83.11.84,0,.02,0,.08.02.15Z"/>
        <path id="Shape-8" data-name="Shape" class="cls-9" d="m145.52,53.17c-.29-.07-.42-.82-.33-1.62l.07-.29c.09-.8.31-.85.51.02l.08.53c.11.85-.03,1.43-.33,1.36Z"/>
        <path class="cls-5" d="m161.23,56c0,.4.8.7,1.6.7h.3c.8,0,1.6,0,1.7.1.1,0,.5.3.7.2.2-.1,0-.3-.2-.6-.3-.2-1.2-.4-2-.4s-1.5-.7-1.6-1.5l-.8-7.2c-.1-.8-.3-1.5-.5-1.5s-.2.7-.1,1.5l.6,5.7c.1.8-.5,1.5-1.3,1.5h-1.9c-.8,0-1.5.1-1.5.3s.7.3,1.5.3h1.9c.9.2,1.6.5,1.6.9Z"/>
        <path id="Shape-9" data-name="Shape" class="cls-9" d="m155.46,55.12c0-.4.6-.7,1.4-.6h.2c.8,0,.9.3.1.6l-.3.1c-.7.4-1.4.3-1.4-.1Z"/>
        <path id="Shape-10" data-name="Shape" class="cls-3" d="m159.01,54.04c-.8,0-1.3.2-1.3.3s.6.3,1.3.3,1.3-.1,1.3-.3-.5-.3-1.3-.3Z"/>
        <path class="cls-5" d="m146.42,69.2c0-.21-.73-.31-1.56-.31h-8.75c-.83,0-1.56.1-1.56.31s.73.31,1.56.31h8.75c.83,0,1.56-.1,1.56-.31"/>
        <path id="Shape-11" data-name="Shape" class="cls-9" d="m134.44,69.2c-.1-.52.42-.83,1.25-.73l2.81.42c.83.1.83.31,0,.52l-2.29.42c-.83.1-1.67-.21-1.77-.62Z"/>
        <path id="Shape-12" data-name="Shape" class="cls-10" d="m134.98,68.75c-.18-.28-.58.26-.7,1.04l-.61,3.06c-.22.81-.1.88.23.05l.92-2.28c.35-.73.34-1.59.16-1.87Z"/>
        <path id="Shape-13" data-name="Shape" class="cls-3" d="m138.72,68.16c-.83,0-1.46.1-1.35.31.1.1.83.31,1.67.31h1.67c.83,0,1.67-.1,1.67-.31.1-.21-.52-.31-1.35-.31h-2.29Z"/>
        <path class="cls-5" d="m177.16,75.39c.1.8-.2,2-.6,2.7-.4.7-.7,1.9-.5,2,.2.1.5-.5.7-1.3.2-.7.9-1.4,1-1.4s.1-.7.1-1.5l-.2-3.1c-.1-.8.6-1.5,1.4-1.5h4.8c.8,0,1.5-.1,1.5-.3s-.7-.3-1.5-.3h-5.5c-.8,0-1.5.7-1.4,1.5l.2,3.2Z"/>
        <path id="Shape-14" data-name="Shape" class="cls-3" d="m179.76,70.09c-.8,0-1.4.1-1.3.3.1.1.8.3,1.6.3h1.6c.8,0,1.6-.1,1.6-.3.1-.2-.5-.3-1.3-.3h-2.2Z"/>
        <path id="Shape-15" data-name="Shape" class="cls-9" d="m185.56,71.07c.12.27-.46.43-1.22.22h-.22c-.84-.17-.84-.4-.12-.51.68-.2,1.39-.08,1.56.28Z"/>
        <path class="cls-5" d="m4.65,68.56c-.8,0-1.5.2-1.5.4s.7.3,1.5.3l4.1-.2c.8,0,1.4.6,1.3,1.4l-.9,5.8c-.1.8,0,2.1.2,2.9l.1.4c.2.8.7,1.8,1,2.2.3.4.4.2.1-.6l-.6-2c-.2-.8-.3-2.1-.2-2.9l1-6.4c.1-.8-.4-1.5-1.3-1.4l-4.8.1Z"/>
        <path id="Shape-16" data-name="Shape" class="cls-9" d="m9.55,76.66c0-.6-.1-.6-.3,0-.1.6,0,1.8.3,2.6l.1.3c.3.8.4.8.2-.1v-.2c-.1-.8-.3-2-.3-2.6Z"/>
        <path id="Shape-17" data-name="Shape" class="cls-9" d="m2.77,68.96c-.03-.3.36-.47.84-.42l.96.04c.14,0,1.01.08,1.02.24,0,.15-.73.31-.89.35-.33.06-.66.12-1,.19-.44.06-.91-.09-.94-.4Z"/>
        <path id="Shape-18" data-name="Shape" class="cls-3" d="m4.16,77.12c-.8,0-1.4.1-1.3.3.1.1.8.3,1.7.3h2.1c.8,0,1.6-.1,1.7-.3.1-.2-.5-.3-1.3-.3h-2.9Z"/>
        <path id="Shape-19" data-name="Shape" class="cls-3" d="m6.95,68.16c-.8,0-1.4.2-1.4.3.1.1.8.3,1.6.3h.4c.8,0,1.5-.1,1.6-.3.1-.2-.5-.3-1.4-.3h-.8Z"/>
        <path class="cls-5" d="m82.7,60.08c0-.94-.2-1.76-.4-1.76s-.3.82-.3,1.76v3.29c0,.94.2,1.29.4.82.2-.47.4-1.76.3-2.71v-1.41Z"/>
        <path id="Shape-20" data-name="Shape" class="cls-9" d="m82.5,58.11c-.3-.1-.4.4-.3,1.2v.3c.1.8.3.9.5.1.1-.7,0-1.5-.2-1.6Z"/>
        <path id="Shape-21" data-name="Shape" class="cls-3" d="m75.3,64.21c.1.1.9.3,1.7.3h3c.8,0,1.6-.1,1.7-.3.1-.2-.5-.3-1.3-.3h-3.8c-.8,0-1.4.1-1.3.3"/>
        <path id="Shape-22" data-name="Shape" class="cls-3" d="m90.12,64.21c.12-.2-.62-.3-1.6-.3h-4.31c-.99,0-1.73.1-1.6.3.12.1,1.11.3,2.1.3h3.33c.99,0,1.97-.1,2.1-.3"/>
        <path class="cls-5" d="m135.74,28.35c-.1.3-.2,1.2-.1,2l.1,1c.1.8.1,2.2,0,3l-.9,6.2c-.1.8,0,1.5.2,1.5s.5-.7.6-1.5l.8-6.1c.1-.8.1-2.2,0-3l-.2-2c-.2-1-.4-1.4-.5-1.1Z"/>
        <path class="cls-9" d="m88.7,39.71c0,.2.7.3,1.5.3h.1c.8,0,1.5-.1,1.5-.3s-.7-.3-1.5-.3h-.1c-.8-.1-1.5.1-1.5.3"/>
        <path class="cls-5" d="m91.1,14.31c.3.2,1.3.5,2.1.6l5,.8c.8.3,1.4.5,1.5.3s-.5-.5-1.3-.8l-6.4-1.1c-.8,0-1.2,0-.9.2Z"/>
        <path id="Shape-23" data-name="Shape" class="cls-9" d="m88.4,40.11c0-.4.6-.7,1.3-.6.8.1.8.4.1.8-.7.4-1.3.2-1.4-.2"/>
        <path id="Shape-24" data-name="Shape" class="cls-9" d="m135.93,33.37c.08-.41.34-.41.42,0h0c.17.41.08,1.09-.08,1.5l-.17.36c-.17.41-.34.41-.34,0v-.31c0-.47.08-1.14.17-1.55Z"/>
        <path id="Shape-25" data-name="Shape" class="cls-9" d="m99.5,16.31c0,.3-.6.2-1.2-.3l-.2-.1c-.7-.5-.6-.7.1-.5.7.1,1.3.5,1.3.9Z"/>
        <g id="Shape-26" data-name="Shape" class="cls-11">
          <path class="cls-9" d="m97.6,34.81c.1-.4.1-1,0-1.4s-.9-.7-1.8-.7h-.5c-.8,0-1.7.4-2,.8-.3.4.2,1,1,1.2l1.6.4c.8.2,1.6.1,1.7-.3Z"/>
        </g>
        <path id="Shape-27" data-name="Shape" class="cls-9" d="m96.4,33.71c-.5-.5-.5-1,.1-1,.5,0,1.2.3,1.4.6.3.3.1,1.2-.3,1.8-.4.7-.7.9-.5.4,0-.4-.3-1.2-.7-1.8Z"/>
        <path id="Shape-28" data-name="Shape" class="cls-6" d="m136.84,34.95c-.1-.4-.3-.4-.5.2s-.3,1.5-.3,2.2.2.6.5-.2h0c.3-.7.4-1.7.3-2.2Z"/>
        <path id="Shape-29" data-name="Shape" class="cls-6" d="m94,33.41c-.1-.4-.5-.4-.7.2-.3.5.1,1.2.8,1.6.7.4,1,.3.7-.2-.3-.4-.7-1.1-.8-1.6Z"/>
        <path id="Shape-30" data-name="Shape" class="cls-3" d="m88.7,33.91c.1.1.8.3,1.6.3h.7c.8,0,1.6-.1,1.6-.3.1-.2-.6-.3-1.4-.3h-1.1c-.8,0-1.4.2-1.4.3"/>
        <path id="Shape-31" data-name="Shape" class="cls-3" d="m112.54,11.6c.12-.2-.35-.3-1.41-.3h-10.48c-.94,0-1.53.1-1.41.3.24.1,1.18.3,2.12.3h9.07c.94,0,2-.1,2.12-.3"/>
        <path id="Shape-32" data-name="Shape" class="cls-3" d="m95.5,32.11c-.8,0-1.5.2-1.4.3s.7.3,1.5.3,1.4-.1,1.5-.3c0-.2-.7-.3-1.6-.3h0Z"/>
        <path id="Shape-33" data-name="Shape" class="cls-3" d="m93.4,13.61c-.8-.1-1.4,0-1.4.1.1.2.8.4,1.6.5l1.1.1c.8.1,1.6.1,1.7-.1.1-.2-.5-.4-1.3-.5l-1.7-.1Z"/>
        <path id="Shape-34" data-name="Shape" class="cls-3" d="m101.02,33.61c-1.39,0-2.43.1-2.09.3.17.1,1.56.3,2.96.3h8.34c1.39,0,2.78-.1,2.96-.3.17-.2-.7-.3-2.09-.3h-10.08Z"/>
        <path class="cls-5" d="m75.07,71.66c0,.8-.7,1.4-1.5,1.4h-1.8c-.8,0-1.5.7-1.5,1.5v1.8c0,.8.1,1.5.3,1.5s.3-.7.3-1.5v-1.1c0-.8.7-1.5,1.5-1.5h1.8c.8,0,1.5-.7,1.5-1.5v-.4c0-.8-.1-1.5-.3-1.5-.1,0-.3.6-.3,1.3Z"/>
        <path id="Shape-35" data-name="Shape" class="cls-9" d="m70.47,76.76c-.1-.3-.2.2-.2,1v.1c0,.8.1,1,.3.4.1-.6.1-1.3-.1-1.5Z"/>
        <path class="cls-5" d="m56.79,68.16c0-.2-.7-.3-1.5-.3h-2.4c-.8,0-1.2.1-.8.3.4.1,1.4.3,2.2.3h1c.8,0,1.5-.1,1.5-.3Z"/>
        <path class="cls-5" d="m85.45,13.67c0-.2-.7-.3-1.5-.3h-2.4c-.8,0-1.2.1-.8.3.4.1,1.4.3,2.2.3h1c.8,0,1.5-.1,1.5-.3Z"/>
        <path id="Shape-36" data-name="Shape" class="cls-9" d="m79.51,33c.04-.6-.18-.65-.48.11-.28.66-.26,1.68,0,2.34.27.56.49.61.48-.11.04-.6.02-1.63,0-2.34Z"/>
        <path id="Shape-37" data-name="Shape" class="cls-6" d="m78.2,35.18c-.08-.96-.15-.87-.23.1l-.02.73c-.08.97,0,2.09.13,2.64.13.55.35.29.28-.51s-.09-2.16-.16-2.96Z"/>
        <path id="Shape-38" data-name="Shape" class="cls-3" d="m75.2,33.93c0,.1.7.3,1.5.3s1.4-.1,1.5-.3c0-.2-.6-.3-1.4-.3h-.2c-.8,0-1.5.2-1.4.3"/>
        <path id="Shape-39" data-name="Shape" class="cls-3" d="m82,33.73c-.8,0-1.4.2-1.4.3.1.1.8.3,1.6.3h1c.8,0,1.6-.1,1.6-.3.1-.2-.5-.3-1.4-.3h-1.4Z"/>
        <path class="cls-5" d="m79.02,30.53h0c.05-.64.09-.81.09-.81.08-.36.28-.79.38-.77.12.03.2.63.06,3.09-.09.94-.1,1.7-.09,2.23,0,.83.07,1.42.05,2.6,0,.42-.02.77-.03.99,0,.72-.01,1.63-.11,1.64-.05,0-.11-.23-.13-.36-.25-1.11-.37-3.76-.42-4.75.06-1.29.13-2.57.19-3.86Z"/>
        <path id="Shape-40" data-name="Shape" class="cls-3" d="m89.84,77.42c.16-.2-.49-.3-1.98-.3h-14.67c-1.32,0-2.14.1-1.98.3.33.1,1.65.3,2.97.3h12.69c1.32,0,2.8-.1,2.97-.3"/>
        <path class="cls-5" d="m49.34,13.92c-.1.2.5.3,1.4.3h6.8c.8,0,1.5-.2,1.5-.4s-.7-.4-1.5-.4h-6.6c-.8.1-1.5.3-1.6.5Z"/>
        <path class="cls-5" d="m95.57,69.25c-.8,0-1.5.1-1.5.2s.7.3,1.5.4l7.3.4c.8,0,1.7.4,1.9.7.2.4.6.6.7.5s0-.5-.3-1c-.3-.4-1.2-.8-2-.9l-7.6-.3Z"/>
        <path id="Shape-41" data-name="Shape" class="cls-3" d="m98.23,68.95c-1.38,0-2.41.2-2.41.3.17.1,1.38.3,2.76.3h.69c1.38,0,2.59-.1,2.76-.3.17-.2-1.03-.3-2.41-.3h-1.38Z"/>
        <path class="cls-5" d="m111.51,51.95c.02.2.73.33,1.68.43l8.4-.06c.93,0,1.73-.18,1.72-.28-.02-.2-.85-.31-1.79-.32l-8.29.05c-.95-.1-1.75-.02-1.73.18Z"/>
        <path id="Shape-42" data-name="Shape" class="cls-3" d="m116.92,51.12c-1.4.06-2.61.29-2.42.37s1.26.26,2.66.2l.71.02c1.4-.06,2.79-.21,2.77-.41.15-.22-.91-.3-2.31-.24l-1.4.06Z"/>
        <path id="Shape-43" data-name="Shape" class="cls-9" d="m58.3,14.34l-1.56-.36c-.79-.13-.76-.33.07-.39l1.86-.2"/>
        <path id="Shape-44" data-name="Shape" class="cls-9" d="m110.34,52.1c.15-.4,1.2-.6,2.39-.4h.15c1.2.2,1.2.5,0,.7l-.45.1c-1.34.2-2.24,0-2.09-.4Z"/>
        <path class="cls-5" d="m62.33,25.45c-.8,0-1.5.2-1.5.3,0,.2.7.3,1.5.3l8.9,1c.8.1,1.5,0,1.6-.2.1-.2-.6-.4-1.4-.4l-9.1-1Z"/>
        <path id="Shape-45" data-name="Shape" class="cls-9" d="m71.77,27.51l-1.8-.7c-.8-.3-.7-.5.1-.4l1.9.2"/>
        <path id="Shape-46" data-name="Shape" class="cls-3" d="m65.45,25.09c-.8-.1-1.4,0-1.4.1.1.2.8.4,1.6.5l1.1.1c.8.1,1.6.1,1.7-.1.1-.2-.5-.4-1.3-.5l-1.7-.1Z"/>
        <path class="cls-5" d="m122.88,13.1c0-.11,0-.31.14-.48.18-.23.48-.28.62-.3,1.2-.16,2.79-.08,2.8-.08.05,0,.11.02.19.04.14.04.48.14.48.23,0,.03-.05.1-.5.16-.68.1-1.29.06-2.12.09-.23.01-.4.03-.55.15-.25.2-.26.56-.26.72-.02,1.03.18,3.69.23,4.58.03.46.04.93-.27,1.32-.29.37-.73.5-1.01.55-.52,0-2.78.04-2.78.04-.21,0-.39,0-.53,0-.56,0-.76-.03-.95-.14-.12-.06-.24-.13-.23-.19.02-.14.59-.1,1.64-.27.5-.08.62-.12,1.02-.15.41-.03.75-.02.97,0,.06,0,.59.07.97-.34.29-.31.38-.77.23-1.19-.03-.13-.13-.56-.53-.89-.36-.3-.74-.35-.88-.37-1.85.04-3.71.07-5.56.11.27-.21.32-.33.29-.41-.03-.11-.22-.22-.22-.22,1.18-.02,6.02-.1,6.02-.11,0,0,0,0,0,0,.1-.02.3-.08.48-.24.28-.25.34-.58.35-.68-.01-.65-.02-1.3-.03-1.95Z"/>
        <path id="Shape-47" data-name="Shape" class="cls-9" d="m115.24,16.36c-.03-.09-.03-.13-.02-.16.03-.18.28-.22.64-.14.09,0,.17-.02.26-.02.45.13.73.25.88.32.05.02.13.06.13.11,0,.09-.27.15-.49.19-.24.05-.47.1-.71.16-.08,0-.53-.03-.68-.45Z"/>
        <path id="Shape-48" data-name="Shape" class="cls-9" d="m127.36,12.52c-.16.03-.39.09-.57.27-.02.02-.05.05-.07.07,0,.03.01.07.02.1-.19-.09-.47-.2-.83-.27-.58-.11-1.03-.05-1.04-.13,0-.04.06-.1.4-.22.07-.03.14-.05.22-.07.08-.02.14-.03.2-.04.25-.04.64-.06.7-.06.11.03.22.06.33.1.24.08.45.17.65.26Z"/>
        <path id="Shape-49" data-name="Shape" class="cls-3" d="m118.34,15.49c-.7,0-1.22.08-1.13.23.09.08.7.23,1.39.23h1.39c.7,0,1.39-.08,1.39-.23.09-.15-.44-.23-1.13-.23h-1.92Z"/>
        <path id="Shape-50" data-name="Shape" class="cls-3" d="m52.42,12.93c-.8,0-1.4.1-1.3.3.1.2.8.3,1.7.3h2.2c.8,0,1.6-.1,1.7-.3s-.5-.3-1.3-.3h-3Z"/>
        <path class="cls-5" d="m51.07,31.46c-.3.4-.6,1.1-.7,1.7-.1.5,0,1.5.2,2.1.2.6.7,1.4.9,1.8.3.3.3,0,0-.8l-.2-.8c-.3-.8-.3-2.1-.1-2.9v-.4c.2-.8.1-1.1-.1-.7"/>
        <path id="Shape-51" data-name="Shape" class="cls-9" d="m50.93,33.49c-.03-.31-.25-.26-.41.01-.16.27-.19.88.02,1.33.21.45.4.5.41-.01,0-.51.04-1.12-.02-1.33Z"/>
        <path id="Shape-52" data-name="Shape" class="cls-6" d="m50.01,34.39c-.2-.03-.18.48.02,1.12.2.64.3.66.3.05,0-.61-.12-1.13-.32-1.17Z"/>
        <path class="cls-5" d="m18.08,53.49c.18.08.36-.61.48-1.42l.37-2.99c.12-.82.07-1.48-.11-1.56s-.36.61-.48,1.42l-.37,2.99c-.03.85.02,1.52.11,1.56Z"/>
        <path id="Shape-53" data-name="Shape" class="cls-9" d="m18.05,53.37c-.28-.12-.27-.88-.05-1.65l.12-.28c.22-.77.45-.79.5.11v.54c-.06.85-.29,1.4-.57,1.29Z"/>
        <path id="Shape-54" data-name="Shape" class="cls-3" d="m95.49,76.82c-.95,0-1.66.1-1.43.3.24.2,1.19.3,2.14.3h6.9c.95,0,1.9-.1,2.14-.3.24-.2-.48-.3-1.43-.3h-8.32Z"/>
        <path id="Shape-55" data-name="Shape" class="cls-3" d="m114.47,76.82c-.95,0-1.66.1-1.43.3.24.2,1.19.3,2.14.3h6.9c.95,0,1.9-.1,2.14-.3.24-.2-.48-.3-1.43-.3h-8.32Z"/>
        <path id="Shape-56" data-name="Shape" class="cls-3" d="m137.39,77.12c-.95,0-1.66.1-1.43.3.24.2,1.19.3,2.14.3h6.9c.95,0,1.9-.1,2.14-.3.24-.2-.48-.3-1.43-.3h-8.32Z"/>
        <path id="Shape-57" data-name="Shape" class="cls-3" d="m42.19,76.82c-.95,0-1.66.1-1.43.3.24.2,1.19.3,2.14.3h6.9c.95,0,1.9-.1,2.14-.3.24-.2-.48-.3-1.43-.3h-8.32Z"/>
        <path id="Shape-58" data-name="Shape" class="cls-3" d="m119.61,33.34c-1.79,0-3.14.13-2.69.38.22.13,2.02.38,3.81.38h10.76c1.79,0,3.59-.13,3.81-.38.22-.25-.9-.38-2.69-.38h-13.01Z"/>
        <path id="Shape-59" data-name="Shape" class="cls-3" d="m129.18,22.13c-1.34,0-2.34.11-2.01.33.17.11,1.51.33,2.85.33h8.04c1.34,0,2.68-.11,2.85-.33.17-.22-.67-.33-2.01-.33h-9.71Z"/>
        <path id="Shape-60" data-name="Shape" class="cls-3" d="m128.56,11.27c-1.3,0-2.28.11-1.96.33.16.11,1.47.33,2.77.33h7.83c1.3,0,2.61-.11,2.77-.33.16-.22-.65-.33-1.96-.33h-9.46Z"/>
        <path id="Shape-61" data-name="Shape" class="cls-3" d="m66.75,34.1c.14-.2-.41-.3-1.65-.3h-12.2c-1.1,0-1.78.1-1.65.3.27.1,1.37.3,2.47.3h10.56c1.1,0,2.33-.1,2.47-.3"/>
        <path id="Shape-62" data-name="Shape" class="cls-3" d="m31.5,51.63c.11-.2-.34-.3-1.34-.3h-9.96c-.89,0-1.45.1-1.34.3.22.1,1.12.3,2.01.3h8.61c.89,0,1.9-.1,2.01-.3"/>
        <path id="Shape-63" data-name="Shape" class="cls-3" d="m30.51,64.1c.13-.2-.39-.3-1.55-.3h-11.46c-1.03,0-1.67.1-1.55.3.26.1,1.29.3,2.32.3h9.92c1.03,0,2.19-.1,2.32-.3"/>
        <path id="Shape-64" data-name="Shape" class="cls-3" d="m47.47,33.61c-.71,0-1.25.2-1.25.3s.71.3,1.43.3h.8c.71,0,1.43-.1,1.43-.3.09-.2-.45-.3-1.25-.3h-1.16Z"/>
        <path id="Shape-65" data-name="Shape" class="cls-3" d="m68.67,30.69c-.65,0-1.15.2-1.15.3s.65.3,1.31.3h.74c.65,0,1.31-.1,1.31-.3.08-.2-.41-.3-1.15-.3h-1.06Z"/>
        <path id="Shape-66" data-name="Shape" class="cls-3" d="m59.25,11.3c-.65,0-1.15.2-1.15.3s.65.3,1.31.3h.74c.65,0,1.31-.1,1.31-.3.08-.2-.41-.3-1.15-.3h-1.06Z"/>
        <path id="Shape-67" data-name="Shape" class="cls-3" d="m57.94,63.8c-.65,0-1.15.2-1.15.3s.65.3,1.31.3h.74c.65,0,1.31-.1,1.31-.3.08-.2-.41-.3-1.15-.3h-1.06Z"/>
        <path id="Shape-68" data-name="Shape" class="cls-3" d="m35.41,63.8c-.65,0-1.15.2-1.15.3s.65.3,1.31.3h.74c.65,0,1.31-.1,1.31-.3.08-.2-.41-.3-1.15-.3h-1.06Z"/>
        <path id="Shape-69" data-name="Shape" class="cls-3" d="m38.69,70.25c-.65,0-1.15.2-1.15.3s.65.3,1.31.3h.74c.65,0,1.31-.1,1.31-.3.08-.2-.41-.3-1.15-.3h-1.06Z"/>
        <path id="Shape-70" data-name="Shape" class="cls-3" d="m53.83,70.25c-.65,0-1.15.2-1.15.3s.65.3,1.31.3h.74c.65,0,1.31-.1,1.31-.3.08-.2-.41-.3-1.15-.3h-1.06Z"/>
        <path id="Shape-71" data-name="Shape" class="cls-3" d="m65.21,77.12c-.93,0-1.63.1-1.51.3.12.1.93.3,1.97.3h2.44c.93,0,1.86-.1,1.97-.3.12-.2-.58-.3-1.51-.3h-3.37Z"/>
        <path id="Shape-72" data-name="Shape" class="cls-3" d="m28.6,77.42c.16-.2-.49-.3-1.98-.3h-14.67c-1.32,0-2.14.1-1.98.3.33.1,1.65.3,2.97.3h12.69c1.32,0,2.8-.1,2.97-.3"/>
        <path id="Shape-73" data-name="Shape" class="cls-3" d="m181.64,51.91c.13-.2-.39-.3-1.55-.3h-11.46c-1.03,0-1.67.1-1.55.3.26.1,1.29.3,2.32.3h9.92c1.03,0,2.19-.1,2.32-.3"/>
        <path id="Shape-74" data-name="Shape" class="cls-3" d="m171.93,64.1c.13-.2-.39-.3-1.55-.3h-11.46c-1.03,0-1.67.1-1.55.3.26.1,1.29.3,2.32.3h9.92c1.03,0,2.19-.1,2.32-.3"/>
        <path id="Shape-75" data-name="Shape" class="cls-3" d="m127.78,51.33c-.6,0-1.05.1-.9.3.15.2.75.3,1.35.3h4.35c.6,0,1.2-.1,1.35-.3.15-.2-.3-.3-.9-.3h-5.25Z"/>
        <path id="Shape-76" data-name="Shape" class="cls-3" d="m146.78,51.33c-.53,0-.94.1-.8.3.13.2.67.3,1.2.3h3.87c.53,0,1.07-.1,1.2-.3.13-.2-.27-.3-.8-.3h-4.68Z"/>
        <path id="Shape-77" data-name="Shape" class="cls-3" d="m90.33,51.63c.13-.2-.39-.3-1.55-.3h-11.46c-1.03,0-1.67.1-1.55.3.26.1,1.29.3,2.32.3h9.92c1.03,0,2.19-.1,2.32-.3"/>
        <path id="Shape-78" data-name="Shape" class="cls-3" d="m105.19,60.93c0,.1.84.3,1.8.3s1.68-.1,1.8-.3c0-.2-.72-.3-1.68-.3h-.24c-.96,0-1.8.2-1.68.3"/>
        <path id="Shape-79" data-name="Shape" class="cls-3" d="m108.99,67.26c0,.1.85.3,1.82.3s1.69-.1,1.82-.3c0-.2-.73-.3-1.69-.3h-.24c-.97,0-1.82.2-1.69.3"/>
        <path id="Shape-80" data-name="Shape" class="cls-8" d="m30.93,83.08c-.2-.3-.2-1.1,0-1.9l.2-.7c.2-.8.4-.8.4.1l-.1,1.5c-.1.8-.3,1.3-.5,1Z"/>
        <path id="Shape-81" data-name="Shape" class="cls-9" d="m30.69,82.67c-.3-.3-1.2-.5-2-.4l-1.4.2c-.8.1-.8.3,0,.4l2.4.3c.8,0,1.3-.1,1-.5Z"/>
        <path id="Shape-82" data-name="Shape" class="cls-6" d="m26.86,83.39c-.7-.2-.6-.3.1-.3.7.1,1.8.2,2.4.3.6.1.5.2-.1.3-.7,0-1.8-.1-2.4-.3Z"/>
      </g>
      <path id="Shape-83" data-name="Shape" class="cls-6" d="m86.79,83.55c-.66-.33-.54-.42.15-.32.68.21,1.75.48,2.33.68.58.2.46.3-.15.32-.69-.1-1.76-.37-2.33-.68Z"/>
      <path id="Shape-84" data-name="Shape" class="cls-9" d="m155.38,82.15c.3-.4,1.2-.7,2.1-.5l3.1.6c.8.2.8.3,0,.4l-4.2.2c-.9.1-1.3-.2-1-.7Z"/>
      <path id="Shape-85" data-name="Shape" class="cls-7" d="m156.37,83.02c.27-.09.35-.62.24-1.11l-.5-1.97c-.11-.49-.23-.51-.26.03l.02,2.23c.04.55.23.91.5.82Z"/>
      <path id="Shape-86" data-name="Shape" class="cls-3" d="m161.01,77.12c-1.5,0-2.62.1-2.24.3.37.2,1.87.3,3.37.3h10.85c1.5,0,2.99-.1,3.37-.3.37-.2-.75-.3-2.24-.3h-13.09Z"/>
      <path id="Shape-87" data-name="Shape" class="cls-3" d="m180,77.12c-1.2,0-2.11.1-1.96.3.15.1,1.2.3,2.41.3h2.41c1.2,0,2.41-.1,2.41-.3.15-.2-.75-.3-1.96-.3h-3.31Z"/>
      <path id="Shape-88" data-name="Shape" class="cls-3" d="m138.13,33.5c-.82,0-1.43.1-1.32.3.1.1.82.3,1.63.3h1.63c.82,0,1.63-.1,1.63-.3.1-.2-.51-.3-1.32-.3h-2.24Z"/>
    </g>
  </g>
</svg>