<svg width="3347" height="908" xmlns="http://www.w3.org/2000/svg" xmlns:xlink="http://www.w3.org/1999/xlink" xml:space="preserve" overflow="hidden"><defs><clipPath id="clip0"><rect x="528" y="550" width="3347" height="908"/></clipPath><linearGradient x1="2201.5" y1="915" x2="2201.5" y2="1308" gradientUnits="userSpaceOnUse" spreadMethod="reflect" id="fill1"><stop offset="0" stop-color="#D0C5C0"/><stop offset="0.99" stop-color="#ABA09C"/><stop offset="1" stop-color="#ABA09C"/></linearGradient><linearGradient x1="2110" y1="1177" x2="2110" y2="1184" gradientUnits="userSpaceOnUse" spreadMethod="reflect" id="fill2"><stop offset="0" stop-color="#EDE5E2"/><stop offset="0.5" stop-color="#DED5D1"/><stop offset="1" stop-color="#D0C5C0"/></linearGradient><linearGradient x1="1367" y1="1177" x2="1367" y2="1184" gradientUnits="userSpaceOnUse" spreadMethod="reflect" id="fill3"><stop offset="0" stop-color="#EDE5E2"/><stop offset="0.5" stop-color="#DED5D1"/><stop offset="1" stop-color="#D0C5C0"/></linearGradient><linearGradient x1="1552.5" y1="1177" x2="1552.5" y2="1184" gradientUnits="userSpaceOnUse" spreadMethod="reflect" id="fill4"><stop offset="0" stop-color="#EDE5E2"/><stop offset="0.5" stop-color="#DED5D1"/><stop offset="1" stop-color="#D0C5C0"/></linearGradient><linearGradient x1="3735.5" y1="1177" x2="3735.5" y2="1184" gradientUnits="userSpaceOnUse" spreadMethod="reflect" id="fill5"><stop offset="0" stop-color="#EDE5E2"/><stop offset="0.5" stop-color="#DED5D1"/><stop offset="1" stop-color="#D0C5C0"/></linearGradient><linearGradient x1="633" y1="1301" x2="633" y2="1308" gradientUnits="userSpaceOnUse" spreadMethod="reflect" id="fill6"><stop offset="0" stop-color="#EDE5E2"/><stop offset="0.5" stop-color="#DED5D1"/><stop offset="1" stop-color="#D0C5C0"/></linearGradient><linearGradient x1="681" y1="1245" x2="681" y2="1252" gradientUnits="userSpaceOnUse" spreadMethod="reflect" id="fill7"><stop offset="0" stop-color="#EDE5E2"/><stop offset="0.5" stop-color="#DED5D1"/><stop offset="1" stop-color="#D0C5C0"/></linearGradient><linearGradient x1="693" y1="1204" x2="693" y2="1211" gradientUnits="userSpaceOnUse" spreadMethod="reflect" id="fill8"><stop offset="0" stop-color="#EDE5E2"/><stop offset="0.5" stop-color="#DED5D1"/><stop offset="1" stop-color="#D0C5C0"/></linearGradient><linearGradient x1="822" y1="1217" x2="822" y2="1224" gradientUnits="userSpaceOnUse" spreadMethod="reflect" id="fill9"><stop offset="0" stop-color="#EDE5E2"/><stop offset="0.5" stop-color="#DED5D1"/><stop offset="1" stop-color="#D0C5C0"/></linearGradient><linearGradient x1="966" y1="1301" x2="966" y2="1308" gradientUnits="userSpaceOnUse" spreadMethod="reflect" id="fill10"><stop offset="0" stop-color="#EDE5E2"/><stop offset="0.5" stop-color="#DED5D1"/><stop offset="1" stop-color="#D0C5C0"/></linearGradient><linearGradient x1="1157.5" y1="1217" x2="1157.5" y2="1224" gradientUnits="userSpaceOnUse" spreadMethod="reflect" id="fill11"><stop offset="0" stop-color="#EDE5E2"/><stop offset="0.5" stop-color="#DED5D1"/><stop offset="1" stop-color="#D0C5C0"/></linearGradient><linearGradient x1="1337.5" y1="1259" x2="1337.5" y2="1265" gradientUnits="userSpaceOnUse" spreadMethod="reflect" id="fill12"><stop offset="0" stop-color="#EDE5E2"/><stop offset="0.5" stop-color="#DED5D1"/><stop offset="1" stop-color="#D0C5C0"/></linearGradient><linearGradient x1="1743.5" y1="1204" x2="1743.5" y2="1211" gradientUnits="userSpaceOnUse" spreadMethod="reflect" id="fill13"><stop offset="0" stop-color="#EDE5E2"/><stop offset="0.5" stop-color="#DED5D1"/><stop offset="1" stop-color="#D0C5C0"/></linearGradient><linearGradient x1="1951.5" y1="1245" x2="1951.5" y2="1252" gradientUnits="userSpaceOnUse" spreadMethod="reflect" id="fill14"><stop offset="0" stop-color="#EDE5E2"/><stop offset="0.5" stop-color="#DED5D1"/><stop offset="1" stop-color="#D0C5C0"/></linearGradient><linearGradient x1="2568.5" y1="1204" x2="2568.5" y2="1211" gradientUnits="userSpaceOnUse" spreadMethod="reflect" id="fill15"><stop offset="0" stop-color="#EDE5E2"/><stop offset="0.5" stop-color="#DED5D1"/><stop offset="1" stop-color="#D0C5C0"/></linearGradient><linearGradient x1="2669.5" y1="1204" x2="2669.5" y2="1211" gradientUnits="userSpaceOnUse" spreadMethod="reflect" id="fill16"><stop offset="0" stop-color="#EDE5E2"/><stop offset="0.5" stop-color="#DED5D1"/><stop offset="1" stop-color="#D0C5C0"/></linearGradient><linearGradient x1="2925.5" y1="1259" x2="2925.5" y2="1265" gradientUnits="userSpaceOnUse" spreadMethod="reflect" id="fill17"><stop offset="0" stop-color="#EDE5E2"/><stop offset="0.5" stop-color="#DED5D1"/><stop offset="1" stop-color="#D0C5C0"/></linearGradient><linearGradient x1="3092" y1="1217" x2="3092" y2="1224" gradientUnits="userSpaceOnUse" spreadMethod="reflect" id="fill18"><stop offset="0" stop-color="#EDE5E2"/><stop offset="0.5" stop-color="#DED5D1"/><stop offset="1" stop-color="#D0C5C0"/></linearGradient><linearGradient x1="2883" y1="1301" x2="2883" y2="1308" gradientUnits="userSpaceOnUse" spreadMethod="reflect" id="fill19"><stop offset="0" stop-color="#EDE5E2"/><stop offset="0.5" stop-color="#DED5D1"/><stop offset="1" stop-color="#D0C5C0"/></linearGradient><linearGradient x1="2962.5" y1="1301" x2="2962.5" y2="1308" gradientUnits="userSpaceOnUse" spreadMethod="reflect" id="fill20"><stop offset="0" stop-color="#EDE5E2"/><stop offset="0.5" stop-color="#DED5D1"/><stop offset="1" stop-color="#D0C5C0"/></linearGradient><linearGradient x1="3105" y1="1301" x2="3105" y2="1308" gradientUnits="userSpaceOnUse" spreadMethod="reflect" id="fill21"><stop offset="0" stop-color="#EDE5E2"/><stop offset="0.5" stop-color="#DED5D1"/><stop offset="1" stop-color="#D0C5C0"/></linearGradient><linearGradient x1="3295" y1="1301" x2="3295" y2="1308" gradientUnits="userSpaceOnUse" spreadMethod="reflect" id="fill22"><stop offset="0" stop-color="#EDE5E2"/><stop offset="0.5" stop-color="#DED5D1"/><stop offset="1" stop-color="#D0C5C0"/></linearGradient><linearGradient x1="3770.5" y1="1301" x2="3770.5" y2="1308" gradientUnits="userSpaceOnUse" spreadMethod="reflect" id="fill23"><stop offset="0" stop-color="#EDE5E2"/><stop offset="0.5" stop-color="#DED5D1"/><stop offset="1" stop-color="#D0C5C0"/></linearGradient><linearGradient x1="2502.5" y1="1301" x2="2502.5" y2="1308" gradientUnits="userSpaceOnUse" spreadMethod="reflect" id="fill24"><stop offset="0" stop-color="#EDE5E2"/><stop offset="0.5" stop-color="#DED5D1"/><stop offset="1" stop-color="#D0C5C0"/></linearGradient><linearGradient x1="2582" y1="1301" x2="2582" y2="1308" gradientUnits="userSpaceOnUse" spreadMethod="reflect" id="fill25"><stop offset="0" stop-color="#EDE5E2"/><stop offset="0.5" stop-color="#DED5D1"/><stop offset="1" stop-color="#D0C5C0"/></linearGradient><linearGradient x1="2154" y1="1301" x2="2154" y2="1308" gradientUnits="userSpaceOnUse" spreadMethod="reflect" id="fill26"><stop offset="0" stop-color="#EDE5E2"/><stop offset="0.5" stop-color="#DED5D1"/><stop offset="1" stop-color="#D0C5C0"/></linearGradient><linearGradient x1="2328.5" y1="1301" x2="2328.5" y2="1308" gradientUnits="userSpaceOnUse" spreadMethod="reflect" id="fill27"><stop offset="0" stop-color="#EDE5E2"/><stop offset="0.5" stop-color="#DED5D1"/><stop offset="1" stop-color="#D0C5C0"/></linearGradient><linearGradient x1="2724.5" y1="1301" x2="2724.5" y2="1308" gradientUnits="userSpaceOnUse" spreadMethod="reflect" id="fill28"><stop offset="0" stop-color="#EDE5E2"/><stop offset="0.5" stop-color="#DED5D1"/><stop offset="1" stop-color="#D0C5C0"/></linearGradient><linearGradient x1="1726.5" y1="1301" x2="1726.5" y2="1308" gradientUnits="userSpaceOnUse" spreadMethod="reflect" id="fill29"><stop offset="0" stop-color="#EDE5E2"/><stop offset="0.5" stop-color="#DED5D1"/><stop offset="1" stop-color="#D0C5C0"/></linearGradient><linearGradient x1="1845.5" y1="1301" x2="1845.5" y2="1308" gradientUnits="userSpaceOnUse" spreadMethod="reflect" id="fill30"><stop offset="0" stop-color="#EDE5E2"/><stop offset="0.5" stop-color="#DED5D1"/><stop offset="1" stop-color="#D0C5C0"/></linearGradient><linearGradient x1="1988" y1="1301" x2="1988" y2="1308" gradientUnits="userSpaceOnUse" spreadMethod="reflect" id="fill31"><stop offset="0" stop-color="#EDE5E2"/><stop offset="0.5" stop-color="#DED5D1"/><stop offset="1" stop-color="#D0C5C0"/></linearGradient><linearGradient x1="1552" y1="1301" x2="1552" y2="1308" gradientUnits="userSpaceOnUse" spreadMethod="reflect" id="fill32"><stop offset="0" stop-color="#EDE5E2"/><stop offset="0.5" stop-color="#DED5D1"/><stop offset="1" stop-color="#D0C5C0"/></linearGradient><linearGradient x1="1631" y1="1301" x2="1631" y2="1308" gradientUnits="userSpaceOnUse" spreadMethod="reflect" id="fill33"><stop offset="0" stop-color="#EDE5E2"/><stop offset="0.5" stop-color="#DED5D1"/><stop offset="1" stop-color="#D0C5C0"/></linearGradient><linearGradient x1="1298.5" y1="1301" x2="1298.5" y2="1308" gradientUnits="userSpaceOnUse" spreadMethod="reflect" id="fill34"><stop offset="0" stop-color="#EDE5E2"/><stop offset="0.5" stop-color="#DED5D1"/><stop offset="1" stop-color="#D0C5C0"/></linearGradient><linearGradient x1="1378" y1="1301" x2="1378" y2="1308" gradientUnits="userSpaceOnUse" spreadMethod="reflect" id="fill35"><stop offset="0" stop-color="#EDE5E2"/><stop offset="0.5" stop-color="#DED5D1"/><stop offset="1" stop-color="#D0C5C0"/></linearGradient><linearGradient x1="1108.5" y1="1301" x2="1108.5" y2="1308" gradientUnits="userSpaceOnUse" spreadMethod="reflect" id="fill36"><stop offset="0" stop-color="#EDE5E2"/><stop offset="0.5" stop-color="#DED5D1"/><stop offset="1" stop-color="#D0C5C0"/></linearGradient><linearGradient x1="1188" y1="1301" x2="1188" y2="1308" gradientUnits="userSpaceOnUse" spreadMethod="reflect" id="fill37"><stop offset="0" stop-color="#EDE5E2"/><stop offset="0.5" stop-color="#DED5D1"/><stop offset="1" stop-color="#D0C5C0"/></linearGradient><linearGradient x1="2844" y1="1098" x2="2844" y2="1104" gradientUnits="userSpaceOnUse" spreadMethod="reflect" id="fill38"><stop offset="0" stop-color="#EDE5E2"/><stop offset="0.5" stop-color="#DED5D1"/><stop offset="1" stop-color="#D0C5C0"/></linearGradient><linearGradient x1="1471.5" y1="1098" x2="1471.5" y2="1104" gradientUnits="userSpaceOnUse" spreadMethod="reflect" id="fill39"><stop offset="0" stop-color="#EDE5E2"/><stop offset="0.5" stop-color="#DED5D1"/><stop offset="1" stop-color="#D0C5C0"/></linearGradient><linearGradient x1="731.5" y1="971" x2="731.5" y2="977" gradientUnits="userSpaceOnUse" spreadMethod="reflect" id="fill40"><stop offset="0" stop-color="#EDE5E2"/><stop offset="0.5" stop-color="#DED5D1"/><stop offset="1" stop-color="#D0C5C0"/></linearGradient><linearGradient x1="1006.5" y1="971" x2="1006.5" y2="977" gradientUnits="userSpaceOnUse" spreadMethod="reflect" id="fill41"><stop offset="0" stop-color="#EDE5E2"/><stop offset="0.5" stop-color="#DED5D1"/><stop offset="1" stop-color="#D0C5C0"/></linearGradient><linearGradient x1="1056.5" y1="1046" x2="1056.5" y2="1052" gradientUnits="userSpaceOnUse" spreadMethod="reflect" id="fill42"><stop offset="0" stop-color="#EDE5E2"/><stop offset="0.5" stop-color="#DED5D1"/><stop offset="1" stop-color="#D0C5C0"/></linearGradient><linearGradient x1="958" y1="1046" x2="958" y2="1052" gradientUnits="userSpaceOnUse" spreadMethod="reflect" id="fill43"><stop offset="0" stop-color="#EDE5E2"/><stop offset="0.5" stop-color="#DED5D1"/><stop offset="1" stop-color="#D0C5C0"/></linearGradient><linearGradient x1="1259.5" y1="971" x2="1259.5" y2="977" gradientUnits="userSpaceOnUse" spreadMethod="reflect" id="fill44"><stop offset="0" stop-color="#EDE5E2"/><stop offset="0.5" stop-color="#DED5D1"/><stop offset="1" stop-color="#D0C5C0"/></linearGradient><linearGradient x1="1446" y1="971" x2="1446" y2="977" gradientUnits="userSpaceOnUse" spreadMethod="reflect" id="fill45"><stop offset="0" stop-color="#EDE5E2"/><stop offset="0.5" stop-color="#DED5D1"/><stop offset="1" stop-color="#D0C5C0"/></linearGradient><linearGradient x1="1624.5" y1="971" x2="1624.5" y2="977" gradientUnits="userSpaceOnUse" spreadMethod="reflect" id="fill46"><stop offset="0" stop-color="#EDE5E2"/><stop offset="0.5" stop-color="#DED5D1"/><stop offset="1" stop-color="#D0C5C0"/></linearGradient><linearGradient x1="1754.5" y1="1008" x2="1754.5" y2="1014" gradientUnits="userSpaceOnUse" spreadMethod="reflect" id="fill47"><stop offset="0" stop-color="#EDE5E2"/><stop offset="0.5" stop-color="#DED5D1"/><stop offset="1" stop-color="#D0C5C0"/></linearGradient><linearGradient x1="2159" y1="1021" x2="2159" y2="1027" gradientUnits="userSpaceOnUse" spreadMethod="reflect" id="fill48"><stop offset="0" stop-color="#EDE5E2"/><stop offset="0.5" stop-color="#DED5D1"/><stop offset="1" stop-color="#D0C5C0"/></linearGradient><linearGradient x1="2474" y1="1008" x2="2474" y2="1014" gradientUnits="userSpaceOnUse" spreadMethod="reflect" id="fill49"><stop offset="0" stop-color="#EDE5E2"/><stop offset="0.5" stop-color="#DED5D1"/><stop offset="1" stop-color="#D0C5C0"/></linearGradient><linearGradient x1="2607.5" y1="983" x2="2607.5" y2="989" gradientUnits="userSpaceOnUse" spreadMethod="reflect" id="fill50"><stop offset="0" stop-color="#EDE5E2"/><stop offset="0.5" stop-color="#DED5D1"/><stop offset="1" stop-color="#D0C5C0"/></linearGradient><linearGradient x1="3569" y1="983" x2="3569" y2="989" gradientUnits="userSpaceOnUse" spreadMethod="reflect" id="fill51"><stop offset="0" stop-color="#EDE5E2"/><stop offset="0.5" stop-color="#DED5D1"/><stop offset="1" stop-color="#D0C5C0"/></linearGradient><linearGradient x1="3800" y1="983" x2="3800" y2="989" gradientUnits="userSpaceOnUse" spreadMethod="reflect" id="fill52"><stop offset="0" stop-color="#EDE5E2"/><stop offset="0.5" stop-color="#DED5D1"/><stop offset="1" stop-color="#D0C5C0"/></linearGradient><linearGradient x1="3342.5" y1="934" x2="3342.5" y2="940" gradientUnits="userSpaceOnUse" spreadMethod="reflect" id="fill53"><stop offset="0" stop-color="#EDE5E2"/><stop offset="0.5" stop-color="#DED5D1"/><stop offset="1" stop-color="#D0C5C0"/></linearGradient><linearGradient x1="3338" y1="983" x2="3338" y2="989" gradientUnits="userSpaceOnUse" spreadMethod="reflect" id="fill54"><stop offset="0" stop-color="#EDE5E2"/><stop offset="0.5" stop-color="#DED5D1"/><stop offset="1" stop-color="#D0C5C0"/></linearGradient><linearGradient x1="3434.5" y1="983" x2="3434.5" y2="989" gradientUnits="userSpaceOnUse" spreadMethod="reflect" id="fill55"><stop offset="0" stop-color="#EDE5E2"/><stop offset="0.5" stop-color="#DED5D1"/><stop offset="1" stop-color="#D0C5C0"/></linearGradient><linearGradient x1="2528.5" y1="1046" x2="2528.5" y2="1052" gradientUnits="userSpaceOnUse" spreadMethod="reflect" id="fill56"><stop offset="0" stop-color="#EDE5E2"/><stop offset="0.5" stop-color="#DED5D1"/><stop offset="1" stop-color="#D0C5C0"/></linearGradient><linearGradient x1="2913" y1="983" x2="2913" y2="989" gradientUnits="userSpaceOnUse" spreadMethod="reflect" id="fill57"><stop offset="0" stop-color="#EDE5E2"/><stop offset="0.5" stop-color="#DED5D1"/><stop offset="1" stop-color="#D0C5C0"/></linearGradient><linearGradient x1="2971" y1="1027" x2="2971" y2="1033" gradientUnits="userSpaceOnUse" spreadMethod="reflect" id="fill58"><stop offset="0" stop-color="#EDE5E2"/><stop offset="0.5" stop-color="#DED5D1"/><stop offset="1" stop-color="#D0C5C0"/></linearGradient><linearGradient x1="3017.5" y1="983" x2="3017.5" y2="989" gradientUnits="userSpaceOnUse" spreadMethod="reflect" id="fill59"><stop offset="0" stop-color="#EDE5E2"/><stop offset="0.5" stop-color="#DED5D1"/><stop offset="1" stop-color="#D0C5C0"/></linearGradient><linearGradient x1="3016.5" y1="1052" x2="3016.5" y2="1059" gradientUnits="userSpaceOnUse" spreadMethod="reflect" id="fill60"><stop offset="0" stop-color="#EDE5E2"/><stop offset="0.5" stop-color="#DED5D1"/><stop offset="1" stop-color="#D0C5C0"/></linearGradient><linearGradient x1="2933" y1="1052" x2="2933" y2="1059" gradientUnits="userSpaceOnUse" spreadMethod="reflect" id="fill61"><stop offset="0" stop-color="#EDE5E2"/><stop offset="0.5" stop-color="#DED5D1"/><stop offset="1" stop-color="#D0C5C0"/></linearGradient><linearGradient x1="1958.5" y1="983" x2="1958.5" y2="989" gradientUnits="userSpaceOnUse" spreadMethod="reflect" id="fill62"><stop offset="0" stop-color="#EDE5E2"/><stop offset="0.5" stop-color="#DED5D1"/><stop offset="1" stop-color="#D0C5C0"/></linearGradient><linearGradient x1="2316.5" y1="983" x2="2316.5" y2="989" gradientUnits="userSpaceOnUse" spreadMethod="reflect" id="fill63"><stop offset="0" stop-color="#EDE5E2"/><stop offset="0.5" stop-color="#DED5D1"/><stop offset="1" stop-color="#D0C5C0"/></linearGradient><linearGradient x1="2749" y1="1059" x2="2749" y2="1065" gradientUnits="userSpaceOnUse" spreadMethod="reflect" id="fill64"><stop offset="0" stop-color="#EDE5E2"/><stop offset="0.5" stop-color="#DED5D1"/><stop offset="1" stop-color="#D0C5C0"/></linearGradient><linearGradient x1="643.5" y1="1137" x2="643.5" y2="1144" gradientUnits="userSpaceOnUse" spreadMethod="reflect" id="fill65"><stop offset="0" stop-color="#EDE5E2"/><stop offset="0.5" stop-color="#DED5D1"/><stop offset="1" stop-color="#D0C5C0"/></linearGradient><linearGradient x1="774" y1="1137" x2="774" y2="1144" gradientUnits="userSpaceOnUse" spreadMethod="reflect" id="fill66"><stop offset="0" stop-color="#EDE5E2"/><stop offset="0.5" stop-color="#DED5D1"/><stop offset="1" stop-color="#D0C5C0"/></linearGradient><linearGradient x1="912.5" y1="1137" x2="912.5" y2="1144" gradientUnits="userSpaceOnUse" spreadMethod="reflect" id="fill67"><stop offset="0" stop-color="#EDE5E2"/><stop offset="0.5" stop-color="#DED5D1"/><stop offset="1" stop-color="#D0C5C0"/></linearGradient><linearGradient x1="3371" y1="1137" x2="3371" y2="1144" gradientUnits="userSpaceOnUse" spreadMethod="reflect" id="fill68"><stop offset="0" stop-color="#EDE5E2"/><stop offset="0.5" stop-color="#DED5D1"/><stop offset="1" stop-color="#D0C5C0"/></linearGradient><linearGradient x1="3471" y1="1137" x2="3471" y2="1144" gradientUnits="userSpaceOnUse" spreadMethod="reflect" id="fill69"><stop offset="0" stop-color="#EDE5E2"/><stop offset="0.5" stop-color="#DED5D1"/><stop offset="1" stop-color="#D0C5C0"/></linearGradient><linearGradient x1="3225" y1="1137" x2="3225" y2="1144" gradientUnits="userSpaceOnUse" spreadMethod="reflect" id="fill70"><stop offset="0" stop-color="#EDE5E2"/><stop offset="0.5" stop-color="#DED5D1"/><stop offset="1" stop-color="#D0C5C0"/></linearGradient><linearGradient x1="1949.5" y1="1137" x2="1949.5" y2="1144" gradientUnits="userSpaceOnUse" spreadMethod="reflect" id="fill71"><stop offset="0" stop-color="#EDE5E2"/><stop offset="0.5" stop-color="#DED5D1"/><stop offset="1" stop-color="#D0C5C0"/></linearGradient><linearGradient x1="2233.5" y1="1259" x2="2233.5" y2="1265" gradientUnits="userSpaceOnUse" spreadMethod="reflect" id="fill72"><stop offset="0" stop-color="#EDE5E2"/><stop offset="0.5" stop-color="#DED5D1"/><stop offset="1" stop-color="#D0C5C0"/></linearGradient><linearGradient x1="2618" y1="1137" x2="2618" y2="1144" gradientUnits="userSpaceOnUse" spreadMethod="reflect" id="fill73"><stop offset="0" stop-color="#EDE5E2"/><stop offset="0.5" stop-color="#DED5D1"/><stop offset="1" stop-color="#D0C5C0"/></linearGradient><linearGradient x1="2992.5" y1="1177" x2="2992.5" y2="1184" gradientUnits="userSpaceOnUse" spreadMethod="reflect" id="fill74"><stop offset="0" stop-color="#EDE5E2"/><stop offset="0.5" stop-color="#DED5D1"/><stop offset="1" stop-color="#D0C5C0"/></linearGradient></defs><g clip-path="url(#clip0)" transform="translate(-528 -550)"><path d="M2377.42 567.617 2272.61 567.617 2272.61 567.617 2272.61 550 2202.4 550 2202.14 584.716 2202.14 584.716 2184.59 584.716 2184.33 601.816 2166.77 601.816 2166 654.408 2167.03 707.519 2201.11 707.519 2200.85 761.408 2200.85 761.408 2200.85 761.408 2201.37 814 2290.43 814 2290.68 796.383 2290.68 795.865 2326.05 795.865 2326.56 777.989 2343.6 777.989 2344.12 760.112 2360.9 760.112 2362.19 724.878 2377.94 724.878 2380 671.767 2377.42 567.617Z" fill-rule="evenodd"/><path d="M1671.66 568 1448.79 568 1440 620.511 1453.44 672.246 1467.15 672.246 1467.15 672.246 1464.3 690.353 1478.01 742.606 1488.35 742.606 1493 760.195 1503.6 760.195 1508 778.044 1518.86 778.044 1523.25 795.893 1534.11 795.893 1538.51 814 1603.92 814 1613.49 742.606 1631.32 742.606 1633.65 725.016 1651.23 725.016 1653.56 707.685 1671.14 707.685 1682 620.77Z" fill-rule="evenodd"/><path d="M1910.8 568 1843.66 568 1842.11 584.814 1824.55 584.814 1823.26 602.145 1787.88 602.145 1786.33 619.218 1750.95 619.218 1749.14 636.808 1695.94 636.808 1690 690.095 1699.55 742.606 1774.71 742.606 1772.9 762.007 1781.16 814 1848.56 814 1857.6 707.685 1875.16 707.685 1876.71 690.353 1894.27 690.353 1895.57 673.281 1913.13 673.281 1917 621.029Z" fill-rule="evenodd"/><path d="M2145.67 602.145 2076.08 602.145 2074.53 654.138 2056.68 654.138 2055.9 671.728 2042.19 671.728 2043.74 638.101 2039.86 584.814 2006.75 584.814 2005.2 568 1937.16 568 1934.05 619.993 1939.23 673.281 1971.57 673.281 1973.12 690.353 2001.32 690.353 2000.54 707.426 1928.62 707.426 1925 761.748 1930.69 814 2053.57 814 2054.35 795.893 2090.31 795.893 2091.09 778.044 2108.94 778.044 2109.45 760.195 2127.56 760.195 2127.82 742.606 2145.67 742.606 2148 655.432Z" fill-rule="evenodd"/><path d="M2607.88 568 2398.12 568 2395 621.287 2398.63 725.016 2438.35 725.016 2435.76 760.195 2438.09 814 2543.49 814 2545.31 795.893 2578.28 795.893 2580.36 778.044 2595.15 778.044 2597.23 760.195 2611.77 760.195 2618 707.685Z" fill-rule="evenodd"/><path d="M2842.06 568 2634.99 568 2628 621.029 2632.4 672.246 2752.5 672.246 2749.39 689.577 2718.08 689.577 2715.23 707.426 2683.65 707.426 2675.37 759.678 2680.54 814 2765.44 814 2768.81 795.893 2799.35 795.893 2802.72 778.044 2815.4 778.044 2818.76 760.195 2830.93 760.195 2837.92 725.016 2844.65 725.016 2855 672.505Z" fill-rule="evenodd"/><path d="M3059.96 654.138 3024.58 654.138 3021.74 636.808 2986.11 636.808 2983.53 619.218 2948.15 619.218 2940.92 568 2876.1 568 2865 620.77 2890.82 814 2956.16 814 2968.81 762.265 2965.97 742.606 2987.92 742.606 2990.5 760.195 3054.8 760.195 3069 708.202Z" fill-rule="evenodd"/><path d="M1657.26 586 1463.7 586 1458 620.012 1467.07 654.54 1487.8 654.54 1482.1 689.583 1482.1 689.583 1482.1 689.583 1491.43 724.884 1502.05 724.884 1506.71 742.406 1517.34 742.406 1521.74 760.185 1532.63 760.185 1537.03 777.964 1547.92 777.964 1552.32 796.001 1588.34 796.001 1593.26 760.185 1589.11 742.406 1595.59 742.406 1597.92 724.884 1615.8 724.884 1618.14 707.362 1635.76 707.362 1637.83 690.099 1655.45 690.099 1664 621.817 1657.26 586ZM1556.98 672.062 1554.39 689.583 1543.25 689.583 1539.1 672.062 1528.22 672.062 1523.82 654.54 1577.45 654.54 1575.12 672.062 1556.98 672.062Z" fill="#48494A" fill-rule="evenodd"/><path d="M1895.85 586 1860.62 586 1859.06 603.006 1841.44 603.006 1840.15 620.012 1804.65 620.012 1803.09 637.277 1767.34 637.277 1765.52 654.54 1712.15 654.54 1708 689.583 1714.48 724.626 1785.73 724.626 1787.29 707.362 1796.36 707.362 1791.43 761.215 1796.87 796.001 1832.89 796.001 1841.96 689.84 1859.58 689.84 1860.87 672.577 1878.49 672.577 1879.79 655.571 1897.41 655.571 1900 621.817Z" fill="#48494A" fill-rule="evenodd"/><path d="M1955.61 655.108 1988.1 655.108 1989.64 672.001 2024.45 672.001 2026 638.215 2023.42 602.893 1990.68 602.893 1989.13 586 1954.06 586 1952 619.786 1952 619.786Z" fill="#48494A" fill-rule="evenodd"/><path d="M2128.71 620 2093.32 620 2091.52 672.053 2073.69 672.053 2073.18 689.576 2055.1 689.576 2054.32 707.356 2018.42 707.356 2017.65 725.137 1945.32 725.137 1943 761.213 1946.87 796 2036.5 796 2037.28 777.962 2073.18 777.962 2073.95 760.182 2091.77 760.182 2092.29 742.402 2110.11 742.402 2110.63 724.621 2128.19 724.621 2130 655.561Z" fill="#48494A" fill-rule="evenodd"/><path d="M2600 707.362 2594.81 637.277 2594.81 637.277 2591.7 637.277 2593.78 620.012 2593.78 620.012 2591.18 586 2415.08 586 2413 621.817 2414.04 654.54 2415.85 654.54 2414.82 672.577 2416.11 707.362 2509.74 707.362 2508.19 725.141 2456.31 725.141 2453.72 760.185 2455.28 796.001 2527.38 796.001 2529.19 777.964 2562.39 777.964 2564.47 760.185 2579.25 760.185 2581.33 742.406 2595.85 742.406Z" fill="#48494A" fill-rule="evenodd"/><path d="M2837 672.062 2826.4 586 2650.65 586 2646 621.817 2648.84 654.54 2781.43 654.54 2774.97 689.583 2767.22 689.583 2764.11 707.362 2733.1 707.362 2730.26 725.141 2698.73 725.141 2693.3 760.185 2696.66 796.001 2750.68 796.001 2753.78 777.964 2784.79 777.964 2788.15 760.185 2800.56 760.185 2803.92 742.406 2816.32 742.406 2823.3 707.362 2823.3 707.362 2823.3 707.362 2829.76 707.362Z" fill="#48494A" fill-rule="evenodd"/><path d="M3045.06 672.062 3009.45 672.062 3006.61 654.54 2971 654.54 2968.42 637.277 2933.06 637.277 2925.58 586 2890.48 586 2883 621.817 2906.48 796.001 2942.35 796.001 2950.87 761.215 2950.87 761.215 2943.13 707.362 2965.06 707.362 2967.65 724.626 3003 724.626 3005.84 742.406 3041.45 742.406 3051 707.362Z" fill="#48494A" fill-rule="evenodd"/><path d="M2362 671.801 2362 671.801 2362 671.801 2359.94 585.558 2254.84 585.558 2254.84 568 2220.06 568 2219.81 602.6 2202.29 602.6 2202.03 619.642 2184.51 619.642 2184 654.242 2184.77 689.617 2219.81 689.617 2220.06 672.317 2237.32 672.317 2237.58 654.242 2308.42 654.242 2308.68 689.359 2290.9 689.359 2290.9 707.175 2255.1 707.175 2255.1 724.992 2219.03 724.992 2218.78 761.142 2219.29 796 2273.13 796 2273.13 777.925 2308.68 777.925 2308.94 760.109 2326.19 760.109 2326.71 742.293 2343.71 742.293 2344.74 707.175 2344.74 707.175 2344.74 707.175 2344.74 707.175 2360.71 707.175Z" fill="#48494A" fill-rule="evenodd"/><path d="M1859.92 586 1858.37 602.985 1840.84 602.985 1839.55 619.971 1804.21 619.971 1802.66 637.214 1767.07 637.214 1765.26 654.456 1712.13 654.456 1708 689.456 1779.71 689.456 1781.51 671.956 1799.31 671.956 1791.05 761 1827.16 761 1836.45 654.456 1854.25 654.456 1855.79 637.214 1873.33 637.214 1874.62 619.971 1892.42 619.971 1895 586Z" fill="#D0C5C0" fill-rule="evenodd"/><path d="M1463.69 586 1458 619.971 1617.41 619.971 1615.08 637.214 1597.22 637.214 1594.89 654.456 1577.04 654.456 1574.71 671.956 1556.85 671.956 1554.27 689.456 1536.15 689.456 1538.74 671.956 1520.88 671.956 1523.73 654.456 1488.02 654.456 1482.33 689.456 1500.44 689.456 1497.59 707.213 1515.45 707.213 1512.86 724.971 1530.98 724.971 1528.39 742.985 1546.5 742.985 1543.91 761 1580.4 761 1585.32 724.971 1567.2 724.971 1569.53 707.213 1587.65 707.213 1590.24 689.456 1608.09 689.456 1610.42 671.956 1628.28 671.956 1630.61 654.456 1648.46 654.456 1657 586Z" fill="#D0C5C0" fill-rule="evenodd"/><path d="M1987.12 619.829 1986.09 637.001 2021.46 637.001 2023 602.915 1988.14 602.915 1988.91 586 1954.05 586 1952 619.829Z" fill="#D0C5C0" fill-rule="evenodd"/><path d="M2093.56 620 2091.75 671.975 2073.9 671.975 2073.38 689.471 2055.27 689.471 2054.5 707.225 2018.54 707.225 2017.76 724.979 1945.33 724.979 1943 761.001 2034.06 761.001 2034.84 742.99 2071.31 742.99 2072.09 724.979 2089.94 724.979 2090.71 707.225 2108.56 707.225 2109.08 689.471 2127.19 689.471 2129 620Z" fill="#E3DCD9" fill-rule="evenodd"/><path d="M2254.84 585.545 2254.84 585.545 2254.84 568 2220.06 568 2219.81 602.575 2202.29 602.575 2202.03 619.604 2184.51 619.604 2184 654.179 2219.55 654.179 2219.55 636.892 2237.32 636.892 2237.32 619.604 2325.42 619.604 2325.94 654.179 2308.42 654.179 2308.68 689.271 2290.9 689.271 2290.9 707.074 2255.1 707.074 2255.1 724.878 2219.03 724.878 2218.78 761.001 2273.39 761.001 2273.39 742.939 2309.45 742.939 2309.19 724.878 2327.22 724.878 2326.97 707.074 2344.74 707.074 2344.23 671.725 2362 671.725 2359.94 585.545Z" fill="#D0C5C0" fill-rule="evenodd"/><path d="M2594 620 2591.4 586 2415 586 2416.04 620Z" fill="#D0C5C0" fill-rule="evenodd"/><path d="M2417 637 2418.3 671.803 2561.64 671.803 2562.67 689.332 2544.79 689.332 2545.83 707.121 2509.8 707.121 2510.83 724.908 2456.4 724.908 2457.95 761 2531.05 761 2530.01 742.954 2566.3 742.954 2565.01 724.908 2583.15 724.908 2582.11 707.121 2600 707.121 2594.82 637Z" fill="#E3DCD9" fill-rule="evenodd"/><path d="M2651 586 2654.1 619.971 2795.21 619.971 2799.34 654.456 2781.54 654.456 2785.41 689.456 2767.35 689.456 2769.41 707.213 2733.29 707.213 2735.1 724.971 2698.98 724.971 2702.6 761 2757.03 761 2755.22 742.985 2791.34 742.985 2789.27 724.971 2807.33 724.971 2805.27 707.213 2823.33 707.213 2819.2 671.956 2837 671.956 2826.42 586Z" fill="#D0C5C0" fill-rule="evenodd"/><path d="M3009.33 671.956 3006.48 654.456 2970.76 654.456 2968.17 637.214 2932.71 637.214 2925.2 586 2890 586 2914.07 761 2950.57 761 2937.63 671.956 2973.61 671.956 2976.2 689.456 3012.17 689.456 3015.02 707.213 3051 707.213 3045.05 671.956Z" fill="#D0C5C0" fill-rule="evenodd"/><path d="M1546.47 743.001 1547 739 1528.53 739 1528 743.001Z" fill="#E3DCD9" fill-rule="evenodd"/><path d="M1708 689.001 1779.49 689.001 1780 685 1708.51 685Z" fill="#E3DCD9" fill-rule="evenodd"/><path d="M1800 667 1782.26 667 1782 672.001 1799.74 672.001Z" fill="#E3DCD9" fill-rule="evenodd"/><path d="M1856 637.001 1873.49 637.001 1874 633 1856.26 633Z" fill="#E3DCD9" fill-rule="evenodd"/><path d="M1875 620 1892.74 620 1893 615 1875.51 615Z" fill="#E3DCD9" fill-rule="evenodd"/><path d="M1791 761.001 1827.48 761.001 1828 757 1791.26 757Z" fill="#E3DCD9" fill-rule="evenodd"/><path d="M1837 654 1854.74 654 1855 650 1837.26 650Z" fill="#E3DCD9" fill-rule="evenodd"/><path d="M1547 739 1528.53 739 1528 743.001 1546.47 743.001Z" fill="#E3DCD9" fill-rule="evenodd"/><path d="M1532 720 1513.78 720 1513 725.001 1531.22 725.001Z" fill="#E3DCD9" fill-rule="evenodd"/><path d="M1516 703 1498.75 703 1498 707.001 1515.25 707.001Z" fill="#E3DCD9" fill-rule="evenodd"/><path d="M1618 615 1458.78 615 1458 620 1617.48 620Z" fill="#E3DCD9" fill-rule="evenodd"/><path d="M1501 685 1482.79 685 1482 689.001 1500.47 689.001Z" fill="#E3DCD9" fill-rule="evenodd"/><path d="M1630 654 1648.47 654 1649 650 1630.54 650Z" fill="#E3DCD9" fill-rule="evenodd"/><path d="M1590 689.001 1607.49 689.001 1608 685 1590.51 685Z" fill="#E3DCD9" fill-rule="evenodd"/><path d="M1544 761.001 1580.48 761.001 1581 757 1544.52 757Z" fill="#E3DCD9" fill-rule="evenodd"/><path d="M1610 672.001 1628.47 672.001 1629 667 1610.54 667Z" fill="#E3DCD9" fill-rule="evenodd"/><path d="M1569 707.001 1587.22 707.001 1588 703 1569.78 703Z" fill="#E3DCD9" fill-rule="evenodd"/><path d="M1987 615 1952.25 615 1952 620 1986.75 620Z" fill="#E3DCD9" fill-rule="evenodd"/><path d="M2022 633 1986.26 633 1986 637.001 2021.74 637.001Z" fill="#E3DCD9" fill-rule="evenodd"/><path d="M1943 761.001 2033.74 761.001 2034 757 1943.26 757Z" fill="#E3DCD9" fill-rule="evenodd"/><path d="M2109 689.001 2127 689.001 2127 685 2109.26 685Z" fill="#E3DCD9" fill-rule="evenodd"/><path d="M2090 707.001 2107.74 707.001 2108 703 2090 703Z" fill="#E3DCD9" fill-rule="evenodd"/><path d="M2035 743.001 2070.75 743.001 2071 739 2035.25 739Z" fill="#E3DCD9" fill-rule="evenodd"/><path d="M2072 725.001 2089.74 725.001 2090 720 2072 720Z" fill="#E3DCD9" fill-rule="evenodd"/><path d="M2237 615 2237 620 2326 620 2326 615Z" fill="#E3DCD9" fill-rule="evenodd"/><path d="M2219 637.001 2237 637.001 2237 633 2219 633Z" fill="#E3DCD9" fill-rule="evenodd"/><path d="M2309 725.001 2327 725.001 2327 720 2309 720Z" fill="#E3DCD9" fill-rule="evenodd"/><path d="M2273.26 743.001 2310 743.001 2310 739 2273 739Z" fill="#E3DCD9" fill-rule="evenodd"/><path d="M2219 650 2184 650 2184 654 2219 654Z" fill="#E3DCD9" fill-rule="evenodd"/><path d="M2327.26 707.001 2345 707.001 2345 703 2327 703Z" fill="#E3DCD9" fill-rule="evenodd"/><path d="M2344.26 672.001 2362 672.001 2361.74 667 2344 667Z" fill="#E3DCD9" fill-rule="evenodd"/><path d="M2219 761.001 2273 761.001 2273 757 2219.25 757Z" fill="#E3DCD9" fill-rule="evenodd"/><path d="M2593.48 615 2416 615 2416 620 2594 620Z" fill="#E3DCD9" fill-rule="evenodd"/><path d="M2560.74 667 2418 667 2418.26 672.001 2561 672.001Z" fill="#E3DCD9" fill-rule="evenodd"/><path d="M2565.25 725.001 2583 725.001 2582.75 720 2565 720Z" fill="#E3DCD9" fill-rule="evenodd"/><path d="M2581.53 707.001 2600 707.001 2599.73 703 2581 703Z" fill="#E3DCD9" fill-rule="evenodd"/><path d="M2458.26 761.001 2531 761.001 2530.74 757 2458 757Z" fill="#E3DCD9" fill-rule="evenodd"/><path d="M2530.26 743.001 2566 743.001 2565.75 739 2530 739Z" fill="#E3DCD9" fill-rule="evenodd"/><path d="M2805.5 707.001 2823 707.001 2822.5 703 2805 703Z" fill="#E3DCD9" fill-rule="evenodd"/><path d="M2702.52 761.001 2757 761.001 2756.48 757 2702 757Z" fill="#E3DCD9" fill-rule="evenodd"/><path d="M2755.51 743.001 2791 743.001 2790.49 739 2755 739Z" fill="#E3DCD9" fill-rule="evenodd"/><path d="M2789.5 725.001 2807 725.001 2806.5 720 2789 720Z" fill="#E3DCD9" fill-rule="evenodd"/><path d="M2794.48 615 2653 615 2653.52 620 2795 620Z" fill="#E3DCD9" fill-rule="evenodd"/><path d="M2818.79 672.001 2837 672.001 2836.47 667 2818 667Z" fill="#E3DCD9" fill-rule="evenodd"/><path d="M3011.24 685 2976 685 2976.76 689.001 3012 689.001Z" fill="#E3DCD9" fill-rule="evenodd"/><path d="M3014.78 707.001 3051 707.001 3050.22 703 3014 703Z" fill="#E3DCD9" fill-rule="evenodd"/><path d="M2914.52 761.001 2951 761.001 2950.48 757 2914 757Z" fill="#E3DCD9" fill-rule="evenodd"/><path d="M2973.21 667 2937 667 2937.53 672.001 2974 672.001Z" fill="#E3DCD9" fill-rule="evenodd"/><path d="M3810.16 1093.18 3870.35 993.33 3837.03 886 1536.8 886 1525.95 964.434 1504.77 886 968.721 886 950.379 959.79 905.687 959.79 895.095 1000.55 835.937 886 661.043 886 528 1312.74 634.176 1458 808.553 1458 829.995 1377.5 900.52 1377.5 947.796 1458 1486.43 1458 1499.34 1364.6 1529.05 1458 3328.36 1458 3401.21 1307.32 3467.09 1307.32 3528.31 1187.61 3593.67 1458 3774.77 1458 3875 1312.48 3810.16 1093.18ZM2255.75 1194.58 2256.01 1143.49 2410.75 1143.49 2412.3 1194.58 2255.75 1194.58Z" fill-rule="evenodd"/><path d="M1226.55 1308 1084 1308 1144.94 1429 1280 1429Z" fill="#3D3938" fill-rule="evenodd"/><path d="M1274 1308 1325.08 1429 1460 1429 1416.66 1308Z" fill="#3D3938" fill-rule="evenodd"/><path d="M1702 1308 1730.67 1429 2046 1429 2034.89 1308Z" fill="#3D3938" fill-rule="evenodd"/><path d="M2416 1308 2407.22 1429 2091.78 1429 2083 1308Z" fill="#3D3938" fill-rule="evenodd"/><path d="M2463.37 1308 2606 1308 2587.4 1429 2452 1429Z" fill="#3D3938" fill-rule="evenodd"/><path d="M2653.21 1308 2632 1429 2767.29 1429 2796 1308Z" fill="#3D3938" fill-rule="evenodd"/><path d="M2844.03 1308 2813 1429 2948.22 1429 2987 1308Z" fill="#3D3938" fill-rule="evenodd"/><path d="M3034.15 1308 2993 1429 3128.35 1429 3177 1308Z" fill="#3D3938" fill-rule="evenodd"/><path d="M3224.22 1308 3173 1429 3308.54 1429 3367 1308Z" fill="#3D3938" fill-rule="evenodd"/><path d="M3700.11 1308 3624 1429 3759.39 1429 3843 1308Z" fill="#3D3938" fill-rule="evenodd"/><path d="M1512 1308 1550.52 1429 1686 1429 1654.72 1308Z" fill="#3D3938" fill-rule="evenodd"/><path d="M894 1308 1036.5 1308 1100 1429 964.732 1429Z" fill="#3D3938" fill-rule="evenodd"/><path d="M649.169 1429 561 1308 703.308 1308 784 1429Z" fill="#3D3938" fill-rule="evenodd"/><path d="M934.827 1143.45 888.583 1143.45 867.657 1224.17 774.136 1224.17 796.354 1143.45 750.368 1143.45 703.607 1307.74 561 1307.74 683.198 915 815.471 915 794.545 988.995 839.239 988.995 818.313 1065.06 908.993 1065.06 928.627 988.995 973.321 988.995 991.663 915 1123.94 915 1036.1 1307.74 893.492 1307.74 934.827 1143.45ZM1168.37 915 1300.65 915 1226.5 1307.74 1083.89 1307.74 1168.37 915ZM1741.64 915 2050.37 915 2047.53 988.995 1868.49 988.995 1862.81 1065.06 2044.43 1065.06 2041.33 1143.45 1856.87 1143.45 1850.92 1224.17 2038.22 1224.17 2034.87 1307.74 1702.12 1307.74 1741.64 915ZM2094.8 915 2403.53 915 2405.85 988.995 2226.82 988.995 2225.78 1224.43 2413.09 1224.43 2415.67 1308 2082.66 1308 2094.8 915ZM2641.21 1143.45 2594.96 1143.45 2605.81 1307.74 2463.21 1307.74 2447.7 915 2756.43 915 2771.41 1065.06 2725.94 1065.06 2729.56 1103.87 2775.55 1103.87 2796.21 1307.74 2653.61 1307.74 2641.21 1143.45ZM2584.89 988.995 2589.79 1065.06 2635.26 1065.06 2629.58 988.995 2584.89 988.995ZM3153.51 915 3462.23 915 3480.06 988.995 3301.02 988.995 3316.78 1065.06 3498.4 1065.06 3517.26 1143.45 3332.8 1143.45 3366.64 1307.74 3224.04 1307.74 3153.51 915ZM3614.66 988.995 3525.01 988.995 3506.41 915 3815.13 915 3838.13 988.995 3748.48 988.995 3842 1308 3699.39 1308 3614.66 988.995ZM1528.77 1183.55 1482.26 1183.55 1493.89 1103.87 1448.16 1103.87 1416.9 1307.74 1274.29 1307.74 1344.82 915 1477.1 915 1465.73 988.995 1510.42 988.995 1499.31 1065.06 1544.78 1065.06 1565.19 915 1697.47 915 1654.58 1307.74 1511.97 1307.74 1528.77 1183.55ZM3109.33 915 2800.61 915 2843.75 1307.74 2986.36 1307.74 2969.56 1183.55 3016.07 1183.55 3034.15 1307.74 3176.76 1307.74 3109.33 915ZM3005.22 1058.59 3027.95 1058.59 3038.8 1130.26 3008.06 1130.26 3004.18 1104.13 2958.46 1104.13 2962.07 1130.26 2931.33 1130.26 2922.29 1058.59 2945.02 1058.59 2942.44 1039.45 2889.74 1039.45 2883.53 988.995 2943.21 988.995 2949.16 1033.24 2994.37 1033.24 2987.91 988.995 3047.58 988.995 3055.59 1039.45 3002.89 1039.45 3005.22 1058.59Z" fill="url(#fill1)" fill-rule="evenodd"/><path d="M1164 1224 1147.11 1308 1131 1308 1148.41 1224Z" fill="#998F8B" fill-rule="evenodd"/><path d="M2933.62 1265 2939 1308 2923.12 1308 2918 1265Z" fill="#998F8B" fill-rule="evenodd"/><path d="M1147.09 1308 1165 1345 1149.43 1345 1131 1308Z" fill="#262423" fill-rule="evenodd"/><path d="M1345 1265 1338.02 1308 1322 1308 1329.24 1265Z" fill="#998F8B" fill-rule="evenodd"/><path d="M1607.15 1308 1618 1345 1601.85 1345 1591 1308Z" fill="#262423" fill-rule="evenodd"/><path d="M1765.75 1308 1781 1382 1765.75 1382 1750 1308Z" fill="#262423" fill-rule="evenodd"/><path d="M753 1382 745.029 1370 699 1370 707.228 1382Z" fill="#262423" fill-rule="evenodd"/><path d="M3244 1370 3198.13 1370 3193 1382 3238.62 1382Z" fill="#262423" fill-rule="evenodd"/><path d="M2689 1370 2643.05 1370 2641 1382 2686.69 1382Z" fill="#262423" fill-rule="evenodd"/><path d="M1929.44 1345 1945 1345 1940.07 1308 1924 1308Z" fill="#262423" fill-rule="evenodd"/><path d="M3653 1382 3660.53 1370 3707 1370 3699.21 1382Z" fill="#262423" fill-rule="evenodd"/><path d="M1075 1382 1068.63 1370 1023 1370 1029.37 1382Z" fill="#262423" fill-rule="evenodd"/><path d="M2869 1117 2867.43 1104 2821 1104 2822.31 1117Z" fill="#998F8B" fill-rule="evenodd"/><path d="M1018.34 1052.17 1036.22 977 976.626 977 973.517 989.572 1018.34 989.572 1003.05 1052.17 912.109 1052.17 909 1065 1091.15 1065 1094 1052.17Z" fill="#998F8B" fill-rule="evenodd"/><path d="M3741.85 915 3727 915 3748.89 989 3764 989Z" fill="#998F8B" fill-rule="evenodd"/><path d="M3407.98 1065 3393 1065 3410.02 1144 3425 1144Z" fill="#998F8B" fill-rule="evenodd"/><path d="M2601 1224.71 2599.96 1211 2537 1211 2542.22 1308 2558.42 1308 2553.46 1224.71Z" fill="#998F8B" fill-rule="evenodd"/><path d="M663.877 977 798 977 794.382 989 660 989Z" fill="#998F8B" fill-rule="evenodd"/><path d="M1294 1197 1296.59 1184 1436 1184 1433.93 1197Z" fill="#998F8B" fill-rule="evenodd"/><path d="M3670.61 1197 3667 1184 3806.14 1184 3810 1197Z" fill="#998F8B" fill-rule="evenodd"/><path d="M3024.07 1238 3022 1224 3162.67 1224 3165 1238Z" fill="#998F8B" fill-rule="evenodd"/><path d="M1622 1184 1528.81 1184 1527 1197.43 1604.92 1197.43 1591.46 1308 1607.25 1308Z" fill="#998F8B" fill-rule="evenodd"/><path d="M2545 1065 2544.22 1052.07 2513.91 1052.07 2506.92 915 2492.15 915 2497.08 1014.05 2452 1014.05 2452.52 1026.72 2497.59 1026.72 2499.41 1065Z" fill="#998F8B" fill-rule="evenodd"/><path d="M2545 1065 2544.22 1052.07 2513.91 1052.07 2506.92 915 2492.15 915 2497.08 1014.05 2452 1014.05 2452.52 1026.72 2497.59 1026.72 2499.41 1065Z" fill="#998F8B" fill-rule="evenodd"/><path d="M727.133 1224.24 731 1210.65 653.384 1210.65 673.497 1144 612.126 1144 608 1157.33 654.157 1157.33 621.151 1265 636.881 1265 715.529 1265 719.397 1251.41 641.007 1251.41 649.258 1224.24Z" fill="#998F8B" fill-rule="evenodd"/><path d="M3391 989 3379.88 939.322 3305.91 939.322 3300.74 915 3286 915 3293.5 951.741 3367.72 951.741 3376 989Z" fill="#998F8B" fill-rule="evenodd"/><path d="M1732.29 1014 1777 1014 1775.71 1027 1731 1027Z" fill="#998F8B" fill-rule="evenodd"/><path d="M1712.28 1211 1711 1224.71 1757.35 1224.71 1749.67 1308 1765.55 1308 1774 1211Z" fill="#998F8B" fill-rule="evenodd"/><path d="M1468 977 1423.09 977 1421 989 1466.17 989Z" fill="#998F8B" fill-rule="evenodd"/><path d="M1691 977 1556.81 977 1555 989 1689.45 989Z" fill="#998F8B" fill-rule="evenodd"/><path d="M2939 1308 2922.86 1308 2901 1382 2916.62 1382Z" fill="#262423" fill-rule="evenodd"/><path d="M2646 1211 2647.04 1224 2694 1224 2692.96 1211Z" fill="#998F8B" fill-rule="evenodd"/><path d="M2091.18 1027 2090.92 1039.66 2136.28 1039.66 2132.91 1183.57 2086.52 1183.57 2086 1197 2148.47 1197 2151.32 1039.66 2227 1039.66 2227 1027Z" fill="#998F8B" fill-rule="evenodd"/><path d="M3272 1224 3256.5 1144 3195 1144 3197.33 1157.29 3243.58 1157.29 3256.24 1224Z" fill="#998F8B" fill-rule="evenodd"/><path d="M2241 1308 2225 1308 2225.26 1272 2241 1272Z" fill="#998F8B" fill-rule="evenodd"/><path d="M2241 1345 2225.52 1345 2225 1308 2241 1308Z" fill="#262423" fill-rule="evenodd"/><path d="M2553 1345 2538 1345 2542.5 1308 2558 1308Z" fill="#262423" fill-rule="evenodd"/><path d="M1229.11 977 1219 1027 1234.3 1027 1241.81 989.564 1286.67 989.564 1289 977Z" fill="#998F8B" fill-rule="evenodd"/><path d="M1976.37 1224 1974.8 1251.65 1927.39 1251.65 1924 1308 1940.15 1308 1942.5 1265.48 1990.18 1265.48 1992 1224Z" fill="#998F8B" fill-rule="evenodd"/><path d="M2410.74 1376 2411 1370 2365.26 1370 2365 1376Z" fill="#262423" fill-rule="evenodd"/><path d="M1337.94 1308 1367 1382 1351.83 1382 1322 1308Z" fill="#262423" fill-rule="evenodd"/><path d="M673 1144 670.951 1150 610 1150 612.049 1144Z" fill="#6B6562" fill-rule="evenodd"/><path d="M653 1211 658.701 1217 729.186 1217 731 1211Z" fill="#6B6562" fill-rule="evenodd"/><path d="M641 1252 646.901 1259 716.948 1259 719 1252Z" fill="#6B6562" fill-rule="evenodd"/><path d="M663.81 977 798 977 796.19 983 662 983Z" fill="#6B6562" fill-rule="evenodd"/><path d="M976.551 977 975 983 1034.71 983 1036 977Z" fill="#6B6562" fill-rule="evenodd"/><path d="M1018.08 989 1024 995.245 1008.81 1059 911 1059 912.544 1052.49 1002.89 1052.49Z" fill="#6B6562" fill-rule="evenodd"/><path d="M1018 1052 1023.99 1059 1092.7 1059 1094 1052Z" fill="#6B6562" fill-rule="evenodd"/><path d="M654.28 1157 660 1163.43 629.06 1265 621 1265Z" fill="#6B6562" fill-rule="evenodd"/><path d="M1219 1027 1226.78 1027 1235.59 983.41 1287.7 983.41 1289 977 1229.11 977Z" fill="#6B6562" fill-rule="evenodd"/><path d="M1164 1224 1162.7 1230.78 1154.91 1230.78 1139.05 1308 1131 1308 1148.41 1224Z" fill="#6B6562" fill-rule="evenodd"/><path d="M1421 989 1428.31 989 1429.36 983.123 1467.22 983.123 1468 977 1423.09 977Z" fill="#6B6562" fill-rule="evenodd"/><path d="M1556.78 977 1691 977 1690.22 983 1556 983Z" fill="#6B6562" fill-rule="evenodd"/><path d="M1296.3 1184 1436 1184 1434.96 1190 1295 1190Z" fill="#6B6562" fill-rule="evenodd"/><path d="M1345 1265 1329.24 1265 1322 1308 1330.01 1308 1335.96 1272.12 1343.97 1272.12Z" fill="#6B6562" fill-rule="evenodd"/><path d="M1528.78 1184 1528 1190 1621.22 1190 1622 1184Z" fill="#6B6562" fill-rule="evenodd"/><path d="M1604.82 1197 1612 1204 1598.97 1308 1591 1308Z" fill="#6B6562" fill-rule="evenodd"/><path d="M1731.78 1014 1731 1021 1776.48 1021 1777 1014Z" fill="#6B6562" fill-rule="evenodd"/><path d="M1711.77 1211 1711 1217 1773.48 1217 1774 1211Z" fill="#6B6562" fill-rule="evenodd"/><path d="M1757.76 1224 1765 1230.78 1758.02 1308 1750 1308Z" fill="#6B6562" fill-rule="evenodd"/><path d="M1984 1224 1976.21 1224 1974.65 1251.65 1927.38 1251.65 1924 1308 1932.05 1308 1934.91 1258.7 1982.18 1258.7Z" fill="#6B6562" fill-rule="evenodd"/><path d="M2091 1033 2227 1033 2227 1027 2091.26 1027Z" fill="#6B6562" fill-rule="evenodd"/><path d="M2136.65 1040 2144 1046.43 2141.11 1190 2086 1190 2086.26 1183.31 2133.24 1183.31Z" fill="#6B6562" fill-rule="evenodd"/><path d="M2497 1014 2452 1014 2452.26 1021 2489.76 1021Z" fill="#6B6562" fill-rule="evenodd"/><path d="M2545 1065 2544.21 1052.07 2513.46 1052.07 2506.36 915 2499 915 2506.36 1058.53 2537.11 1058.53 2537.38 1065Z" fill="#6B6562" fill-rule="evenodd"/><path d="M2600 1217 2599.48 1211 2537 1211 2537.26 1217Z" fill="#6B6562" fill-rule="evenodd"/><path d="M2553.15 1224 2546 1230.78 2550.09 1308 2558 1308Z" fill="#6B6562" fill-rule="evenodd"/><path d="M2646 1211 2646.52 1217.38 2685.7 1217.38 2686.22 1224 2694 1224 2692.96 1211 2646 1211" fill="#6B6562" fill-rule="evenodd"/><path d="M2821.79 1110.63 2821 1104 2867.43 1104 2869 1117 2861.13 1117 2860.61 1110.63Z" fill="#6B6562" fill-rule="evenodd"/><path d="M3022 1224 3162.96 1224 3164 1231 3023.04 1231Z" fill="#6B6562" fill-rule="evenodd"/><path d="M2918.77 1272.12 2926.71 1272.12 2931.06 1308 2939 1308 2933.62 1265 2918 1265Z" fill="#6B6562" fill-rule="evenodd"/><path d="M3196.03 1150.65 3250.04 1150.65 3263.99 1224 3272 1224 3256.5 1144 3195 1144Z" fill="#6B6562" fill-rule="evenodd"/><path d="M3301.2 915 3294 915 3300.18 945.532 3373.76 945.532 3383.54 989 3391 989 3379.94 939.322 3306.35 939.322Z" fill="#6B6562" fill-rule="evenodd"/><path d="M3407.73 1065 3400 1065 3417.53 1144 3425 1144Z" fill="#6B6562" fill-rule="evenodd"/><path d="M3667 1184 3805.94 1184 3808 1190 3668.8 1190Z" fill="#6B6562" fill-rule="evenodd"/><path d="M3735 915 3756.62 989 3764 989 3742.38 915Z" fill="#6B6562" fill-rule="evenodd"/><path d="M2226 1265 2226 1272 2241 1272 2241 1265Z" fill="#6B6562" fill-rule="evenodd"/><path d="M1029.37 1382 1023 1370 1030.65 1370 1033.96 1376.13 1071.69 1376.13 1075 1382Z" fill="#171615" fill-rule="evenodd"/><path d="M1139.05 1308 1131 1308 1149.43 1345 1165 1345 1162.14 1338.92 1154.1 1338.92Z" fill="#171615" fill-rule="evenodd"/><path d="M1598.94 1308 1608.21 1338.92 1616.15 1338.92 1618 1345 1601.85 1345 1591 1308Z" fill="#171615" fill-rule="evenodd"/><path d="M1757.88 1308 1772.11 1376.09 1779.73 1376.09 1781 1382 1765.75 1382 1750 1308Z" fill="#171615" fill-rule="evenodd"/><path d="M1932.04 1308 1936.44 1338.92 1944.22 1338.92 1945 1345 1929.44 1345 1924 1308Z" fill="#171615" fill-rule="evenodd"/><path d="M2930.93 1308 2910.63 1376.09 2902.82 1376.09 2901 1382 2916.62 1382 2939 1308Z" fill="#171615" fill-rule="evenodd"/><path d="M3238.62 1382 3244 1370 3236.31 1370 3233.75 1376.13 3195.56 1376.13 3193 1382Z" fill="#171615" fill-rule="evenodd"/><path d="M3656.63 1376.13 3695.32 1376.13 3699.21 1370 3707 1370 3699.21 1382 3653 1382Z" fill="#171615" fill-rule="evenodd"/><path d="M699 1370 707.228 1382 753 1382 749.143 1376.13 710.828 1376.13 706.714 1370Z" fill="#171615" fill-rule="evenodd"/><path d="M2550.25 1308 2546.25 1338.92 2538.75 1338.92 2538 1345 2553 1345 2558 1308Z" fill="#171615" fill-rule="evenodd"/><path d="M2226 1339 2226.25 1345 2241 1345 2241 1339Z" fill="#171615" fill-rule="evenodd"/><path d="M2364.26 1376 2364 1382 2410.48 1382 2411 1376Z" fill="#171615" fill-rule="evenodd"/><path d="M1329.97 1308 1322 1308 1351.83 1382 1367 1382 1364.69 1376.09 1356.97 1376.09Z" fill="#171615" fill-rule="evenodd"/><path d="M2642.03 1376.13 2641 1382 2686.69 1382 2689 1370 2681.3 1370 2680.27 1376.13Z" fill="#171615" fill-rule="evenodd"/><path d="M707 1382 711.124 1388 757 1388 752.876 1382Z" fill="#6B6562" fill-rule="evenodd"/><path d="M1029 1382 1075.86 1382 1079 1388 1032.4 1388Z" fill="#6B6562" fill-rule="evenodd"/><path d="M1150 1345 1152.79 1352 1168 1352 1165.21 1345Z" fill="#6B6562" fill-rule="evenodd"/><path d="M1602 1345 1603.78 1352 1619 1352 1617.48 1345Z" fill="#6B6562" fill-rule="evenodd"/><path d="M1766 1382 1767.25 1388 1782 1388 1781 1382Z" fill="#6B6562" fill-rule="evenodd"/><path d="M1930 1345 1930.76 1352 1946 1352 1945.24 1345Z" fill="#6B6562" fill-rule="evenodd"/><path d="M2641.03 1382 2687 1382 2685.71 1388 2640 1388Z" fill="#6B6562" fill-rule="evenodd"/><path d="M2901.55 1382 2900 1388 2915.2 1388 2917 1382Z" fill="#6B6562" fill-rule="evenodd"/><path d="M3239 1382 3236.39 1388 3190 1388 3192.61 1382Z" fill="#6B6562" fill-rule="evenodd"/><path d="M3653.81 1382 3650 1388 3695.19 1388 3699 1382Z" fill="#6B6562" fill-rule="evenodd"/><path d="M2226 1345 2226 1352 2241 1352 2241 1345Z" fill="#6B6562" fill-rule="evenodd"/><path d="M2553 1345 2552.24 1352 2537 1352 2537.76 1345Z" fill="#6B6562" fill-rule="evenodd"/><path d="M2133 1177 2087 1177 2087 1184 2132.74 1184Z" fill="url(#fill2)" fill-rule="evenodd"/><path d="M1297 1184 1435.97 1184 1437 1177 1298.03 1177Z" fill="url(#fill3)" fill-rule="evenodd"/><path d="M1623 1177 1483.04 1177 1482 1184 1622.22 1184Z" fill="url(#fill4)" fill-rule="evenodd"/><path d="M3803.94 1177 3665 1177 3666.8 1184 3806 1184Z" fill="url(#fill5)" fill-rule="evenodd"/><path d="M561 1308 702.943 1308 705 1301 563.314 1301Z" fill="url(#fill6)" fill-rule="evenodd"/><path d="M641 1252 718.949 1252 721 1245 643.051 1245Z" fill="url(#fill7)" fill-rule="evenodd"/><path d="M653 1211 730.929 1211 733 1204 655.071 1204Z" fill="url(#fill8)" fill-rule="evenodd"/><path d="M774 1224 868.179 1224 870 1217 775.821 1217Z" fill="url(#fill9)" fill-rule="evenodd"/><path d="M894 1308 1036.45 1308 1038 1301 895.806 1301Z" fill="url(#fill10)" fill-rule="evenodd"/><path d="M1166 1217 1150.29 1217 1149 1224 1164.45 1224Z" fill="url(#fill11)" fill-rule="evenodd"/><path d="M1346 1259 1330.29 1259 1329 1265 1344.71 1265Z" fill="url(#fill12)" fill-rule="evenodd"/><path d="M1775 1204 1712.77 1204 1712 1211 1774.23 1211Z" fill="url(#fill13)" fill-rule="evenodd"/><path d="M1975 1245 1928.51 1245 1928 1252 1974.49 1252Z" fill="url(#fill14)" fill-rule="evenodd"/><path d="M2537.26 1211 2600 1211 2599.48 1204 2537 1204Z" fill="url(#fill15)" fill-rule="evenodd"/><path d="M2692.49 1204 2646 1204 2646.51 1211 2693 1211Z" fill="url(#fill16)" fill-rule="evenodd"/><path d="M2917 1259 2917.8 1265 2934 1265 2932.94 1259Z" fill="url(#fill17)" fill-rule="evenodd"/><path d="M3161.7 1217 3021 1217 3022.04 1224 3163 1224Z" fill="url(#fill18)" fill-rule="evenodd"/><path d="M2843 1301 2843.77 1308 2923 1308 2922.23 1301Z" fill="url(#fill19)" fill-rule="evenodd"/><path d="M2938 1301 2939.04 1308 2987 1308 2985.96 1301Z" fill="url(#fill20)" fill-rule="evenodd"/><path d="M3033 1301 3034.04 1308 3177 1308 3175.71 1301Z" fill="url(#fill21)" fill-rule="evenodd"/><path d="M3223 1301 3224.29 1308 3367 1308 3365.71 1301Z" fill="url(#fill22)" fill-rule="evenodd"/><path d="M3840.93 1301 3698 1301 3700.07 1308 3843 1308Z" fill="url(#fill23)" fill-rule="evenodd"/><path d="M2463 1301 2463.26 1308 2542 1308 2541.74 1301Z" fill="url(#fill24)" fill-rule="evenodd"/><path d="M2558 1301 2558.52 1308 2606 1308 2605.48 1301Z" fill="url(#fill25)" fill-rule="evenodd"/><path d="M2083 1308 2225 1308 2225 1301 2083.26 1301Z" fill="url(#fill26)" fill-rule="evenodd"/><path d="M2241 1301 2241 1308 2416 1308 2415.74 1301Z" fill="url(#fill27)" fill-rule="evenodd"/><path d="M2653 1301 2653.52 1308 2796 1308 2795.23 1301Z" fill="url(#fill28)" fill-rule="evenodd"/><path d="M1702 1308 1750.21 1308 1751 1301 1702.79 1301Z" fill="url(#fill29)" fill-rule="evenodd"/><path d="M1766 1308 1924.48 1308 1925 1301 1766.52 1301Z" fill="url(#fill30)" fill-rule="evenodd"/><path d="M1940 1308 2035.74 1308 2036 1301 1940.26 1301Z" fill="url(#fill31)" fill-rule="evenodd"/><path d="M1512 1308 1591.23 1308 1592 1301 1513.03 1301Z" fill="url(#fill32)" fill-rule="evenodd"/><path d="M1607 1308 1654.23 1308 1655 1301 1607.77 1301Z" fill="url(#fill33)" fill-rule="evenodd"/><path d="M1274 1308 1321.7 1308 1323 1301 1275.3 1301Z" fill="url(#fill34)" fill-rule="evenodd"/><path d="M1338 1308 1416.97 1308 1418 1301 1339.29 1301Z" fill="url(#fill35)" fill-rule="evenodd"/><path d="M1084 1308 1131.45 1308 1133 1301 1085.55 1301Z" fill="url(#fill36)" fill-rule="evenodd"/><path d="M1148 1308 1226.46 1308 1228 1301 1149.28 1301Z" fill="url(#fill37)" fill-rule="evenodd"/><path d="M2866.23 1098 2821 1098 2821.77 1104 2867 1104Z" fill="url(#fill38)" fill-rule="evenodd"/><path d="M1495 1098 1448.78 1098 1448 1104 1494.22 1104Z" fill="url(#fill39)" fill-rule="evenodd"/><path d="M799 971 666.057 971 664 977 797.457 977Z" fill="url(#fill40)" fill-rule="evenodd"/><path d="M1037 971 977.551 971 976 977 1035.45 977Z" fill="url(#fill41)" fill-rule="evenodd"/><path d="M1018 1052 1093.45 1052 1095 1046 1019.29 1046Z" fill="url(#fill42)" fill-rule="evenodd"/><path d="M1004 1046 913.804 1046 912 1052 1002.45 1052Z" fill="url(#fill43)" fill-rule="evenodd"/><path d="M1290 971 1230.3 971 1229 977 1288.96 977Z" fill="url(#fill44)" fill-rule="evenodd"/><path d="M1469 971 1423.78 971 1423 977 1467.95 977Z" fill="url(#fill45)" fill-rule="evenodd"/><path d="M1557 977 1691.48 977 1692 971 1557.78 971Z" fill="url(#fill46)" fill-rule="evenodd"/><path d="M1777 1008 1732.51 1008 1732 1014 1776.49 1014Z" fill="url(#fill47)" fill-rule="evenodd"/><path d="M2227 1021 2091.26 1021 2091 1027 2227 1027Z" fill="url(#fill48)" fill-rule="evenodd"/><path d="M2496.74 1008 2451 1008 2451.26 1014 2497 1014Z" fill="url(#fill49)" fill-rule="evenodd"/><path d="M2630 989 2629.49 983 2585 983 2585.51 989Z" fill="url(#fill50)" fill-rule="evenodd"/><path d="M3523 983 3524.82 989 3615 989 3613.44 983Z" fill="url(#fill51)" fill-rule="evenodd"/><path d="M3838 989 3836.2 983 3762 983 3764.05 989Z" fill="url(#fill52)" fill-rule="evenodd"/><path d="M3380 940 3378.45 934 3305 934 3306.29 940Z" fill="url(#fill53)" fill-rule="evenodd"/><path d="M3376 989 3374.71 983 3300 983 3301.29 989Z" fill="url(#fill54)" fill-rule="evenodd"/><path d="M3480 989 3478.45 983 3389 983 3390.55 989Z" fill="url(#fill55)" fill-rule="evenodd"/><path d="M2544 1052 2543.74 1046 2513 1046 2513.26 1052Z" fill="url(#fill56)" fill-rule="evenodd"/><path d="M2943 989 2942.23 983 2883 983 2883.77 989Z" fill="url(#fill57)" fill-rule="evenodd"/><path d="M2994 1033 2992.97 1027 2948 1027 2948.78 1033Z" fill="url(#fill58)" fill-rule="evenodd"/><path d="M3048 989 3046.96 983 2987 983 2987.78 989Z" fill="url(#fill59)" fill-rule="evenodd"/><path d="M3005.76 1059 3028 1059 3027.24 1052 3005 1052Z" fill="url(#fill60)" fill-rule="evenodd"/><path d="M2922.05 1059 2945 1059 2944.21 1052 2921 1052Z" fill="url(#fill61)" fill-rule="evenodd"/><path d="M1869 989 2047.74 989 2048 983 1869.52 983Z" fill="url(#fill62)" fill-rule="evenodd"/><path d="M2405.74 983 2227 983 2227 989 2406 989Z" fill="url(#fill63)" fill-rule="evenodd"/><path d="M2772 1065 2771.23 1059 2726 1059 2726.77 1065Z" fill="url(#fill64)" fill-rule="evenodd"/><path d="M675 1137 614.049 1137 612 1144 672.951 1144Z" fill="url(#fill65)" fill-rule="evenodd"/><path d="M798 1137 751.816 1137 750 1144 796.184 1144Z" fill="url(#fill66)" fill-rule="evenodd"/><path d="M936 1137 890.778 1137 889 1144 934.476 1144Z" fill="url(#fill67)" fill-rule="evenodd"/><path d="M3332 1137 3333.29 1144 3410 1144 3408.46 1137Z" fill="url(#fill68)" fill-rule="evenodd"/><path d="M3424 1137 3425.3 1144 3518 1144 3516.44 1137Z" fill="url(#fill69)" fill-rule="evenodd"/><path d="M3254.72 1137 3194 1137 3195.28 1144 3256 1144Z" fill="url(#fill70)" fill-rule="evenodd"/><path d="M1857 1144 2041.74 1144 2042 1137 1857.52 1137Z" fill="url(#fill71)" fill-rule="evenodd"/><path d="M2241 1259 2226 1259 2226 1265 2241 1265Z" fill="url(#fill72)" fill-rule="evenodd"/><path d="M2595 1137 2595.51 1144 2641 1144 2640.49 1137Z" fill="url(#fill73)" fill-rule="evenodd"/><path d="M2969 1177 2969.77 1184 3016 1184 3014.97 1177Z" fill="url(#fill74)" fill-rule="evenodd"/><path d="M2364.26 1382 2364 1388 2409.49 1388 2410 1382Z" fill="#6B6562" fill-rule="evenodd"/><path d="M1352 1382 1354.25 1388 1369 1388 1366.75 1382Z" fill="#6B6562" fill-rule="evenodd"/><path d="M753 1382.06 757.16 1388 766 1354.94 762.1 1349Z" fill="#3D3938" fill-rule="evenodd"/><path d="M3653 1382.11 3649.33 1388 3641 1352.89 3644.43 1347Z" fill="#3D3938" fill-rule="evenodd"/></g></svg>