<?xml version="1.0" encoding="utf-8"?>
<!-- Generator: Adobe Illustrator 27.3.1, SVG Export Plug-In . SVG Version: 6.00 Build 0)  -->
<svg version="1.1" id="Layer_1" xmlns="http://www.w3.org/2000/svg" xmlns:xlink="http://www.w3.org/1999/xlink" x="0px" y="0px"
	 viewBox="0 0 800 800" style="enable-background:new 0 0 800 800;" xml:space="preserve">
<style type="text/css">
	.st0{fill:#7F89A2;}
</style>
<g>
	<path class="st0" d="M8.6,731.5H154c3.9,0,7.3-2.6,8.3-6.3l42.4-152.8h164.6l46,153c1.1,3.7,4.5,6.1,8.3,6.1h150.9c0,0,0.1,0,0.1,0
		c4.8,0,8.6-3.9,8.6-8.6c0-1.3-0.3-2.5-0.8-3.6l-191.9-619c-1.1-3.6-4.5-6.1-8.3-6.1h-184c-3.8,0-7.2,2.5-8.3,6.1L0.4,720.4
		c-0.8,2.6-0.3,5.5,1.3,7.7C3.3,730.2,5.9,731.5,8.6,731.5z M343.9,450.2H229.7l33.7-120.6c6.1-21.7,11.9-47.4,17.5-72.3
		c1.3-5.7,2.5-11.3,3.8-16.8c7.4,29.8,15.6,62,23.7,89.2L343.9,450.2z"/>
	<path class="st0" d="M646.9,264.4c-4.8,0-8.6,3.9-8.6,8.6v449.8c0,4.8,3.9,8.6,8.6,8.6h139.8c4.8,0,8.6-3.9,8.6-8.6V273.1
		c0-4.8-3.9-8.6-8.6-8.6H646.9z"/>
	<path class="st0" d="M715.9,226.5c48.7,0,84.1-33,84.1-78.7c-1.1-46.7-35.3-79.3-83.1-79.3c-24.5,0-46.2,8.4-61.1,23.8
		c-14,14.4-21.5,34.1-21.1,55.7c-0.4,20.9,7.1,40.3,21.1,54.7C670.8,218,692.1,226.5,715.9,226.5z"/>
</g>
</svg>
