<?xml version="1.0" encoding="utf-8"?>
<!-- Generator: Adobe Illustrator 27.3.1, SVG Export Plug-In . SVG Version: 6.00 Build 0)  -->
<svg version="1.1"
	 id="svg4515" xmlns:inkscape="http://www.inkscape.org/namespaces/inkscape" xmlns:svg="http://www.w3.org/2000/svg" xmlns:sodipodi="http://sodipodi.sourceforge.net/DTD/sodipodi-0.dtd" xmlns:dc="http://purl.org/dc/elements/1.1/" xmlns:cc="http://creativecommons.org/ns#" xmlns:rdf="http://www.w3.org/1999/02/22-rdf-syntax-ns#" inkscape:version="0.92.1 r15371" sodipodi:docname="blockbench.svg"
	 xmlns="http://www.w3.org/2000/svg" xmlns:xlink="http://www.w3.org/1999/xlink" x="0px" y="0px" viewBox="0 0 821.6 821.6"
	 style="enable-background:new 0 0 821.6 821.6;" xml:space="preserve">
<style type="text/css">
	.st0{fill:#7F89A2;}
</style>
<sodipodi:namedview  bordercolor="#666666" borderopacity="1.0" fit-margin-bottom="0" fit-margin-left="0" fit-margin-right="0" fit-margin-top="0" id="base" inkscape:current-layer="layer1" inkscape:cx="207.06121" inkscape:cy="535.27007" inkscape:document-units="mm" inkscape:pageopacity="0.0" inkscape:pageshadow="2" inkscape:window-height="1377" inkscape:window-maximized="1" inkscape:window-width="2560" inkscape:window-x="-8" inkscape:window-y="-8" inkscape:zoom="0.7" pagecolor="#ffffff" showgrid="false" units="cm">
	</sodipodi:namedview>
<g id="layer1" transform="translate(140.57843,-0.59405263)" inkscape:groupmode="layer" inkscape:label="Ebene 1">
	
		<path id="path5085" inkscape:connector-curvature="0" sodipodi:nodetypes="ccccccccccscccccccsscsccccsccccscssscccscscccccccccsssccscccccccccccss" class="st0" d="
		M669.1,113.5c-8.5,0.1-34.5,2-118.8,7.8c-104.3,7.2-208.9,14.4-312,21.4c-104.2,7.1-93.9,6.2-98.9,9.3c-5.6,3.5-8.7,9.4-10.6,19.8
		c-15.4,74.6-27.8,128.1-37.8,171.4c-0.5,1.4-1.6,6.1-2.4,10.5c-1.3,7.5-1.3,8.2,0.4,10.5c3.6,4.9,7.9,6,39,10.1
		c117.9,15.4,241,31.7,349.7,45.9c42.8,5.6,81.2,10.7,109.5,14.5c31.9,4.3,32.5,4.3,33.9,0.8c1.1-2.8,3.1-12.3,7.1-33.3
		c16.3-84.5,35.3-183.7,49.1-254c4.3-22,4.5-24.4,2.4-28.1c-1.1-1.8-3.4-4.2-5.2-5.3C673.1,114.1,674.3,113.5,669.1,113.5
		L669.1,113.5z M64.8,387.7c-4.1,0-8,0.3-12,0.9c-5.5,0.9-48.5,7-95.5,13.7s-87.5,12.8-89.8,13.7c-7.2,2.6-10.1,9.7-6.6,16.4
		c2.1,4.1,7.4,6.5,24,11.1c2.2,0.6,5.1,1.5,6.5,1.9C46.8,488.9,211,537,356.3,578.4c8.2,2.5,19.3,6.7,26.4,6.8
		c5.4-1.4,36-16.6,105.5-51.5c56.4-28.4,103.4-52.4,104.5-53.2c3.9-3.4,5.9-10.6,3.9-13.7c-0.4-0.6-5.9-1.9-12.2-2.8
		c-15-2.2-61.8-9.1-79-11.5c-7.4-1.1-18-2.6-23.5-3.5c-5.5-0.8-22.4-3.3-37.5-5.5s-39.9-5.8-55-8c-15.1-2.2-36.7-5.4-48-7
		c-26-3.8-81.4-11.9-112.5-16.5c-13.2-2-33.2-4.9-44.5-6.5c-68.9-9.9-90.2-13.1-96-14.4C79.1,388.8,71.7,387.7,64.8,387.7
		L64.8,387.7z M7.3,499.4c-0.2,0-0.4,0-0.5,0c-1.8,0.4-38.4,78.9-38.4,82.4c0,3.6,2.6,8.1,5.8,9.8c3.5,1.9,5.7,1.9,10.7,0.2
		c15.2-4.7,31.4-10,46.5-14.6c45.1-13.5,45.8-13.8,50.6-18.8c4-4.1,11.2-19.2,13.4-27.8c0.4-1.7,1.3-4,1.9-5.2
		c0.7-1.2,1-2.2,0.8-2.2c-26.3-6.8-53.6-14.2-78.5-21C14.1,500.7,9,499.6,7.3,499.4L7.3,499.4z M474.4,560.7c-0.8,0-2,0.5-4.2,1.8
		c-2.4,1.4-9.3,5.3-15.4,8.7c-16.5,10-32.1,20.3-49.5,28.5c-14.1,8.8-20.4,10.8-27.4,8.5c-6.9-2.2-25.3-7-26.9-7c-1,0-2,0.8-2.3,1.7
		c-0.5,1.7-2.3,6.5-6.5,18.3c-6.8,17.6-12.7,35.3-18.9,52c-2.9,8-8.1,26.3-8,28.5c0.1,2.2,4.9,6.7,8.6,8.1c2.3,0.8,5.6,1.2,7.9,0.9
		c43-17.4,75.8-39.4,112.4-58.5c11.2-5.8,15.3-9.9,16.9-16.8c1.4-5.8,3.9-17,5.5-24.6c0.8-3.9,2.5-11.3,3.7-16.5
		c6.2-27.8,6.6-30.4,5.1-32.9C475.2,560.9,474.9,560.7,474.4,560.7L474.4,560.7z"/>
</g>
</svg>
