<?xml version="1.0" encoding="UTF-8"?>
<svg id="MCTitles" xmlns="http://www.w3.org/2000/svg" xmlns:xlink="http://www.w3.org/1999/xlink" viewBox="0 0 244.715613 49.41848">
  <defs>
    <linearGradient id="linear-gradient" x1="24.124958" y1="3.032586" x2="24.124958" y2="34.931452" gradientUnits="userSpaceOnUse">
      <stop offset="0" stop-color="#d0c5c0"/>
      <stop offset=".99" stop-color="#aba09c"/>
    </linearGradient>
    <linearGradient id="linear-gradient-2" x1="59.526516" y1="3.032586" x2="59.526516" y2="34.931453" xlink:href="#linear-gradient"/>
    <linearGradient id="linear-gradient-3" x1="86.340131" y1="34.931465" x2="86.340131" y2="3.032599" gradientUnits="userSpaceOnUse">
      <stop offset="0" stop-color="#44c3f2"/>
      <stop offset="1" stop-color="#398ecd"/>
    </linearGradient>
    <linearGradient id="linear-gradient-4" x1="111.666787" x2="111.666787" y2="14.002437" xlink:href="#linear-gradient-3"/>
    <linearGradient id="linear-gradient-5" x1="221.553655" x2="221.553655" y2="24.188783" xlink:href="#linear-gradient-3"/>
    <linearGradient id="linear-gradient-6" x1="190.469411" x2="190.469411" y2="10.484305" xlink:href="#linear-gradient-3"/>
    <linearGradient id="linear-gradient-7" x1="162.489481" x2="162.489481" y2="10.801299" xlink:href="#linear-gradient-3"/>
    <linearGradient id="linear-gradient-8" x1="134.355002" y1="34.931469" x2="134.355002" y2="15.431683" xlink:href="#linear-gradient-3"/>
    <linearGradient id="linear-gradient-9" x1="237.461391" y1="20.35059" x2="238.995193" y2="10.365005" gradientTransform="translate(.08258 36.429474) rotate(-8.732473)" gradientUnits="userSpaceOnUse">
      <stop offset=".452769" stop-color="#754a2e"/>
      <stop offset="1" stop-color="#8b5f3c"/>
    </linearGradient>
    <linearGradient id="linear-gradient-10" x1="239.334091" y1="22.62682" x2="239.334091" y2="9.940723" gradientTransform="translate(3.235945 -25.481942) rotate(6.197393)" gradientUnits="userSpaceOnUse">
      <stop offset=".294788" stop-color="#8b5f3c"/>
      <stop offset="1" stop-color="#a97c51"/>
    </linearGradient>
  </defs>
  <g id="brush-outline">
    <polygon points="241.735144 21.661633 240.452917 20.196301 244.715613 12.604504 242.191198 8.697277 238.753698 9.465832 235.381628 15.450695 234.500769 14.910656 233.681433 15.948254 231.356238 14.897961 223.903113 24.432629 231.316198 33.028332 234.610144 34.515637 242.063269 24.981457 240.621863 23.31007 241.735144 21.661633" fill="#231f20"/>
  </g>
  <g id="text">
    <g id="Layer_1_copy" data-name="Layer 1 copy">
      <polygon points="234.509923 12.390284 232.925328 12.390284 233.988129 9.424138 232.331737 0 172.778477 0 170.117935 15.039033 170.980134 25.27073 165.500666 25.27073 163.826072 0 149.401911 0 147.21968 0 120.542465 0 117.98608 0 105.918586 0 103.540177 0 76.69712 0 74.702978 0 31.432517 0 30.602298 6.130725 26.959348 6.130725 26.242893 11.204616 24.662848 6.130725 23.895832 6.130725 21.971464 0 6.196807 0 0 35.258579 5.757934 49.41848 21.504277 49.41848 22.472528 42.943211 29.096579 42.943211 31.125103 49.41848 76.51156 49.41848 77.166836 39.773201 74.827865 25.27073 64.002665 25.27073 64.097215 24.215376 76.110102 24.215376 78.224581 24.215376 80.580237 24.215376 79.987657 35.037438 81.809891 49.41848 98.527012 49.41848 99.417399 24.215376 103.051438 24.215376 102.83434 34.971294 103.509334 49.41848 120.536398 49.41848 120.604845 24.215376 124.981757 24.215376 125.324564 49.41848 142.251515 49.41848 143.30926 34.993013 142.968476 24.215376 146.176092 24.215376 147.342039 49.41848 173.015104 49.41848 174.7979 49.41848 232.771621 49.41848 238.529556 35.258579 234.509923 12.390284"/>
    </g>
    <g>
      <g fill="none" isolation="isolate">
        <polygon points="19.674407 3.032586 23.485604 15.174889 22.587227 21.18274 18.70275 9.163365 19.674407 3.032586"/>
        <polygon points="22.360533 9.163365 26.103718 21.18274 25.220508 27.312115 21.404559 15.422873 22.360533 9.163365"/>
        <polygon points="20.431998 21.790983 24.322664 33.543044 20.738945 33.543044 16.701419 21.790983 20.431998 21.790983"/>
        <polygon points="31.614435 21.790983 35.064892 33.543044 31.481172 33.543044 27.883857 21.790983 31.614435 21.790983"/>
        <polygon points="27.883857 21.790983 31.481172 33.543044 30.632878 39.910177 26.964249 28.303396 27.883857 21.790983"/>
        <polygon points="26.964249 28.303396 30.632878 39.910177 23.405194 39.910177 19.437399 28.303396 26.964249 28.303396"/>
        <polygon points="16.701419 21.790983 20.738945 33.543044 18.81861 46.385196 14.618808 34.931452 16.701419 21.790983"/>
        <polygon points="14.618808 34.931452 18.81861 46.385196 7.867009 46.385196 3.209304 34.931452 14.618808 34.931452" fill="#3e3a39"/>
        <polygon points="45.040612 3.032586 47.881075 15.174888 44.402791 46.385197 41.272702 34.931452 45.040612 3.032586"/>
        <polygon points="45.040612 3.032586 41.272702 34.931452 29.834642 34.931452 31.614435 21.790983 27.883857 21.790983 26.964249 28.303396 19.437399 28.303396 20.431998 21.790983 16.701419 21.790983 14.618808 34.931452 3.209304 34.931452 8.816114 3.032586 19.674407 3.032586 18.70275 9.163365 22.360533 9.163365 21.404559 15.422873 28.783088 15.422873 29.666983 9.163365 33.324767 9.163365 34.155142 3.032586 45.040612 3.032586" fill="url(#linear-gradient)"/>
        <polygon points="41.272702 34.931452 44.402791 46.385197 33.423779 46.385197 29.834642 34.931452 41.272702 34.931452" fill="#3e3a39"/>
      </g>
      <g fill="none" isolation="isolate">
        <polygon points="73.993038 3.032586 75.725527 15.174888 75.317144 21.18274 73.551343 9.163364 73.993038 3.032586"/>
        <polygon points="73.551343 9.163364 75.317144 21.18274 61.251134 21.18274 58.920164 9.163364 73.551343 9.163364"/>
        <polygon points="58.920164 9.163364 61.251134 21.18274 59.570699 39.910177 57.099858 28.303396 58.920164 9.163364"/>
        <polygon points="72.17239 28.303396 74.044149 39.910177 73.60401 46.385197 71.694869 34.931453 72.17239 28.303396"/>
        <polygon points="71.694869 34.931453 73.60401 46.385197 48.038086 46.385197 45.059995 34.931452 71.694869 34.931453" fill="#3e3a39"/>
        <polygon points="73.993038 3.032586 73.551343 9.163364 58.920164 9.163364 57.099858 28.303396 72.17239 28.303396 71.694869 34.931453 45.059995 34.931452 48.644935 3.032586 73.993038 3.032586" fill="url(#linear-gradient-2)"/>
      </g>
      <g fill="none" isolation="isolate">
        <polygon points="84.515577 9.163364 85.857855 21.18274 78.833636 21.18274 77.209126 9.163364 84.515577 9.163364"/>
        <polygon points="102.80454 9.163364 103.440357 21.18274 96.416138 21.18274 95.498089 9.163364 102.80454 9.163364"/>
        <polygon points="102.963582 3.032585 103.587405 15.174888 103.440357 21.18274 102.80454 9.163364 102.963582 3.032585"/>
        <polygon points="94.532899 34.931453 95.525471 46.385197 84.555612 46.385197 83.104373 34.931453 94.532899 34.931453" fill="#003262"/>
        <polygon points="95.498089 9.163364 96.416138 21.18274 95.525471 46.385197 94.532899 34.931453 95.498089 9.163364"/>
        <polygon points="102.963582 3.032585 102.80454 9.163364 95.498089 9.163364 94.532899 34.931453 83.104373 34.931453 84.515577 9.163364 77.209126 9.163364 77.615479 3.032586 102.963582 3.032585" fill="#fff"/>
      </g>
      <g fill="none" isolation="isolate">
        <polygon points="117.453376 3.032585 117.522693 15.174888 117.437811 46.385197 117.361427 34.931453 117.453376 3.032585"/>
        <polygon points="117.361427 34.931453 117.437811 46.385197 106.477088 46.385197 105.94242 34.931453 117.361427 34.931453" fill="#003262"/>
        <polygon points="117.453376 3.032585 117.361427 34.931453 105.94242 34.931453 106.586038 3.032585 117.453376 3.032585" fill="#fff"/>
      </g>
      <g fill="none" isolation="isolate">
        <polygon points="230.7907 9.163363 226.482705 21.18274 212.425502 21.18274 216.168682 9.163363 230.7907 9.163363"/>
        <polygon points="206.90543 21.790983 203.455347 33.543045 201.108315 15.174888 204.364999 3.032584 206.90543 21.790983"/>
        <polygon points="221.827809 21.790983 217.790289 33.543045 203.455347 33.543045 206.90543 21.790983 221.827809 21.790983"/>
        <polygon points="222.85995 28.303397 218.742389 39.910178 217.790289 33.543045 221.827809 21.790983 222.85995 28.303397"/>
        <polygon points="208.685031 34.931453 205.096282 46.385198 204.268922 39.910178 207.7874 28.303397 208.685031 34.931453"/>
        <polygon points="235.319909 34.931453 230.662209 46.385198 205.096282 46.385198 208.685031 34.931453 235.319909 34.931453" fill="#003262"/>
        <polygon points="229.713105 3.032584 230.7907 9.163363 216.168682 9.163363 217.124655 15.422872 231.890922 15.422872 235.319909 34.931453 208.685031 34.931453 207.7874 28.303397 222.85995 28.303397 221.827809 21.790983 206.90543 21.790983 204.364999 3.032584 229.713105 3.032584" fill="#fff"/>
      </g>
      <g fill="none" isolation="isolate">
        <polygon points="201.537516 9.163364 198.359505 21.18274 184.293478 21.18274 186.90632 9.163364 201.537516 9.163364"/>
        <polygon points="203.174867 21.790983 199.871642 33.543045 185.5367 33.543045 188.252488 21.790983 203.174867 21.790983"/>
        <polygon points="178.24384 34.931453 175.876801 46.385198 173.24645 15.174888 175.394468 3.032585 178.24384 34.931453"/>
        <polygon points="204.878717 34.931453 201.442728 46.385198 175.876801 46.385198 178.24384 34.931453 204.878717 34.931453" fill="#003262"/>
        <polygon points="200.742573 3.032584 201.537516 9.163364 186.90632 9.163364 187.573615 15.422873 202.349151 15.422872 203.174867 21.790983 188.252488 21.790983 188.946745 28.303397 204.019295 28.303397 204.878717 34.931453 178.24384 34.931453 175.394468 3.032585 200.742573 3.032584" fill="#fff"/>
      </g>
      <g fill="none" isolation="isolate">
        <polygon points="151.608964 34.931453 150.310875 46.385198 148.868386 15.174888 150.046363 3.032585 151.608964 34.931453"/>
        <polygon points="174.437493 34.931453 172.223217 46.385198 150.310875 46.385198 151.608964 34.931453 174.437493 34.931453" fill="#003262"/>
        <polygon points="160.913732 3.032585 162.588693 28.303396 173.88365 28.303396 174.437493 34.931453 151.608964 34.931453 150.046363 3.032585 160.913732 3.032585" fill="#fff"/>
      </g>
      <g fill="none" isolation="isolate">
        <polygon points="121.093503 9.163364 121.02286 21.18274 121.006522 15.174888 121.075832 3.032585 121.093503 9.163364"/>
        <polygon points="128.399954 9.163364 128.047079 21.18274 121.02286 21.18274 121.093503 9.163364 128.399954 9.163364"/>
        <polygon points="146.688918 9.163364 145.629582 21.18274 138.605363 21.18274 139.382467 9.163364 146.688918 9.163364"/>
        <polygon points="128.770948 34.931453 128.389429 46.385197 128.047079 21.18274 128.399954 9.163364 128.770948 34.931453"/>
        <polygon points="140.199475 34.931453 139.359289 46.385198 128.389429 46.385197 128.770948 34.931453 140.199475 34.931453" fill="#003262"/>
        <polygon points="146.423937 3.032585 146.688918 9.163364 139.382467 9.163364 140.199475 34.931453 128.770948 34.931453 128.399954 9.163364 121.093503 9.163364 121.075832 3.032585 146.423937 3.032585" fill="#fff"/>
      </g>
    </g>
  </g>
  <g id="paint_layer" data-name="paint layer">
    <g>
      <path d="m88.265035,5.839522c2.972632,1.264154,5.372403,2.732449,7.206108,4.043434-.312754,8.349503-.625476,16.699006-.93823,25.048509h-11.428555l1.411232-25.768111h-7.306472l.406356-6.130756c2.77184.319247,6.523845,1.052392,10.649562,2.806923Z" fill="url(#linear-gradient-3)"/>
      <path d="m117.391161,17.680286c-.009923,5.750393-.019814,11.500786-.029736,17.251179h-11.419012c.14075-6.976353.281532-13.952675.422283-20.929027.9473.864046,2.823634,2.342398,5.628687,3.161618,2.247171.656295,4.192268.627295,5.397779.516231Z" fill="url(#linear-gradient-4)"/>
      <path d="m233.431669,24.188783c.629426,3.580884,1.258821,7.161799,1.888248,10.742682h-26.63487l-.897655-6.628075h15.072548c-.178039-1.123473-.35611-2.246976-.53415-3.370449.977889.3277,2.231212.634329,3.70454.727221,3.364799.212132,6.013396-.80802,7.401338-1.47138Z" fill="url(#linear-gradient-5)"/>
      <path d="m200.05475,20.411933c.873101.395511,1.830071.816751,1.830134.816782.528588.23271.967177.422999,1.28998.562261h-14.922381l.694271,6.512414h15.072548l.859418,6.628075h-26.63487c-.727926-8.149064-1.455821-16.298097-2.183748-24.44716,2.304179.494111,4.116047,1.032647,5.258103,1.398232,1.048201.335536,1.657403.570251,2.655138.931517.820233.297003,1.994932.713647,3.450027,1.199582.050087.469738.100143.939508.150231,1.409246h2.569563c5.049063,2.634404,8.805145,4.487844,9.911586,4.98905Z" fill="url(#linear-gradient-6)"/>
      <path d="m161.428639,10.801299c.3867,5.83403.773368,11.66806,1.160069,17.50209h11.294947l.553837,6.628075h-22.828543c-.355826-7.263761-.711652-14.527554-1.067478-21.791315,1.833863-.672523,4.02273-1.322956,6.529091-1.783531,1.560957-.286853,3.022783-.459218,4.358078-.555319Z" fill="url(#linear-gradient-7)"/>
      <path d="m139.581213,15.431683c.206085,6.499939.41217,12.999847.618256,19.499786h-11.428497c-.086823-6.029572-.173645-12.059174-.260437-18.088715,1.508972.113586,3.376404.130463,5.492676-.130402,2.21701-.273285,4.099518-.776428,5.578003-1.28067Z" fill="url(#linear-gradient-8)"/>
    </g>
  </g>
  <g id="cracks">
    <g id="Layer_5" data-name="Layer 5">
      <g>
        <g>
          <polygon points="72.668249 40.780407 72.057287 40.780407 71.43601 40.780407 70.804358 40.780407 70.18302 40.780407 69.561743 40.780407 69.68601 41.488049 70.307287 41.488049 70.928625 41.488049 71.549902 41.488049 72.171179 41.488049 72.782141 41.488049 72.668249 40.780407" fill="#262423"/>
          <polygon points="58.067724 36.41322 57.91239 35.675244 57.74674 34.927136 57.115088 34.927136 57.280737 35.675244 57.436072 36.41322 57.601721 37.151196 57.757055 37.87904 58.378393 37.87904 58.223059 37.151196 58.067724 36.41322" fill="#262423"/>
          <polygon points="42.234961 40.780407 41.613684 40.780407 40.992346 40.780407 40.371069 40.780407 39.749792 40.780407 39.946509 41.488049 40.578161 41.488049 41.199438 41.488049 41.8104 41.488049 42.431738 41.488049 43.053015 41.488049 42.856238 40.780407 42.234961 40.780407" fill="#262423"/>
          <polygon points="16.150793 40.780407 15.529455 40.780407 14.908178 40.780407 14.286902 40.780407 13.665564 40.780407 13.924475 41.488049 14.556128 41.488049 15.177405 41.488049 15.788366 41.488049 16.409643 41.488049 17.03092 41.488049 16.77207 40.780407 16.150793 40.780407" fill="#262423"/>
        </g>
        <g>
          <polygon points="72.906408 42.19569 72.295447 42.19569 71.67417 42.19569 71.052893 42.19569 70.431555 42.19569 69.810278 42.19569 69.199316 42.19569 69.33396 42.903332 69.934546 42.903332 70.555822 42.903332 71.177099 42.903332 71.798437 42.903332 72.409399 42.903332 73.0203 42.903332 72.906408 42.19569" fill="#5f5b5a"/>
          <polygon points="42.628454 42.19569 42.007177 42.19569 41.396216 42.19569 40.774939 42.19569 40.153601 42.19569 39.532324 42.19569 39.739416 42.903332 40.350378 42.903332 40.971655 42.903332 41.592932 42.903332 42.203894 42.903332 42.814856 42.903332 43.436133 42.903332 43.249731 42.19569 42.628454 42.19569" fill="#5f5b5a"/>
          <polygon points="16.668493 42.19569 16.057593 42.19569 15.436255 42.19569 14.814978 42.19569 14.193701 42.19569 13.582739 42.19569 13.841589 42.903332 14.462927 42.903332 15.084204 42.903332 15.705481 42.903332 16.316443 42.903332 16.927405 42.903332 17.548681 42.903332 17.289831 42.19569 16.668493 42.19569" fill="#5f5b5a"/>
        </g>
        <g>
          <polygon points="72.782141 41.488049 72.171179 41.488049 71.549902 41.488049 70.928625 41.488049 70.307287 41.488049 69.68601 41.488049 69.561743 40.780407 68.950781 40.780407 69.075049 41.488049 69.199316 42.19569 69.810278 42.19569 70.431555 42.19569 71.052893 42.19569 71.67417 42.19569 72.295447 42.19569 72.906408 42.19569 72.782141 41.488049" fill="#181716"/>
          <polygon points="57.757055 37.87904 57.601721 37.151196 57.436072 36.41322 57.280737 35.675244 57.115088 34.927136 56.473059 34.927136 56.638708 35.675244 56.804419 36.41322 56.959753 37.151196 57.125403 37.87904 57.291113 38.617016 57.91239 38.617016 58.544043 38.617016 58.378393 37.87904 57.757055 37.87904" fill="#181716"/>
          <polygon points="42.431738 41.488049 41.8104 41.488049 41.199438 41.488049 40.578161 41.488049 39.946509 41.488049 39.749792 40.780407 39.128454 40.780407 39.335547 41.488049 39.532324 42.19569 40.153601 42.19569 40.774939 42.19569 41.396216 42.19569 42.007177 42.19569 42.628454 42.19569 43.249731 42.19569 43.053015 41.488049 42.431738 41.488049" fill="#181716"/>
          <polygon points="16.409643 41.488049 15.788366 41.488049 15.177405 41.488049 14.556128 41.488049 13.924475 41.488049 13.665564 40.780407 13.044287 40.780407 13.313513 41.488049 13.582739 42.19569 14.193701 42.19569 14.814978 42.19569 15.436255 42.19569 16.057593 42.19569 16.668493 42.19569 17.289831 42.19569 17.03092 41.488049 16.409643 41.488049" fill="#181716"/>
        </g>
      </g>
    </g>
    <g>
      <polygon points="72.978918 8.643017 72.367956 8.643017 71.756994 8.643017 71.156408 8.643017 70.545447 8.643017 69.934546 8.643017 69.323584 8.643017 68.722998 8.643017 68.101721 8.643017 67.501135 8.643017 66.890173 8.643017 66.289587 8.643017 65.668249 8.643017 65.067663 8.643017 64.456762 8.643017 63.845801 8.643017 63.234839 8.643017 62.634253 8.643017 62.023352 8.643017 61.41239 8.643017 60.801428 8.643017 60.200842 8.643017 59.579565 8.643017 58.968603 8.643017 58.92716 9.158581 59.527807 9.158581 60.149084 9.158581 60.74967 9.158581 61.360632 9.158581 61.971533 9.158581 62.582495 9.158581 63.193457 9.158581 63.794043 9.158581 64.41532 9.158581 65.015906 9.158581 65.626867 9.158581 66.237829 9.158581 66.84873 9.158581 67.459692 9.158581 68.060278 9.158581 68.681555 9.158581 69.282141 9.158581 69.893103 9.158581 70.504065 9.158581 71.115027 9.158581 71.725927 9.158581 72.326513 9.158581 72.947851 9.158581 73.548437 9.158581 73.589819 8.643017 72.978918 8.643017" fill="#ece5e2"/>
      <polygon points="70.472998 34.371105 69.830969 34.371105 69.199316 34.371105 68.567663 34.371105 67.93601 34.371105 67.293982 34.371105 66.662329 34.371105 66.030676 34.371105 65.399023 34.371105 64.757055 34.371105 64.125403 34.371105 63.504065 34.371105 62.872412 34.371105 62.230444 34.371105 61.598791 34.371105 60.967138 34.371105 60.335486 34.371105 59.693457 34.371105 59.061804 34.371105 58.430151 34.371105 57.798498 34.371105 57.74674 34.927136 58.378393 34.927136 59.010046 34.927136 59.641699 34.927136 60.283667 34.927136 60.91532 34.927136 61.546972 34.927136 62.178625 34.927136 62.820654 34.927136 63.452307 34.927136 64.08396 34.927136 64.715613 34.927136 65.357641 34.927136 65.989294 34.927136 66.620947 34.927136 67.2526 34.927136 67.894629 34.927136 68.526281 34.927136 69.157934 34.927136 69.789587 34.927136 70.431555 34.927136 71.063208 34.927136 71.694861 34.927136 71.736303 34.371105 71.104651 34.371105 70.472998 34.371105" fill="#ece5e2"/>
      <polygon points="58.109167 31.045178 57.477514 31.045178 56.845862 31.045178 56.794043 31.601147 57.425696 31.601147 58.057348 31.601147 58.109167 31.045178" fill="#ece5e2"/>
      <polygon points="55.261511 34.371105 54.629858 34.371105 53.98789 34.371105 53.356238 34.371105 52.724585 34.371105 52.092932 34.371105 51.461279 34.371105 50.829565 34.371105 50.197912 34.371105 49.56626 34.371105 48.924292 34.371105 48.292639 34.371105 47.660986 34.371105 47.029333 34.371105 46.387304 34.371105 45.755652 34.371105 45.123999 34.371105 45.061865 34.927136 45.693518 34.927136 46.325171 34.927136 46.967199 34.927136 47.598852 34.927136 48.230505 34.927136 48.862158 34.927136 49.504187 34.927136 50.13584 34.927136 50.767492 34.927136 51.399145 34.927136 52.041113 34.927136 52.672766 34.927136 53.304419 34.927136 53.936072 34.927136 54.5781 34.927136 55.209753 34.927136 55.841406 34.927136 56.473059 34.927136 56.524817 34.371105 55.893164 34.371105 55.261511 34.371105" fill="#ece5e2"/>
      <polygon points="48.831091 12.272228 49.442053 12.272228 50.052954 12.272228 50.674292 12.272228 51.285193 12.272228 51.896155 12.272228 52.507116 12.272228 53.118017 12.272228 53.728979 12.272228 54.339941 12.272228 54.961218 12.272228 55.57218 12.272228 56.183142 12.272228 56.794043 12.272228 57.405005 12.272228 58.015967 12.272228 58.626867 12.272228 58.678686 11.756664 58.067724 11.756664 57.456762 11.756664 56.845862 11.756664 56.2349 11.756664 55.623938 11.756664 55.013037 11.756664 54.391699 11.756664 53.780737 11.756664 53.169836 11.756664 52.558874 11.756664 51.947912 11.756664 51.337011 11.756664 50.72605 11.756664 50.115088 11.756664 49.504187 11.756664 48.893225 11.756664 48.271887 11.756664 47.660986 11.756664 47.609167 12.272228 48.220129 12.272228 48.831091 12.272228" fill="#ece5e2"/>
      <polygon points="47.422827 25.030163 48.05448 25.030163 48.675757 25.030163 49.297033 25.030163 49.918371 25.030163 49.980505 24.484265 49.359167 24.484265 48.727514 24.484265 48.106238 24.484265 47.484961 24.484265 46.853308 24.484265 46.23197 24.484265 46.169836 25.030163 46.791174 25.030163 47.422827 25.030163" fill="#ece5e2"/>
      <polygon points="42.524878 13.839184 41.913977 13.839184 41.292639 13.839184 40.681738 13.839184 40.070776 13.839184 39.459814 13.839184 38.838537 13.839184 38.227575 13.839184 37.616614 13.839184 37.544165 14.36488 38.155127 14.36488 38.766028 14.36488 39.387365 14.36488 39.998266 14.36488 40.609228 14.36488 41.230505 14.36488 41.841467 14.36488 42.462744 14.36488 43.073706 14.36488 43.684668 14.36488 43.746801 13.839184 43.13584 13.839184 42.524878 13.839184" fill="#ece5e2"/>
      <polygon points="40.050085 34.371105 39.428747 34.371105 38.797094 34.371105 38.155127 34.371105 37.523474 34.371105 36.891821 34.371105 36.260168 34.371105 35.618139 34.371105 34.986487 34.371105 34.354834 34.371105 33.723181 34.371105 33.081152 34.371105 32.449499 34.371105 31.817846 34.371105 31.186194 34.371105 30.544165 34.371105 29.912512 34.371105 29.840063 34.927136 30.471716 34.927136 31.113745 34.927136 31.745398 34.927136 32.377051 34.927136 33.008703 34.927136 33.650671 34.927136 34.282324 34.927136 34.913977 34.927136 35.54563 34.927136 36.187658 34.927136 36.819311 34.927136 37.450964 34.927136 38.082617 34.927136 38.724646 34.927136 39.356299 34.927136 39.987951 34.927136 40.619604 34.927136 41.261572 34.927136 41.323706 34.371105 40.681738 34.371105 40.050085 34.371105" fill="#ece5e2"/>
      <polygon points="34.686194 8.137524 35.297156 8.137524 35.908056 8.137524 36.508642 8.137524 37.119604 8.137524 37.730566 8.137524 38.341467 8.137524 38.403601 7.62196 37.7927 7.62196 37.192114 7.62196 36.581152 7.62196 35.980566 7.62196 35.359228 7.62196 34.758642 7.62196 34.147741 7.62196 33.53678 7.62196 33.46427 8.137524 34.085608 8.137524 34.686194 8.137524" fill="#ece5e2"/>
      <polygon points="30.999792 21.795178 31.62113 21.795178 31.693579 21.259411 31.072302 21.259411 30.451025 21.259411 29.840063 21.259411 29.20841 21.259411 28.587072 21.259411 27.965796 21.259411 27.893347 21.795178 28.514624 21.795178 29.135901 21.795178 29.757239 21.795178 30.378515 21.795178 30.999792 21.795178" fill="#ece5e2"/>
      <polygon points="30.171423 14.36488 30.7927 14.36488 31.403662 14.36488 32.014624 14.36488 32.625525 14.36488 33.246863 14.36488 33.857763 14.36488 34.468725 14.36488 35.090002 14.36488 35.700964 14.36488 36.311926 14.36488 36.384375 13.839184 35.763098 13.839184 35.152136 13.839184 34.541235 13.839184 33.930273 13.839184 33.308996 13.839184 32.698034 13.839184 32.087072 13.839184 31.476111 13.839184 30.86521 13.839184 30.243872 13.839184 29.632971 13.839184 29.022009 13.839184 28.939184 14.36488 29.560461 14.36488 30.171423 14.36488" fill="#ece5e2"/>
      <polygon points="25.791235 27.749523 25.169958 27.749523 24.548681 27.749523 23.917029 27.749523 23.285376 27.749523 22.664038 27.749523 22.032385 27.749523 21.411108 27.749523 20.779455 27.749523 20.147802 27.749523 19.526526 27.749523 19.44364 28.295422 20.064978 28.295422 20.696631 28.295422 21.328283 28.295422 21.94956 28.295422 22.581213 28.295422 23.20249 28.295422 23.834143 28.295422 24.465796 28.295422 25.087134 28.295422 25.718786 28.295422 26.350439 28.295422 26.971716 28.295422 27.054541 27.749523 26.422888 27.749523 25.791235 27.749523" fill="#ece5e2"/>
      <polygon points="20.437719 21.795178 20.510229 21.259411 19.899267 21.259411 19.267614 21.259411 18.656653 21.259411 18.035376 21.259411 17.414099 21.259411 16.792761 21.259411 16.709936 21.795178 17.331213 21.795178 17.942175 21.795178 18.573828 21.795178 19.18479 21.795178 19.816443 21.795178 20.437719 21.795178" fill="#ece5e2"/>
      <polygon points="17.652258 8.137524 18.252844 8.137524 18.874121 8.137524 18.956946 7.62196 18.335669 7.62196 17.735083 7.62196 17.124121 7.62196 16.523535 7.62196 15.912634 7.62196 15.301672 7.62196 14.701086 7.62196 14.079748 7.62196 13.479162 7.62196 12.868261 7.62196 12.267676 7.62196 11.656714 7.62196 11.045752 7.62196 10.445166 7.62196 9.834265 7.62196 9.223303 7.62196 8.612341 7.62196 8.011755 7.62196 7.918554 8.137524 8.529516 8.137524 9.130102 8.137524 9.751379 8.137524 10.351965 8.137524 10.962927 8.137524 11.563513 8.137524 12.18479 8.137524 12.785376 8.137524 13.396338 8.137524 13.996924 8.137524 14.618261 8.137524 15.218847 8.137524 15.819433 8.137524 16.44071 8.137524 17.041296 8.137524 17.652258 8.137524" fill="#ece5e2"/>
      <polygon points="14.773535 26.111828 14.141882 26.111828 13.520605 26.111828 12.888952 26.111828 12.267676 26.111828 11.646338 26.111828 11.014685 26.111828 10.383032 26.111828 9.761755 26.111828 9.668554 26.657726 10.300207 26.657726 10.921484 26.657726 11.553137 26.657726 12.174475 26.657726 12.795752 26.657726 13.437781 26.657726 14.059057 26.657726 14.680395 26.657726 15.301672 26.657726 15.943701 26.657726 16.026526 26.111828 15.394873 26.111828 14.773535 26.111828" fill="#ece5e2"/>
      <polygon points="14.245459 29.387219 13.613806 29.387219 12.992529 29.387219 12.3505 29.387219 11.729223 29.387219 11.097571 29.387219 10.476233 29.387219 9.834265 29.387219 9.212927 29.387219 9.119726 29.943249 9.741064 29.943249 10.383032 29.943249 11.014685 29.943249 11.636023 29.943249 12.267676 29.943249 12.899328 29.943249 13.530981 29.943249 14.152258 29.943249 14.783911 29.943249 15.415564 29.943249 15.508764 29.387219 14.866736 29.387219 14.245459 29.387219" fill="#ece5e2"/>
      <polygon points="13.448095 34.371105 12.816443 34.371105 12.18479 34.371105 11.542822 34.371105 10.911169 34.371105 10.279516 34.371105 9.647864 34.371105 9.005835 34.371105 8.374182 34.371105 7.742529 34.371105 7.110876 34.371105 6.468847 34.371105 5.837195 34.371105 5.205542 34.371105 4.573889 34.371105 3.931921 34.371105 3.310583 34.371105 3.207068 34.927136 3.83872 34.927136 4.480688 34.927136 5.112341 34.927136 5.743994 34.927136 6.375647 34.927136 7.017676 34.927136 7.649328 34.927136 8.280981 34.927136 8.912634 34.927136 9.554663 34.927136 10.186316 34.927136 10.817968 34.927136 11.449621 34.927136 12.09165 34.927136 12.723303 34.927136 13.354956 34.927136 13.986609 34.927136 14.628576 34.927136 14.721777 34.371105 14.079748 34.371105 13.448095 34.371105" fill="#ece5e2"/>
      <polygon points="6.758825 21.795178 7.380102 21.795178 8.001379 21.795178 8.622717 21.795178 9.243994 21.795178 9.875647 21.795178 10.486609 21.795178 10.579809 21.259411 9.958471 21.259411 9.337195 21.259411 8.715918 21.259411 8.09458 21.259411 7.473303 21.259411 6.852026 21.259411 6.230688 21.259411 5.609411 21.259411 5.516211 21.795178 6.137488 21.795178 6.758825 21.795178" fill="#ece5e2"/>
    </g>
    <g id="Layer_9" data-name="Layer 9">
      <polygon points="17.792887 38.916699 17.701316 39.456677 17.61987 40.006664 17.538425 40.546703 17.456979 41.096691 17.365407 41.646679 17.283962 42.196667 17.283962 42.206677 17.548613 42.906689 17.630059 42.36665 17.711442 41.816662 17.792887 41.266674 17.884521 40.716686 17.965905 40.166699 18.04735 39.62666 17.792887 38.916699" fill="#3e3a39"/>
      <polygon points="57.373938 32.147106 57.32218 32.703076 57.270422 33.259106 57.218603 33.815136 57.166845 34.371105 57.115088 34.927136 57.74674 34.927136 57.798498 34.371105 57.850256 33.815136 57.902075 33.259106 57.953833 32.703076 58.005591 32.147106 57.373938 32.147106" fill="#988e8a"/>
      <polygon points="57.425696 31.601147 56.794043 31.601147 56.742285 32.147106 56.680151 32.703076 56.628393 33.259106 56.576635 33.815136 56.524817 34.371105 56.473059 34.927136 57.115088 34.927136 57.166845 34.371105 57.218603 33.815136 57.270422 33.259106 57.32218 32.703076 57.373938 32.147106 58.005591 32.147106 58.057348 31.601147 57.425696 31.601147" fill="#6b6563"/>
      <path d="m51.171301,13.313488l-.051758.525696-.062134.525696-.051758.525635-.062134.525696-.051819.525696-.062134.525696-.051758.525696-.062134.535767-.051758.525696-.051758.535767-.062134.525696-.051758.535767-.062134.535828-.051819.535767-.062134.535828-.062134.535767-.051758.535767-.062134.535828-.051758.535767-.062134.545898-.051758.535828-.062134.545898h-3.748535l-.051758.535767h4.369812l.062134-.535767.051758-.545898.062134-.535828.051758-.545898.062134-.535767.051758-.535828.062134-.535767.051819-.535767.062134-.535828.051758-.535767.062134-.535828.051758-.535767.051758-.525696.062134-.535767.051819-.525696.062134-.535767.051758-.525696.051758-.525696.062134-.525696.051758-.525696.062134-.525635.051819-.525696-.559204-.525696Z" fill="#6b6563"/>
      <path d="m43.073706,14.36488h-5.529541c.182922.175232.365845.350403.548828.525635h5.529541l.062134-.525635h-.610962Z" fill="#6b6563"/>
      <polygon points="37.730566 8.137524 37.119604 8.137524 36.508642 8.137524 35.908056 8.137524 35.297156 8.137524 34.686194 8.137524 34.085608 8.137524 33.46427 8.137524 33.402197 8.643017 34.013098 8.643017 34.62406 8.643017 35.224646 8.643017 35.845923 8.643017 36.446509 8.643017 37.05747 8.643017 37.658056 8.643017 38.279333 8.643017 38.341467 8.137524 37.730566 8.137524" fill="#6b6563"/>
      <path d="m36.984961,9.158581l-.062134.525696h.000061l-.07251.515564-.062134.515564-.07251.515564-.062134.525696-.072449.515564-.062134.525696-.07251.515564-.062134.525696-.072449.525696h-7.372742l-.07251.525635h7.99408l.062134-.525635.072449-.525696.062134-.525696.07251-.515564.062134-.525696.072449-.515564.062134-.525696.07251-.515564.062134-.515564.062134-.515564-.538513-.525696Z" fill="#6b6563"/>
      <g>
        <path d="m43.011572,14.890515h-4.918579c-.182983-.175232-.365906-.350403-.548828-.525635l.072449-.525696.062134-.525696.062134-.515564.07251-.525696.062134-.515564.072449-.525696.062134-.515564.062134-.515564.07251-.515564.062134-.525696.072449-.515564h-.621277l-.062134.515564-.072449.525696-.062134.515564-.062134.515564-.07251.515564-.062134.525696-.072449.515564-.062134.525696-.07251.515564-.062134.525696-.072449.525696-.062134.525635h-7.99408l-.072449.525696h14.766174l.062134-.525696h-.610962Z" fill="#988e8a"/>
        <path d="m37.05747,8.643017h-3.655273l-.07251.515564h3.655273l.538513.525696c.044861-.347107.089722-.694214.134583-1.04126h-.600586Z" fill="#988e8a"/>
      </g>
      <g>
        <path d="m15.301672,26.657726h-5.633118c.179504.182007.358948.363953.538452.545898h5.643494l.093201-.545898h-.642029Z" fill="#6b6563"/>
        <path d="m14.152258,29.943249h-5.032532c.179504.181946.359009.363953.538452.545898h5.674561l.082825-.545898h-1.263306Z" fill="#6b6563"/>
      </g>
      <polygon points="18.252844 8.137524 17.652258 8.137524 17.041296 8.137524 16.44071 8.137524 15.819433 8.137524 15.218847 8.137524 14.618261 8.137524 13.996924 8.137524 13.396338 8.137524 12.785376 8.137524 12.18479 8.137524 11.563513 8.137524 10.962927 8.137524 10.351965 8.137524 9.751379 8.137524 9.130102 8.137524 8.529516 8.137524 7.918554 8.137524 7.83573 8.643017 8.436316 8.643017 9.047278 8.643017 9.658178 8.643017 10.26914 8.643017 10.869726 8.643017 11.480688 8.643017 12.09165 8.643017 12.702551 8.643017 13.303137 8.643017 13.914099 8.643017 14.525061 8.643017 15.135962 8.643017 15.746924 8.643017 16.357885 8.643017 16.968786 8.643017 17.569433 8.643017 18.180334 8.643017 18.791296 8.643017 18.874121 8.137524 18.252844 8.137524" fill="#6b6563"/>
      <path d="m9.067968,22.866772l-.093201.535767-.093201.545898-.093201.535828-.093201.545898-.082825.535767-.093201.545898-.093201.545898-.093201.545898-.09314.545898-.093201.545898-.093201.545898-.093201.545898-.093201.55603-.093201.545898-.093201.55603h.621277l.093201-.55603.093201-.545898.093201-.55603.093201-.545898.093201-.545898.093201-.545898.093201-.545898.093201-.545898.093201-.545898.09314-.545898.093201-.535767.093201-.545898.082886-.535828.09314-.545898-.528076-.535767Z" fill="#6b6563"/>
      <g>
        <polygon points="58.015967 12.272228 57.405005 12.272228 56.794043 12.272228 56.183142 12.272228 55.57218 12.272228 54.961218 12.272228 54.339941 12.272228 53.728979 12.272228 53.118017 12.272228 52.507116 12.272228 51.896155 12.272228 51.285193 12.272228 50.674292 12.272228 50.052954 12.272228 49.442053 12.272228 48.831091 12.272228 48.220129 12.272228 47.609167 12.272228 47.547094 12.797924 48.157995 12.797924 48.779333 12.797924 49.390234 12.797924 50.001196 12.797924 50.612158 12.797924 51.223059 12.797924 51.834021 12.797924 52.444983 12.797924 53.06626 12.797924 53.677221 12.797924 54.288183 12.797924 54.90946 12.797924 55.520422 12.797924 56.131323 12.797924 56.742285 12.797924 57.353247 12.797924 57.964148 12.797924 58.57511 12.797924 58.626867 12.272228 58.015967 12.272228" fill="#6b6563"/>
        <polygon points="9.243994 21.795178 8.622717 21.795178 8.001379 21.795178 7.380102 21.795178 6.758825 21.795178 6.137488 21.795178 5.516211 21.795178 5.42301 22.330944 6.044287 22.330944 6.665625 22.330944 7.286902 22.330944 7.908239 22.330944 8.529516 22.330944 9.161169 22.330944 9.782446 22.330944 10.403784 22.330944 10.486609 21.795178 9.875647 21.795178 9.243994 21.795178" fill="#6b6563"/>
      </g>
      <g>
        <polygon points="51.399145 16.993298 51.337011 17.529064 51.285193 18.05476 51.223059 18.590527 51.171301 19.116223 51.119543 19.651989 51.057409 20.187817 51.005652 20.723583 50.943518 21.259411 50.891699 21.795178 50.829565 22.330944 50.777807 22.866772 50.715674 23.402538 50.663916 23.948437 50.601782 24.484265 50.550024 25.030163 50.48789 25.56593 49.866552 25.56593 49.2349 25.56593 48.613623 25.56593 47.992346 25.56593 47.360693 25.56593 46.739355 25.56593 46.118078 25.56593 46.055945 26.111828 46.677221 26.111828 47.298559 26.111828 47.930212 26.111828 48.551489 26.111828 49.183142 26.111828 49.80448 26.111828 50.436133 26.111828 51.057409 26.111828 51.119543 25.56593 51.171301 25.030163 51.223059 24.484265 51.285193 23.948437 51.337011 23.402538 51.399145 22.866772 51.450903 22.330944 51.513037 21.795178 51.564795 21.259411 51.616552 20.723583 51.678686 20.187817 51.730505 19.651989 51.792639 19.116223 51.844397 18.590527 51.896155 18.05476 51.958288 17.529064 52.010046 16.993298 52.061865 16.467602 51.450903 16.467602 51.399145 16.993298" fill="#988e8a"/>
        <path d="m57.964148,12.797863h-9.806152v.000061h-.610901l-.062134.515564h.610901v-.000061h3.075439c.186401.175293.372803.350525.559143.525757l-.051758.525696-.062134.525635-.051758.525696-.062134.525696-.051758.525635h.610901l.062134-.525635.051758-.525696.051819-.525696.062134-.525635.051758-.525696.051819-.525757h6.140442l.041504-.515564h-.611023Z" fill="#988e8a"/>
      </g>
      <g>
        <path d="m15.239538,31.045178l.093201-.55603h-5.674561c-.179443-.181946-.358948-.363953-.538452-.545898l-.186401,1.101929h6.306213Z" fill="#988e8a"/>
        <path d="m15.767614,27.749523l.082886-.545898h-5.643494c-.179504-.181946-.358948-.363892-.538452-.545898-.058655.363953-.117371.727905-.176025,1.091797h6.275085Z" fill="#988e8a"/>
        <path d="m9.575354,27.203625c.279846-1.604309.548157-3.268616.82843-4.872681h-.621338v.000061h-.621277l-.093201.535767.528076.535767c-.417236,2.537292-.870789,5.106262-1.294373,7.642639h.631653c.179565-1.070007.376343-2.226318.559204-3.295654l.082825-.545898Z" fill="#988e8a"/>
        <path d="m8.529516,22.330944h-3.106506l-.093201.535828h3.738159l.093201-.535828h-.631653Z" fill="#988e8a"/>
      </g>
      <polygon points="18.180334 8.643017 17.569433 8.643017 16.968786 8.643017 16.357885 8.643017 15.746924 8.643017 15.135962 8.643017 14.525061 8.643017 13.914099 8.643017 13.303137 8.643017 12.702551 8.643017 12.09165 8.643017 11.480688 8.643017 10.869726 8.643017 10.26914 8.643017 9.658178 8.643017 9.047278 8.643017 8.436316 8.643017 7.83573 8.643017 7.742529 9.158581 8.343115 9.158581 8.954077 9.158581 9.575354 9.158581 10.17594 9.158581 10.786902 9.158581 11.397864 9.158581 12.008764 9.158581 12.619726 9.158581 13.220312 9.158581 13.831274 9.158581 14.442175 9.158581 15.053137 9.158581 15.653723 9.158581 16.275061 9.158581 16.885962 9.158581 17.486548 9.158581 18.09751 9.158581 18.708471 9.158581 18.791296 8.643017 18.180334 8.643017" fill="#988e8a"/>
    </g>
  </g>
  <g id="dots">
    <g>
      <polygon points="61.743771 5.064327 61.650548 6.085374 61.557325 7.106421 62.768903 7.106421 63.990783 7.106421 64.073641 6.085374 64.1668 5.064327 62.94492 5.064327 61.743771 5.064327" fill="#00aeef"/>
      <polygon points="71.581 3.032352 70.379787 3.032352 69.168272 3.032352 69.085415 4.04328 69.002557 5.064327 68.930128 6.085374 68.847271 7.106421 70.058785 7.106421 71.2703 7.106421 72.49218 7.106421 73.703758 7.106421 73.77625 6.085374 73.848743 5.064327 73.921172 4.04328 73.993664 3.032352 72.792515 3.032352 71.581 3.032352" fill="#009ce0"/>
      <polygon points="227.526949 33.815119 227.350932 32.703061 227.16455 31.601184 225.90121 31.601184 224.637933 31.601184 223.374592 31.601184 222.121617 31.601184 222.287332 32.703061 222.463349 33.815119 222.639366 34.927115 223.902706 34.927115 225.176349 34.927115 226.439689 34.927115 227.713331 34.927115 227.526949 33.815119" fill="#1fbff1"/>
      <polygon points="211.704512 29.38725 211.55959 28.29543 210.29625 28.29543 209.043338 28.29543 207.779997 28.29543 207.935347 29.38725 208.080269 30.489127 208.235619 31.601184 209.498959 31.601184 210.751871 31.601184 212.025513 31.601184 211.859862 30.489127 211.704512 29.38725" fill="#1fbff1"/>
      <polygon points="189.420641 32.703061 189.306751 31.601184 188.043411 31.601184 186.780134 31.601184 185.527159 31.601184 184.253517 31.601184 183.000542 31.601184 181.7269 31.601184 181.840789 32.703061 181.944314 33.815119 182.047902 34.927115 183.321544 34.927115 184.584821 34.927115 185.858526 34.927115 187.121803 34.927115 188.395508 34.927115 189.658785 34.927115 189.544896 33.815119 189.420641 32.703061" fill="#1fbff1"/>
      <polygon points="184.429534 20.72359 184.533058 21.795171 185.765303 21.795171 187.018279 21.795171 188.260889 21.795171 188.146936 20.72359 188.033046 19.652009 187.919157 18.590547 186.686912 18.590547 185.444302 18.590547 184.212057 18.590547 184.315644 19.652009 184.429534 20.72359" fill="#1fbff1"/>
      <polygon points="165.096807 28.29543 163.833467 28.29543 162.590857 28.29543 162.518364 27.203611 162.445935 26.111853 161.182595 26.111853 159.939985 26.111853 160.002112 27.203611 160.074605 28.29543 160.136732 29.38725 160.209224 30.489127 161.4622 30.489127 162.735842 30.489127 163.988817 30.489127 165.252094 30.489127 165.169236 29.38725 165.096807 28.29543" fill="#1fbff1"/>
      <polygon points="155.756596 18.590547 155.694469 17.529085 154.462224 17.529085 153.229979 17.529085 151.987369 17.529085 152.049496 18.590547 152.101259 19.652009 152.153084 20.72359 153.395631 20.72359 154.638241 20.72359 155.880851 20.72359 155.818724 19.652009 155.756596 18.590547" fill="#1fbff1"/>
      <polygon points="140.120604 32.703061 140.089509 31.601184 140.048112 30.489127 138.784772 30.489127 137.53186 30.489127 136.268519 30.489127 135.015544 30.489127 135.036275 31.601184 135.06737 32.703061 135.088037 33.815119 135.119132 34.927115 136.382409 34.927115 137.656114 34.927115 138.919391 34.927115 140.193034 34.927115 140.162001 33.815119 140.120604 32.703061" fill="#1fbff1"/>
      <polygon points="134.7774 20.72359 134.75667 19.652009 133.514123 19.652009 132.271513 19.652009 131.039268 19.652009 131.059998 20.72359 131.080665 21.795171 131.09103 22.866752 132.344005 22.866752 133.586552 22.866752 134.829162 22.866752 134.808495 21.795171 134.7774 20.72359" fill="#1fbff1"/>
      <polygon points="114.864797 28.29543 113.611822 28.29543 113.611822 29.38725 113.601457 30.489127 113.591092 31.601184 114.844067 31.601184 116.107407 31.601184 117.370684 31.601184 117.370684 30.489127 117.381049 29.38725 117.381049 28.29543 116.128074 28.29543 114.864797 28.29543" fill="#1fbff1"/>
      <polygon points="107.512724 18.590547 107.492057 19.652009 107.471327 20.72359 108.713937 20.72359 109.956547 20.72359 109.977214 19.652009 109.987579 18.590547 108.755334 18.590547 107.512724 18.590547" fill="#1fbff1"/>
      <polygon points="92.8915 13.313471 91.659255 13.313471 91.617858 14.364876 91.566096 15.416219 91.524635 16.467561 92.75688 16.467561 93.989125 16.467561 95.22137 16.467561 95.26283 15.416219 95.304228 14.364876 95.345625 13.313471 94.11338 13.313471 92.8915 13.313471" fill="#1fbff1"/>
      <polygon points="85.995112 28.29543 84.731772 28.29543 83.47886 28.29543 83.416733 29.38725 83.364907 30.489127 83.30278 31.601184 83.240653 32.703061 84.493628 32.703061 85.76727 32.703061 87.03061 32.703061 88.293887 32.703061 88.345712 31.601184 88.397475 30.489127 88.449237 29.38725 88.500999 28.29543 87.237722 28.29543 85.995112 28.29543" fill="#1fbff1"/>
      <polygon points="79.90638 5.064327 79.844252 6.085374 79.77176 7.106421 80.99364 7.106421 82.205155 7.106421 82.267282 6.085374 82.329409 5.064327 81.117895 5.064327 79.90638 5.064327" fill="#1fbff1"/>
    </g>
  </g>
  <g id="brush">
    <g>
      <g fill="none" isolation="isolate">
        <polygon points="238.549696 23.381028 236.816212 23.501614 235.176406 21.636063 236.90989 21.515476 238.549696 23.381028" fill="#828282"/>
      </g>
      <g fill="none" isolation="isolate">
        <polygon points="238.751478 24.022475 236.452362 23.456579 232.666417 18.803778 234.965533 19.369674 238.751478 24.022475" fill="gray"/>
      </g>
    </g>
    <polygon points="242.932197 31.415328 239.598219 30.95979 240.06483 27.704919 243.398808 28.160458 242.932197 31.415328" fill="#01a4de"/>
    <polygon points="224.804436 21.452366 221.876781 22.390873 220.915465 19.532685 223.843119 18.594178 224.804436 21.452366" fill="#01a4de"/>
    <g fill="none" isolation="isolate">
      <polygon points="234.154575 32.66421 232.236332 31.798164 225.843216 24.385604 227.761459 25.25165 234.154575 32.66421" fill="#003262"/>
      <polygon points="227.761459 25.25165 225.843216 24.385604 231.811959 16.74996 233.730202 17.616006 227.761459 25.25165" fill="#999"/>
      <polygon points="233.730202 17.616006 240.123318 25.028565 234.154575 32.66421 227.761459 25.25165 233.730202 17.616006" fill="#a6a6a6"/>
    </g>
    <g fill="none" isolation="isolate">
      <polygon points="237.012847 24.07854 235.763699 24.491118 233.837365 21.511113 235.086513 21.098535 237.012847 24.07854" fill="#664528"/>
      <path d="m235.861839,20.428986c-.532808.02117-1.065612.04237-1.598421.06354,1.822912-3.236114,3.645819-6.472258,5.468731-9.708372.588798-.131443,1.177566-.262881,1.766365-.394324l-5.636675,10.039156Z" fill="url(#linear-gradient-9)"/>
      <polygon points="242.965045 12.65856 237.328373 22.697688 235.861832 20.428973 241.498503 10.389845 242.965045 12.65856" fill="url(#linear-gradient-10)"/>
    </g>
    <g fill="none" isolation="isolate">
      <polygon points="238.00527 23.896731 236.205939 22.804898 233.025272 19.020879 234.824604 20.112712 238.00527 23.896731" fill="#664428"/>
      <path d="m234.824591,20.112713c-.561035-.353485-1.122101-.70697-1.683136-1.060455l1.711121-2.166321c.509064.312195,1.018158.62439,1.527222.936584l-1.555206,2.290192Z" fill="#8b5f3c"/>
      <path d="m239.845801,21.779705c-.542572.80246-1.085144,1.60495-1.627716,2.40741-1.131165-1.358124-2.262329-2.716278-3.393494-4.074402l1.555206-2.290192,3.466003,3.957184Z" fill="#a97c51"/>
    </g>
    <g>
      <polygon points="237.032912 25.085393 238.524029 23.174739 240.118695 25.024738 238.627578 26.935391 237.032912 25.085393" fill="#808285"/>
      <polygon points="235.541795 26.996047 237.032912 25.085393 238.627578 26.935391 237.136461 28.846045 235.541795 26.996047" fill="#0080b2"/>
      <polygon points="237.032912 25.085393 235.438245 23.225286 236.929362 21.324741 238.524029 23.174739 237.032912 25.085393" fill="#808285"/>
      <polygon points="235.541795 26.996047 237.136461 28.846045 235.645345 30.756699 234.050678 28.906701 235.541795 26.996047" fill="#0080b2"/>
      <polygon points="237.032912 25.085393 235.541795 26.996047 233.947128 25.13594 235.438245 23.225286 237.032912 25.085393" fill="#c1a68b"/>
      <polygon points="233.843578 21.375288 235.334695 19.474743 236.929362 21.324741 235.438245 23.225286 233.843578 21.375288" fill="#939598"/>
      <polygon points="232.559561 30.807245 234.050678 28.906701 235.645345 30.756699 234.154228 32.667352 232.559561 30.807245" fill="#0080b2"/>
      <polygon points="234.050678 28.906701 232.445656 27.046593 233.947128 25.13594 235.541795 26.996047 234.050678 28.906701" fill="#3ba6ce"/>
      <polygon points="233.843578 21.375288 235.438245 23.225286 233.947128 25.13594 232.352461 23.285942 233.843578 21.375288" fill="#ac8568"/>
      <polygon points="235.334695 19.474743 233.843578 21.375288 232.248912 19.52529 233.740029 17.614636 235.334695 19.474743" fill="#939598"/>
      <polygon points="230.954539 28.957247 232.445656 27.046593 234.050678 28.906701 232.559561 30.807245 230.954539 28.957247" fill="#3ba6ce"/>
      <polygon points="233.947128 25.13594 232.445656 27.046593 230.861345 25.196595 232.352461 23.285942 233.947128 25.13594" fill="#ac8568"/>
      <polygon points="232.248912 19.52529 233.843578 21.375288 232.352461 23.285942 230.757795 21.435943 232.248912 19.52529" fill="#c1a68b"/>
      <polygon points="229.359873 27.107249 230.861345 25.196595 232.445656 27.046593 230.954539 28.957247 229.359873 27.107249" fill="#0080b2"/>
      <polygon points="230.861345 25.196595 229.256323 23.336488 230.757795 21.435943 232.352461 23.285942 230.861345 25.196595" fill="#3ba6ce"/>
      <polygon points="229.359873 27.107249 227.765206 25.247142 229.256323 23.336488 230.861345 25.196595 229.359873 27.107249" fill="#3ba6ce"/>
    </g>
    <g>
      <polygon points="233.731277 17.616691 232.241277 19.526691 230.321277 18.656691 231.811277 16.746691 233.731277 17.616691" fill="#6d6e71"/>
      <polygon points="232.241277 19.526691 230.741277 21.436691 228.831277 20.566691 230.321277 18.656691 232.241277 19.526691" fill="#9f765f"/>
      <polygon points="230.741277 21.436691 229.251277 23.346691 227.331277 22.476691 228.831277 20.566691 230.741277 21.436691" fill="#006695"/>
      <polygon points="229.251277 23.346691 227.761277 25.246691 225.841277 24.386691 227.331277 22.476691 229.251277 23.346691" fill="#006695"/>
    </g>
    <polygon points="226.109735 36.133842 229.403846 37.447943 228.098547 40.658326 224.804436 39.344225 226.109735 36.133842" fill="#01a4de"/>
  </g>
</svg>