<?xml version="1.0" encoding="UTF-8"?>
<svg id="Layer_1" data-name="Layer 1" xmlns="http://www.w3.org/2000/svg" xmlns:xlink="http://www.w3.org/1999/xlink" viewBox="0 0 1920 344.586824">
  <defs>
    <linearGradient id="linear-gradient" x1="187.488461" y1="17.75981" x2="187.488461" y2="252.081052" gradientUnits="userSpaceOnUse">
      <stop offset="0" stop-color="#d0c5c0"/>
      <stop offset=".99" stop-color="#aba09c"/>
    </linearGradient>
    <linearGradient id="linear-gradient-2" x1="457.662324" y1="17.759807" x2="457.662324" y2="252.081053" xlink:href="#linear-gradient"/>
    <linearGradient id="linear-gradient-3" x1="294.122923" y1="50.822577" x2="294.122923" y2="252.101027" gradientUnits="userSpaceOnUse">
      <stop offset="0" stop-color="#ede5e2"/>
      <stop offset="1" stop-color="#d0c5c0"/>
    </linearGradient>
    <linearGradient id="linear-gradient-4" x1="1162.169237" y1="252.101027" x2="1162.169237" y2="17.749746" gradientUnits="userSpaceOnUse">
      <stop offset="0" stop-color="#70deff"/>
      <stop offset="1" stop-color="#0180f3"/>
    </linearGradient>
    <linearGradient id="linear-gradient-5" x1="1738.995758" y1="1444.026782" x2="1749.878233" y2="1373.177895" gradientTransform="translate(-74.870762 -997.453263) rotate(-8.732475)" gradientUnits="userSpaceOnUse">
      <stop offset=".452769" stop-color="#66422c"/>
      <stop offset="1" stop-color="#986746"/>
    </linearGradient>
    <linearGradient id="linear-gradient-6" x1="1935.393701" y1="1022.00803" x2="1935.393701" y2="931.998688" gradientTransform="translate(55.461787 -1042.42613) rotate(6.197393)" gradientUnits="userSpaceOnUse">
      <stop offset=".294788" stop-color="#81553a"/>
      <stop offset="1" stop-color="#ae7a53"/>
    </linearGradient>
  </defs>
  <path d="m1899.519116,173.54408l-9.396386-10.729917,29.87727-53.221777-22.932115-35.481185-32.328501,7.214944-21.845248,38.795743c-2.747036-1.618738-5.494072-3.237957-8.241108-4.856694-2.116885,2.72632-4.233769,5.45264-6.350654,8.17896l-13.581979-6.147348-65.443246,83.885291,17.914029,7.160986,45.077986,52.254389,13.258231,5.997037,11.408245,14.252599,65.142623-83.403524-10.483253-12.163656,7.924106-11.735847Z"/>
  <g id="Outline">
    <path d="m1810.897091,89.789829h-21.467543l14.599471-25.298555L1786.492695,0h-435.810393l-28.18145,98.82778,11.107623,85.904859h-71.895071L1243.899584,0H259.379564l-9.311595,44.257055h-27.526246l-7.550254,34.436714L175.717813,0h-106.285535L0,255.463761l62.537227,89.123063h106.235432c3.602655-15.920476,7.205309-31.841434,10.807964-47.761911,16.324679-.014935,32.648876-.02987,48.973555-.044804l25.969175,47.806715h330.314955l7.053071-67.0774-25.911363-92.776785h-70.122168l3.276016-23.845545h125.841426l-8.101396,92.410642,20.669737,91.289088h113.920581l10.386899-183.699731h34.302783l-3.215314,91.686064,8.324936,92.013666h116.657018l1.481434-183.699731h43.276659l2.959977,183.699731h116.356395l10.40617-91.890334-4.031427-91.809397h32.043295l11.87845,183.699731h661.100115l62.537227-89.123063-45.031736-165.673932Z"/>
  </g>
  <g id="Text">
    <polygon points="107.208435 252.08105 154.581687 326.830173 71.770247 326.830172 19.324414 252.08105 107.208435 252.08105" fill="#3d3938"/>
    <polygon points="355.652507 17.75981 312.516715 252.081052 224.485554 252.081051 245.073685 154.23779 216.612709 154.23779 206.035499 202.493866 148.338663 202.493866 159.761208 154.237791 131.228817 154.237791 107.208435 252.08105 19.324414 252.08105 83.009603 17.759813 164.733968 17.759812 153.8694 62.014925 181.590996 62.014925 170.812962 107.548173 226.846569 107.548173 236.826966 62.014924 264.479176 62.014924 273.791315 17.759811 355.652507 17.75981" fill="url(#linear-gradient)"/>
    <polygon points="312.516715 252.081052 348.039771 326.830176 265.089684 326.830175 224.485554 252.081051 312.516715 252.081052" fill="#3d3938"/>
    <g fill="none" isolation="isolate">
      <polygon points="546.850258 252.081053 568.847808 326.830178 375.597683 326.830176 341.762676 252.081052 546.850258 252.081053" fill="#3d3938"/>
      <polygon points="573.561973 17.759807 568.517061 62.014922 457.976667 62.014923 437.03783 202.493867 552.503006 202.493867 546.850258 252.081053 341.762676 252.081052 382.848664 17.759809 573.561973 17.759807" fill="url(#linear-gradient-2)"/>
    </g>
    <polygon points="722.839022 252.081054 734.67867 326.830181 651.729046 326.83018 634.808352 252.081054 722.839022 252.081054" fill="#01215c"/>
    <polygon points="791.676683 17.759804 789.736629 62.01492 734.500654 62.01492 722.839022 252.081054 634.808352 252.081054 651.474633 62.014921 596.238659 62.014921 600.894493 17.759806 791.676683 17.759804" fill="#fff"/>
    <polygon points="898.60808 252.081056 900.302507 326.830183 817.490588 326.830182 810.72355 252.081055 898.60808 252.081056" fill="#01215c"/>
    <polygon points="900.665629 17.759803 898.60808 252.081056 810.72355 252.081055 818.940791 17.759804 900.665629 17.759803" fill="#fff"/>
    <polygon points="1836.604016 252.081062 1784.158214 326.830194 1590.83826 326.830192 1631.442325 252.08106 1836.604016 252.081062" fill="#01215c"/>
    <polygon points="1772.918865 17.759792 1784.94677 62.014911 1674.406353 62.014912 1685.185374 107.548165 1797.322054 107.548165 1836.604016 252.081062 1631.442325 252.08106 1621.00823 202.49387 1736.545905 202.49387 1724.699123 154.237788 1610.854227 154.237789 1582.136643 17.759794 1772.918865 17.759792" fill="#fff"/>
    <polygon points="1602.123286 252.08106 1563.211489 326.830191 1369.891542 326.830189 1396.961603 252.081059 1602.123286 252.08106" fill="#01215c"/>
    <polygon points="1554.872532 17.759794 1563.796552 62.014913 1453.186753 62.014914 1460.771244 107.548167 1572.978308 107.548166 1582.393244 154.237789 1468.548351 154.237789 1476.586384 202.493869 1592.124057 202.49387 1602.123286 252.08106 1396.961603 252.081059 1364.090317 17.759797 1554.872532 17.759794" fill="#fff"/>
    <polygon points="1367.642566 252.081059 1342.264771 326.830188 1148.944831 326.830186 1162.48089 252.081057 1367.642566 252.081059" fill="#01215c"/>
    <polygon points="1227.76884 17.759799 1245.583523 202.493869 1361.121191 202.493869 1367.642566 252.081059 1162.48089 252.081057 1146.043998 17.7598 1227.76884 17.759799" fill="#fff"/>
    <polygon points="1074.596854 252.081057 1066.133377 326.830185 983.114426 326.830184 986.49261 252.081056 1074.596854 252.081057" fill="#01215c"/>
    <polygon points="1118.711939 17.7598 1121.427223 62.014917 1066.260631 62.014917 1074.596854 252.081057 986.49261 252.081056 983.16522 62.014918 927.998628 62.014918 927.99815 17.759802 1118.711939 17.7598" fill="#fff"/>
  </g>
  <g id="Cracks">
    <path d="m443.013293,227.079488h-9.708571l.631115-4.104656h9.709053l-.631597,4.104656Zm-78.774706-48.938386h19.101585l.631597-4.025646h-28.652618l-.710607,4.025646h9.630043Zm90.378067-93.614097l.552105-3.789098h-83.431467l-.631597,3.789098h83.510958Zm114.32671-26.222103c-36.819534-.020716-73.63955-.041914-110.459084-.06263l-.552587,3.709607h110.584825c.142121-1.215498.284724-2.431479.426846-3.646977Zm-31.368821,189.612458h-97.560733l-.631597,4.183666h107.506333l.474059-4.183666h-9.788063Zm-117.056885,0h-78.143591l-.710607,4.183666h87.931172l.631597-4.183666h-9.708571Zm-346.041279-57.699803l-1.105174,4.104656h48.070242l1.026164-4.104656h-47.991232Zm32.283697,24.469434h-38.677228l-1.026164,4.104174h48.385799l.947154-4.104174h-9.629561Zm-51.385281-60.462737h28.415588l1.026164-3.946636h-37.808602l-1.105174,3.946636h9.472023Zm239.166061-58.25239l-.710607,3.789098h46.64951l.631597-3.789098h-46.570501Zm8.840427,151.945496h-78.064581l-.868144,4.183666h87.931172l.789135-4.183666h-9.787581Zm-28.179041-193.385177h27.547444l.789616-3.709607h-36.70391l-.789135,3.709607h9.155984Zm-37.335025,45.228779h46.649029l.710607-3.789098h-55.805495l-.868144,3.789098h9.314004Zm-7.025128,54.463291h14.207794l.868626-3.946636h-28.41607l-.868144,3.946636h14.207794Zm-81.616168,44.123605l-.947636,4.104656h57.778813l.868626-4.104656h-57.699803Zm5.761935-44.123605h4.735771l.868626-3.946636h-28.33706l-1.026164,3.946636h23.758827Zm-17.601844-99.692071h18.390978l.868626-3.709607h-82.642814l-.949563,3.569894c21.340674.356026,42.986289.036082,64.332773.139712Zm-38.914257,193.385177H20.486665l-1.184184,4.183666h87.931172l1.026164-4.183666h-9.788063Z" fill="url(#linear-gradient-3)"/>
    <g>
      <path d="m449.959411,84.527005h-78.853715l-.710607,3.788617h83.668978l.552587-3.788617h-4.657243Z" fill="#6b6562"/>
      <path d="m433.304722,227.079488c-1.236696,8.340352-2.473392,16.681187-3.710089,25.021539h4.89379c1.026164-6.972616,2.052328-13.944749,3.078492-20.917365h4.89379l.552587-4.104174h-9.708571Z" fill="#6b6562"/>
      <path d="m383.340172,178.141102h-28.731628l-.710125,4.025646h33.546408c4.735771-28.731628,9.472023-57.463255,14.207794-86.194883-1.341721-1.289209-2.683925-2.578418-4.025646-3.867626-4.762268,28.679115-9.524536,57.357748-14.286804,86.036863Z" fill="#6b6562"/>
      <path d="m293.830249,99.760963c1.289209,1.289209,2.578899,2.578418,3.868108,3.867626h42.070796l.710607-3.867626h-46.64951Z" fill="#6b6562"/>
      <path d="m295.961587,65.661968c-1.289209-1.236696-2.578418-2.473392-3.867626-3.710089-2.525905,12.603028-5.05181,25.206056-7.577715,37.809084h-55.963032l-.868144,3.867626h60.698803c2.525905-12.655541,5.05181-25.311081,7.577715-37.966622Z" fill="#6b6562"/>
      <path d="m274.492117,58.242273h27.547444l.710125-3.710089h-36.703428l-.789616,3.710089h9.235476Z" fill="#6b6562"/>
      <path d="m73.053239,54.392472c-.341091,1.283428-.682664,2.566373-1.023755,3.849801h82.800352l.947154-3.710089c-27.574423-.046731-55.149328-.092981-82.723751-.139712Z" fill="#6b6562"/>
      <path d="m73.371206,194.322214c1.263193,1.341721,2.525905,2.683925,3.789098,4.025646h43.254979l1.026164-4.025646h-48.070242Z" fill="#6b6562"/>
      <path d="m67.056684,218.791166c1.236696,1.394716,2.473392,2.78895,3.710089,4.183666h43.649547l1.026164-4.183666h-48.385799Z" fill="#6b6562"/>
      <path d="m75.97612,166.143173c-1.236696-1.315706-2.472911-2.63093-3.709607-3.946636-5.683407,21.62749-11.366332,43.255461-17.049738,64.882951h4.814781c5.314855-20.312265,10.62971-40.624049,15.944565-60.936314Z" fill="#6b6562"/>
      <path d="m82.764219,158.170891l1.026164-3.946636h-37.887612l-1.026164,3.946636h37.887612Z" fill="#6b6562"/>
    </g>
    <path d="m265.256641,58.242273h36.78292c-2.736437,13.839724-5.472875,27.678966-8.209312,41.518691,1.289209,1.289209,2.578899,2.578418,3.868108,3.867626,14.05122-.011562,28.101958-.023607,42.153178-.035169-.234621,1.274756-.469241,2.54903-.703862,3.823786-37.433787.043841-74.867092.0872-112.30088.131041l.838275-3.919657h60.698803c2.525905-12.655541,5.05181-25.311081,7.577715-37.966622-1.289209-1.236696-2.578418-2.473392-3.867626-3.710089h-27.626454c.263045-1.236696.52609-2.472911.789135-3.709607Z" fill="#998f8b"/>
    <polygon points="72.029484 58.242273 154.829836 58.242273 153.882682 61.951879 71.00332 61.951879 72.029484 58.242273" fill="#998f8b"/>
    <path d="m44.876607,158.170891h37.887612c-3.131005,12.050441-6.262009,24.100882-9.393014,36.151323,1.263193,1.341721,2.525905,2.683925,3.789098,4.025646h43.254979l-1.026164,4.104656h-48.070242c-1.420731,5.446377-2.841462,10.892273-4.262194,16.33865,1.236696,1.394716,2.473392,2.78895,3.710089,4.183666h43.649547l-1.026164,4.104656h-53.358599c5.314855-20.312265,10.62971-40.624049,15.944565-60.936314-1.236696-1.315706-2.472911-2.63093-3.709607-3.946636h-28.49508" fill="#998f8b"/>
    <path d="m370.395089,88.315622h83.668978l-.631597,3.788617h-46.491491l-15.391978,94.088155h-38.282179c.210532-1.341721.421064-2.683925.631597-4.025646h33.546408c4.735771-28.731628,9.472023-57.463255,14.207794-86.194883-1.341721-1.289209-2.683925-2.578418-4.025646-3.867626h-27.863001" fill="#998f8b"/>
    <polyline points="434.488424 252.101027 437.566915 231.183662 442.460706 231.183662 439.382214 252.101027" fill="#998f8b"/>
    <g>
      <path d="m441.908119,271.597178h-4.814781l1.499741,3.868108h9.629561l-1.499259-3.868108h-4.815262Z" fill="#6b6562"/>
      <path d="m562.517554,305.301606h-28.100031l1.105174,3.631079h28.021021l-1.026164-3.631079Z" fill="#6b6562"/>
      <path d="m309.538266,305.301606l1.815299,3.631079c9.395422.004336,18.791327.00819,28.186749.012526-.588238-1.238142-1.176957-2.476283-1.765195-3.714425-9.412284.023607-18.824569.047213-28.236853.07082Z" fill="#6b6562"/>
      <path d="m136.280838,305.301606h-23.44327l2.368367,3.631079h28.021021l-2.289357-3.631079h-4.656761Z" fill="#6b6562"/>
    </g>
    <g>
      <path d="m561.412381,301.670527h-23.442788l-1.184184-3.709607h-4.735771c.578145,1.829732,1.76818,5.520103,2.367885,7.340686h28.100031l-1.105174-3.631079Z" fill="#171615"/>
      <path d="m440.408378,267.729552c-1.785543-4.918776-4.08426-10.727681-5.919954-15.628525h-4.89379c2.417313,6.245234,5.074698,13.254063,7.498705,19.496152h9.630043l-1.421213-3.867626h-4.89379Z" fill="#171615"/>
      <path d="m312.458739,301.670527l-1.81578-3.709607h-4.735771c.888379,1.833606,2.713312,5.52346,3.631079,7.340686,9.412284-.023607,18.824569-.047213,28.236853-.07082-.568485-1.19671-1.137452-2.392937-1.705937-3.589647-7.870148.009635-15.740295.019752-23.610443.029388Z" fill="#171615"/>
      <path d="m133.991481,301.670527h-18.785545l-2.447377-3.709607h-4.735771c1.207155,1.820924,3.627472,5.510204,4.814781,7.340686h28.100031l-2.288876-3.631079h-4.657243Z" fill="#171615"/>
    </g>
    <g>
      <path d="m442.381696,259.994299l-2.999482-7.893273h-4.89379c1.835892,4.901359,4.134398,10.709722,5.919954,15.628525h4.89379c-.759143-1.911833-2.227357-5.799584-2.920472-7.735253Z" fill="#262423"/>
      <path d="m560.386217,297.960921h-23.600808l1.184184,3.709607h23.442788l-1.026164-3.709607Z" fill="#262423"/>
      <path d="m310.642958,297.960921l1.81578,3.709607c7.870148-.009635,15.740295-.019752,23.610443-.029388-.586792-1.234769-1.174066-2.47002-1.760859-3.704789-7.888455.00819-15.77691.01638-23.665365.02457Z" fill="#262423"/>
      <path d="m112.758558,297.960921l2.447377,3.709607h23.442788l-2.367885-3.709607h-23.52228Z" fill="#262423"/>
    </g>
    <path d="m146.621006,280.911664c-1.894308,8.12982-3.789098,16.260122-5.683407,24.389942l2.289357,3.631079c1.867811-8.103805,3.736104-16.20761,5.603915-24.311414l-2.209866-3.709607Z" fill="#3d3938"/>
  </g>
  <g id="paint">
    <path d="m733.658098,75.745354c-3.609399,58.785224-7.218799,117.570448-10.828198,176.355673h-88.010181l16.654689-190.070137h-55.252908l4.657243-44.281143c9.98366,11.958423,32.792443,35.895986,70.313911,49.148436,25.62712,9.051441,48.264394,9.638715,62.465443,8.847171Zm149.141611,70.840965c-17.012642-5.67329-22.870449-15.922885-38.962434-25.526913-6.031243-3.599282-15.262864-8.160172-28.129419-11.104732-1.649089,47.382278-3.297696,94.764075-4.946785,142.146353h87.852162l.868144-102.375995c-3.865699-.205715-9.842502-.858027-16.681668-3.138713Zm931.512147,23.424481c-6.911431,4.854767-19.540474,12.37997-37.069089,15.766793-20.325755,3.926884-36.935158.298696-45.329468-2.154944,1.549363,6.302959,3.09969,12.605437,4.649053,18.908396h-115.556662l10.418696,49.569983h205.146076l-22.258605-82.090227Zm-222.195814,32.520244h-115.557625l-7.972282-48.306789c28.772096.004336,57.545156.009154,86.317252.013489-23.904321-15.364999-55.368532-32.566012-94.132478-46.689497-32.568421-11.865924-62.374871-18.675702-87.264406-22.667143,7.829197,55.739974,15.658395,111.479948,23.487592,167.219923h205.145594l-10.023647-49.569983Zm-230.957231,0h-115.557625c-3.668175-37.989265-7.33635-75.978047-11.004525-113.967312-6.955754.467796-14.69727,1.538282-22.966802,3.609399-27.338357,6.846393-46.772843,21.196308-58.160854,31.432414,3.005263,42.831988,6.011008,85.663494,9.016272,128.495481h205.146076l-6.472541-49.569983Zm-291.22678-56.80468c-6.93022,5.272941-20.623005,14.254526-40.231409,18.265719-19.966357,4.084422-36.353183,1.028573-44.813978-1.163949l1.578269,89.272893h88.168201c-1.567188-35.45806-3.133895-70.916602-4.701084-106.374662ZM489.820341,32.352108c-.515907,3.672586-1.54655,11.085625-2.052328,14.760381h18.31245c.523041-3.671506,1.5145-11.083139,1.973318-14.760381h-18.23344Zm47.517655-14.602361c-1.203936,9.191153-2.495072,20.172071-3.710089,29.362743h36.70391c1.105174-9.787581,2.209866-19.575162,3.31504-29.362743h-36.308861Z" fill="url(#linear-gradient-4)"/>
  </g>
  <g id="dots">
    <g>
      <path d="m1785.658275,243.734177c-1.106442-4.141498-3.286148-12.5029-4.340722-16.654689h-38.835248c1.846051,7.421672,4.334905,17.593901,6.156984,25.021539h39.150323l-2.131338-8.36685Z" fill="#70deff"/>
      <path d="m1651.630661,210.582336l-1.815299-8.12982h-28.809674c1.465846,7.320248,3.606273,17.317642,5.129856,24.626972h29.126677c-.89701-4.110272-2.720159-12.392822-3.631561-16.497152Z" fill="#70deff"/>
      <path d="m1431.882706,162.196537c-1.107942-7.02852-2.671647-16.642909-3.710089-23.679818h-28.258051c.966692,7.036521,2.435472,16.652542,3.473059,23.679818h28.49508Z" fill="#70deff"/>
      <path d="m1553.675843,202.452516h-38.598218c.697231,4.071952,2.164275,12.27636,2.920472,16.33865h38.755274c-.795618-4.063701-2.341255-12.26676-3.077528-16.33865Z" fill="#70deff"/>
      <path d="m1452.957609,235.367327h-38.913776c.645759,4.161451,1.874322,12.56285,2.446895,16.733699h39.072277c-.686239-4.160968-1.994388-12.562348-2.605397-16.733699Z" fill="#70deff"/>
      <path d="m1353.581095,218.791166h-19.338614c.510984,4.12732,1.541417,12.449883,2.052328,16.576161h19.417624c-.567614-4.122792-1.637737-12.445103-2.131338-16.576161Z" fill="#70deff"/>
      <path d="m1264.860789,202.452516h-19.259604c-.392813-4.048308-1.185539-12.212877-1.578751-16.260122h-19.180594c1.037542,10.201836,1.972843,22.395854,2.999482,32.598772h38.677228c-.445718-4.065679-1.278599-12.269102-1.657761-16.33865Z" fill="#70deff"/>
      <path d="m1209.765901,122.888194l-.710607-7.735253h-28.100031c.568826,6.933353,1.334426,16.429557,1.894308,23.363778h28.258051c-.371054-3.888046-1.044777-11.735236-1.341721-15.628525Z" fill="#70deff"/>
      <path d="m1052.136999,178.141102h-19.022575c.118738,4.027337.356542,12.153046.473577,16.181112h19.180594c-.155619-4.029692-.472719-12.15423-.631597-16.181112Z" fill="#70deff"/>
      <path d="m1015.43357,235.367327l-.15802-8.28784h-29.126195c.142425,7.426116.333106,17.595315.473577,25.021539h29.284214c-.118145-4.166529-.355919-12.568192-.473577-16.733699Z" fill="#70deff"/>
      <path d="m824.179249,138.516719c-.176501,3.908224-.453139,11.795926-.552105,15.707535h19.022575c.060352-3.912757.257885-11.799319.394567-15.707535h-18.865037Z" fill="#70deff"/>
      <path d="m879.827206,202.452516h-9.630043c-.143079,7.308101-.358339,17.316414-.394567,24.626972h29.126195c.069372-7.310618.165835-17.318647.236548-24.626972h-19.338132Z" fill="#70deff"/>
      <path d="m650.211697,76.94929c-.314556,3.772756-.948651,11.383105-1.262712,15.154948h18.548998c.314593-3.772739.948688-11.383096,1.262712-15.154948h-18.548998Z" fill="#70deff"/>
      <path d="m711.463568,130.702457h-9.472023c-.493679,6.981183-1.171323,16.539964-1.657761,23.521798h28.49508c.416937-6.982687.99766-16.540941,1.420731-23.521798h-18.786027Z" fill="#70deff"/>
      <path d="m646.738637,227.079488h-9.629561c-.606884,7.430609-1.612692,17.590073-2.210348,25.021539h29.284214c.526676-7.431966,1.437852-17.591699,1.973318-25.021539h-19.417624Z" fill="#70deff"/>
    </g>
  </g>
  <g id="highlights" fill="none" opacity=".4">
    <g>
      <path d="m1701.990742,61.951879h82.958371l-1.027128-3.709607h-110.505815l.948118,3.709607h27.626454Z" fill="#fff"/>
      <path d="m1835.465287,247.917361h-204.909046l.868144,4.183666h205.146076l-1.105174-4.183666Z" fill="#fff"/>
      <path d="m1667.733246,154.224255h56.910187l-.946191-3.946636h-113.742327l.868144,3.946636h56.910187Z" fill="#fff"/>
      <path d="m1480.821092,61.951879h82.958371l-.790098-3.709607h-110.426806l.632078,3.709607h27.626454Z" fill="#fff"/>
      <path d="m1524.707186,150.277618h-56.831177l.710125,3.946636h113.820373l-.788171-3.946636h-56.91115Z" fill="#fff"/>
      <path d="m1571.988775,247.917361h-175.625795l.552105,4.183666h205.224604l-.867181-4.183666h-29.283733Z" fill="#fff"/>
      <path d="m1337.79455,247.917361h-175.625314l.316039,4.183666h205.146076l-.552587-4.183666h-29.284214Z" fill="#fff"/>
      <path d="m1045.033342,247.917361h-58.489419l.07901,4.183666h87.931172l-.15802-4.183666h-29.362743Z" fill="#fff"/>
      <path d="m955.52342,58.242273h-27.547444v3.709607h55.331917l-.07901-3.709607h-27.705464Z" fill="#fff"/>
      <path d="m1093.655689,58.242273h-27.626454l.237029,3.709607h55.173898l-.237029-3.709607h-27.547444Z" fill="#fff"/>
      <path d="m840.123814,247.917361h-29.205205l-.157538,4.183666h87.93069v-4.183666h-58.567947Z" fill="#fff"/>
      <path d="m734.748819,58.242273l-.237029,3.709607h55.173898l.237029-3.709607h-55.173898Z" fill="#fff"/>
      <path d="m651.869457,58.242273h-55.252908l-.395049,3.709607h55.331917l.316039-3.709607Z" fill="#fff"/>
      <path d="m664.4985,247.917361h-29.205205l-.394567,4.183666h87.931172l.236548-4.183666h-58.567947Z" fill="#fff"/>
    </g>
  </g>
  <g id="brush">
    <g>
      <polygon points="1867.944953 186.312404 1855.645638 187.167979 1844.011058 173.931676 1856.310373 173.076102 1867.944953 186.312404" fill="#828282"/>
      <polygon points="1869.376621 190.863546 1853.06411 186.848454 1826.202354 153.836283 1842.514865 157.851389 1869.376621 190.863546" fill="gray"/>
    </g>
    <polygon points="1899.039247 243.316702 1875.384346 240.084608 1878.695025 216.990928 1902.349926 220.223022 1899.039247 243.316702" fill="#40baeb"/>
    <polygon points="1770.420763 172.628326 1749.648687 179.287144 1742.828016 159.007961 1763.600093 152.349144 1770.420763 172.628326" fill="#40baeb"/>
    <g>
      <polygon points="1836.761017 252.177681 1823.150856 246.032977 1777.790977 193.44 1791.401138 199.584691 1836.761017 252.177681" fill="#01215c"/>
      <polygon points="1791.401138 199.584691 1777.790977 193.44 1820.139956 139.264206 1833.750118 145.40891 1791.401138 199.584691" fill="#999"/>
      <polygon points="1833.750118 145.40891 1879.109997 198.001874 1836.761017 252.177681 1791.401138 199.584691 1833.750118 145.40891" fill="#a6a6a6"/>
    </g>
    <g>
      <polygon points="1857.040822 191.261345 1848.177989 194.188625 1834.510448 173.045138 1843.373282 170.117859 1857.040822 191.261345" fill="#664528"/>
      <path d="m1848.874227,165.367323c-3.780324.150201-7.560647.300619-11.340971.45082,12.933735-22.960611,25.86747-45.921425,38.801313-68.882036,4.17754-.932604,8.354972-1.865173,12.532513-2.797777l-39.992854,71.228993Z" fill="url(#linear-gradient-5)"/>
      <polygon points="1899.272337 110.235243 1859.279483 181.464026 1848.874227 165.367229 1888.867082 94.138445 1899.272337 110.235243" fill="url(#linear-gradient-6)"/>
    </g>
    <g>
      <polygon points="1864.082133 189.971379 1851.315664 182.224695 1828.74848 155.376648 1841.514949 163.123331 1864.082133 189.971379" fill="#664428"/>
      <path d="m1841.514841,163.123331c-3.98061-2.508018-7.961437-5.016036-11.942047-7.524055l12.140601-15.3703c3.611867,2.215059,7.22395,4.430118,10.835817,6.645176l-11.034371,16.249178Z" fill="#81553a"/>
      <path d="m1877.140911,174.950836c-3.849612,5.693546-7.699224,11.387308-11.548836,17.080853-8.025745-9.636047-16.05149-19.272311-24.077235-28.908358l11.034371-16.249178,24.5917,28.076682Z" fill="#ae7a53"/>
    </g>
    <g>
      <polygon points="1867.762955 184.848745 1856.449135 171.722518 1845.869529 185.20718 1857.183349 198.40519 1868.497168 211.530935 1879.076774 197.97449 1867.762955 184.848745" fill="#6c748b"/>
      <polygon points="1857.183188 198.405085 1846.603522 211.961386 1835.289183 198.76372 1845.86885 185.207405 1857.183188 198.405085" fill="#c1a68b"/>
      <polygon points="1857.183349 198.40519 1846.603743 211.961154 1836.024137 225.517599 1825.444531 239.00226 1836.75835 252.199789 1847.337956 238.643344 1857.917562 225.087381 1868.497168 211.530935 1857.183349 198.40519" fill="#0180f3"/>
      <polygon points="1845.134353 158.596773 1833.81957 145.399244 1823.239964 158.955208 1834.554747 172.081435 1845.869529 185.20718 1856.449135 171.722518 1845.134353 158.596773" fill="#7f89a2"/>
      <polygon points="1835.28896 198.763625 1824.636125 212.32007 1814.056519 225.876033 1825.444531 239.00226 1836.024137 225.517599 1846.603743 211.961154 1835.28896 198.763625" fill="#40baeb"/>
      <polygon points="1834.554747 172.081435 1823.974177 185.63788 1813.394571 199.193843 1824.636125 212.32007 1835.28896 198.763625 1845.869529 185.20718 1834.554747 172.081435" fill="#ac8568"/>
      <polygon points="1823.240172 158.955494 1834.554511 172.08145 1823.974844 185.637764 1812.660506 172.511808 1823.240172 158.955494" fill="#c1a68b"/>
      <polygon points="1802.742109 212.750379 1813.395178 199.194065 1824.636114 212.32002 1814.056448 225.876335 1802.742109 212.750379" fill="#0180f3"/>
      <polygon points="1812.660358 172.511653 1802.007524 185.996314 1791.427918 199.55276 1802.741737 212.750288 1813.394571 199.193843 1823.974177 185.63788 1812.660358 172.511653" fill="#40baeb"/>
    </g>
    <g>
      <polygon points="1833.757696 145.413768 1823.185933 158.965441 1809.563321 152.792683 1820.135084 139.241011 1833.757696 145.413768" fill="#4d5466"/>
      <polygon points="1823.185933 158.965441 1812.543257 172.517113 1798.991666 166.344355 1809.563321 152.792683 1823.185933 158.965441" fill="#9f765f"/>
      <polygon points="1798.991661 166.34407 1788.348462 179.895697 1777.776564 193.447807 1791.399975 199.549387 1801.970909 186.06858 1812.542807 172.516952 1798.991661 166.34407" fill="#015ccf"/>
    </g>
    <polygon points="1779.682005 276.795121 1803.054015 286.11883 1793.792774 308.896855 1770.420763 299.573174 1779.682005 276.795121" fill="#40baeb"/>
  </g>
</svg>