<?xml version="1.0" encoding="UTF-8"?>
<svg id="MCTitles" xmlns="http://www.w3.org/2000/svg" xmlns:xlink="http://www.w3.org/1999/xlink" viewBox="0 0 244.715607 49.41848">
  <defs>
    <linearGradient id="linear-gradient" x1="24.124958" y1="48.967414" x2="24.124958" y2="17.068546" gradientTransform="translate(0 52) scale(1 -1)" gradientUnits="userSpaceOnUse">
      <stop offset="0" stop-color="#d0c5c0"/>
      <stop offset=".99" stop-color="#aba09c"/>
    </linearGradient>
    <linearGradient id="linear-gradient-2" x1="59.526514" y1="48.967414" x2="59.526514" y2="17.068546" gradientTransform="translate(0 52) scale(1 -1)" gradientUnits="userSpaceOnUse">
      <stop offset="0" stop-color="#d0c5c0"/>
      <stop offset=".99" stop-color="#aba09c"/>
    </linearGradient>
    <linearGradient id="linear-gradient-3" x1="86.34013" y1="17.068535" x2="86.34013" y2="48.967401" gradientTransform="translate(0 52) scale(1 -1)" gradientUnits="userSpaceOnUse">
      <stop offset="0" stop-color="#44c3f2"/>
      <stop offset="1" stop-color="#398ecd"/>
    </linearGradient>
    <linearGradient id="linear-gradient-4" x1="111.666782" y1="17.068535" x2="111.666782" y2="37.997562" gradientTransform="translate(0 52) scale(1 -1)" gradientUnits="userSpaceOnUse">
      <stop offset="0" stop-color="#44c3f2"/>
      <stop offset="1" stop-color="#398ecd"/>
    </linearGradient>
    <linearGradient id="linear-gradient-5" x1="221.55365" y1="17.068535" x2="221.55365" y2="27.811218" gradientTransform="translate(0 52) scale(1 -1)" gradientUnits="userSpaceOnUse">
      <stop offset="0" stop-color="#44c3f2"/>
      <stop offset="1" stop-color="#398ecd"/>
    </linearGradient>
    <linearGradient id="linear-gradient-6" x1="190.469429" y1="17.068535" x2="190.469429" y2="41.515696" gradientTransform="translate(0 52) scale(1 -1)" gradientUnits="userSpaceOnUse">
      <stop offset="0" stop-color="#44c3f2"/>
      <stop offset="1" stop-color="#398ecd"/>
    </linearGradient>
    <linearGradient id="linear-gradient-7" x1="162.489479" y1="17.068535" x2="162.489479" y2="41.198701" gradientTransform="translate(0 52) scale(1 -1)" gradientUnits="userSpaceOnUse">
      <stop offset="0" stop-color="#44c3f2"/>
      <stop offset="1" stop-color="#398ecd"/>
    </linearGradient>
    <linearGradient id="linear-gradient-8" x1="134.354996" y1="17.068531" x2="134.354996" y2="36.568317" gradientTransform="translate(0 52) scale(1 -1)" gradientUnits="userSpaceOnUse">
      <stop offset="0" stop-color="#44c3f2"/>
      <stop offset="1" stop-color="#398ecd"/>
    </linearGradient>
    <linearGradient id="linear-gradient-9" x1="210.151946" y1="21.976191" x2="211.685744" y2="31.961775" gradientTransform="translate(33.50155 74.119454) rotate(-8.732474) scale(1 -1)" gradientUnits="userSpaceOnUse">
      <stop offset=".452769" stop-color="#754a2e"/>
      <stop offset="1" stop-color="#8b5f3c"/>
    </linearGradient>
    <linearGradient id="linear-gradient-10" x1="257.668107" y1="38.702527" x2="257.668107" y2="51.388624" gradientTransform="translate(-21.611684 33.509756) rotate(6.197393) scale(1 -1)" gradientUnits="userSpaceOnUse">
      <stop offset=".294788" stop-color="#8b5f3c"/>
      <stop offset="1" stop-color="#a97c51"/>
    </linearGradient>
  </defs>
  <g id="brush-outline">
    <polygon points="241.735138 21.661633 240.452911 20.196301 244.715607 12.604504 242.191193 8.697277 238.753693 9.465832 235.381622 15.450695 234.500763 14.910656 233.681427 15.948254 231.356232 14.897961 223.903107 24.432629 231.316193 33.028332 234.610138 34.515636 242.063263 24.981457 240.621857 23.31007 241.735138 21.661633"/>
  </g>
  <g id="text">
    <g id="Layer_1_copy" data-name="Layer 1 copy">
      <polygon points="234.509918 12.390284 232.925323 12.390284 233.988129 9.424138 232.331741 0 172.778473 0 170.117935 15.039033 170.980133 25.270729 165.500671 25.270729 163.826065 0 149.401917 0 147.219681 0 120.542465 0 117.986076 0 105.918587 0 103.540176 0 76.697121 0 74.70298 0 31.432516 0 30.602299 6.130725 26.959349 6.130725 26.242893 11.204616 24.662848 6.130725 23.895832 6.130725 21.971464 0 6.196807 0 0 35.258579 5.757934 49.41848 21.504276 49.41848 22.472528 42.943211 29.096579 42.943211 31.125103 49.41848 76.511559 49.41848 77.16684 39.773201 74.827866 25.270729 64.002663 25.270729 64.097214 24.215376 76.1101 24.215376 78.224579 24.215376 80.580238 24.215376 79.987656 35.037437 81.809891 49.41848 98.527016 49.41848 99.417397 24.215376 103.051437 24.215376 102.834343 34.971294 103.509331 49.41848 120.5364 49.41848 120.604843 24.215376 124.981758 24.215376 125.324562 49.41848 142.251511 49.41848 143.309265 34.993011 142.968475 24.215376 146.176086 24.215376 147.342041 49.41848 173.015106 49.41848 174.797897 49.41848 232.771622 49.41848 238.529556 35.258579 234.509918 12.390284"/>
    </g>
    <g>
      <g>
        <polygon points="19.674406 3.032586 23.485603 15.174889 22.587227 21.182739 18.702749 9.163365 19.674406 3.032586" fill="none"/>
        <polygon points="22.360533 9.163365 26.103718 21.182739 25.220509 27.312115 21.404558 15.422873 22.360533 9.163365" fill="none"/>
        <polygon points="20.431997 21.790983 24.322664 33.543045 20.738945 33.543045 16.70142 21.790983 20.431997 21.790983" fill="none"/>
        <polygon points="31.614435 21.790983 35.064892 33.543045 31.481173 33.543045 27.883858 21.790983 31.614435 21.790983" fill="none"/>
        <polygon points="27.883858 21.790983 31.481173 33.543045 30.632877 39.910175 26.964249 28.303396 27.883858 21.790983" fill="none"/>
        <polygon points="26.964249 28.303396 30.632877 39.910175 23.405193 39.910175 19.437399 28.303396 26.964249 28.303396" fill="none"/>
        <polygon points="16.70142 21.790983 20.738945 33.543045 18.818609 46.385197 14.618808 34.931454 16.70142 21.790983" fill="none"/>
        <polygon points="14.618808 34.931454 18.818609 46.385197 7.867009 46.385197 3.209304 34.931454 14.618808 34.931454" fill="#3e3a39"/>
        <polygon points="45.040611 3.032586 47.881077 15.174888 44.40279 46.385197 41.272701 34.931454 45.040611 3.032586" fill="none"/>
        <polygon points="45.040611 3.032586 41.272701 34.931454 29.834642 34.931454 31.614435 21.790983 27.883858 21.790983 26.964249 28.303396 19.437399 28.303396 20.431997 21.790983 16.70142 21.790983 14.618808 34.931454 3.209304 34.931454 8.816114 3.032586 19.674406 3.032586 18.702749 9.163365 22.360533 9.163365 21.404558 15.422873 28.783089 15.422873 29.666983 9.163365 33.324768 9.163365 34.155144 3.032586 45.040611 3.032586" fill="url(#linear-gradient)"/>
        <polygon points="41.272701 34.931454 44.40279 46.385197 33.423779 46.385197 29.834642 34.931454 41.272701 34.931454" fill="#3e3a39"/>
      </g>
      <g>
        <polygon points="73.993034 3.032586 75.725525 15.174888 75.317146 21.182739 73.551346 9.163364 73.993034 3.032586" fill="none"/>
        <polygon points="73.551346 9.163364 75.317146 21.182739 61.251133 21.182739 58.920162 9.163364 73.551346 9.163364" fill="none"/>
        <polygon points="58.920162 9.163364 61.251133 21.182739 59.570698 39.910175 57.099857 28.303396 58.920162 9.163364" fill="none"/>
        <polygon points="72.172394 28.303396 74.044151 39.910175 73.604012 46.385197 71.69487 34.931454 72.172394 28.303396" fill="none"/>
        <polygon points="71.69487 34.931454 73.604012 46.385197 48.038086 46.385197 45.059994 34.931454 71.69487 34.931454" fill="#3e3a39"/>
        <polygon points="73.993034 3.032586 73.551346 9.163364 58.920162 9.163364 57.099857 28.303396 72.172394 28.303396 71.69487 34.931454 45.059994 34.931454 48.644936 3.032586 73.993034 3.032586" fill="url(#linear-gradient-2)"/>
      </g>
      <g>
        <polygon points="84.515579 9.163364 85.857857 21.182739 78.833633 21.182739 77.209129 9.163364 84.515579 9.163364" fill="none"/>
        <polygon points="102.804543 9.163364 103.440353 21.182739 96.416138 21.182739 95.498093 9.163364 102.804543 9.163364" fill="none"/>
        <polygon points="102.963585 3.032585 103.587402 15.174888 103.440353 21.182739 102.804543 9.163364 102.963585 3.032585" fill="none"/>
        <polygon points="94.532898 34.931454 95.525475 46.385197 84.555611 46.385197 83.10437 34.931454 94.532898 34.931454" fill="#003262"/>
        <polygon points="95.498093 9.163364 96.416138 21.182739 95.525475 46.385197 94.532898 34.931454 95.498093 9.163364" fill="none"/>
        <polygon points="102.963585 3.032585 102.804543 9.163364 95.498093 9.163364 94.532898 34.931454 83.10437 34.931454 84.515579 9.163364 77.209129 9.163364 77.615479 3.032586 102.963585 3.032585" fill="#fff"/>
      </g>
      <g>
        <polygon points="117.453377 3.032585 117.52269 15.174888 117.437813 46.385197 117.361427 34.931454 117.453377 3.032585" fill="none"/>
        <polygon points="117.361427 34.931454 117.437813 46.385197 106.477089 46.385197 105.942421 34.931454 117.361427 34.931454" fill="#003262"/>
        <polygon points="117.453377 3.032585 117.361427 34.931454 105.942421 34.931454 106.586037 3.032585 117.453377 3.032585" fill="#fff"/>
      </g>
      <g>
        <polygon points="230.790695 9.163363 226.482712 21.182739 212.425507 21.182739 216.168686 9.163363 230.790695 9.163363" fill="none"/>
        <polygon points="206.905426 21.790983 203.455353 33.543045 201.108322 15.174888 204.365005 3.032584 206.905426 21.790983" fill="none"/>
        <polygon points="221.827805 21.790983 217.790283 33.543045 203.455353 33.543045 206.905426 21.790983 221.827805 21.790983" fill="none"/>
        <polygon points="222.859955 28.303396 218.742386 39.910179 217.790283 33.543045 221.827805 21.790983 222.859955 28.303396" fill="none"/>
        <polygon points="208.685028 34.931454 205.096283 46.385197 204.268921 39.910179 207.787399 28.303396 208.685028 34.931454" fill="none"/>
        <polygon points="235.319916 34.931454 230.662216 46.385197 205.096283 46.385197 208.685028 34.931454 235.319916 34.931454" fill="#003262"/>
        <polygon points="229.713104 3.032584 230.790695 9.163363 216.168686 9.163363 217.124649 15.422872 231.890915 15.422872 235.319916 34.931454 208.685028 34.931454 207.787399 28.303396 222.859955 28.303396 221.827805 21.790983 206.905426 21.790983 204.365005 3.032584 229.713104 3.032584" fill="#fff"/>
      </g>
      <g>
        <polygon points="201.537521 9.163364 198.359512 21.182739 184.293472 21.182739 186.906326 9.163364 201.537521 9.163364" fill="none"/>
        <polygon points="203.174866 21.790983 199.871643 33.543045 185.536697 33.543045 188.252487 21.790983 203.174866 21.790983" fill="none"/>
        <polygon points="178.243835 34.931454 175.876801 46.385197 173.246445 15.174888 175.39447 3.032585 178.243835 34.931454" fill="none"/>
        <polygon points="204.878723 34.931454 201.442734 46.385197 175.876801 46.385197 178.243835 34.931454 204.878723 34.931454" fill="#003262"/>
        <polygon points="200.742569 3.032584 201.537521 9.163364 186.906326 9.163364 187.573608 15.422873 202.349152 15.422872 203.174866 21.790983 188.252487 21.790983 188.946747 28.303396 204.019302 28.303396 204.878723 34.931454 178.243835 34.931454 175.39447 3.032585 200.742569 3.032584" fill="#fff"/>
      </g>
      <g>
        <polygon points="151.608963 34.931454 150.310883 46.385197 148.868393 15.174888 150.046356 3.032585 151.608963 34.931454" fill="none"/>
        <polygon points="174.4375 34.931454 172.223221 46.385197 150.310883 46.385197 151.608963 34.931454 174.4375 34.931454" fill="#003262"/>
        <polygon points="160.913727 3.032585 162.588699 28.303396 173.883652 28.303396 174.4375 34.931454 151.608963 34.931454 150.046356 3.032585 160.913727 3.032585" fill="#fff"/>
      </g>
      <g>
        <polygon points="121.093506 9.163364 121.022858 21.182739 121.006523 15.174888 121.075829 3.032585 121.093506 9.163364" fill="none"/>
        <polygon points="128.399948 9.163364 128.047073 21.182739 121.022858 21.182739 121.093506 9.163364 128.399948 9.163364" fill="none"/>
        <polygon points="146.688919 9.163364 145.629578 21.182739 138.605362 21.182739 139.382462 9.163364 146.688919 9.163364" fill="none"/>
        <polygon points="128.77095 34.931454 128.389435 46.385197 128.047073 21.182739 128.399948 9.163364 128.77095 34.931454" fill="none"/>
        <polygon points="140.199478 34.931454 139.359283 46.385197 128.389435 46.385197 128.77095 34.931454 140.199478 34.931454" fill="#003262"/>
        <polygon points="146.423935 3.032585 146.688919 9.163364 139.382462 9.163364 140.199478 34.931454 128.77095 34.931454 128.399948 9.163364 121.093506 9.163364 121.075829 3.032585 146.423935 3.032585" fill="#fff"/>
      </g>
    </g>
  </g>
  <g id="paint_layer" data-name="paint layer">
    <g>
      <path d="m88.265038,5.839522c2.972633,1.264154,5.372406,2.732449,7.206108,4.043434-.312752,8.349503-.625473,16.699005-.938232,25.04851h-11.428558l1.411232-25.76811h-7.306473l.406357-6.130756c2.771843.319247,6.523842,1.052392,10.649567,2.806923Z" fill="url(#linear-gradient-3)"/>
      <path d="m117.391159,17.680286c-.009926,5.750393-.019814,11.500786-.029739,17.251179h-11.419014c.140747-6.976353.281532-13.952675.422279-20.929028.947304.864046,2.823631,2.342398,5.628685,3.161617,2.247169.656296,4.192268.627295,5.397789.516232Z" fill="url(#linear-gradient-4)"/>
      <path d="m233.431671,24.188784c.629425,3.580885,1.25882,7.161798,1.888245,10.742682h-26.634872l-.897659-6.628075h15.07254c-.17804-1.123472-.35611-2.246975-.534149-3.370449.97789.3277,2.231216.634329,3.704544.727221,3.364792.212132,6.013397-.80802,7.401337-1.47138l.000015.000002Z" fill="url(#linear-gradient-5)"/>
      <path d="m200.054749,20.411934c.873108.395512,1.830078.816751,1.830139.816782.528595.23271.967178.422998,1.289978.562262h-14.922379l.694275,6.512413h15.072556l.859421,6.628075h-26.634872c-.727921-8.149063-1.455826-16.298098-2.183746-24.447161,2.304184.494111,4.116043,1.032647,5.258102,1.398232,1.048203.335536,1.65741.570251,2.655136.931517.820236.297003,1.994934.713647,3.450027,1.199582.050095.469738.100143.939508.150238,1.409245h2.569565c5.049057,2.634403,8.805145,4.487844,9.911591,4.98905l-.000031.000004Z" fill="url(#linear-gradient-6)"/>
      <path d="m161.428635,10.801299c.386703,5.834031.773361,11.668061,1.160065,17.502091h11.294952l.553833,6.628075h-22.828537c-.35582-7.263762-.711655-14.527554-1.067474-21.791315,1.833862-.672523,4.022736-1.322956,6.529083-1.783531,1.560959-.286853,3.022781-.459218,4.358078-.55532Z" fill="url(#linear-gradient-7)"/>
      <path d="m139.581207,15.431683c.206085,6.499939.41217,12.999847.618256,19.499786h-11.428497c-.086823-6.029572-.173645-12.059174-.260437-18.088715,1.508972.113586,3.376404.130463,5.492676-.130402,2.21701-.273285,4.099518-.776428,5.578003-1.28067Z" fill="url(#linear-gradient-8)"/>
    </g>
  </g>
  <g id="cracks">
    <g id="Layer_5" data-name="Layer 5">
      <g>
        <g>
          <polygon points="72.668251 40.780407 72.057289 40.780407 71.436012 40.780407 70.804359 40.780407 70.183022 40.780407 69.561745 40.780407 69.686012 41.488049 70.307289 41.488049 70.928627 41.488049 71.549904 41.488049 72.171181 41.488049 72.782143 41.488049 72.668251 40.780407" fill="#262423"/>
          <polygon points="58.067722 36.413219 57.912392 35.675243 57.746738 34.927135 57.115089 34.927135 57.280739 35.675243 57.436073 36.413219 57.601723 37.151196 57.757053 37.87904 58.378391 37.87904 58.223061 37.151196 58.067722 36.413219" fill="#262423"/>
          <polygon points="42.234962 40.780407 41.613686 40.780407 40.992348 40.780407 40.371071 40.780407 39.74979 40.780407 39.94651 41.488049 40.578159 41.488049 41.199436 41.488049 41.810398 41.488049 42.43174 41.488049 43.053017 41.488049 42.856239 40.780407 42.234962 40.780407" fill="#262423"/>
          <polygon points="16.150793 40.780407 15.529455 40.780407 14.908178 40.780407 14.286902 40.780407 13.665564 40.780407 13.924475 41.488049 14.556128 41.488049 15.177405 41.488049 15.788366 41.488049 16.409643 41.488049 17.03092 41.488049 16.77207 40.780407 16.150793 40.780407" fill="#262423"/>
        </g>
        <g>
          <polygon points="72.90641 42.19569 72.295448 42.19569 71.674171 42.19569 71.052895 42.19569 70.431557 42.19569 69.81028 42.19569 69.199318 42.19569 69.333961 42.903332 69.934547 42.903332 70.555824 42.903332 71.177101 42.903332 71.798439 42.903332 72.409401 42.903332 73.020302 42.903332 72.90641 42.19569" fill="#5f5b5a"/>
          <polygon points="42.628452 42.19569 42.007175 42.19569 41.396217 42.19569 40.77494 42.19569 40.153603 42.19569 39.532326 42.19569 39.739414 42.903332 40.350376 42.903332 40.971657 42.903332 41.592934 42.903332 42.203896 42.903332 42.814857 42.903332 43.436134 42.903332 43.249729 42.19569 42.628452 42.19569" fill="#5f5b5a"/>
          <polygon points="16.668493 42.19569 16.057592 42.19569 15.436255 42.19569 14.814978 42.19569 14.193701 42.19569 13.582739 42.19569 13.841589 42.903332 14.462927 42.903332 15.084204 42.903332 15.705481 42.903332 16.316442 42.903332 16.927404 42.903332 17.548681 42.903332 17.289831 42.19569 16.668493 42.19569" fill="#5f5b5a"/>
        </g>
        <g>
          <polygon points="72.782143 41.488049 72.171181 41.488049 71.549904 41.488049 70.928627 41.488049 70.307289 41.488049 69.686012 41.488049 69.561745 40.780407 68.950783 40.780407 69.07505 41.488049 69.199318 42.19569 69.81028 42.19569 70.431557 42.19569 71.052895 42.19569 71.674171 42.19569 72.295448 42.19569 72.90641 42.19569 72.782143 41.488049" fill="#181716"/>
          <polygon points="57.757053 37.87904 57.601723 37.151196 57.436073 36.413219 57.280739 35.675243 57.115089 34.927135 56.473061 34.927135 56.638706 35.675243 56.80442 36.413219 56.959751 37.151196 57.125404 37.87904 57.291115 38.617016 57.912392 38.617016 58.544044 38.617016 58.378391 37.87904 57.757053 37.87904" fill="#181716"/>
          <polygon points="42.43174 41.488049 41.810398 41.488049 41.199436 41.488049 40.578159 41.488049 39.94651 41.488049 39.74979 40.780407 39.128452 40.780407 39.335548 41.488049 39.532326 42.19569 40.153603 42.19569 40.77494 42.19569 41.396217 42.19569 42.007175 42.19569 42.628452 42.19569 43.249729 42.19569 43.053017 41.488049 42.43174 41.488049" fill="#181716"/>
          <polygon points="16.409643 41.488049 15.788366 41.488049 15.177405 41.488049 14.556128 41.488049 13.924475 41.488049 13.665564 40.780407 13.044287 40.780407 13.313513 41.488049 13.582739 42.19569 14.193701 42.19569 14.814978 42.19569 15.436255 42.19569 16.057592 42.19569 16.668493 42.19569 17.289831 42.19569 17.03092 41.488049 16.409643 41.488049" fill="#181716"/>
        </g>
      </g>
    </g>
    <g>
      <polygon points="72.97892 8.643017 72.367958 8.643017 71.756996 8.643017 71.15641 8.643017 70.545448 8.643017 69.934547 8.643017 69.323586 8.643017 68.723 8.643017 68.101723 8.643017 67.501137 8.643017 66.890175 8.643017 66.289589 8.643017 65.668251 8.643017 65.067665 8.643017 64.456764 8.643017 63.845802 8.643017 63.23484 8.643017 62.634254 8.643017 62.023354 8.643017 61.412392 8.643017 60.80143 8.643017 60.200844 8.643017 59.579563 8.643017 58.968601 8.643017 58.927158 9.158581 59.527805 9.158581 60.149082 9.158581 60.749668 9.158581 61.360634 9.158581 61.971535 9.158581 62.582497 9.158581 63.193459 9.158581 63.794044 9.158581 64.415321 9.158581 65.015907 9.158581 65.626869 9.158581 66.237831 9.158581 66.848732 9.158581 67.459694 9.158581 68.06028 9.158581 68.681557 9.158581 69.282143 9.158581 69.893105 9.158581 70.504066 9.158581 71.115028 9.158581 71.725929 9.158581 72.326515 9.158581 72.947853 9.158581 73.548439 9.158581 73.589821 8.643017 72.97892 8.643017" fill="#ece5e2"/>
      <polygon points="70.473 34.371105 69.830971 34.371105 69.199318 34.371105 68.567665 34.371105 67.936012 34.371105 67.293983 34.371105 66.662331 34.371105 66.030678 34.371105 65.399025 34.371105 64.757057 34.371105 64.125404 34.371105 63.504066 34.371105 62.872414 34.371105 62.230446 34.371105 61.598789 34.371105 60.967136 34.371105 60.335487 34.371105 59.693459 34.371105 59.061806 34.371105 58.430153 34.371105 57.798496 34.371105 57.746738 34.927135 58.378391 34.927135 59.010044 34.927135 59.641701 34.927135 60.283669 34.927135 60.915321 34.927135 61.54697 34.927135 62.178623 34.927135 62.820656 34.927135 63.452309 34.927135 64.083961 34.927135 64.715614 34.927135 65.357643 34.927135 65.989296 34.927135 66.620949 34.927135 67.252602 34.927135 67.89463 34.927135 68.526283 34.927135 69.157936 34.927135 69.789589 34.927135 70.431557 34.927135 71.06321 34.927135 71.694862 34.927135 71.736305 34.371105 71.104652 34.371105 70.473 34.371105" fill="#ece5e2"/>
      <polygon points="58.109165 31.045177 57.477512 31.045177 56.845863 31.045177 56.794044 31.601147 57.425697 31.601147 58.057346 31.601147 58.109165 31.045177" fill="#ece5e2"/>
      <polygon points="55.261513 34.371105 54.629856 34.371105 53.987888 34.371105 53.356239 34.371105 52.724586 34.371105 52.092934 34.371105 51.461281 34.371105 50.829563 34.371105 50.19791 34.371105 49.566261 34.371105 48.924294 34.371105 48.292641 34.371105 47.660988 34.371105 47.029331 34.371105 46.387302 34.371105 45.755653 34.371105 45.124001 34.371105 45.061867 34.927135 45.69352 34.927135 46.325172 34.927135 46.967197 34.927135 47.59885 34.927135 48.230507 34.927135 48.86216 34.927135 49.504189 34.927135 50.135841 34.927135 50.76749 34.927135 51.399143 34.927135 52.041115 34.927135 52.672768 34.927135 53.30442 34.927135 53.936073 34.927135 54.578098 34.927135 55.209751 34.927135 55.841408 34.927135 56.473061 34.927135 56.524818 34.371105 55.893166 34.371105 55.261513 34.371105" fill="#ece5e2"/>
      <polygon points="48.831093 12.272228 49.442055 12.272228 50.052956 12.272228 50.674294 12.272228 51.285194 12.272228 51.896156 12.272228 52.507114 12.272228 53.118015 12.272228 53.728977 12.272228 54.339939 12.272228 54.96122 12.272228 55.572182 12.272228 56.183144 12.272228 56.794044 12.272228 57.405006 12.272228 58.015968 12.272228 58.626865 12.272228 58.678684 11.756664 58.067722 11.756664 57.45676 11.756664 56.845863 11.756664 56.234901 11.756664 55.62394 11.756664 55.013039 11.756664 54.391701 11.756664 53.780739 11.756664 53.169834 11.756664 52.558872 11.756664 51.94791 11.756664 51.337009 11.756664 50.726051 11.756664 50.115089 11.756664 49.504189 11.756664 48.893227 11.756664 48.271889 11.756664 47.660988 11.756664 47.609165 12.272228 48.220127 12.272228 48.831093 12.272228" fill="#ece5e2"/>
      <polygon points="47.422829 25.030163 48.054482 25.030163 48.675758 25.030163 49.297031 25.030163 49.918369 25.030163 49.980507 24.484264 49.359165 24.484264 48.727512 24.484264 48.106239 24.484264 47.484962 24.484264 46.85331 24.484264 46.231972 24.484264 46.169834 25.030163 46.791176 25.030163 47.422829 25.030163" fill="#ece5e2"/>
      <polygon points="42.524879 13.839184 41.913979 13.839184 41.292641 13.839184 40.68174 13.839184 40.070778 13.839184 39.459812 13.839184 38.838535 13.839184 38.227573 13.839184 37.616615 13.839184 37.544167 14.36488 38.155128 14.36488 38.766029 14.36488 39.387363 14.36488 39.998264 14.36488 40.609226 14.36488 41.230507 14.36488 41.841469 14.36488 42.462746 14.36488 43.073708 14.36488 43.684669 14.36488 43.746799 13.839184 43.135841 13.839184 42.524879 13.839184" fill="#ece5e2"/>
      <polygon points="40.050083 34.371105 39.428745 34.371105 38.797092 34.371105 38.155128 34.371105 37.523476 34.371105 36.891823 34.371105 36.260166 34.371105 35.618137 34.371105 34.986488 34.371105 34.354836 34.371105 33.723183 34.371105 33.081154 34.371105 32.449497 34.371105 31.817846 34.371105 31.186193 34.371105 30.544165 34.371105 29.912512 34.371105 29.840063 34.927135 30.471716 34.927135 31.113745 34.927135 31.745398 34.927135 32.377052 34.927135 33.008701 34.927135 33.650669 34.927135 34.282326 34.927135 34.913979 34.927135 35.545631 34.927135 36.187656 34.927135 36.819309 34.927135 37.450966 34.927135 38.082619 34.927135 38.724648 34.927135 39.3563 34.927135 39.987949 34.927135 40.619602 34.927135 41.261574 34.927135 41.323708 34.371105 40.68174 34.371105 40.050083 34.371105" fill="#ece5e2"/>
      <polygon points="34.686195 8.137524 35.297157 8.137524 35.908054 8.137524 36.50864 8.137524 37.119602 8.137524 37.730564 8.137524 38.341469 8.137524 38.403603 7.62196 37.792702 7.62196 37.192116 7.62196 36.581154 7.62196 35.980564 7.62196 35.359226 7.62196 34.75864 7.62196 34.147739 7.62196 33.536781 7.62196 33.464272 8.137524 34.085609 8.137524 34.686195 8.137524" fill="#ece5e2"/>
      <polygon points="30.999792 21.795177 31.62113 21.795177 31.693579 21.259411 31.072302 21.259411 30.451025 21.259411 29.840063 21.259411 29.20841 21.259411 28.587072 21.259411 27.965796 21.259411 27.893347 21.795177 28.514624 21.795177 29.1359 21.795177 29.757238 21.795177 30.378515 21.795177 30.999792 21.795177" fill="#ece5e2"/>
      <polygon points="30.171423 14.36488 30.7927 14.36488 31.403662 14.36488 32.014626 14.36488 32.625526 14.36488 33.246864 14.36488 33.857761 14.36488 34.468723 14.36488 35.09 14.36488 35.700966 14.36488 36.311928 14.36488 36.384377 13.839184 35.7631 13.839184 35.152138 13.839184 34.541237 13.839184 33.930271 13.839184 33.308994 13.839184 32.698032 13.839184 32.08707 13.839184 31.47611 13.839184 30.86521 13.839184 30.243872 13.839184 29.632971 13.839184 29.022009 13.839184 28.939184 14.36488 29.560461 14.36488 30.171423 14.36488" fill="#ece5e2"/>
      <polygon points="25.791235 27.749523 25.169958 27.749523 24.548681 27.749523 23.917028 27.749523 23.285376 27.749523 22.664038 27.749523 22.032385 27.749523 21.411108 27.749523 20.779455 27.749523 20.147802 27.749523 19.526525 27.749523 19.44364 28.295422 20.064978 28.295422 20.69663 28.295422 21.328283 28.295422 21.94956 28.295422 22.581213 28.295422 23.20249 28.295422 23.834143 28.295422 24.465796 28.295422 25.087133 28.295422 25.718786 28.295422 26.350439 28.295422 26.971716 28.295422 27.054541 27.749523 26.422888 27.749523 25.791235 27.749523" fill="#ece5e2"/>
      <polygon points="20.437719 21.795177 20.510229 21.259411 19.899267 21.259411 19.267614 21.259411 18.656652 21.259411 18.035376 21.259411 17.414099 21.259411 16.792761 21.259411 16.709936 21.795177 17.331213 21.795177 17.942175 21.795177 18.573828 21.795177 19.18479 21.795177 19.816442 21.795177 20.437719 21.795177" fill="#ece5e2"/>
      <polygon points="17.652258 8.137524 18.252844 8.137524 18.874121 8.137524 18.956945 7.62196 18.335669 7.62196 17.735083 7.62196 17.124121 7.62196 16.523535 7.62196 15.912634 7.62196 15.301672 7.62196 14.701086 7.62196 14.079748 7.62196 13.479162 7.62196 12.868261 7.62196 12.267676 7.62196 11.656714 7.62196 11.045752 7.62196 10.445166 7.62196 9.834265 7.62196 9.223303 7.62196 8.612341 7.62196 8.011755 7.62196 7.918554 8.137524 8.529516 8.137524 9.130102 8.137524 9.751379 8.137524 10.351965 8.137524 10.962927 8.137524 11.563513 8.137524 12.18479 8.137524 12.785376 8.137524 13.396338 8.137524 13.996924 8.137524 14.618261 8.137524 15.218847 8.137524 15.819433 8.137524 16.44071 8.137524 17.041296 8.137524 17.652258 8.137524" fill="#ece5e2"/>
      <polygon points="14.773535 26.111828 14.141882 26.111828 13.520605 26.111828 12.888952 26.111828 12.267676 26.111828 11.646338 26.111828 11.014685 26.111828 10.383032 26.111828 9.761755 26.111828 9.668554 26.657726 10.300207 26.657726 10.921484 26.657726 11.553137 26.657726 12.174475 26.657726 12.795752 26.657726 13.437781 26.657726 14.059057 26.657726 14.680395 26.657726 15.301672 26.657726 15.943701 26.657726 16.026525 26.111828 15.394873 26.111828 14.773535 26.111828" fill="#ece5e2"/>
      <polygon points="14.245459 29.387218 13.613806 29.387218 12.992529 29.387218 12.3505 29.387218 11.729223 29.387218 11.097571 29.387218 10.476233 29.387218 9.834265 29.387218 9.212927 29.387218 9.119726 29.943249 9.741064 29.943249 10.383032 29.943249 11.014685 29.943249 11.636023 29.943249 12.267676 29.943249 12.899328 29.943249 13.530981 29.943249 14.152258 29.943249 14.783911 29.943249 15.415564 29.943249 15.508764 29.387218 14.866736 29.387218 14.245459 29.387218" fill="#ece5e2"/>
      <polygon points="13.448095 34.371105 12.816443 34.371105 12.18479 34.371105 11.542822 34.371105 10.911169 34.371105 10.279516 34.371105 9.647864 34.371105 9.005835 34.371105 8.374182 34.371105 7.742529 34.371105 7.110876 34.371105 6.468847 34.371105 5.837195 34.371105 5.205542 34.371105 4.573889 34.371105 3.931921 34.371105 3.310583 34.371105 3.207068 34.927135 3.83872 34.927135 4.480688 34.927135 5.112341 34.927135 5.743994 34.927135 6.375647 34.927135 7.017676 34.927135 7.649328 34.927135 8.280981 34.927135 8.912634 34.927135 9.554663 34.927135 10.186316 34.927135 10.817968 34.927135 11.449621 34.927135 12.09165 34.927135 12.723303 34.927135 13.354956 34.927135 13.986609 34.927135 14.628576 34.927135 14.721777 34.371105 14.079748 34.371105 13.448095 34.371105" fill="#ece5e2"/>
      <polygon points="6.758825 21.795177 7.380102 21.795177 8.001379 21.795177 8.622717 21.795177 9.243994 21.795177 9.875647 21.795177 10.486609 21.795177 10.579809 21.259411 9.958471 21.259411 9.337195 21.259411 8.715918 21.259411 8.09458 21.259411 7.473303 21.259411 6.852026 21.259411 6.230688 21.259411 5.609411 21.259411 5.516211 21.795177 6.137488 21.795177 6.758825 21.795177" fill="#ece5e2"/>
    </g>
    <g id="Layer_9" data-name="Layer 9">
      <polygon points="17.792887 38.916698 17.701317 39.456676 17.619869 40.006664 17.538425 40.546703 17.45698 41.096691 17.365408 41.646679 17.283962 42.196667 17.283962 42.206676 17.548613 42.906689 17.630058 42.36665 17.711443 41.816662 17.792887 41.266674 17.884521 40.716686 17.965904 40.166698 18.04735 39.626659 17.792887 38.916698" fill="#3e3a39"/>
      <polygon points="57.37394 32.147106 57.322182 32.703075 57.270424 33.259106 57.218601 33.815136 57.166843 34.371105 57.115089 34.927135 57.746738 34.927135 57.798496 34.371105 57.850258 33.815136 57.902077 33.259106 57.953835 32.703075 58.005592 32.147106 57.37394 32.147106" fill="#988e8a"/>
      <polygon points="57.425697 31.601147 56.794044 31.601147 56.742287 32.147106 56.680153 32.703075 56.628391 33.259106 56.576633 33.815136 56.524818 34.371105 56.473061 34.927135 57.115089 34.927135 57.166843 34.371105 57.218601 33.815136 57.270424 33.259106 57.322182 32.703075 57.37394 32.147106 58.005592 32.147106 58.057346 31.601147 57.425697 31.601147" fill="#6b6563"/>
      <path d="m51.171303,13.313488l-.051758.525696-.062134.525696-.051758.525635-.062134.525696-.051819.525696-.062134.525696-.051758.525696-.062134.535767-.051758.525696-.051758.535767-.062134.525696-.051758.535767-.062134.535828-.051819.535767-.062134.535828-.062134.535767-.051758.535767-.062134.535828-.051758.535767-.062134.545898-.051758.535828-.062134.545898h-3.748535l-.051758.535767h4.369812l.062134-.535767.051758-.545898.062134-.535828.051758-.545898.062134-.535767.051758-.535828.062134-.535767.051819-.535767.062134-.535828.051758-.535767.062134-.535828.051758-.535767.051758-.525696.062134-.535767.051819-.525696.062134-.535767.051758-.525696.051758-.525696.062134-.525696.051758-.525696.062134-.525635.051819-.525696-.559204-.525696Z" fill="#6b6563"/>
      <path d="m43.073708,14.36488h-5.529541c.182922.175232.365845.350403.548828.525635h5.529541l.062134-.525635h-.610962Z" fill="#6b6563"/>
      <polygon points="37.730564 8.137524 37.119602 8.137524 36.50864 8.137524 35.908054 8.137524 35.297157 8.137524 34.686195 8.137524 34.085609 8.137524 33.464272 8.137524 33.402199 8.643017 34.0131 8.643017 34.624062 8.643017 35.224648 8.643017 35.845924 8.643017 36.44651 8.643017 37.057468 8.643017 37.658054 8.643017 38.279331 8.643017 38.341469 8.137524 37.730564 8.137524" fill="#6b6563"/>
      <path d="m36.984962,9.158581l-.062134.525696h.000061l-.07251.515564-.062134.515564-.07251.515564-.062134.525696-.072449.515564-.062134.525696-.07251.515564-.062134.525696-.072449.525696h-7.372742l-.07251.525635h7.99408l.062134-.525635.072449-.525696.062134-.525696.07251-.515564.062134-.525696.072449-.515564.062134-.525696.07251-.515564.062134-.515564.062134-.515564-.538513-.525696Z" fill="#6b6563"/>
      <g>
        <path d="m43.011574,14.890515h-4.918579c-.182983-.175232-.365906-.350403-.548828-.525635l.072449-.525696.062134-.525696.062134-.515564.07251-.525696.062134-.515564.072449-.525696.062134-.515564.062134-.515564.07251-.515564.062134-.525696.072449-.515564h-.621277l-.062134.515564-.072449.525696-.062134.515564-.062134.515564-.07251.515564-.062134.525696-.072449.515564-.062134.525696-.07251.515564-.062134.525696-.072449.525696-.062134.525635h-7.99408l-.072449.525696h14.766174l.062134-.525696h-.610962Z" fill="#988e8a"/>
        <path d="m37.057468,8.643017h-3.655273l-.07251.515564h3.655273l.538513.525696c.044861-.347107.089722-.694214.134583-1.04126h-.600586Z" fill="#988e8a"/>
      </g>
      <g>
        <path d="m15.301672,26.657726h-5.633118c.179504.182007.358948.363953.538452.545898h5.643494l.093201-.545898h-.642029Z" fill="#6b6563"/>
        <path d="m14.152258,29.943249h-5.032532c.179504.181946.359009.363953.538452.545898h5.674561l.082825-.545898h-1.263306Z" fill="#6b6563"/>
      </g>
      <polygon points="18.252844 8.137524 17.652258 8.137524 17.041296 8.137524 16.44071 8.137524 15.819433 8.137524 15.218847 8.137524 14.618261 8.137524 13.996924 8.137524 13.396338 8.137524 12.785376 8.137524 12.18479 8.137524 11.563513 8.137524 10.962927 8.137524 10.351965 8.137524 9.751379 8.137524 9.130102 8.137524 8.529516 8.137524 7.918554 8.137524 7.83573 8.643017 8.436316 8.643017 9.047278 8.643017 9.658178 8.643017 10.26914 8.643017 10.869726 8.643017 11.480688 8.643017 12.09165 8.643017 12.702551 8.643017 13.303137 8.643017 13.914099 8.643017 14.525061 8.643017 15.135962 8.643017 15.746924 8.643017 16.357885 8.643017 16.968786 8.643017 17.569433 8.643017 18.180334 8.643017 18.791296 8.643017 18.874121 8.137524 18.252844 8.137524" fill="#6b6563"/>
      <path d="m9.067968,22.866772l-.093201.535767-.093201.545898-.093201.535828-.093201.545898-.082825.535767-.093201.545898-.093201.545898-.093201.545898-.09314.545898-.093201.545898-.093201.545898-.093201.545898-.093201.55603-.093201.545898-.093201.55603h.621277l.093201-.55603.093201-.545898.093201-.55603.093201-.545898.093201-.545898.093201-.545898.093201-.545898.093201-.545898.093201-.545898.09314-.545898.093201-.535767.093201-.545898.082886-.535828.09314-.545898s-.528076-.535767-.528074-.535767Z" fill="#6b6563"/>
      <g>
        <polygon points="58.015968 12.272228 57.405006 12.272228 56.794044 12.272228 56.183144 12.272228 55.572182 12.272228 54.96122 12.272228 54.339939 12.272228 53.728977 12.272228 53.118015 12.272228 52.507114 12.272228 51.896156 12.272228 51.285194 12.272228 50.674294 12.272228 50.052956 12.272228 49.442055 12.272228 48.831093 12.272228 48.220127 12.272228 47.609165 12.272228 47.547092 12.797924 48.157993 12.797924 48.779331 12.797924 49.390236 12.797924 50.001198 12.797924 50.61216 12.797924 51.223061 12.797924 51.834023 12.797924 52.444984 12.797924 53.066261 12.797924 53.677219 12.797924 54.288181 12.797924 54.909458 12.797924 55.520424 12.797924 56.131325 12.797924 56.742287 12.797924 57.353249 12.797924 57.964149 12.797924 58.575111 12.797924 58.626865 12.272228 58.015968 12.272228" fill="#6b6563"/>
        <polygon points="9.243994 21.795177 8.622717 21.795177 8.001379 21.795177 7.380102 21.795177 6.758825 21.795177 6.137488 21.795177 5.516211 21.795177 5.42301 22.330944 6.044287 22.330944 6.665625 22.330944 7.286902 22.330944 7.908239 22.330944 8.529516 22.330944 9.161169 22.330944 9.782446 22.330944 10.403784 22.330944 10.486609 21.795177 9.875647 21.795177 9.243994 21.795177" fill="#6b6563"/>
      </g>
      <g>
        <polygon points="51.399143 16.993298 51.337009 17.529064 51.285194 18.05476 51.223061 18.590527 51.171303 19.116222 51.119541 19.651989 51.057407 20.187817 51.005653 20.723583 50.94352 21.259411 50.891701 21.795177 50.829563 22.330944 50.777805 22.866772 50.715675 23.402538 50.663918 23.948437 50.601784 24.484264 50.550022 25.030163 50.487888 25.565929 49.86655 25.565929 49.234901 25.565929 48.613625 25.565929 47.992348 25.565929 47.360695 25.565929 46.739353 25.565929 46.118076 25.565929 46.055946 26.111828 46.677219 26.111828 47.298557 26.111828 47.93021 26.111828 48.551491 26.111828 49.183144 26.111828 49.804482 26.111828 50.436134 26.111828 51.057407 26.111828 51.119541 25.565929 51.171303 25.030163 51.223061 24.484264 51.285194 23.948437 51.337009 23.402538 51.399143 22.866772 51.450905 22.330944 51.513039 21.795177 51.564796 21.259411 51.61655 20.723583 51.678684 20.187817 51.730507 19.651989 51.792641 19.116222 51.844398 18.590527 51.896156 18.05476 51.958286 17.529064 52.010044 16.993298 52.061867 16.467602 51.450905 16.467602 51.399143 16.993298" fill="#988e8a"/>
        <path d="m57.964149,12.797863h-9.806152v.000061h-.610901l-.062134.515564h.610901v-.000061h3.075439c.186401.175293.372803.350525.559143.525757l-.051758.525696-.062134.525635-.051758.525696-.062134.525696-.051758.525635h.610901l.062134-.525635.051758-.525696.051819-.525696.062134-.525635.051758-.525696.051819-.525757h6.140442l.041504-.515564h-.611023Z" fill="#988e8a"/>
      </g>
      <g>
        <path d="m15.239538,31.045177l.093201-.55603h-5.674561c-.179443-.181946-.358948-.363953-.538452-.545898l-.186401,1.101929h6.306213Z" fill="#988e8a"/>
        <path d="m15.767614,27.749523l.082886-.545898h-5.643494c-.179504-.181946-.358948-.363892-.538452-.545898-.058655.363953-.117371.727905-.176025,1.091797h6.275085Z" fill="#988e8a"/>
        <path d="m9.575354,27.203625c.279846-1.604309.548157-3.268616.82843-4.872681h-.621338v.000061h-.621277l-.093201.535767.528076.535767c-.417236,2.537292-.870789,5.106262-1.294373,7.642639h.631653c.179565-1.070007.376343-2.226318.559204-3.295654l.082825-.545898Z" fill="#988e8a"/>
        <path d="m8.529516,22.330944h-3.106506l-.093201.535828h3.738159l.093201-.535828s-.631653,0-.631652,0Z" fill="#988e8a"/>
      </g>
      <polygon points="18.180334 8.643017 17.569433 8.643017 16.968786 8.643017 16.357885 8.643017 15.746924 8.643017 15.135962 8.643017 14.525061 8.643017 13.914099 8.643017 13.303137 8.643017 12.702551 8.643017 12.09165 8.643017 11.480688 8.643017 10.869726 8.643017 10.26914 8.643017 9.658178 8.643017 9.047278 8.643017 8.436316 8.643017 7.83573 8.643017 7.742529 9.158581 8.343115 9.158581 8.954077 9.158581 9.575354 9.158581 10.17594 9.158581 10.786902 9.158581 11.397864 9.158581 12.008764 9.158581 12.619726 9.158581 13.220312 9.158581 13.831274 9.158581 14.442175 9.158581 15.053137 9.158581 15.653723 9.158581 16.275061 9.158581 16.885962 9.158581 17.486547 9.158581 18.097509 9.158581 18.708471 9.158581 18.791296 8.643017 18.180334 8.643017" fill="#988e8a"/>
    </g>
  </g>
  <g id="dots">
    <g>
      <polygon points="61.743771 5.064327 61.650547 6.085374 61.557323 7.106421 62.768902 7.106421 63.990784 7.106421 64.073639 6.085374 64.166801 5.064327 62.94492 5.064327 61.743771 5.064327" fill="#00aeef"/>
      <polygon points="71.581001 3.032352 70.379784 3.032352 69.168274 3.032352 69.085419 4.04328 69.002556 5.064327 68.93013 6.085374 68.847275 7.106421 70.058784 7.106421 71.270302 7.106421 72.49218 7.106421 73.703758 7.106421 73.776253 6.085374 73.84874 5.064327 73.921173 4.04328 73.993668 3.032352 72.792519 3.032352 71.581001 3.032352" fill="#009ce0"/>
      <polygon points="227.526947 33.815121 227.350937 32.70306 227.164551 31.601185 225.901215 31.601185 224.637939 31.601185 223.374588 31.601185 222.121613 31.601185 222.287338 32.70306 222.463348 33.815121 222.639359 34.927116 223.90271 34.927116 225.176346 34.927116 226.439682 34.927116 227.713333 34.927116 227.526947 33.815121" fill="#1fbff1"/>
      <polygon points="211.704514 29.387251 211.559586 28.295429 210.296249 28.295429 209.043335 28.295429 207.779999 28.295429 207.935349 29.387251 208.080276 30.489126 208.235626 31.601185 209.498962 31.601185 210.751877 31.601185 212.025513 31.601185 211.859863 30.489126 211.704514 29.387251" fill="#1fbff1"/>
      <polygon points="189.420639 32.70306 189.306747 31.601185 188.043411 31.601185 186.780136 31.601185 185.527161 31.601185 184.25351 31.601185 183.000549 31.601185 181.726898 31.601185 181.84079 32.70306 181.944321 33.815121 182.047897 34.927116 183.321548 34.927116 184.584824 34.927116 185.858521 34.927116 187.121796 34.927116 188.395508 34.927116 189.658783 34.927116 189.544891 33.815121 189.420639 32.70306" fill="#1fbff1"/>
      <polygon points="184.429535 20.723591 184.533051 21.795172 185.765305 21.795172 187.01828 21.795172 188.260895 21.795172 188.146942 20.723591 188.033051 19.652008 187.919159 18.590548 186.686905 18.590548 185.444305 18.590548 184.212051 18.590548 184.315643 19.652008 184.429535 20.723591" fill="#1fbff1"/>
      <polygon points="165.096802 28.295429 163.833466 28.295429 162.590851 28.295429 162.518372 27.203611 162.445938 26.111853 161.182602 26.111853 159.939987 26.111853 160.002106 27.203611 160.0746 28.295429 160.136734 29.387251 160.209229 30.489126 161.462204 30.489126 162.73584 30.489126 163.988815 30.489126 165.25209 30.489126 165.169235 29.387251 165.096802 28.295429" fill="#1fbff1"/>
      <polygon points="155.756592 18.590548 155.694473 17.529085 154.462219 17.529085 153.22998 17.529085 151.987366 17.529085 152.0495 18.590548 152.101257 19.652008 152.153091 20.723591 153.39563 20.723591 154.638245 20.723591 155.880844 20.723591 155.818726 19.652008 155.756592 18.590548" fill="#1fbff1"/>
      <polygon points="140.120605 32.70306 140.089508 31.601185 140.048111 30.489126 138.784775 30.489126 137.53186 30.489126 136.268524 30.489126 135.015549 30.489126 135.03627 31.601185 135.067368 32.70306 135.088043 33.815121 135.119125 34.927116 136.382416 34.927116 137.656113 34.927116 138.919388 34.927116 140.193039 34.927116 140.162003 33.815121 140.120605 32.70306" fill="#1fbff1"/>
      <polygon points="134.777405 20.723591 134.756668 19.652008 133.51413 19.652008 132.271515 19.652008 131.039261 19.652008 131.059998 20.723591 131.080658 21.795172 131.091034 22.866753 132.344009 22.866753 133.586548 22.866753 134.829163 22.866753 134.808502 21.795172 134.777405 20.723591" fill="#1fbff1"/>
      <polygon points="114.864799 28.295429 113.611824 28.295429 113.611824 29.387251 113.601456 30.489126 113.591095 31.601185 114.84407 31.601185 116.107407 31.601185 117.370682 31.601185 117.370682 30.489126 117.38105 29.387251 117.38105 28.295429 116.128075 28.295429 114.864799 28.295429" fill="#1fbff1"/>
      <polygon points="107.512726 18.590548 107.492058 19.652008 107.471329 20.723591 108.713936 20.723591 109.956551 20.723591 109.977211 19.652008 109.987579 18.590548 108.755333 18.590548 107.512726 18.590548" fill="#1fbff1"/>
      <polygon points="92.891502 13.313471 91.659256 13.313471 91.617859 14.364876 91.566093 15.416219 91.524635 16.467562 92.756882 16.467562 93.989128 16.467562 95.221367 16.467562 95.262833 15.416219 95.30423 14.364876 95.345627 13.313471 94.11338 13.313471 92.891502 13.313471" fill="#1fbff1"/>
      <polygon points="85.99511 28.295429 84.731773 28.295429 83.478859 28.295429 83.416733 29.387251 83.364906 30.489126 83.30278 31.601185 83.240654 32.70306 84.493629 32.70306 85.767273 32.70306 87.030609 32.70306 88.293884 32.70306 88.345711 31.601185 88.397476 30.489126 88.449234 29.387251 88.500999 28.295429 87.237724 28.295429 85.99511 28.295429" fill="#1fbff1"/>
      <polygon points="79.90638 5.064327 79.844254 6.085374 79.771759 7.106421 80.993637 7.106421 82.205154 7.106421 82.267281 6.085374 82.329407 5.064327 81.117897 5.064327 79.90638 5.064327" fill="#1fbff1"/>
    </g>
  </g>
  <g id="brush">
    <g>
      <polygon points="238.549698 23.381027 236.816208 23.501614 235.176407 21.636063 236.909897 21.515476 238.549698 23.381027" fill="#828282"/>
      <polygon points="238.75148 24.022474 236.452362 23.456579 232.666412 18.803778 234.96553 19.369675 238.75148 24.022474" fill="gray"/>
    </g>
    <polygon points="242.93219 31.415327 239.598221 30.959789 240.064835 27.70492 243.398804 28.160458 242.93219 31.415327" fill="#01a4de"/>
    <polygon points="224.804443 21.452366 221.876785 22.390873 220.915466 19.532684 223.843124 18.594177 224.804443 21.452366" fill="#01a4de"/>
    <g>
      <polygon points="234.154572 32.664211 232.236328 31.798164 225.843216 24.385605 227.761459 25.25165 234.154572 32.664211" fill="#003262"/>
      <polygon points="227.761459 25.25165 225.843216 24.385605 231.811966 16.74996 233.730209 17.616007 227.761459 25.25165" fill="#999"/>
      <polygon points="233.730209 17.616007 240.123322 25.028564 234.154572 32.664211 227.761459 25.25165 233.730209 17.616007" fill="#a6a6a6"/>
    </g>
    <g>
      <polygon points="237.012848 24.078541 235.763702 24.491117 233.837372 21.511112 235.086517 21.098536 237.012848 24.078541" fill="#664528"/>
      <path d="m235.861832,20.428986c-.532806.02117-1.065613.04237-1.598419.06354,1.822906-3.236115,3.645813-6.472258,5.468735-9.708372.588791-.131443,1.177567-.262881,1.766357-.394324l-5.636673,10.039157Z" fill="url(#linear-gradient-9)"/>
      <polygon points="242.965042 12.65856 237.328369 22.697687 235.861832 20.428972 241.498505 10.389845 242.965042 12.65856" fill="url(#linear-gradient-10)"/>
    </g>
    <g>
      <polygon points="238.005264 23.89673 236.205933 22.804897 233.025269 19.02088 234.8246 20.112713 238.005264 23.89673" fill="#664428"/>
      <path d="m234.824585,20.112713c-.561035-.353485-1.122101-.70697-1.683136-1.060455l1.711121-2.166321c.509064.312195,1.018158.62439,1.527222.936584l-1.555206,2.290192Z" fill="#8b5f3c"/>
      <path d="m239.845795,21.779705c-.542572.80246-1.085144,1.60495-1.627716,2.40741-1.131165-1.358124-2.262329-2.716278-3.393494-4.074402l1.555206-2.290192,3.466003,3.957184Z" fill="#a97c51"/>
    </g>
    <g>
      <polygon points="237.032913 25.085394 238.524033 23.17474 240.118698 25.024738 238.627579 26.93539 237.032913 25.085394" fill="#808285"/>
      <polygon points="235.541794 26.996046 237.032913 25.085394 238.627579 26.93539 237.136459 28.846045 235.541794 26.996046" fill="#0080b2"/>
      <polygon points="237.032913 25.085394 235.438248 23.225286 236.929367 21.324741 238.524033 23.17474 237.032913 25.085394" fill="#808285"/>
      <polygon points="235.541794 26.996046 237.136459 28.846045 235.64534 30.756699 234.050674 28.9067 235.541794 26.996046" fill="#0080b2"/>
      <polygon points="237.032913 25.085394 235.541794 26.996046 233.947128 25.135941 235.438248 23.225286 237.032913 25.085394" fill="#c1a68b"/>
      <polygon points="233.843582 21.375288 235.334702 19.474743 236.929367 21.324741 235.438248 23.225286 233.843582 21.375288" fill="#939598"/>
      <polygon points="232.559555 30.807245 234.050674 28.9067 235.64534 30.756699 234.154221 32.667351 232.559555 30.807245" fill="#0080b2"/>
      <polygon points="234.050674 28.9067 232.445663 27.046593 233.947128 25.135941 235.541794 26.996046 234.050674 28.9067" fill="#3ba6ce"/>
      <polygon points="233.843582 21.375288 235.438248 23.225286 233.947128 25.135941 232.352463 23.285942 233.843582 21.375288" fill="#ac8568"/>
      <polygon points="235.334702 19.474743 233.843582 21.375288 232.248917 19.52529 233.740036 17.614635 235.334702 19.474743" fill="#939598"/>
      <polygon points="230.954544 28.957247 232.445663 27.046593 234.050674 28.9067 232.559555 30.807245 230.954544 28.957247" fill="#3ba6ce"/>
      <polygon points="233.947128 25.135941 232.445663 27.046593 230.861343 25.196594 232.352463 23.285942 233.947128 25.135941" fill="#ac8568"/>
      <polygon points="232.248917 19.52529 233.843582 21.375288 232.352463 23.285942 230.757797 21.435944 232.248917 19.52529" fill="#c1a68b"/>
      <polygon points="229.359879 27.107248 230.861343 25.196594 232.445663 27.046593 230.954544 28.957247 229.359879 27.107248" fill="#0080b2"/>
      <polygon points="230.861343 25.196594 229.256317 23.336489 230.757797 21.435944 232.352463 23.285942 230.861343 25.196594" fill="#3ba6ce"/>
      <polygon points="229.359879 27.107248 227.765213 25.247143 229.256317 23.336489 230.861343 25.196594 229.359879 27.107248" fill="#3ba6ce"/>
    </g>
    <g>
      <polygon points="233.731277 17.616692 232.241272 19.526691 230.321274 18.656691 231.811279 16.746691 233.731277 17.616692" fill="#6d6e71"/>
      <polygon points="232.241272 19.526691 230.741272 21.436691 228.831284 20.56669 230.321274 18.656691 232.241272 19.526691" fill="#9f765f"/>
      <polygon points="230.741272 21.436691 229.251282 23.346691 227.331284 22.47669 228.831284 20.56669 230.741272 21.436691" fill="#006695"/>
      <polygon points="229.251282 23.346691 227.761276 25.246691 225.841278 24.38669 227.331284 22.47669 229.251282 23.346691" fill="#006695"/>
    </g>
    <polygon points="226.109741 36.133842 229.403839 37.447945 228.098541 40.658325 224.804443 39.344227 226.109741 36.133842" fill="#01a4de"/>
  </g>
</svg>