<?xml version="1.0" encoding="utf-8"?>
<!-- Generator: Adobe Illustrator 27.6.1, SVG Export Plug-In . SVG Version: 6.00 Build 0)  -->
<svg version="1.1" xmlns="http://www.w3.org/2000/svg" xmlns:xlink="http://www.w3.org/1999/xlink" x="0px" y="0px"
	 viewBox="0 0 230.3 46.5" style="enable-background:new 0 0 230.3 46.5;" xml:space="preserve">
<style type="text/css">
	.st0{enable-background:new    ;}
	.st1{fill:#29282A;}
	.st2{fill:url(#SVGID_1_);}
	.st3{fill:url(#SVGID_00000179637713133122238790000008221779047717914036_);}
	.st4{fill:#01215C;}
	.st5{fill:url(#SVGID_00000044165644337976573910000009741869525870076835_);}
	.st6{fill:url(#SVGID_00000034085859321746593100000001032097911001571984_);}
	.st7{fill:url(#SVGID_00000122682875308465259060000006408389911465830810_);}
	.st8{fill:url(#SVGID_00000055677027641836467100000016685679182697615239_);}
	.st9{fill:url(#SVGID_00000109016862583635876780000002240815514490879376_);}
	.st10{fill:url(#SVGID_00000120523810715781791830000012375291867575561857_);}
	.st11{fill:url(#SVGID_00000025441908633150543390000017576406999794727090_);}
	.st12{fill:url(#SVGID_00000117673642226401315970000016137741334964759727_);}
	.st13{fill:url(#SVGID_00000106868747934444450950000012254586822400314275_);}
	.st14{fill:url(#SVGID_00000075125333298605385190000009330913051930204349_);}
	.st15{fill:url(#SVGID_00000080924767597380304270000009175555157455154072_);}
	.st16{fill:url(#SVGID_00000072255071065076350980000016678485739344129197_);}
	.st17{fill-rule:evenodd;clip-rule:evenodd;fill:#030303;fill-opacity:0.44;}
	.st18{fill-rule:evenodd;clip-rule:evenodd;fill:#030303;}
	.st19{fill-rule:evenodd;clip-rule:evenodd;fill:#E0DBD6;}
	.st20{fill-rule:evenodd;clip-rule:evenodd;fill:#29282A;}
	.st21{fill-rule:evenodd;clip-rule:evenodd;fill:#5A5558;}
	.st22{opacity:0.5;}
</style>
<g id="MCTitles_copy">
	<path d="M226.3,11.4h-1.4l0.9-2.5L224.2,0h-57.4L164,14.6l0.8,8.7h-5.1L158.1,0h-13.9h-2.1h-25.8h-2.5h-11.7h-2.3h-26H72
		c-8.7,0-17.5,0-26.2,0c-0.2,0.6-0.3,1.3-0.5,1.9c-0.1-0.6-0.2-1.3-0.3-1.9c-4.9,0-9.9,0-14.8,0c-0.3,1.9-0.5,3.8-0.8,5.7h-3.5
		l-0.7,4.8l-1.6-4.8h-0.7L21.1,0H5.9l-6,32.8l5.8,13.8h15.1l0.9-6h6.5l2,6c4.8,0,9.5,0,14.3,0c0.1-0.6,0.1-1.2,0.2-1.7
		c0.2,0.6,0.4,1.2,0.6,1.7c9.5,0,19.1,0,28.6,0c0.2-3,0.4-6.1,0.6-9.1l-2.4-14.1c1.1,0,2.2,0,3.4,0h2.2l-0.5,9.2l1.8,14h16.1
		l0.9-23.2h3.5l-0.2,9.1l0,0.1l0.7,14.1h16.4l0.1-23.2h4.2l0.3,23.2h16.3l1.1-14l-0.3-9.2h3l1.1,23.2h24.7h1.7h55.8l5.8-13.8
		L226.3,11.4z"/>
</g>
<g id="MCTitles">
	<g>
		<g class="st0">
			<g>
				<polygon points="19,3 22.9,14.8 22,20.3 18.1,8.7 				"/>
			</g>
			<g>
				<polygon points="21.6,8.7 25.4,20.3 24.5,26 20.7,14.4 				"/>
			</g>
			<g>
				<polygon points="19.8,20.3 23.7,31.7 20.2,31.7 16.1,20.3 				"/>
			</g>
			<g>
				<polygon points="30.5,20.3 34,31.7 30.6,31.7 26.9,20.3 				"/>
			</g>
			<g>
				<polygon points="26.9,20.3 30.6,31.7 29.8,37.6 26.1,26.3 				"/>
			</g>
			<g>
				<path class="st1" d="M26.3,27.2c0.2,0.7,0.5,1.2,0.5,1.9c0.1,1.6,0.1,2.4,0.1,3.1c0.1,2.7,1,3.5,0.4,4.5c-0.5,0.7-1.3,0.9-1.4,1
					c-0.6,0.2-1.2,0.1-1.5,0.1c-0.2,0-0.4,0-0.7-0.1c-0.6-0.2-1-0.6-1.2-0.8L19.4,28c-0.3-0.8,0.3-1.7,1.2-1.7h4.6
					C25.7,26.3,26.2,26.7,26.3,27.2z"/>
			</g>
			<g>
				<polygon points="16.1,20.3 20.2,31.7 18.4,43.5 14.1,32.4 				"/>
			</g>
			<g>
				<path class="st1" d="M14.4,33.2l3.3,8.6c0.3,0.8-0.3,1.7-1.2,1.7H8.6c-0.5,0-0.9-0.3-1.1-0.8l-3.7-8.6c-0.3-0.8,0.3-1.7,1.1-1.7
					h8.3C13.8,32.4,14.3,32.8,14.4,33.2z"/>
			</g>
			<g>
				<polygon points="43.5,3 46.4,14.8 43,43.5 39.9,32.4 				"/>
			</g>
			<g>
				<linearGradient id="SVGID_1_" gradientUnits="userSpaceOnUse" x1="23.3072" y1="2.9997" x2="23.3072" y2="32.4421">
					<stop  offset="0" style="stop-color:#A89F9C"/>
					<stop  offset="1" style="stop-color:#D0C5C0"/>
				</linearGradient>
				<polygon class="st2" points="43.5,3 39.9,32.4 28.8,32.4 30.5,20.3 26.9,20.3 26.1,26.3 18.8,26.3 19.8,20.3 16.1,20.3 
					14.1,32.4 3.1,32.4 8.5,3 19,3 18.1,8.7 21.6,8.7 20.7,14.4 27.8,14.4 28.7,8.7 32.2,8.7 33,3 				"/>
			</g>
			<g>
				<path class="st1" d="M40.1,33.3l2.5,8.6c0.2,0.8-0.4,1.6-1.2,1.6h-8c-0.5,0-1-0.3-1.2-0.9l-2.8-8.6c-0.3-0.8,0.3-1.6,1.2-1.6
					h8.4C39.5,32.4,40,32.8,40.1,33.3z"/>
			</g>
		</g>
		<g class="st0">
			<g>
				<polygon points="71.5,3 73.2,14.8 72.8,20.3 71,8.7 				"/>
			</g>
			<g>
				<polygon points="71,8.7 72.8,20.3 59.3,20.3 56.9,8.7 				"/>
			</g>
			<g>
				<polygon points="56.9,8.7 59.3,20.3 57.7,37.6 55.2,26.3 				"/>
			</g>
			<g>
				<polygon points="69.7,26.3 71.6,37.6 71.2,43.5 69.2,32.4 				"/>
			</g>
			<g>
				<path class="st1" d="M69.4,33.5l1.5,8.6c0.1,0.8-0.5,1.4-1.2,1.4H47.5c-0.6,0-1-0.4-1.2-0.9L44,34c-0.2-0.8,0.4-1.6,1.2-1.6
					h23.1C68.8,32.4,69.3,32.9,69.4,33.5z"/>
			</g>
			<g>
				
					<linearGradient id="SVGID_00000152944733651073468340000016957074153021801136_" gradientUnits="userSpaceOnUse" x1="57.4925" y1="2.9997" x2="57.4925" y2="32.4421">
					<stop  offset="0" style="stop-color:#A89F9C"/>
					<stop  offset="1" style="stop-color:#D0C5C0"/>
				</linearGradient>
				<polygon style="fill:url(#SVGID_00000152944733651073468340000016957074153021801136_);" points="71.5,3 71,8.7 56.9,8.7 
					55.2,26.3 69.7,26.3 69.2,32.4 43.5,32.4 47,3 				"/>
			</g>
		</g>
		<g class="st0">
			<g>
				<polygon points="81.6,8.7 83,20.3 76.2,20.3 74.6,8.7 				"/>
			</g>
			<g>
				<polygon points="99.3,8.7 99.9,20.3 93.2,20.3 92.2,8.7 				"/>
			</g>
			<g>
				<polygon points="99.4,3 100.1,14.8 99.9,20.3 99.3,8.7 				"/>
			</g>
			<g>
				<polygon class="st4" points="91.3,32.4 92.3,43.5 81.7,43.5 80.3,32.4 				"/>
			</g>
			<g>
				<polygon points="92.2,8.7 93.2,20.3 92.3,43.5 91.3,32.4 				"/>
			</g>
			<g>
				
					<linearGradient id="SVGID_00000173878181277363523560000014881312297569978515_" gradientUnits="userSpaceOnUse" x1="87.0024" y1="2.9997" x2="87.0024" y2="32.4421">
					<stop  offset="0" style="stop-color:#0040C8"/>
					<stop  offset="1" style="stop-color:#7DB2FB"/>
				</linearGradient>
				<polygon style="fill:url(#SVGID_00000173878181277363523560000014881312297569978515_);" points="99.4,3 99.3,8.7 92.2,8.7 
					91.3,32.4 80.3,32.4 81.6,8.7 74.6,8.7 75,3 				"/>
				
					<linearGradient id="SVGID_00000038389556267204389320000001859183486004362421_" gradientUnits="userSpaceOnUse" x1="87.0176" y1="31.7422" x2="87.0176" y2="3.7002">
					<stop  offset="0" style="stop-color:#0040C8"/>
					<stop  offset="1" style="stop-color:#7DB2FB"/>
				</linearGradient>
				<polygon style="fill:url(#SVGID_00000038389556267204389320000001859183486004362421_);" points="81,31.7 82.4,8 75.3,8 
					75.6,3.7 98.7,3.7 98.6,8 91.6,8 90.6,31.7 				"/>
			</g>
		</g>
		<g class="st0">
			<g>
				<polygon points="113.4,3 113.5,14.8 113.4,43.5 113.3,32.4 				"/>
			</g>
			<g>
				<polygon class="st4" points="113.3,32.4 113.4,43.5 102.9,43.5 102.3,32.4 				"/>
			</g>
			<g>
				
					<linearGradient id="SVGID_00000047759807924513605980000009777796185844235924_" gradientUnits="userSpaceOnUse" x1="107.8648" y1="2.9997" x2="107.8648" y2="32.4421">
					<stop  offset="0" style="stop-color:#0040C8"/>
					<stop  offset="1" style="stop-color:#7DB2FB"/>
				</linearGradient>
				<polygon style="fill:url(#SVGID_00000047759807924513605980000009777796185844235924_);" points="113.4,3 113.3,32.4 
					102.3,32.4 102.9,3 				"/>
				
					<linearGradient id="SVGID_00000031166132977294566610000008612643301120454536_" gradientUnits="userSpaceOnUse" x1="107.8713" y1="31.7422" x2="107.8713" y2="3.7002">
					<stop  offset="0" style="stop-color:#0040C8"/>
					<stop  offset="1" style="stop-color:#7DB2FB"/>
				</linearGradient>
				<polygon style="fill:url(#SVGID_00000031166132977294566610000008612643301120454536_);" points="103,31.7 103.6,3.7 112.7,3.7 
					112.6,31.7 				"/>
			</g>
		</g>
		<g class="st0">
			<g>
				<polygon points="222.9,8.7 218.5,20.3 204.9,20.3 208.7,8.7 				"/>
			</g>
			<g>
				<polygon points="199.8,20.3 196.3,31.7 194,14.8 197.3,3 				"/>
			</g>
			<g>
				<polygon points="214.2,20.3 210.1,31.7 196.3,31.7 199.8,20.3 				"/>
			</g>
			<g>
				<polygon points="215.2,26.3 211,37.6 210.1,31.7 214.2,20.3 				"/>
			</g>
			<g>
				<polygon points="201.5,32.4 197.9,43.5 197.1,37.6 200.6,26.3 				"/>
			</g>
			<g>
				<polygon class="st4" points="227.2,32.4 222.5,43.5 197.9,43.5 201.5,32.4 				"/>
			</g>
			<g>
				
					<linearGradient id="SVGID_00000012466229802957580930000004191259015273114558_" gradientUnits="userSpaceOnUse" x1="212.2843" y1="2.9997" x2="212.2843" y2="32.4421">
					<stop  offset="0" style="stop-color:#0040C8"/>
					<stop  offset="1" style="stop-color:#7DB2FB"/>
				</linearGradient>
				<polygon style="fill:url(#SVGID_00000012466229802957580930000004191259015273114558_);" points="221.8,3 222.9,8.7 208.7,8.7 
					209.7,14.4 223.9,14.4 227.2,32.4 201.5,32.4 200.6,26.3 215.2,26.3 214.2,20.3 199.8,20.3 197.3,3 				"/>
				
					<linearGradient id="SVGID_00000000188998582909990480000007451251808311941308_" gradientUnits="userSpaceOnUse" x1="212.2666" y1="31.7422" x2="212.2666" y2="3.7002">
					<stop  offset="0" style="stop-color:#0040C8"/>
					<stop  offset="1" style="stop-color:#7DB2FB"/>
				</linearGradient>
				<polygon style="fill:url(#SVGID_00000000188998582909990480000007451251808311941308_);" points="202.1,31.7 201.5,27 216,27 
					214.8,19.6 200.4,19.6 198.1,3.7 221.2,3.7 222,8 207.9,8 209.1,15.1 223.3,15.1 226.4,31.7 				"/>
			</g>
		</g>
		<g class="st0">
			<g>
				<polygon points="194.6,8.7 191.4,20.3 177.8,20.3 180.5,8.7 				"/>
			</g>
			<g>
				<polygon points="196.2,20.3 192.8,31.7 179,31.7 181.8,20.3 				"/>
			</g>
			<g>
				<polygon points="172.1,32.4 169.7,43.5 167.2,14.8 169.4,3 				"/>
			</g>
			<g>
				<polygon class="st4" points="197.8,32.4 194.4,43.5 169.7,43.5 172.1,32.4 				"/>
			</g>
			<g>
				
					<linearGradient id="SVGID_00000179606794199702528180000001155007611713296049_" gradientUnits="userSpaceOnUse" x1="183.5982" y1="2.9997" x2="183.5982" y2="32.4421">
					<stop  offset="0" style="stop-color:#0040C8"/>
					<stop  offset="1" style="stop-color:#7DB2FB"/>
				</linearGradient>
				<polygon style="fill:url(#SVGID_00000179606794199702528180000001155007611713296049_);" points="193.8,3 194.6,8.7 180.5,8.7 
					181.1,14.4 195.4,14.4 196.2,20.3 181.8,20.3 182.5,26.3 197,26.3 197.8,32.4 172.1,32.4 169.4,3 				"/>
				
					<linearGradient id="SVGID_00000171718725054861657380000000815530942924881076_" gradientUnits="userSpaceOnUse" x1="183.582" y1="31.7422" x2="183.582" y2="3.7002">
					<stop  offset="0" style="stop-color:#0040C8"/>
					<stop  offset="1" style="stop-color:#7DB2FB"/>
				</linearGradient>
				<polygon style="fill:url(#SVGID_00000171718725054861657380000000815530942924881076_);" points="172.8,31.7 170.1,3.7 
					193.2,3.7 193.8,8 179.7,8 180.5,15.1 194.8,15.1 195.4,19.6 181,19.6 181.8,27 196.4,27 197,31.7 				"/>
			</g>
		</g>
		<g class="st0">
			<g>
				<polygon points="146.4,32.4 145.1,43.5 143.7,14.8 144.9,3 				"/>
			</g>
			<g>
				<polygon class="st4" points="168.4,32.4 166.2,43.5 145.1,43.5 146.4,32.4 				"/>
			</g>
			<g>
				
					<linearGradient id="SVGID_00000105409562970116877780000006575777982345136004_" gradientUnits="userSpaceOnUse" x1="156.6655" y1="2.9997" x2="156.6655" y2="32.4421">
					<stop  offset="0" style="stop-color:#0040C8"/>
					<stop  offset="1" style="stop-color:#7DB2FB"/>
				</linearGradient>
				<polygon style="fill:url(#SVGID_00000105409562970116877780000006575777982345136004_);" points="155.4,3 157,26.3 167.9,26.3 
					168.4,32.4 146.4,32.4 144.9,3 				"/>
				
					<linearGradient id="SVGID_00000003083009470405298790000001856608270521719738_" gradientUnits="userSpaceOnUse" x1="156.6519" y1="31.7422" x2="156.6519" y2="3.7002">
					<stop  offset="0" style="stop-color:#0040C8"/>
					<stop  offset="1" style="stop-color:#7DB2FB"/>
				</linearGradient>
				<polygon style="fill:url(#SVGID_00000003083009470405298790000001856608270521719738_);" points="147.1,31.7 145.6,3.7 
					154.7,3.7 156.3,27 167.3,27 167.7,31.7 				"/>
			</g>
		</g>
		<g class="st0">
			<g>
				<polygon points="116.9,8.7 116.9,20.3 116.9,14.8 116.9,3 				"/>
			</g>
			<g>
				<polygon points="124,8.7 123.6,20.3 116.9,20.3 116.9,8.7 				"/>
			</g>
			<g>
				<polygon points="141.6,8.7 140.6,20.3 133.8,20.3 134.6,8.7 				"/>
			</g>
			<g>
				<polygon points="124.3,32.4 124,43.5 123.6,20.3 124,8.7 				"/>
			</g>
			<g>
				<polygon class="st4" points="135.4,32.4 134.5,43.5 124,43.5 124.3,32.4 				"/>
			</g>
			<g>
				
					<linearGradient id="SVGID_00000173129976294058238780000005789005233352153736_" gradientUnits="userSpaceOnUse" x1="129.2843" y1="2.9997" x2="129.2843" y2="32.4421">
					<stop  offset="0" style="stop-color:#0040C8"/>
					<stop  offset="1" style="stop-color:#7DB2FB"/>
				</linearGradient>
				<polygon style="fill:url(#SVGID_00000173129976294058238780000005789005233352153736_);" points="141.4,3 141.6,8.7 134.6,8.7 
					135.4,32.4 124.3,32.4 124,8.7 116.9,8.7 116.9,3 				"/>
				
					<linearGradient id="SVGID_00000070081826128549817700000011136303767794352824_" gradientUnits="userSpaceOnUse" x1="129.2688" y1="31.7422" x2="129.2688" y2="3.7002">
					<stop  offset="0" style="stop-color:#0040C8"/>
					<stop  offset="1" style="stop-color:#7DB2FB"/>
				</linearGradient>
				<polygon style="fill:url(#SVGID_00000070081826128549817700000011136303767794352824_);" points="125,31.7 124.7,8 117.6,8 
					117.6,3.7 140.7,3.7 140.9,8 133.9,8 134.7,31.7 				"/>
			</g>
		</g>
	</g>
</g>
<g id="Layer_4">
</g>
<g id="Layer_3">
	<path class="st17" d="M37.2,9.6C37.3,8.8,36.8,8,35.9,8H34c-0.8,0-1.7,0.1-1.7,0.3c-0.1,0.2,0.6,0.3,1.5,0.3h1.4
		c0.8,0,1.5,0.7,1.4,1.6l-0.2,2c-0.1,0.8-0.9,1.6-1.8,1.6h-6.6c-0.8,0-1.6,0.1-1.6,0.3c0,0.2,0.7,0.3,1.6,0.3h6.5h1.8H38h3.1
		c0.8,0,1.6-0.1,1.6-0.3c0-0.2-0.7-0.3-1.6-0.3h-2.8c-0.8,0-1.5-0.7-1.4-1.6L37.2,9.6z"/>
	<path id="Shape_00000171690180785893631880000001502677322111559298_" class="st18" d="M31.3,8.6h2.8c0.8,0,0.8-0.1,0-0.3l-0.7-0.1
		c-0.8-0.2-1.5,0-1.5,0.3C31.9,8.5,31.9,8.5,31.3,8.6z"/>
	<path id="Shape_00000011719630683878771780000016721199206765077911_" class="st18" d="M42.9,14.2c-0.1,0.3-0.9,0.3-1.8,0.1h-0.2
		c-0.8-0.2-0.8-0.4,0-0.4h0.6C42.5,13.8,43,14,42.9,14.2z"/>
	<path id="Shape_00000142898275389869874640000012906454032698860432_" class="st19" d="M31.7,13c-0.8,0-1.5,0.1-1.4,0.3
		c0.1,0.2,0.8,0.3,1.7,0.3h1.8c0.8,0,1.7-0.1,1.7-0.3c0.1-0.2-0.5-0.3-1.4-0.3H31.7z"/>
	<path class="st17" d="M7.6,8.2C7.4,8.4,8.1,8.5,9,8.5h7.2c0.9,0,1.6-0.2,1.6-0.4c0-0.2-0.7-0.4-1.6-0.4h-7C8.4,7.8,7.7,8,7.6,8.2z"
		/>
	<path id="Shape_00000052803202801132984010000000761582888518434990_" class="st19" d="M16,7.5h-3.3"/>
	<path id="Shape_00000091721127186691367450000015934960918594607772_" class="st19" d="M12.5,7.3c-0.8,0-1.5,0.1-1.4,0.3
		C11.3,7.9,12,8,12.9,8h2.3c0.8,0,1.7-0.1,1.8-0.3c0.1-0.2-0.5-0.3-1.4-0.3H12.5z"/>
	<path class="st17" d="M9.2,22.9C9.6,22,9,21.3,8.1,21.3H6.5c-0.9,0-1.6,0.1-1.6,0.3c0,0.2,0.8,0.3,1.6,0.3h0.7
		c0.9,0,1.4,0.7,1.1,1.5l-1.6,4.9C6.3,29.3,6.8,30,7.7,30h5.5c0.9,0,1.6-0.1,1.6-0.3s-0.8-0.3-1.6-0.3H8.6c-0.9,0-1.4-0.7-1.1-1.5
		v-0.1c0.3-0.9,1.2-1.5,2.2-1.5h4.2c0.9,0,1.6-0.1,1.6-0.3c0-0.2-0.8-0.3-1.6-0.3h-4c-0.9,0-1.4-0.7-1.1-1.5L9.2,22.9z"/>
	<path id="Shape_00000088131378022084284970000000713257066300961446_" class="st18" d="M16.3,25.8c0.1-0.3-0.4-0.5-1.2-0.3
		l-0.8,0.2c-0.7,0.2-0.7,0.4,0,0.5l0.4,0.1C15.5,26.2,16.2,26,16.3,25.8z"/>
	<path id="Shape_00000139995550645593923780000012295686905193682094_" class="st18" d="M16.2,29.9c0-0.2-0.7-0.5-1.7-0.5H14
		c-1,0-1,0.2,0,0.5l0.4,0.1C15.3,30.2,16.1,30.2,16.2,29.9z"/>
	<path id="Shape_00000052101746273606822660000001649343174881795502_" class="st19" d="M7.1,20.7c-1,0-1.7,0.2-1.6,0.4
		c0,0.1,0.7,0.4,1.6,0.4s1.6-0.1,1.6-0.4C8.7,20.8,7.9,20.7,7.1,20.7z"/>
	<path id="Shape_00000173159755559176557030000002069392293526145951_" class="st18" d="M16.8,38.2c-0.3-0.3-1.3-0.6-2.2-0.4L13,38
		c-0.9,0.1-0.9,0.3,0,0.4l2.7,0.3C16.6,38.8,17.1,38.7,16.8,38.2z"/>
	<path id="Shape_00000025440454820243536200000006311318722875218878_" class="st20" d="M17,38.2c-0.2-0.4-0.2-1.3,0-2.2l0.2-0.8
		c0.2-0.9,0.5-0.9,0.5,0.1L17.6,37C17.5,37.9,17.2,38.5,17,38.2z"/>
	<path id="Shape_00000080913131068467582100000012026322321920186782_" class="st21" d="M12.5,39.1c-0.7-0.2-0.6-0.3,0.1-0.3
		c0.7,0.1,1.8,0.2,2.4,0.3c0.6,0.1,0.5,0.2-0.1,0.3C14.2,39.4,13.1,39.3,12.5,39.1z"/>
	<path id="Shape_00000109708571931750715020000001915385411410529975_" class="st18" d="M20,31c-0.2-0.3,0.3-0.5,1.2-0.3l2.1,0.2
		c0.9,0.1,0.9,0.2,0,0.3l-1.2,0.1C21.2,31.4,20.2,31.3,20,31z"/>
	<path id="Shape_00000011727565279706945910000016602780549712844711_" class="st18" d="M42.6,39.4c-0.2-0.3-1.1-0.6-2.1-0.6
		l-3.6,0.3c-0.9,0.1-0.9,0.2,0,0.3l4.5,0.5C42.2,39.9,42.8,39.7,42.6,39.4z"/>
	<path id="Shape_00000118398631265030046820000007305768173978614975_" class="st20" d="M42.4,39.5c-0.2-0.1-0.2-0.9,0-1.6
		s0.5-0.6,0.5,0.3C42.8,39.1,42.6,39.7,42.4,39.5z"/>
	<path class="st17" d="M64.1,29.4l-0.2,2.1c-0.1,0.9-0.1,2.3,0,3.2l0.9,6.5c0.1,0.9,0.4,1.6,0.6,1.6s0.3-0.7,0.2-1.6l-1-6.6
		c-0.1-0.9-0.1-2.3,0-3.2l0.1-1.1c0.1-0.9,0-1.8-0.1-2.1C64.5,27.9,64.3,28.4,64.1,29.4z"/>
	<path class="st17" d="M47.2,18c0.3-0.2-0.1-0.3-1-0.3c-0.9,0-1.6,0.2-1.6,0.4s0.4,0.3,1,0.3C46.2,18.5,46.9,18.3,47.2,18z"/>
	<path id="Shape_00000075149514371659881320000011679851644184105395_" class="st18" d="M45,39.5c0-0.4,0.6-0.7,1.4-0.6
		c0.9,0.1,0.9,0.4,0.1,0.9C45.7,40.1,45.1,39.9,45,39.5z"/>
	<path id="Shape_00000078013958721087454950000006371702936006026888_" class="st18" d="M64.7,34.6v0.6c0,0.9-0.2,0.9-0.4,0
		l-0.2-0.7c-0.2-0.9-0.3-2.2-0.1-3.1l0,0c0.1-0.9,0.4-0.9,0.5,0C64.6,32.3,64.7,33.7,64.7,34.6z"/>
	<path id="Shape_00000121981764295804938400000001314975488028872840_" class="st18" d="M57.2,14.1c0,0.3-0.6,0.2-1.3-0.3l-0.2-0.1
		c-0.7-0.5-0.6-0.7,0.1-0.5C56.5,13.2,57.2,13.7,57.2,14.1z"/>
	<g id="Shape_00000093889512768599199690000007952977311203492247_" transform="translate(121.000000, 30.000000)" class="st22">
		<path class="st18" d="M-70.6,3.9l1.7-0.4c0.9-0.2,1.4-0.9,1.1-1.3s-1.3-0.9-2.1-0.9h-0.5c-1,0-1.8,0.3-1.9,0.7
			c-0.1,0.4-0.1,1.1,0,1.5C-72.3,4-71.4,4.1-70.6,3.9z"/>
	</g>
	<path id="Shape_00000028324780774408110250000000890492844243014793_" class="st18" d="M49.2,34.3c0.2,0.5-0.1,0.3-0.5-0.4
		c-0.4-0.6-0.6-1.6-0.3-1.9c0.2-0.3,1-0.6,1.5-0.6c0.6,0,0.6,0.5,0.1,1.1C49.6,33,49.2,33.9,49.2,34.3z"/>
	<path id="Shape_00000127727738513013197720000008652642080142767503_" class="st21" d="M63.8,37.6L63.8,37.6c0.3,0.9,0.5,1,0.5,0.2
		s-0.1-1.7-0.3-2.3c-0.2-0.6-0.4-0.6-0.5-0.2C63.4,35.8,63.5,36.9,63.8,37.6z"/>
	<path id="Shape_00000110460927220082722280000011606880914416453772_" class="st21" d="M52.4,34c0.7-0.4,1.2-1.2,0.9-1.7"/>
	<path id="Shape_00000017477902274531379480000011703587466748287395_" class="st19" d="M44.9,32.3c-0.9,0-1.5,0.2-1.5,0.3
		c0.1,0.1,0.9,0.3,1.7,0.3h0.7c0.9,0,1.7-0.1,1.7-0.3c0.1-0.2-0.6-0.3-1.5-0.3H44.9z"/>
	<path id="Shape_00000101072203615179096090000010135163004650505651_" class="st19" d="M66.7,32.3c-0.9,0-1.5,0.2-1.5,0.3
		c0.1,0.1,0.9,0.3,1.7,0.3h0.3c0.9,0,1.6-0.1,1.7-0.3c0.1-0.2-0.6-0.3-1.5-0.3H66.7z"/>
	<path id="Shape_00000106856329570576354460000014003701223834536347_" class="st19" d="M50.8,30.7c-0.9,0-1.6,0.2-1.5,0.3
		s0.7,0.3,1.6,0.3s1.5-0.1,1.6-0.3C52.5,30.8,51.8,30.7,50.8,30.7L50.8,30.7z"/>
	<path id="Shape_00000014606263312696278040000002339097049578627254_" class="st19" d="M49.6,11.2c-0.7-0.1-1.3,0-1.3,0.1
		c0.1,0.2,0.7,0.4,1.5,0.5l1,0.1c0.7,0.1,1.5,0.1,1.6-0.1c0.1-0.2-0.5-0.4-1.2-0.5L49.6,11.2z"/>
	<path id="Shape_00000128459849775998889610000001024423687237920403_" class="st19" d="M55.6,32.3c-0.9,0-1.5,0.1-1.3,0.3
		c0.1,0.1,1,0.3,1.8,0.3h5.1c0.9,0,1.7-0.1,1.8-0.3c0.1-0.2-0.4-0.3-1.3-0.3H55.6z"/>
	<path class="st17" d="M47.4,11.9c0.3,0.2,1.4,0.5,2.3,0.6l5.4,0.9c0.9,0.3,1.5,0.5,1.6,0.3c0.1-0.2-0.5-0.5-1.4-0.9l-6.9-1.2
		C47.5,11.7,47.1,11.7,47.4,11.9z"/>
	<path id="Shape_00000171678962521541443740000010727762468036254380_" class="st19" d="M59.5,8c-0.9,0-1.4,0.1-1.3,0.3
		c0.2,0.1,1.1,0.3,1.9,0.3h8.2c0.9,0,1.8-0.1,1.9-0.3C70.4,8.1,69.9,8,69,8H59.5z"/>
	<path class="st17" d="M45.5,39.2c0,0.2,0.7,0.3,1.5,0.3h0.1c0.8,0,1.5-0.1,1.5-0.3s-0.7-0.3-1.5-0.3H47
		C46.2,38.8,45.5,39,45.5,39.2z"/>
</g>
</svg>
