<?xml version="1.0" encoding="utf-8"?>
<!-- Generator: Adobe Illustrator 27.6.1, SVG Export Plug-In . SVG Version: 6.00 Build 0)  -->
<svg version="1.1" id="MrBrose" xmlns="http://www.w3.org/2000/svg" xmlns:xlink="http://www.w3.org/1999/xlink" x="0px" y="0px"
	 viewBox="0 0 243.1 50" style="enable-background:new 0 0 243.1 50;" xml:space="preserve">
<style type="text/css">
	.st0{fill:#3D3938;}
	.st1{fill:#D0C5C1;}
</style>
<g>
	<polygon points="241.1,26.1 239,26.1 240.4,22.6 238.5,12.7 236.7,12.7 237.9,9.6 236,0 175.8,0 175.2,3.1 174.2,3.1 174,0 
		138.7,0 138.5,3.1 137.5,3.1 137.5,0 108,0 105.6,0 78.4,0 76.4,0 32.6,0 31.6,6.3 27.9,6.3 27.2,11.1 25.6,6.3 25.1,6.3 22.9,0 
		7,0 0,36.3 6.2,50 22.1,50 23.2,43.3 29.6,43.3 32,50 76.1,50 78.1,50 105.5,50 107.9,50 137.5,50 137.7,46.6 138.8,46.6 138.9,50 
		174.3,50 175,46.6 175.9,46.6 176.2,50 236.9,50 243.1,36.3 	"/>
	<g>
		<polygon class="st0" points="14.9,35.9 19.4,47 8.3,47 3.3,35.9 		"/>
	</g>
	<g>
		<polygon class="st1" points="46.3,3 42.1,35.9 30.4,35.9 32.4,22.3 28.7,22.3 27.6,29.1 19.9,29.1 21.1,22.3 17.3,22.3 14.9,35.9 
			3.3,35.9 9.6,3 20.7,3 19.6,9.3 23.3,9.3 22.2,15.7 29.7,15.7 30.7,9.3 34.4,9.3 35.3,3 		"/>
	</g>
	<g>
		<polygon class="st0" points="42.1,35.9 45.4,47 34.3,47 30.4,35.9 		"/>
	</g>
	<g>
		<polygon class="st0" points="57.6,35.9 60.3,47 49.1,47 45.9,35.9 		"/>
	</g>
	<g>
		<path class="st1" d="M74.7,15.7h-3.8L70.6,19h3.8l-1.3,16.9H61.4l1.3-13.6H59l-1.4,13.6H45.9L50,3l25.7,0L74.7,15.7z M63.4,15.7
			L64,9.3h-3.7l-0.7,6.4L63.4,15.7"/>
	</g>
	<g>
		<polygon class="st0" points="73.1,35.9 75.1,47 64,47 61.4,35.9 		"/>
	</g>
	<g>
		<path class="st1" d="M104.7,15.7h-3.8l-0.1,3.3h3.8l-0.5,16.9H76.9L79.3,3L105,3L104.7,15.7z M92.8,29.1l0.3-6.7h-3.8l-0.4,6.7
			H92.8 M93.4,15.7l0.3-6.4H90l-0.3,6.4H93.4"/>
	</g>
	<g>
		<polygon class="st0" points="104.1,35.9 104.8,47 78.8,47 76.9,35.9 		"/>
	</g>
	<g>
		<polygon class="st0" points="239.8,35.9 234.8,47 208.8,47 212.6,35.9 		"/>
	</g>
	<g>
		<polygon class="st1" points="233.4,3 234.6,9.3 219.8,9.3 220.9,15.7 235.9,15.7 237.2,22.3 222,22.3 223.1,29.1 238.5,29.1 
			239.8,35.9 212.6,35.9 207.7,3 		"/>
	</g>
	<g>
		<polygon class="st0" points="208.8,35.9 205.1,47 179.1,47 181.6,35.9 		"/>
	</g>
	<g>
		<polygon class="st1" points="204.1,3 205,9.3 190.1,9.3 190.9,15.7 205.9,15.7 208.8,35.9 181.6,35.9 181,29.1 196.3,29.1 
			195.5,22.3 180.3,22.3 178.4,3 		"/>
	</g>
	<g>
		<path class="st1" d="M171.3,6.1l3.7,0l2.4,26.3h-3.9l0.3,3.5h-31l-0.1-3.5h-3.8l-0.8-26.3h3.7L141.7,3l29.4,0L171.3,6.1z
			 M168.4,15.7l-0.5-6.4l-7.4,0l0.4,6.4h-7.5l-0.3-6.4l-7.4,0l0.3,6.4h7.5l0.2,3.3h-3.8l0.5,10h3.8l-0.2-3.4h7.6l0.2,3.4h3.8
			l-0.7-10h-3.8l-0.2-3.3L168.4,15.7"/>
	</g>
	<g>
		<polygon class="st0" points="173.9,35.9 171.7,47 141.9,47 142.8,35.9 		"/>
	</g>
	<g>
		<polygon class="st0" points="119.6,35.9 119.7,47 108.5,47 108,35.9 		"/>
	</g>
	<g>
		<path class="st1" d="M134.7,15.7h-3.8L131,19h3.8l0.4,16.9h-11.6l0-13.6h-3.8l0,13.6H108L108.7,3l25.7,0L134.7,15.7z M123.4,15.7
			l0-6.4h-3.7l0,6.4H123.4"/>
	</g>
	<g>
		<polygon class="st0" points="135.1,35.9 134.5,47 123.4,47 123.5,35.9 		"/>
	</g>
</g>
</svg>
