<?xml version="1.0" encoding="UTF-8"?>
<svg id="Layer_1" data-name="Layer 1" xmlns="http://www.w3.org/2000/svg" xmlns:xlink="http://www.w3.org/1999/xlink" viewBox="0 0 398.857705 400">
  <defs>
    <linearGradient id="linear-gradient" x1="267.44192" y1="213.057344" x2="291.204822" y2="367.762513" gradientTransform="translate(60.974412 433.932891) rotate(-8.732474) scale(1 -1)" gradientUnits="userSpaceOnUse">
      <stop offset=".452769" stop-color="#764c2f"/>
      <stop offset="1" stop-color="#8b603d"/>
    </linearGradient>
    <linearGradient id="linear-gradient-2" x1="327.416195" y1="191.268256" x2="327.416195" y2="387.812069" gradientTransform="translate(-40.047814 374.066614) rotate(6.197393) scale(1 -1)" gradientUnits="userSpaceOnUse">
      <stop offset=".294788" stop-color="#8b603d"/>
      <stop offset="1" stop-color="#a97d52"/>
    </linearGradient>
  </defs>
  <g id="brush-outline">
    <polygon points="352.681746 200.85483 332.816401 178.152659 398.857705 60.53408 359.747333 0 306.490657 11.907103 254.247674 104.6297 240.600651 96.262955 227.906801 112.338301 191.882896 96.066268 76.412739 243.78546 191.262577 376.95741 242.295181 400 357.765338 252.288373 335.433845 226.393827 352.681746 200.85483" fill="#231f20"/>
  </g>
  <g id="brush">
    <g>
      <polygon points="303.330197 227.493156 276.473495 229.361383 251.068301 200.458679 277.925004 198.590452 303.330197 227.493156" fill="#838383"/>
      <polygon points="306.456379 237.431 270.836485 228.663672 212.18133 156.57851 247.801224 165.345868 306.456379 237.431" fill="#818181"/>
    </g>
    <polygon points="391.628527 380.709762 339.97584 373.652183 347.205017 323.224974 398.857705 330.282554 391.628527 380.709762" fill="#0da4de"/>
    <polygon points="60.251343 220.116271 14.893572 234.656422 0 190.374931 45.357771 175.83478 60.251343 220.116271" fill="#0da4de"/>
    <g>
      <polygon points="235.237159 371.316145 205.518099 357.898609 106.470563 243.056928 136.189623 256.474434 235.237159 371.316145" fill="#193561"/>
      <polygon points="136.189623 256.474434 106.470563 243.056928 198.943519 124.759018 228.662578 138.176553 136.189623 256.474434" fill="#989898"/>
      <polygon points="228.662578 138.176553 327.710114 253.018205 235.237159 371.316145 136.189623 256.474434 228.662578 138.176553" fill="#a7a6a6"/>
    </g>
    <g>
      <polygon points="279.520009 238.29963 260.167184 244.691619 230.322831 198.522841 249.675656 192.130852 279.520009 238.29963" fill="#664629"/>
      <path d="m261.687486,181.757615c-8.25469.327978-16.50938.65643-24.764071.984408,28.242019-50.13664,56.484038-100.273724,84.726294-150.410365,9.12205-2.036427,18.243863-4.072781,27.365913-6.109208l-87.328136,155.535164Z" fill="url(#linear-gradient)"/>
      <polygon points="371.736468 61.371564 284.408333 216.90627 261.687486 181.757408 349.015621 26.222701 371.736468 61.371564" fill="url(#linear-gradient-2)"/>
    </g>
    <g>
      <polygon points="294.895368 235.482869 267.018591 218.567261 217.741036 159.94204 245.617813 176.857648 294.895368 235.482869" fill="#674529"/>
      <path d="m245.617577,176.857648c-8.692034-5.476492-17.384541-10.952984-26.076575-16.429477l26.510137-33.562486c7.886848,4.836788,15.77417,9.673576,23.661018,14.510364l-24.09458,35.481598Z" fill="#8b603d"/>
      <path d="m323.410432,202.68411c-8.405988,12.432389-16.811975,24.865251-25.217963,37.29764-17.524964-21.04121-35.049928-42.082892-52.574892-63.124102l24.09458-35.481598,53.698275,61.30806Z" fill="#a97d52"/>
    </g>
    <g>
      <polygon points="302.932599 224.297185 278.226647 195.635391 255.124988 225.080253 279.830865 253.8986 304.536816 282.560394 327.638475 252.958903 302.932599 224.297185" fill="#818285"/>
      <polygon points="279.830878 253.898656 256.729187 283.500105 232.023271 254.681767 255.124962 225.080288 279.830878 253.898656" fill="#c2a78b"/>
      <polygon points="279.830865 253.8986 256.729206 283.500091 233.627472 313.101582 210.525814 342.546444 235.23169 371.364791 258.333424 341.7633 281.435082 312.161809 304.536816 282.560394 279.830865 253.8986" fill="#0c80b2"/>
      <polygon points="253.520771 166.973673 228.814819 138.155251 205.71316 167.756742 230.419036 196.418536 255.124988 225.080253 278.226647 195.635391 253.520771 166.973673" fill="#939598"/>
      <polygon points="230.419036 196.418536 207.317378 226.020026 184.215644 255.621442 208.761265 284.283235 232.023254 254.681744 255.124988 225.080253 230.419036 196.418536" fill="#ad8568"/>
      <polygon points="205.713131 167.756786 230.419046 196.418537 207.317356 226.020016 182.61144 197.358265 205.713131 167.756786" fill="#c2a78b"/>
      <polygon points="160.953694 285.222945 184.215665 255.621466 208.7613 284.283217 185.659609 313.884696 160.953694 285.222945" fill="#0c80b2"/>
      <g>
        <polygon points="232.023254 254.681744 208.761265 284.283235 185.659606 313.884651 210.525814 342.546444 233.627472 313.101582 256.729206 283.500091 232.023254 254.681744" fill="#3aa6cd"/>
        <polygon points="182.611426 197.358233 159.34921 226.803095 136.247778 256.404586 160.95373 285.222933 184.215644 255.621442 207.317378 226.020026 182.611426 197.358233" fill="#3aa6cd"/>
      </g>
    </g>
    <g>
      <polygon points="228.679127 138.187162 205.594693 167.778505 175.848447 154.299712 198.932881 124.708368 228.679127 138.187162" fill="#6e6f72"/>
      <polygon points="205.594693 167.778505 182.355416 197.369849 152.76425 183.891055 175.848447 154.299712 205.594693 167.778505" fill="#9f7660"/>
      <polygon points="152.764225 183.891024 129.524978 213.48239 106.440547 243.073757 136.186804 256.397559 159.271235 226.96116 182.35544 197.369793 152.764225 183.891024" fill="#046696"/>
    </g>
    <polygon points="137.358159 9.761833 188.393127 30.121023 168.170342 79.858971 117.135373 59.499841 137.358159 9.761833" fill="#0da4de"/>
  </g>
</svg>