<?xml version="1.0" encoding="UTF-8"?>
<svg id="Layer_1" data-name="Layer 1" xmlns="http://www.w3.org/2000/svg" viewBox="0 0 215.13 160.89">
  <defs>
    <style>
      .cls-1 {
        fill: #7f89a2;
      }
    </style>
  </defs>
  <g id="Layer_2" data-name="Layer 2">
    <g id="Outlined_Mnemonics_Logos" data-name="Outlined Mnemonics Logos">
      <g id="Ps">
        <path class="cls-1" d="m0,155.82V2.53C0,1.49.45.89,1.49.89c2.53,0,4.92,0,8.34-.15,3.58-.15,7.3-.15,11.32-.3,4.02-.15,8.34-.15,12.96-.3,4.62-.15,9.09-.15,13.56-.15,12.22,0,22.35,1.49,30.69,4.62,7.45,2.53,14.3,6.7,19.96,12.22,4.77,4.77,8.49,10.58,10.87,16.98,2.23,6.26,3.43,12.66,3.43,19.37,0,12.81-2.98,23.39-8.94,31.73-5.96,8.34-14.3,14.6-23.98,18.17-10.13,3.72-21.3,5.07-33.52,5.07-3.58,0-5.96,0-7.45-.15s-3.58-.15-6.41-.15v47.82c.15,1.04-.6,1.94-1.64,2.09H1.79c-1.19,0-1.79-.6-1.79-1.94ZM32.48,29.65v50.05c2.09.15,4.02.3,5.81.3h7.9c5.81,0,11.62-.89,17.13-2.68,4.77-1.34,8.94-4.17,12.22-7.9,3.13-3.72,4.62-8.79,4.62-15.34.15-4.62-1.04-9.24-3.43-13.26-2.53-3.87-6.11-6.85-10.43-8.49-5.51-2.23-11.47-3.13-17.58-2.98-3.87,0-7.3,0-10.13.15-2.98-.15-5.07,0-6.11.15h0Z"/>
        <path class="cls-1" d="m205.58,70.61c-4.47-2.38-9.24-4.02-14.3-5.07-5.51-1.19-11.02-1.94-16.68-1.94-2.98-.15-6.11.3-8.94,1.04-1.94.45-3.58,1.49-4.62,2.98-.74,1.19-1.19,2.68-1.19,4.02s.6,2.68,1.49,3.87c1.34,1.64,3.13,2.98,5.07,4.02,3.43,1.79,7,3.43,10.58,4.92,8.04,2.68,15.79,6.41,22.94,10.87,4.92,3.13,8.94,7.3,11.77,12.36,2.38,4.77,3.58,9.98,3.43,15.34.15,7-1.94,14-5.81,19.81-4.17,5.96-9.98,10.58-16.68,13.26-7.3,3.13-16.24,4.77-26.96,4.77-6.85,0-13.56-.6-20.26-1.94-5.21-.89-10.43-2.53-15.2-4.77-1.04-.6-1.79-1.64-1.64-2.83v-25.92c0-.45.15-1.04.6-1.34.45-.3.89-.15,1.34.15,5.81,3.43,11.92,5.81,18.47,7.3,5.66,1.49,11.62,2.23,17.58,2.23s9.68-.74,12.36-2.09c2.38-1.04,4.02-3.58,4.02-6.26,0-2.09-1.19-4.02-3.58-5.96-2.38-1.94-7.3-4.17-14.6-7-7.6-2.68-14.6-6.26-21.15-10.73-4.62-3.28-8.49-7.6-11.32-12.66-2.38-4.77-3.58-9.98-3.43-15.2,0-6.41,1.79-12.51,5.07-18.03,3.72-5.96,9.24-10.73,15.64-13.71,7-3.58,15.79-5.21,26.37-5.21,6.11,0,12.36.45,18.47,1.34,4.47.6,8.79,1.79,12.81,3.43.6.15,1.19.74,1.49,1.34.15.6.3,1.19.3,1.79v24.28c0,.6-.3,1.19-.74,1.49-1.34.3-2.09.3-2.68,0Z"/>
      </g>
    </g>
  </g>
</svg>