<?xml version="1.0" encoding="utf-8"?>
<!-- Generator: Adobe Illustrator 27.6.1, SVG Export Plug-In . SVG Version: 6.00 Build 0)  -->
<svg version="1.1" id="Layer_1" xmlns="http://www.w3.org/2000/svg" xmlns:xlink="http://www.w3.org/1999/xlink" x="0px" y="0px"
	 viewBox="0 0 238.2 53.7" style="enable-background:new 0 0 238.2 53.7;" xml:space="preserve">
<style type="text/css">
	.st0{fill:#030303;}
	.st1{fill:url(#SVGID_1_);}
	.st2{fill:url(#SVGID_00000177470642541166057780000016321284444822417343_);}
	.st3{fill:url(#SVGID_00000069358148946718094900000013604970776138411413_);}
	.st4{fill:url(#SVGID_00000039123579816943259100000011055910106816612246_);}
	.st5{fill:url(#SVGID_00000046297255529149139720000010328319192837428402_);}
	.st6{fill:url(#SVGID_00000066514291772816370930000006242849818076920764_);}
	.st7{fill:url(#SVGID_00000127034113502622917680000012098744604996176806_);}
	.st8{fill:url(#SVGID_00000106846385606086771100000011987274241796050597_);}
	.st9{fill:url(#SVGID_00000045604144967750123520000002427478768815997093_);}
	.st10{fill:#29282A;}
	.st11{opacity:0.44;}
	.st12{opacity:0.5;}
	.st13{fill:#5A5558;}
	.st14{fill:#DFDBD5;}
	.st15{fill:#010101;}
	.st16{fill:#534C4B;}
	.st17{fill:#D8D4CE;}
</style>
<path class="st0" d="M10.3,40L0,30.4L9.7,0.3h11.5l5.2,7.1l0.5-1.9h3.2l1.3-5.2h11.8l0.5,0.8l0.2-0.8l12-0.1l0.4,0.9l0.1-0.9h12.1
	l2.1,5.3h0.2l0.3,0.8L72,0.2h12.3l0.2,0.7V0.2h25.1l1.3,11.4l-0.3,6.8h-0.5l0.4,3.3l-0.3,7.2h-0.6l0.5,3.5l-0.3,7.6H84.9l-0.3-0.7
	V40H72.5l-2.8-5.7L68.9,40h-12l-0.5-0.8L56.3,40H44.5l-0.6-0.8L43.7,40H32l-4.9-5.7h-3l-0.7-0.7L21.7,40L10.3,40z M147.4,39.5
	l-0.1,0.4h-12.5l-1-28.4l1-11.4H160l0.1,0.6l0.2-0.6h24.9l0.1,0.8l0.4-0.8h24.7l0.2,0.8l0.5-0.9h24.5l2.3,7.3l-4.8,5.8v0.1
	c0.3,1.1,0.7,2.3,1,3.4c0.2,0.8,1.1,3.5,1.1,3.5l0.8,2.7l0.5,1.8c0.2,0.8,0.5,1.5,0.7,2.3l0.7,2.3l0.3,1l-9.7,9.6h-11.7l-4.5-18.1
	l-5.1,7h-3.6l0.3,1.4l-6.8,9.8h-11.9l-0.1-0.8l-0.5,0.8h-12l-0.1-0.8l-0.4,0.8h-12.2l-0.1-0.7l-0.2,0.7h-12.3
	C147.3,39.9,147.4,39.5,147.4,39.5z"/>
<path class="st0" d="M108.5,30l1.1-29.8h25.3l0.2,7l-0.8,11.2h-11.7l-0.1,3.7l13.1-0.1l0.2,8l-1,10h-25.1L108.5,30z"/>
<linearGradient id="SVGID_1_" gradientUnits="userSpaceOnUse" x1="22.05" y1="23.418" x2="22.05" y2="50.959" gradientTransform="matrix(1 0 0 -1 0 53.09)">
	<stop  offset="0" style="stop-color:#D9CDC9"/>
	<stop  offset="1" style="stop-color:#A79D9A"/>
</linearGradient>
<path class="st1" d="M21.6,7.3L20,12.7h6.9l1.5-5.4h3.1l1.3-5.2h9.1l-6.4,27.6h-9.8l3-11.7h-3.6l-1.5,5.7h-6.3l1.5-5.7h-3.5
	l-3.5,11.7H2.2L11,2.2h8.9l-1.4,4.9L21.6,7.3z"/>
<linearGradient id="SVGID_00000106846509681349475580000010369898136868711870_" gradientUnits="userSpaceOnUse" x1="46.9" y1="23.361" x2="46.9" y2="50.904" gradientTransform="matrix(1 0 0 -1 0 53.09)">
	<stop  offset="0" style="stop-color:#D9CDC9"/>
	<stop  offset="1" style="stop-color:#A79D9A"/>
</linearGradient>
<path style="fill:url(#SVGID_00000106846509681349475580000010369898136868711870_);" d="M54.5,2.2l-5.4,27.5h-9.8l6.1-27.5
	L54.5,2.2z"/>
<linearGradient id="SVGID_00000010268208266346124160000015387287278255034003_" gradientUnits="userSpaceOnUse" x1="67.75" y1="23.434" x2="67.75" y2="50.998" gradientTransform="matrix(1 0 0 -1 0 53.09)">
	<stop  offset="0" style="stop-color:#D9CDC9"/>
	<stop  offset="1" style="stop-color:#A79D9A"/>
</linearGradient>
<path style="fill:url(#SVGID_00000010268208266346124160000015387287278255034003_);" d="M67.7,20.8l0.8-5.7L65,15l-2.4,14.7h-9.8
	L58,2.1h9.1l-0.8,5.1l3.1,0.1l-0.8,5.3l3.5,0.1l1.5-10.6h9.1l-3.2,27.5l-9.8,0.1l1.2-8.8L67.7,20.8z"/>
<linearGradient id="SVGID_00000111150237942432068120000010181009720864639892_" gradientUnits="userSpaceOnUse" x1="95.6" y1="23.445" x2="95.6" y2="51.024" gradientTransform="matrix(1 0 0 -1 0 53.09)">
	<stop  offset="0" style="stop-color:#D9CDC9"/>
	<stop  offset="1" style="stop-color:#A79D9A"/>
</linearGradient>
<path style="fill:url(#SVGID_00000111150237942432068120000010181009720864639892_);" d="M106.9,24l-0.2,5.6H83.3l2.9-27.5h21.7
	l-0.2,4.8L94.9,7l-0.4,5.6h12.9l-0.2,5.3H94l-0.4,6L106.9,24z"/>
<linearGradient id="SVGID_00000098902309771470843180000008237330647048925624_" gradientUnits="userSpaceOnUse" x1="224.5" y1="23.49" x2="224.5" y2="51.146" gradientTransform="matrix(1 0 0 -1 0 53.09)">
	<stop  offset="0" style="stop-color:#D9CDC9"/>
	<stop  offset="1" style="stop-color:#A79D9A"/>
</linearGradient>
<path style="fill:url(#SVGID_00000098902309771470843180000008237330647048925624_);" d="M234.2,1.9l1.6,4.9h-6.3V7
	c0.3,1.1,0.5,2.2,0.9,3.3c0.3,1.1,0.6,2.3,1,3.4c0.3,1.2,0.7,2.3,1,3.5c0.4,1.2,0.7,2.4,1.1,3.5c0.2,0.7,0.4,1.4,0.7,2.2
	c0.2,0.7,0.5,1.5,0.7,2.2c0.2,0.7,0.4,1.5,0.7,2.2c0.2,0.8,0.4,1.5,0.7,2.3h-9.9l-6.2-22.8h-6.3l-1.2-4.9
	C212.7,1.9,234.2,1.9,234.2,1.9z"/>
<linearGradient id="SVGID_00000024687789173640152910000006719490026884258694_" gradientUnits="userSpaceOnUse" x1="199.95" y1="23.49" x2="199.95" y2="51.133" gradientTransform="matrix(1 0 0 -1 0 53.09)">
	<stop  offset="0" style="stop-color:#D9CDC9"/>
	<stop  offset="1" style="stop-color:#A79D9A"/>
</linearGradient>
<path style="fill:url(#SVGID_00000024687789173640152910000006719490026884258694_);" d="M211.4,12.4l1.4,5.5h-13.3l2.5,11.7h-9.9
	l-5-27.6h21.8l1.2,4.9h-12.9l1.2,5.5H211.4z"/>
<linearGradient id="SVGID_00000136396965083151805420000016772218700306100869_" gradientUnits="userSpaceOnUse" x1="175" y1="23.49" x2="175" y2="51.09" gradientTransform="matrix(1 0 0 -1 0 53.09)">
	<stop  offset="0" style="stop-color:#D9CDC9"/>
	<stop  offset="1" style="stop-color:#A79D9A"/>
</linearGradient>
<path style="fill:url(#SVGID_00000136396965083151805420000016772218700306100869_);" d="M173.5,20.7l1.2,8.9h-9.9L161.7,2h21.8
	l4.8,27.6h-9.9l-1.3-8.9H173.5z M179.9,9.9l-0.6-3.5H175l0.4,3.2H172l-0.4-3.2h-4.2l0.4,3.5h3.8l0.2,1.3h-1.9l0.7,5.4h2.3l-0.2-1.8
	h3.4l0.3,1.8h2.3l-0.8-5.4H176l-0.2-1.3H179.9"/>
<linearGradient id="SVGID_00000036215497908270532820000000535740859181230996_" gradientUnits="userSpaceOnUse" x1="148.9" y1="23.461" x2="148.9" y2="51.061" gradientTransform="matrix(1 0 0 -1 0 53.09)">
	<stop  offset="0" style="stop-color:#D9CDC9"/>
	<stop  offset="1" style="stop-color:#A79D9A"/>
</linearGradient>
<path style="fill:url(#SVGID_00000036215497908270532820000000535740859181230996_);" d="M156.4,15.3h3.3l1.4,14.3h-9.8L150.4,18
	l-3.6-0.1l0.8,11.7h-9.8L136.7,2h21.7l1,10.2h-3.2L156.4,15.3L156.4,15.3z M150,12.6l-0.4-5.7h-3.5l0.4,5.7H150"/>
<linearGradient id="SVGID_00000078737030320595916140000000824731468012218041_" gradientUnits="userSpaceOnUse" x1="122.15" y1="23.453" x2="122.15" y2="51.053" gradientTransform="matrix(1 0 0 -1 0 53.09)">
	<stop  offset="0" style="stop-color:#D9CDC9"/>
	<stop  offset="1" style="stop-color:#A79D9A"/>
</linearGradient>
<path style="fill:url(#SVGID_00000078737030320595916140000000824731468012218041_);" d="M120.6,6.9h12.6L133.1,2l-21.7,0.1l-1,27.5
	h23.5l-0.2-5.6h-13.4L120.6,6.9z"/>
<path class="st10" d="M3.7,29.7c-0.8,0-1,0.5-0.4,1l6.7,6.4c0.6,0.6,1.8,1,2.6,1h5.7c0.8,0,1-0.5,0.5-1.1l-5.9-6.3
	c-0.6-0.6-1.7-1.1-2.5-1.1L3.7,29.7z M27.2,29.7c-0.8,0-1.1,0.5-0.5,1.1l5.2,6.2c0.5,0.6,1.6,1.1,2.5,1.1h6c0.8,0,1.1-0.5,0.6-1.2
	l-4.5-6.1c-0.5-0.7-1.6-1.2-2.4-1.2C34.1,29.6,27.2,29.7,27.2,29.7z"/>
<path class="st10" d="M18.8,23.7c-0.8,0-1.1,0.5-0.5,1.1l5.8,6.5c0.5,0.6,1.5,1.1,2,1.1c0.6,0,0.7-0.6,0.2-1.3l-0.2-0.3
	c-0.5-0.7-0.7-1.9-0.5-2.7s0-2-0.5-2.6l-0.6-0.7c-0.5-0.6-1.6-1.2-2.4-1.2C22.1,23.6,18.8,23.7,18.8,23.7z M40.7,29.7
	c-0.8,0-1.1,0.5-0.6,1.2l4.4,6c0.5,0.7,1.6,1.2,2.4,1.2h5.9c0.8,0,1.1-0.6,0.7-1.3l-3.7-5.9c-0.4-0.7-1.5-1.3-2.3-1.3
	C47.5,29.6,40.7,29.7,40.7,29.7z M54.3,29.7c-0.8,0-1.1,0.6-0.7,1.3l3.6,5.8c0.4,0.7,1.5,1.3,2.3,1.3h5.8c0.8,0,1.2-0.6,0.8-1.3
	l-2.8-5.7c-0.4-0.7-1.3-1.3-2.2-1.3L54.3,29.7L54.3,29.7z M71.2,29.6c-0.8,0-1.2,0.6-0.9,1.4l2.7,5.8c0.3,0.7,1.3,1.4,2.1,1.4h6
	c0.8,0,1.3-0.6,1-1.4L80,31.1c-0.3-0.8-1.2-1.4-2-1.4C78,29.7,71.2,29.6,71.2,29.6z M84.8,29.6c-0.8,0-1.3,0.6-1,1.4l2,5.5
	c0.3,0.8,1.2,1.4,2,1.4h18.6c0.8,0,1.4-0.7,1.3-1.5l-0.8-5.3c-0.1-0.8-0.9-1.5-1.7-1.5C105.2,29.6,84.8,29.6,84.8,29.6z M111.9,29.6
	c-0.8,0-1.4,0.7-1.3,1.5l0.6,5.5c0.1,0.8,0.8,1.5,1.7,1.5h18.5c0.8,0,1.6-0.7,1.7-1.5l0.7-5.5c0.1-0.8-0.5-1.5-1.3-1.5H111.9z
	 M139.1,29.6c-0.8,0-1.6,0.7-1.7,1.5l-0.7,5.4c-0.1,0.8,0.5,1.5,1.3,1.5h5.9c0.8,0,1.7-0.7,1.8-1.5L147,31c0.2-0.8-0.3-1.5-1.1-1.5
	L139.1,29.6z M152.7,29.6c-0.8,0-1.7,0.7-1.8,1.5l-1.3,5.4c-0.2,0.8,0.3,1.5,1.2,1.5h5.9c0.8,0,1.7-0.6,2-1.4l1.9-5.5
	c0.3-0.8-0.2-1.4-1-1.4L152.7,29.6L152.7,29.6z M166.4,29.6c-0.8,0-1.7,0.6-2,1.4l-2,5.6c-0.3,0.8,0.2,1.4,1,1.4h5.9
	c0.8,0,1.8-0.6,2.1-1.4l2.7-5.7c0.3-0.7,0-1.4-0.9-1.4C173.2,29.5,166.4,29.6,166.4,29.6z M180,29.6c-0.8,0-1.8,0.6-2.2,1.3
	l-2.8,5.7c-0.4,0.7,0,1.3,0.8,1.3h6.1c0.8,0,1.8-0.6,2.2-1.3l3.4-5.8c0.4-0.7,0.1-1.3-0.7-1.3L180,29.6z M193.6,29.6
	c-0.8,0-1.8,0.6-2.3,1.3l-3.6,5.9c-0.4,0.7-0.1,1.3,0.7,1.3h6c0.8,0,1.9-0.5,2.4-1.2l4.3-6c0.5-0.7,0.2-1.2-0.6-1.2L193.6,29.6
	L193.6,29.6z M227.7,29.6c-0.8,0-1.9,0.5-2.5,1.1l-5.4,6.1c-0.5,0.6-0.3,1.1,0.5,1.1h5.7c0.8,0,2-0.5,2.6-1l6.4-6.2
	c0.6-0.6,0.4-1-0.4-1L227.7,29.6L227.7,29.6z"/>
<g class="st11">
	<path class="st0" d="M9.4,6.7C9.3,6.9,10,7,10.8,7h6.3c0.8,0,1.5-0.1,1.5-0.3s-0.7-0.3-1.5-0.3H11C10.2,6.4,9.5,6.6,9.4,6.7z
		 M8.9,20.9c0.3-0.8-0.2-1.4-1-1.4H6.7c-0.8,0-1.5,0.1-1.5,0.3s0.7,0.3,1.5,0.3h0.4c0.8,0,1.3,0.6,1,1.4l-1.4,4.2
		c-0.3,0.8,0.2,1.4,1,1.4h4.6c0.8,0,1.5-0.1,1.5-0.3s-0.7-0.3-1.5-0.3H8.5c-0.8,0-1.3-0.6-1-1.4c0.3-0.8,1.1-1.4,2-1.4h3.4
		c0.8,0,1.5-0.1,1.5-0.3c0-0.2-0.7-0.3-1.5-0.3H9.6c-0.8,0-1.3-0.6-1-1.4C8.6,21.7,8.9,20.9,8.9,20.9z M35.8,8.1
		c0.1-0.8-0.5-1.5-1.3-1.5h-1.6c-0.8,0-1.5,0.1-1.6,0.3s0.6,0.3,1.4,0.3h1.1c0.8,0,1.4,0.7,1.3,1.5l-0.2,1.6
		c-0.1,0.8-0.9,1.5-1.7,1.5h-5.8c-0.8,0-1.5,0.1-1.5,0.3c0,0.2,0.7,0.3,1.5,0.3h11.8c0.8,0,1.5-0.1,1.5-0.3c0-0.2-0.7-0.3-1.5-0.3
		h-2.4c-0.8,0-1.4-0.7-1.3-1.5C35.5,10.3,35.8,8.1,35.8,8.1z M44.2,26.5c0.1-0.8,0.1-1.2-0.1-0.8s-0.5,1.3-0.7,2.1l-0.1,0.6
		c-0.2,0.8,0.1,2,0.6,2.7l0.1,0.1c0.5,0.7,1.2,1.5,1.5,1.7c0.4,0.3,0.3-0.1-0.1-0.7l-0.8-1.3c-0.5-0.7-0.7-1.9-0.6-2.7
		C44,28.2,44.2,26.5,44.2,26.5z M53.9,7.7c0-0.2-0.7-0.3-1.5-0.3h-2.1c-0.8,0-1.2,0.1-0.8,0.3C49.9,7.9,50.8,8,51.6,8h0.8
		C53.3,8,53.9,7.9,53.9,7.7z M57.6,28c0.2-0.8,0.1-1.2-0.1-0.8s-0.5,1.1-0.7,1.6c-0.1,0.5,0,1.4,0.2,2s0.6,1.4,0.9,1.7s0.3,0,0-0.8
		l-0.2-0.6c-0.3-0.8-0.3-2.1-0.1-2.9C57.6,28.2,57.6,28,57.6,28z M55.4,20.8c-0.8,0-1.5,0.1-1.5,0.2c0,0.2,0.7,0.3,1.5,0.4l6.8,0.3
		c0.8,0,1.7,0.4,1.9,0.7c0.2,0.3,0.5,0.6,0.7,0.5c0.1-0.1,0-0.5-0.2-0.9c-0.3-0.4-1.2-0.8-2-0.8C62.6,21.2,55.4,20.8,55.4,20.8z
		 M62.8,6.8c0.3,0.2,1.2,0.3,2,0.3h0.1c0.8,0,1.5-0.1,1.5-0.3s-0.7-0.3-1.5-0.3h-1.1C63,6.4,62.6,6.6,62.8,6.8z M71.6,21
		c-0.8,0-1.5,0.2-1.5,0.4c0,0.2,0.7,0.3,1.5,0.2l3.8-0.2c0.8,0,1.4,0.6,1.3,1.4l-0.8,5.4c-0.1,0.8,0,2.1,0.2,2.9l0.1,0.2
		c0.2,0.8,0.7,1.8,1,2.2s0.3,0.1,0.1-0.7L76.8,31c-0.2-0.8-0.3-2.1-0.2-2.9l0.9-5.9c0.1-0.8-0.4-1.5-1.3-1.4
		C76.2,20.8,71.6,21,71.6,21z M72.8,6.6c0,0.2,0.6,0.4,1.4,0.5l6.7,0.8c0.8,0.1,1.5,0,1.5-0.1s-0.7-0.4-1.5-0.5l-6.5-0.7
		C73.6,6.4,72.9,6.5,72.8,6.6z M88.3,24.9c0-0.8-0.6-1.5-1.4-1.5h-2.1c-0.8,0-1.5,0.1-1.5,0.3c0,0.2,0.7,0.3,1.5,0.3h1.5
		c0.8,0,1.5,0.7,1.4,1.5L87.6,28c0,0.8,0.1,2.1,0.3,2.9l0.4,1.4c0.2,0.8,0.6,1.8,0.8,2.2c0.2,0.4,0.3,0.1,0.1-0.7l-0.7-3
		c-0.2-0.8-0.3-2.1-0.3-3C88.2,27.8,88.3,24.9,88.3,24.9z M84.8,10.1c0,0.2,0.7,0.3,1.5,0.3h2c0.8,0,1.8-0.2,2.1-0.4
		c0.4-0.2,0-0.3-0.8-0.3l-3.3,0.1C85.4,9.8,84.8,10,84.8,10.1z M101.3,13.4c0-0.8-0.2-1.5-0.3-1.5s-0.3,0.7-0.3,1.5v2.5
		c0,0.8,0.2,1.2,0.4,0.7c0.2-0.4,0.3-1.4,0.3-2.2L101.3,13.4z M104.2,24.1c0,0.7-0.7,1.3-1.5,1.3h-1.5c-0.8,0-1.5,0.7-1.5,1.5v1.5
		c0,0.8,0.1,1.5,0.3,1.5c0.2,0,0.3-0.7,0.3-1.5v-0.9c0-0.8,0.7-1.5,1.5-1.5h1.5c0.8,0,1.5-0.7,1.5-1.5v-0.2c0-0.8-0.1-1.5-0.2-1.5
		C104.4,22.8,104.2,23.4,104.2,24.1z M128.8,25.5c-0.1,0.3-0.2,1.1-0.1,2l0.1,0.8c0.1,0.8,0.1,2.2,0,3L128,37
		c-0.1,0.8,0,1.5,0.2,1.5c0.2,0,0.5-0.7,0.6-1.5l0.7-5.7c0.1-0.8,0.1-2.2,0-3l-0.2-1.8C129.1,25.7,129,25.2,128.8,25.5z"/>
	<ellipse class="st0" cx="112.2" cy="34.9" rx="1.5" ry="0.3"/>
	<path class="st0" d="M113.1,10.9c0.3,0.2,1.3,0.4,2.1,0.6l4.5,0.8c0.8,0.3,1.4,0.5,1.5,0.3c0.1-0.2-0.5-0.5-1.3-0.7l-5.9-1
		C113.1,10.7,112.7,10.8,113.1,10.9L113.1,10.9z M113,16.5c0.3-0.2-0.1-0.3-0.9-0.3s-1.4,0.2-1.4,0.4c0,0.2,0.4,0.3,0.9,0.3
		S112.7,16.7,113,16.5z M140.9,11.2c0,0.4,0.8,0.7,1.6,0.7h0.1c0.8,0,1.6,0,1.7,0.1s0.5,0.3,0.6,0.2c0.1-0.1,0-0.3-0.2-0.5
		c-0.3-0.2-1.1-0.4-1.9-0.4c-0.7,0-1.4-0.7-1.5-1.5l-0.7-6.7c-0.1-0.8-0.3-1.5-0.5-1.5s-0.2,0.7-0.1,1.5l0.6,5.2
		c0.1,0.8-0.5,1.5-1.3,1.5h-1.6c-0.8,0-1.5,0.1-1.5,0.3c0,0.2,0.7,0.3,1.5,0.3h1.7C140.2,10.5,140.9,10.8,140.9,11.2L140.9,11.2z
		 M140.1,25.1c0.1,0.8-0.2,2-0.6,2.7c-0.4,0.6-0.7,1.8-0.5,1.9c0.2,0,0.5-0.5,0.7-1.2s0.9-1.3,1-1.3s0.1-0.7,0.1-1.5l-0.2-2.8
		c-0.1-0.8,0.6-1.5,1.4-1.5h4.4c0.8,0,1.5-0.1,1.5-0.3s-0.7-0.3-1.5-0.3h-5c-0.8,0-1.5,0.7-1.4,1.5C140,22.3,140.1,25.1,140.1,25.1z
		 M150.2,22.8c0,0.2,0.7,0.3,1.5,0.3h2.8c0.8,0,1.7-0.1,2-0.3c0.3-0.2-0.1-0.3-0.9-0.3h-3.9C150.9,22.5,150.2,22.7,150.2,22.8
		L150.2,22.8z M153,14.3c0.2,0.1,1,0.3,1.8,0.3h0.5c0.8,0,1.5-0.1,1.5-0.3s-0.7-0.3-1.5-0.3h-1.2C153.3,14.1,152.8,14.2,153,14.3z
		 M136.5,35.4c0,0.2,0.6,0.3,1.5,0.4l6.7,0.5c0.8,0.1,1.5,0,1.5-0.2s-0.6-0.3-1.5-0.4l-6.7-0.5C137.2,35.2,136.5,35.3,136.5,35.4z
		 M178.4,22.6c-0.8,0-1.5,0.2-1.5,0.3c0,0.2,0.7,0.3,1.5,0.3l8.3,1c0.8,0.1,1.5,0,1.6-0.1c0.1-0.2-0.6-0.3-1.4-0.4L178.4,22.6
		L178.4,22.6z M205.4,11.5c-0.2,0.1-0.2,0.8-0.2,1.6c0,0,1.1,3.1,0.8,3.8c-0.3,0.7-0.4,1.2-0.3,1.3c0.1,0.1,0.5-0.4,0.9-1.1
		S205.6,11.5,205.4,11.5z M200.8,4c-0.6,0-1.3-0.5-1.5-1.2s-0.5-1.2-0.7-1.1c-0.2,0-0.1,0.7,0.1,1.5s1,1.4,1.6,1.4s1.4,0.6,1.6,1.4
		l0.2,0.5c0.3,0.8,0.6,1.4,0.8,1.3s0.1-0.7-0.2-1.5l-0.3-0.9C202.1,4.6,201.4,4,200.8,4L200.8,4z M224.7,21.4
		c-0.8,0-1.5,0.1-1.5,0.3c0,0.2,0.7,0.3,1.5,0.3h7.8c0.8,0,1.5-0.1,1.5-0.3c0-0.2-0.7-0.3-1.5-0.3H224.7z M230.7,7.3
		c0.2,0,0.1-0.7-0.1-1.5l-0.7-2.6c-0.2-0.8-0.5-1.4-0.7-1.4s-0.1,0.7,0.1,1.5l0.7,2.6C230.3,6.7,230.6,7.4,230.7,7.3z"/>
</g>
<path class="st0" d="M31.1,7.1h2.5c0.8,0,0.8-0.1,0-0.3l-0.5-0.1c-0.8-0.2-1.4-0.1-1.4,0.2C31.7,7,31.7,7,31.1,7.1z M16,33.8
	c-0.3-0.3-1.2-0.5-2-0.4l-1.1,0.1c-0.8,0.1-0.8,0.3,0,0.4l2.1,0.3C15.8,34.2,16.3,34.1,16,33.8z M41.5,37.1c-0.2-0.3-1-0.5-1.8-0.4
	l-2.9,0.2c-0.8,0.1-0.8,0.2,0,0.3l3.6,0.3C41.2,37.6,41.7,37.4,41.5,37.1z M72.3,35.8c-0.1-0.3,0.5-0.5,1.3-0.5H74
	c0.8,0,0.8,0.2,0.1,0.5l-0.2,0.1C73.1,36.1,72.4,36.1,72.3,35.8z M107.6,33.9c-0.1-0.4-0.8-0.7-1.6-0.5l-1.9,0.3
	c-0.8,0.1-0.8,0.3,0,0.4l2.1,0.3C107,34.5,107.6,34.3,107.6,33.9z M110.5,35.3c0-0.4,0.5-0.7,1.3-0.6s0.8,0.4,0.1,0.7
	C111.1,35.8,110.5,35.7,110.5,35.3z M88.2,28.4c-0.1-0.6-0.2-0.7-0.4-0.1c-0.1,0.6,0,1.6,0.2,2.4v0.1c0.2,0.8,0.4,0.8,0.3,0
	S88.3,29,88.2,28.4z M99.9,28.9c-0.1-0.2-0.2,0.2-0.2,1s0.1,1,0.2,0.4C100.1,29.8,100,29.1,99.9,28.9z M76.2,28.6
	c0-0.6-0.1-0.6-0.2,0s0,1.7,0.3,2.5l0.1,0.2c0.3,0.8,0.4,0.8,0.2-0.1C76.4,30.4,76.2,29.2,76.2,28.6z M57.1,29.1
	c-0.1-0.2-0.3-0.2-0.4,0.1s0,0.9,0.3,1.3c0.2,0.4,0.4,0.3,0.4-0.1C57.4,29.9,57.2,29.3,57.1,29.1z M43.8,28.6
	c-0.1-0.6-0.4-0.5-0.6,0.1c-0.2,0.7,0.1,1.7,0.6,2.2s0.7,0.4,0.6-0.1C44.2,30.2,44,29.3,43.8,28.6z M19.9,27.8
	c-0.2-0.2,0.3-0.4,1.1-0.3l1.6,0.1c0.8,0.1,0.8,0.2,0,0.3L21.7,28C20.9,28.1,20.1,28,19.9,27.8z M129,28.3c0.1-0.8,0.3-0.8,0.5,0
	s0.1,2.1-0.1,2.8l-0.1,0.5c-0.2,0.8-0.4,0.8-0.4,0v-0.4C128.8,30.4,128.9,29.1,129,28.3z M121,12.8c0,0.3-0.6,0.2-1.2-0.3
	c-0.7-0.5-0.7-0.7,0-0.5C120.4,12.1,121,12.5,121,12.8z M160,33.1c0.1-0.3-0.5-0.5-1.3-0.5h-0.5c-0.8,0-0.8,0.2-0.1,0.4l0.3,0.1
	C159.2,33.4,160,33.4,160,33.1z M155,28.9c-0.2-0.4-0.3-0.1-0.3,0.6s0.2,1.1,0.3,0.8S155.2,29.3,155,28.9z M172.8,34.4
	c0.1-0.3-0.5-0.5-1.3-0.4l-2,0.2c-0.8,0.1-0.8,0.2,0,0.3l1.6,0.3C171.9,34.8,172.7,34.7,172.8,34.4z M170.3,29
	c-0.1-0.3-0.3-0.4-0.4,0c-0.1,0.3-0.1,1,0,1.5s0.3,0.5,0.4,0S170.4,29.4,170.3,29z M205.8,18.4c-0.2-0.1-0.2-0.7,0-1.3
	s0.5-0.6,0.5,0.2C206.2,17.9,206,18.5,205.8,18.4z M189,33.7c0.2-0.3,1.1-0.5,1.9-0.3l3,0.5c0.8,0.1,0.8,0.2,0,0.3l-3.9,0.1
	C189.2,34.2,188.7,34,189,33.7z M221.8,33.7c0.3-0.4,1.2-0.6,2-0.5l2.8,0.5c0.8,0.2,0.8,0.3,0,0.4l-3.8,0.2
	C221.9,34.4,221.5,34.1,221.8,33.7z M223.1,21.7c-0.1-0.5,0.4-0.8,1.2-0.6l2.4,0.4c0.8,0.1,0.8,0.3,0,0.5l-2,0.4
	C224,22.4,223.2,22.1,223.1,21.7L223.1,21.7z"/>
<g class="st12">
	<path class="st0" d="M219.7,7.8c-0.2-0.2-0.4-1-0.5-1.7c0-0.7,0.1-0.7,0.3,0.1l0.1,0.5C219.9,7.5,219.9,8,219.7,7.8L219.7,7.8z"/>
</g>
<path class="st0" d="M187.9,24.5l-1.6-0.6c-0.8-0.3-0.7-0.5,0.1-0.4l1.7,0.2"/>
<g class="st12">
	<path class="st0" d="M119.2,30.3c0.1-0.4,0.1-1,0-1.4s-0.9-0.7-1.7-0.7h-0.3c-0.8,0-1.7,0.3-1.9,0.8c-0.2,0.4,0.2,0.9,1,1.2
		l1.3,0.4C118.3,30.8,119.1,30.7,119.2,30.3z"/>
</g>
<path class="st0" d="M118,29.3c-0.5-0.5-0.4-0.9,0-0.9s1.1,0.2,1.4,0.6c0.2,0.3,0.1,1.1-0.3,1.8s-0.6,0.8-0.5,0.4
	S118.5,29.8,118,29.3z M72.7,6.8c0.1-0.4,0.7-0.5,1.5-0.3s0.7,0.5-0.1,0.7H74C73.3,7.4,72.7,7.2,72.7,6.8z M40.4,12.3
	c-0.1,0.2-0.9,0.3-1.7,0.1c-0.8-0.2-0.8-0.4,0-0.4h0.4C40,11.9,40.5,12,40.4,12.3z M14.3,23.3c0.1-0.3-0.5-0.5-1.3-0.3l-0.7,0.1
	c-0.8,0.2-0.8,0.4,0,0.5h0.2C13.5,23.8,14.2,23.7,14.3,23.3z"/>
<path class="st10" d="M16.3,33.9c-0.2-0.2-0.2-1.1,0-1.9l0.2-0.5c0.2-0.8,0.4-0.8,0.4,0.1l-0.1,1.3C16.7,33.7,16.5,34.1,16.3,33.9z
	 M41.3,37.2c-0.2-0.1-0.2-0.7,0-1.4c0.2-0.7,0.4-0.5,0.4,0.3S41.6,37.3,41.3,37.2z M63.9,22.1c0-0.4,0.2-0.2,0.5,0.6
	c0.3,0.8,0.3,1.1,0,0.8C64.2,23.2,63.9,22.6,63.9,22.1z M189.3,34.1c0.2-0.2,0.3-1,0-1.8l-0.2-0.6c-0.2-0.8-0.4-0.8-0.4,0.1V33
	C188.8,33.8,189,34.3,189.3,34.1L189.3,34.1z M222.3,33.9c0.4-0.2,0.4-1,0-1.7l-1.1-2.5c-0.3-0.7-0.5-0.7-0.4,0.1l0.6,3
	C221.5,33.6,221.9,34.1,222.3,33.9z M223.7,21.6c-0.1-0.3-0.5,0.1-0.9,0.8l-1.2,2.4c-0.4,0.7-0.3,0.8,0.2,0.1l1.2-1.7
	C223.5,22.7,223.8,21.9,223.7,21.6z"/>
<path class="st0" d="M202.2,7.9c0,0,0-0.7,0.1-1.5c0-0.8,0.2-0.8,0.4,0l0.4,1.7"/>
<path class="st13" d="M11.6,34.6c-0.6-0.2-0.6-0.3,0.1-0.3c0.7,0.1,1.7,0.2,2.3,0.3s0.5,0.2-0.1,0.3C13.2,34.9,12.2,34.8,11.6,34.6z
	 M43.3,31.1c-0.5-0.5-0.6-0.4-0.1,0.3l0.3,0.4c0.5,0.7,1.2,1.4,1.6,1.7c0.4,0.3,0.4,0,0-0.5C44.6,32.4,43.8,31.6,43.3,31.1z
	 M56.1,29.6c-0.2,0-0.1,0.5,0.2,1.1c0.3,0.6,0.4,0.6,0.3,0S56.3,29.6,56.1,29.6z M74.5,36c-0.6-0.1-0.3-0.2,0.5-0.4l0.4-0.1
	c0.8-0.1,1.2-0.1,0.8,0.1C75.8,35.9,75.1,36.1,74.5,36z M87.4,30.7c-0.2-0.4-0.3-0.1-0.2,0.5c0.1,0.6,0.5,1.6,0.8,2.2
	c0.3,0.6,0.4,0.3,0.2-0.5v-0.1C88,32,87.6,31,87.4,30.7z M129.9,31.8c-0.1-0.4-0.3-0.3-0.4,0.1c-0.2,0.5-0.3,1.4-0.3,2.1
	c0,0.7,0.2,0.6,0.4-0.1C129.9,33.1,130,32.2,129.9,31.8z M115.8,29c-0.1-0.4-0.5-0.4-0.7,0.2c-0.2,0.5,0.1,1.2,0.7,1.5
	s1,0.2,0.7-0.2S115.9,29.4,115.8,29z M139.5,36.2c-0.6-0.2-0.5-0.3,0.3-0.3s1.9,0.2,2.6,0.4c0.6,0.2,0.5,0.4-0.3,0.3
	C141.3,36.6,140.2,36.4,139.5,36.2z M155.6,30.7c-0.1-0.2-0.3,0-0.5,0.5s-0.1,0.7,0.1,0.5S155.6,30.9,155.6,30.7z M171,30.1
	c-0.1-0.2-0.3,0-0.5,0.5s-0.1,0.7,0.1,0.5C170.9,30.8,171.1,30.4,171,30.1z M168.6,34.8c-0.7-0.1-0.6-0.3,0.2-0.4h0.1
	c0.8-0.1,1.8,0,2.1,0.3s0.2,0.4-0.3,0.4C170.3,35,169.3,34.9,168.6,34.8z M191.3,34.7c-0.6,0.1-0.6-0.1,0-0.3s1.8-0.3,2.6-0.2h0.5
	c0.8,0.1,0.8,0.2,0,0.2h-0.5C193.1,34.6,191.9,34.7,191.3,34.7z"/>
<path class="st10" d="M205.9,18.6c-0.3,0.1-0.8,0.8-1.1,1.5s-0.1,0.7,0.4,0l0.4-0.5C206.1,18.9,206.2,18.4,205.9,18.6L205.9,18.6z"
	/>
<path class="st0" d="M230.8,7.6c-0.3,0-0.6-0.7-0.7-1.5V6c-0.1-0.8,0.1-0.9,0.5-0.1l0.2,0.4C231,7,231.1,7.6,230.8,7.6z M136.2,10.5
	c0-0.4,0.6-0.6,1.4-0.6c0.8,0,0.9,0.3,0.1,0.6l-0.1,0.1C136.9,10.9,136.3,10.8,136.2,10.5z M101.1,11.8c-0.3-0.1-0.4,0.4-0.3,1.2
	v0.1c0.1,0.8,0.3,0.9,0.5,0.2C101.4,12.6,101.3,11.9,101.1,11.8z M69.6,21.5c-0.1-0.3,0.5-0.5,1.3-0.5h2.3c0.8,0,0.8,0.1,0,0.3
	l-2.1,0.4C70.4,21.9,69.7,21.8,69.6,21.5z M13.7,27c0-0.2-0.6-0.4-1.4-0.4h-0.2c-0.8,0-0.8,0.2,0,0.4h0.2C13,27.2,13.7,27.2,13.7,27
	z"/>
<path class="st14" d="M4,29.3c-0.8,0-1.4,0.1-1.2,0.3c0.1,0.1,0.9,0.3,1.7,0.3h4.8c0.8,0,1.6-0.1,1.7-0.3s-0.4-0.3-1.2-0.3
	C9.8,29.3,4,29.3,4,29.3z M27.7,29.3c-0.8,0-1.4,0.1-1.2,0.3c0.1,0.1,0.9,0.3,1.7,0.3H33c0.8,0,1.6-0.1,1.7-0.3s-0.4-0.3-1.2-0.3
	H27.7z M41,29.2c-0.8,0-1.5,0.2-1.4,0.3c0,0.1,0.7,0.3,1.4,0.3c0.7,0,1.4-0.1,1.4-0.3C42.5,29.3,41.9,29.2,41,29.2z M17.3,17.6
	c-0.8,0-1.5,0.2-1.4,0.3s0.7,0.2,1.4,0.2s1.4-0.1,1.4-0.3C18.7,17.7,18.1,17.5,17.3,17.6z M27.1,17.6c-0.8,0-1.5,0.2-1.4,0.3
	s0.7,0.2,1.4,0.2s1.4-0.1,1.4-0.3C28.6,17.7,27.9,17.5,27.1,17.6z M7.3,19.1c-0.7,0-1.3,0.2-1.3,0.3c0,0.1,0.6,0.2,1.3,0.2
	c0.7,0,1.2-0.1,1.3-0.3C8.6,19.2,8,19.1,7.3,19.1z M19.2,23.1c-0.8,0-1.4,0.1-1.3,0.3c0.1,0.1,0.8,0.3,1.7,0.3h1.9
	c0.8,0,1.6-0.1,1.7-0.3c0.1-0.2-0.5-0.3-1.3-0.3C21.9,23.1,19.2,23.1,19.2,23.1z M13.8,6c-0.8,0-1.4,0.1-1.3,0.3
	c0.1,0.1,0.8,0.2,1.7,0.2h1.9c0.8,0,1.6-0.1,1.7-0.3s-0.5-0.3-1.3-0.3C16.5,5.9,13.8,6,13.8,6z M54.7,29.2c-0.8,0-1.5,0.2-1.4,0.3
	c0,0.1,0.7,0.3,1.4,0.3c0.7,0,1.4-0.1,1.4-0.3C56.2,29.3,55.5,29.2,54.7,29.2z M77.9,29.2c-0.7,0-1.3,0.2-1.3,0.3s0.6,0.3,1.3,0.3
	c0.7,0,1.2-0.1,1.3-0.3C79.2,29.3,78.6,29.2,77.9,29.2z M59.1,29.2c-0.8,0-1.4,0.1-1.4,0.3c0.1,0.1,0.8,0.3,1.6,0.3h1.3
	c0.8,0,1.6-0.1,1.6-0.3c0.1-0.2-0.5-0.3-1.4-0.3H59.1z M71.4,29.2c-0.8,0-1.4,0.1-1.3,0.3c0.1,0.1,0.8,0.3,1.7,0.3h1.8
	c0.8,0,1.6-0.1,1.7-0.3s-0.5-0.3-1.3-0.3C74,29.2,71.4,29.2,71.4,29.2z M85.1,29.2c-0.8,0-1.4,0.2-1.4,0.3c0.1,0.1,0.8,0.3,1.6,0.3
	h0.6c0.8,0,1.5-0.1,1.6-0.3s-0.6-0.3-1.4-0.3C86.1,29.2,85.1,29.2,85.1,29.2z M112.2,29.2c-0.8,0-1.4,0.2-1.4,0.3
	c0.1,0.1,0.8,0.3,1.6,0.3h0.5c0.8,0,1.5-0.1,1.6-0.3s-0.6-0.3-1.4-0.3C113.1,29.2,112.2,29.2,112.2,29.2z M131.5,29.2
	c-0.8,0-1.5,0.2-1.4,0.3s0.8,0.3,1.6,0.3h0.1c0.8,0,1.5-0.1,1.6-0.3s-0.6-0.3-1.4-0.3H131.5L131.5,29.2z M141.1,29.2
	c-0.8,0-1.4,0.1-1.3,0.3c0.1,0.1,0.9,0.3,1.7,0.3h3.8c0.8,0,1.6-0.1,1.7-0.3c0.1-0.2-0.5-0.3-1.3-0.3H141.1L141.1,29.2z M152.9,29.2
	c-0.8,0-1.5,0.2-1.4,0.3c0,0.1,0.7,0.3,1.5,0.3s1.4-0.1,1.5-0.3c0-0.2-0.6-0.3-1.4-0.3H152.9L152.9,29.2z M157.2,29.2
	c-0.8,0-1.4,0.1-1.4,0.3c0.1,0.1,0.8,0.3,1.6,0.3h1.4c0.8,0,1.6-0.1,1.6-0.3c0.1-0.2-0.5-0.3-1.4-0.3H157.2L157.2,29.2z M166.7,29.2
	c-0.8,0-1.4,0.1-1.4,0.3c0.1,0.1,0.8,0.3,1.6,0.3h0.7c0.8,0,1.6-0.1,1.6-0.3c0.1-0.2-0.6-0.3-1.4-0.3H166.7L166.7,29.2z M172.3,29.2
	c-0.8,0-1.5,0.2-1.4,0.3s0.8,0.3,1.6,0.3s1.5-0.1,1.6-0.3s-0.6-0.3-1.4-0.3H172.3L172.3,29.2z M180.2,29.2c-0.8,0-1.4,0.1-1.2,0.3
	c0.1,0.1,0.9,0.3,1.8,0.3h5.4c0.8,0,1.6-0.1,1.8-0.3c0.1-0.2-0.4-0.3-1.2-0.3H180.2z M193.7,29.2c-0.8,0-1.4,0.1-1.2,0.3
	c0.1,0.1,0.9,0.3,1.8,0.3h5.4c0.8,0,1.6-0.1,1.8-0.3c0.1-0.2-0.4-0.3-1.2-0.3H193.7z M227.9,29.2c-0.8,0-1.4,0.1-1.2,0.3
	c0.1,0.1,0.9,0.3,1.8,0.3h5.4c0.8,0,1.6-0.1,1.8-0.3c0.1-0.2-0.4-0.3-1.2-0.3H227.9z M215.4,6.5c-0.8,0-1.4,0.1-1.3,0.3
	c0.1,0.1,0.8,0.2,1.6,0.2h1.7c0.8,0,1.6-0.1,1.6-0.3c0.1-0.2-0.5-0.3-1.3-0.3L215.4,6.5z M204.7,6.5c-0.8,0-1.4,0.1-1.3,0.3
	c0.1,0.1,0.8,0.2,1.7,0.2h2.4c0.8,0,1.6-0.1,1.7-0.3c0.1-0.2-0.5-0.3-1.3-0.3L204.7,6.5L204.7,6.5z M199.3,6.5
	c-0.8,0-1.4,0.1-1.4,0.3c0.1,0.1,0.8,0.2,1.6,0.2h0.8c0.8,0,1.6-0.1,1.6-0.3c0.1-0.2-0.6-0.3-1.4-0.3L199.3,6.5L199.3,6.5z
	 M201.1,17.5c-0.8,0-1.4,0.1-1.3,0.3c0.1,0.1,0.8,0.2,1.7,0.2h1.8c0.8,0,1.6-0.1,1.7-0.3c0.1-0.2-0.5-0.3-1.3-0.3L201.1,17.5
	L201.1,17.5z M168.2,5.7c-0.8,0-1.4,0.1-1.4,0.3c0.1,0.1,0.8,0.3,1.6,0.3h0.8c0.8,0,1.6-0.1,1.6-0.3s-0.6-0.3-1.4-0.3H168.2
	L168.2,5.7z M175.8,5.7c-0.8,0-1.4,0.1-1.4,0.3c0.1,0.1,0.8,0.3,1.6,0.3h0.8c0.8,0,1.6-0.1,1.6-0.3c0.1-0.2-0.6-0.3-1.4-0.3H175.8
	L175.8,5.7z M170.7,10.6c-0.6,0-1,0.2-1,0.3s0.5,0.3,1,0.3s0.9-0.1,1-0.3C171.7,10.7,171.3,10.6,170.7,10.6z M173.4,9
	c-0.7,0-1.3,0.2-1.2,0.3c0,0.1,0.6,0.3,1.2,0.3s1.2-0.1,1.2-0.3C174.7,9.1,174.2,9,173.4,9z M139.4,9.3c-0.7,0-1.3,0.2-1.2,0.3
	c0,0.1,0.6,0.3,1.2,0.3s1.2-0.1,1.2-0.3C140.6,9.4,140.1,9.3,139.4,9.3z M148.1,17.3c-0.8,0-1.5,0.2-1.4,0.3c0,0.1,0.7,0.2,1.5,0.2
	s1.4-0.1,1.5-0.3c0-0.2-0.6-0.3-1.4-0.3L148.1,17.3L148.1,17.3z M142.1,20.1c-0.8,0-1.4,0.1-1.4,0.3c0,0.2,0.8,0.2,1.6,0.2h1.3
	c0.8,0,1.6-0.1,1.6-0.3c0.1-0.2-0.5-0.3-1.4-0.3L142.1,20.1L142.1,20.1z M227.1,20.7c-0.8,0-1.4,0.1-1.4,0.3
	c0.1,0.1,0.8,0.2,1.6,0.2h1.3c0.8,0,1.6-0.1,1.6-0.3c0.1-0.2-0.5-0.3-1.4-0.3L227.1,20.7L227.1,20.7z M85.8,23
	c-0.8,0-1.4,0.2-1.4,0.3c0.1,0.1,0.8,0.3,1.6,0.3h0.3c0.8,0,1.5-0.1,1.6-0.3c0.1-0.2-0.6-0.3-1.4-0.3H85.8z M73.8,20.6
	c-0.8,0-1.4,0.2-1.4,0.3c0.1,0.1,0.8,0.2,1.6,0.2h0.3c0.8,0,1.5-0.1,1.6-0.3c0.1-0.2-0.6-0.3-1.4-0.3C74.5,20.5,73.8,20.6,73.8,20.6
	z"/>
<g>
	<path class="st14" d="M56.7,20.4c-0.8,0-1.4,0.2-1.4,0.3s0.8,0.2,1.6,0.2h0.3c0.8,0,1.5-0.1,1.6-0.3s-0.6-0.3-1.4-0.3
		C57.4,20.3,56.7,20.4,56.7,20.4z"/>
</g>
<g>
	<path class="st14" d="M30.8,11.2c-0.8,0-1.4,0.1-1.4,0.3c0.1,0.1,0.8,0.3,1.6,0.3h1.5c0.8,0,1.6-0.1,1.6-0.3
		c0.1-0.2-0.5-0.3-1.4-0.3C32.7,11.2,30.8,11.2,30.8,11.2z"/>
</g>
<g>
	<path class="st14" d="M79.4,6.9c-0.8-0.1-1.5,0-1.4,0.1c0,0.1,0.7,0.4,1.6,0.5h0.3c0.8,0.1,1.5,0.1,1.6-0.1S81,7,80.2,7
		C80.2,7,79.4,6.9,79.4,6.9z"/>
</g>
<g>
	<path class="st14" d="M153,22c-0.8,0-1.4,0.2-1.4,0.3c0.1,0.1,0.8,0.2,1.6,0.2h0.3c0.8,0,1.5-0.1,1.6-0.3c0.1-0.2-0.6-0.3-1.4-0.3
		L153,22L153,22z"/>
</g>
<g>
	<path class="st14" d="M174.6,19.9c-0.8,0-1.4,0.2-1.4,0.3c0.1,0.1,0.8,0.2,1.6,0.2h0.3c0.8,0,1.5-0.1,1.6-0.3s-0.6-0.3-1.4-0.3
		L174.6,19.9L174.6,19.9z"/>
</g>
<g>
	<path class="st14" d="M122.7,6.3c-0.8,0-1.3,0.1-1.2,0.3c0.2,0.1,1,0.2,1.8,0.2h7.2c0.8,0,1.6-0.1,1.8-0.3s-0.3-0.3-1.2-0.3
		L122.7,6.3L122.7,6.3z"/>
</g>
<g>
	<path class="st14" d="M97,6.4c-0.8,0-1.3,0.1-1.2,0.3c0.2,0.1,1,0.2,1.8,0.2h7.5c0.8,0,1.6-0.1,1.8-0.3c0.2-0.2-0.3-0.3-1.2-0.3
		L97,6.4L97,6.4z"/>
</g>
<g>
	<path class="st14" d="M95.6,17.3c-0.8,0-1.4,0.1-1.3,0.3c0.1,0.1,0.9,0.2,1.7,0.2h2.7c0.8,0,1.6-0.1,1.7-0.3
		c0.1-0.2-0.5-0.3-1.3-0.3L95.6,17.3L95.6,17.3z"/>
</g>
<g>
	<path class="st14" d="M102.5,17.3c-0.8,0-1.4,0.1-1.3,0.3c0.1,0.1,0.8,0.2,1.7,0.2h2.4c0.8,0,1.6-0.1,1.7-0.3s-0.5-0.3-1.3-0.3
		C105.7,17.2,102.5,17.3,102.5,17.3z"/>
</g>
<g>
	<path class="st14" d="M117.3,27.8c-0.8,0-1.4,0.2-1.4,0.3s0.7,0.2,1.4,0.2s1.3-0.1,1.4-0.3C118.7,27.9,118.1,27.7,117.3,27.8z"/>
</g>
<g>
	<path class="st14" d="M115.3,10.2c-0.8-0.1-1.4-0.1-1.4,0.1c0,0.1,0.8,0.4,1.6,0.5l0.9,0.1c0.8,0.1,1.6,0.1,1.6-0.1
		c0.1-0.2-0.5-0.4-1.3-0.5C116.7,10.3,115.3,10.2,115.3,10.2z"/>
</g>
<g>
	<path class="st14" d="M179.8,22.1c-0.8-0.1-1.4-0.1-1.4,0.1c0,0.1,0.8,0.4,1.6,0.5l0.9,0.1c0.8,0.1,1.6,0.1,1.6-0.1
		c0.1-0.2-0.5-0.4-1.3-0.5L179.8,22.1L179.8,22.1z"/>
</g>
<g>
	<path class="st14" d="M177.2,10.6c-0.5,0-0.9,0.2-0.9,0.3c0,0.1,0.4,0.3,0.9,0.3s0.9-0.1,0.9-0.3S177.8,10.6,177.2,10.6z"/>
</g>
<g>
	<path class="st14" d="M207.9,17.5c-0.8,0-1.4,0.1-1.3,0.3c0.1,0.1,0.8,0.2,1.7,0.2h2.4c0.8,0,1.6-0.1,1.7-0.3
		c0.1-0.2-0.5-0.3-1.3-0.3L207.9,17.5L207.9,17.5z"/>
</g>
<g>
	<path class="st14" d="M232.7,6.5c-0.8,0-1.4,0.1-1.4,0.3c0.1,0.1,0.8,0.2,1.6,0.2h0.9c0.8,0,1.6-0.1,1.6-0.3
		c0.1-0.2-0.5-0.3-1.4-0.3L232.7,6.5L232.7,6.5z"/>
</g>
<g>
	<path class="st14" d="M121.6,29.2c-0.8,0-1.4,0.1-1.3,0.3c0.1,0.1,0.9,0.3,1.7,0.3h4.4c0.8,0,1.6-0.1,1.7-0.3
		c0.1-0.2-0.4-0.3-1.3-0.3H121.6L121.6,29.2z"/>
</g>
<g>
	<path class="st14" d="M90.1,29.2c-0.8,0-1.4,0.1-1.2,0.3c0.2,0.1,1,0.3,1.8,0.3h6.7c0.8,0,1.6-0.1,1.8-0.3c0.2-0.2-0.4-0.3-1.2-0.3
		C98,29.2,90.1,29.2,90.1,29.2z"/>
</g>
<g>
	<path class="st14" d="M101.8,29.2c-0.8,0-1.4,0.1-1.3,0.3c0.1,0.1,0.8,0.3,1.7,0.3h2.3c0.8,0,1.6-0.1,1.7-0.3s-0.5-0.3-1.3-0.3
		C104.9,29.2,101.8,29.2,101.8,29.2z"/>
</g>
<g>
	<path class="st14" d="M46.1,29.3c-0.8,0-1.4,0.1-1.4,0.3c0.1,0.1,0.8,0.3,1.6,0.3H47c0.8,0,1.6-0.1,1.6-0.3
		c0.1-0.2-0.6-0.3-1.4-0.3C47.2,29.3,46.1,29.3,46.1,29.3z"/>
</g>
<g>
	<path class="st15" d="M98.8,38.6L98.5,37h-2.1l-0.2-0.7l-0.3-1.6H83.5l-0.2,1.8V37h-0.1l-0.3-0.8l-0.4-1.5h-6.9l-0.2,1.8l-0.6,5.2
		H73l0.3-2.1l0.1-0.6l-0.2-0.4l-1-2.6l-0.5-1.3H65l-0.3,1.7v0.5l-0.5-1l-0.5-1.2H51.8l-0.3,1.7l-0.1,0.3l-0.5-0.9l-0.6-1.1H35.9
		l-0.3,1.6l-0.8,3.1l-0.2,0.8l0.5,0.8l0.5,0.7h-4l-0.4,1.5l-0.8,3.2l-0.2,0.9l0.6,0.8l1.8,2.4l0.6,0.8h0.4l1.1,1.6l0.6,0.8h11.8
		l0.3-1.6l0.1-0.4l0.6,1l0.6,1h6.4l0.3-1.7l0.2-0.7h2.6l0.6,1.3l0.6,1.1H66l0.3-1.7l0.4-2.9l0.5,1l0.5,1.2H69l0.5,1.2l0.5,1.2h6.8
		l0.2-1.8l0.1-0.6h2.7v-0.1l0.4,1.1l0.5,1.4h6.9l0.2-1.8v-0.6h3l0.2,0.8l0.4,1.6h7.1l0.1-1.9l0.6-10.2l0.1-0.2l-0.1-0.2L98.8,38.6z
		 M207.7,48.8l-3-12.5l-0.4-1.6H198l-0.6,0.9l-0.8,1.4h-2.4l-0.2-0.7l-0.3-1.6h-6.5l-0.5,1.1l-0.5,0.9l-0.1-0.3l-0.3-1.7h-11.9
		l-0.6,1.2l-0.4,1l-0.1-0.5l-0.2-1.7h-39l-0.2,1.8l-0.1,0.5h-0.2v-0.3l-0.1-2h-31.4l-0.1,1.9l-0.6,12.6v0.4l0.4,2.4l0.2,1.7H133
		l0.2-1.8l0.1-0.6h0.3v0.5l0.1,1.9h12.6l0.3-1.6l0.6-2.4l0.1-0.2l-0.1-0.4l-0.2-3.2l-0.1-1.5h2.2l0.7,7.5l0.1,1.8h7l0.4-1.4l0.8-2.4
		l0.2-0.4l-0.1-0.4l-0.5-4.7h3.8l-0.3,0.9l-1,2.4l-0.1,0.5v0.5l0.4,3.2l0.2,1.8h12.2l0.5-1.2l0.5-1L174,52l0.3,1.7h11.9l0.6-1l0.6-1
		l0.1,0.4l0.3,1.6h6.4l0.6-0.9l1-1.5h2.3l0.2,0.8l0.4,1.6h6.2l0.6-0.8l1.8-2.4l0.6-0.7L207.7,48.8z"/>
</g>
<g>
	<path class="st16" d="M64.7,39h-1.3l-1-2.3h-9L53,39h-2.6l-1.3-2.3H37.5l-0.7,3.1l1.7,2.5h5.9L43.6,46h-5.1l-1.6-2.3h-3.7l-0.8,3.2
		l1.8,2.4h0.4l1.8,2.4h9.1l0.5-2.4h2.4l1.5,2.4h3.7l0.4-2.4h5.5l1.2,2.4h3.7l1.5-10.2L64.7,39z M60.3,43.7h-5.4l0.2-1.3h5.4
		L60.3,43.7z M81,36.7h-3.6l-0.8,7h-2.8L73.5,46H73l-0.9-2.3h-1.4l0.6-4.4l-1-2.6h-3.6l-1.2,7.8l1.1,2.5h1.3l1.1,2.3h1.3l1.1,2.4H75
		l0.3-2.4H78l0.3-2.3H81l0.8-7.7L81,36.7z M94.7,39l-0.4-2.3h-9L85.1,39h-2.7l-1.1,10.3l0.8,2.4h3.7l0.2-2.4h6.4l0.6,2.4h3.7
		l0.6-10.2L96.8,39H94.7z M86.5,43.7l0.1-1.3h6.2l-0.1,1.3H86.5z M103.5,36.7l-0.6,12.6l0.3,2.4h14.6v-3.3l-0.1-2.4h-5.3l0.1-2.2
		l-0.1-1.4h5.4v-5.7L103.5,36.7z M131.1,39l-0.1-2.3h-11.6v15h11.8l0.3-2.4h2.3l0.3-2.4l-0.3-7.9C133.8,39,131.1,39,131.1,39z
		 M130,42.4l0.1,3.7h-6.9v-3.7H130L130,42.4z M142.3,46l-0.3-3.6h2l0.5-2.6l-0.2-3.1h-9l-0.3,2.6l0.1,3.1h2.7L138,46h-2.2l-0.4,2.4
		l0.2,3.3h9.1l0.5-2.4L145,46H142.3z M145.9,36.7l-0.5,2.6l0.2,3.1h5.3l0.8,9.3h3.7l0.8-2.4l-0.7-6.9h4.3l0.8-2.6l-0.4-3.1
		L145.9,36.7z M169.5,46l-0.5-3.6h1.2l1.1-2.6l-0.5-3.1h-8.9l-0.9,2.6l0.4,3.1h2.6l0.5,3.6H163l-0.9,2.4l0.4,3.3h9.1l1.1-2.4
		l-0.5-3.3H169.5z M202.7,36.7h-3.6l-1.6,2.6l0.5,2h-2.2l-0.5-2.3h-2.7l-0.5-2.3h-3.6l-1.3,2.3h-2.6l-0.4-2.3h-9l-1,2.3h-1.3
		l-1.1,2.5l1.2,7.8h2.7l0.4,2.4h9.1l1.4-2.4h0.8l1.2-2l0.9,4.4h3.7l1.6-2.4l-0.5-2.3h2.3l0.5,2.4h2.7l0.5,2.4h3.7l1.8-2.4
		L202.7,36.7L202.7,36.7z M183.1,46h-5.4l-0.6-3.7h5.4L183.1,46z"/>
</g>
<g>
	<path class="st17" d="M37.5,36.7l-0.7,3.1h8.1L43.5,46h-7.2l0.6-2.3h-3.8l-0.7,3.2h2.7l-0.5,2.4h9.2l0.6-2.4h2.7l2-10.2H37.5z
		 M62,39l0.4-2.3h-9L53,39h-2.7l-2,10.3h3.8l0.4-2.4h7.3l-0.4,2.4h3.8L64.8,39H62z M60.3,43.7h-7.2l0.7-3.8h7.1L60.3,43.7z
		 M66.7,36.7h3.6l-0.9,7h2.7L71.8,46h1.7l0.3-2.3h2.8l0.8-7H81l-0.8,7.8h-2.8l-0.2,2.4h-2.8l-0.3,2.4h-3.8l0.4-2.4h-2.8l0.4-2.4
		h-2.8L66.7,36.7z M94.1,39l0.2-2.3h-9L85.1,39h-2.7l-1.1,10.3h3.8l0.2-2.4h7.3l-0.2,2.4h3.8L96.8,39H94.1L94.1,39z M92.8,43.7h-7.2
		l0.4-3.8h7.1L92.8,43.7z M103.5,36.7l-0.6,12.6h14.8V46h-10.9v-1.5h5.5l0.1-3.2h-5.5l0.1-1.5h10.8v-3.1H103.5z M134.1,46.9
		l-0.3-7.9h-2.7l-0.1-2.3h-11.6v12.6h12.1l-0.1-2.4L134.1,46.9L134.1,46.9z M123.2,46l-0.1-6.2h7.1l0.2,6.2H123.2z M135.3,36.7
		l0.2,3.1h2.7l0.3,6.2h-2.7l0.1,3.3h9.3L145,46h-2.7l-0.4-6.2h2.6l-0.2-3.1H135.3z M145.9,36.7l0.3,3.1h5.4l0.9,9.5h3.7l-1-9.5h5.4
		l-0.4-3.1H145.9z M161.9,36.7l0.4,3.1h2.7l0.8,6.2H163l0.4,3.3h9.3l-0.5-3.3h-2.7l-0.9-6.2h2.7l-0.5-3.1H161.9z M188.4,36.7
		l2.5,12.6h3.8l-1.5-7.2h1.7l0.5,2.4h2.8l0.5,2.4h2.8l0.5,2.4h3.8l-3.1-12.6h-3.6l1.6,7H199l-0.6-2.4h-2.7l-0.5-2.3h-2.7l-0.4-2.3
		H188.4z M188.8,46.9l-1.5-7.9h-2.7l-0.4-2.3h-9l0.4,2.3h-2.7l1.2,7.9h2.8l0.4,2.4h9.3l-0.5-2.4H188.8z M177.7,46l-1-6.2h7.1
		l1.1,6.2H177.7L177.7,46z"/>
</g>
</svg>
