<svg xmlns="http://www.w3.org/2000/svg" viewBox="0 0 276.97656 65.41647"><defs><style>.a{fill:#030303;}.b{fill:#a9a09d;}.c{fill:#29282a;}.d,.k{opacity:0.44;}.e{opacity:0.5;}.f{fill:#5a5558;}.g{fill:#e1dcd7;}.h{fill:#231f20;}.i{fill:#796f6e;}.j{fill:#202228;}.l{fill:#9f9791;}.m{fill:#474249;}.n{fill:#dbd4cf;}</style></defs><polygon class="a" points="11.895 46.021 0 35.023 11.193 0.26 24.285 0.247 30.624 8.906 31.323 6.269 34.966 6.266 36.531 0.235 49.987 0.222 50.787 1.611 51.098 0.22 64.668 0.208 65.391 1.694 65.671 0.207 79.375 0.192 81.804 6.308 82.108 6.335 82.741 7.936 83.848 0.188 97.73 0.176 98.244 1.97 98.436 0.174 127.231 0.144 128.637 13.204 128.341 20.87 127.704 20.87 128.186 24.898 127.873 33.078 127.116 33.078 127.706 37.422 127.375 46.008 98.809 46.012 98.208 44.344 98.036 46.011 84.307 46.014 80.81 38.746 79.763 46.014 66.211 46.015 65.354 44.659 65.115 46.015 51.691 46.017 50.749 44.761 50.485 46.017 37.171 46.019 31.394 39.394 27.924 39.394 26.918 38.276 24.859 46.021 11.895 46.021"/><path class="a" d="M155.8501,13.18994,157.03369.1167,185.9248.08691l.18995,1.86768.50293-1.86816L215.22412.05762l.27149,1.55615.69677-1.55566L244.57031.03027l.33643,1.36573.85937-1.36817L273.95117,0,276.582,8.25l-5.59473,6.72363.06055.21c.38867,1.3169.792,2.65381,1.20117,3.99561.29493.97314,1.24805,4.07129,1.24805,4.07129l1.0957,3.56592.50879,1.67236c.26856.89111.53711,1.78662.80176,2.67969q.397,1.35132.78613,2.69189l.28711,1.07324L265.876,45.99023l-13.29981.001-5.2749-21.44971-6.12939,8.49121-4.34327.002.37549,1.78857-7.834,11.1709-13.55323.00342L215.585,44.582l-.82031,1.416H201.09473l-.20459-1.55078-.71192,1.55078L186.37646,46l-.17285-1.73975L185.61523,46l-13.9541.00293-.13476-2.03418-.44141,2.03369-14.12695.001Z"/><polygon class="a" points="126.43 34.595 127.63 0.145 156.667 0.116 156.901 8.06 155.938 20.852 142.337 20.861 142.195 25.606 157.416 25.601 157.683 34.573 156.582 46.003 127.79 46.008 126.43 34.595"/><polygon class="b" points="24.883 8.13 23.073 14.44 31.106 14.44 32.791 8.207 36.461 8.205 38.022 2.163 48.602 2.152 41.146 34.219 29.736 34.224 33.154 20.605 29.036 20.602 27.256 27.234 19.865 27.237 21.709 20.597 17.535 20.609 13.509 34.229 2.311 34.232 12.595 2.187 22.98 2.177 21.261 7.997 24.883 8.13"/><polygon class="b" points="63.198 2.217 56.893 34.294 45.48 34.298 52.616 2.228 63.198 2.217"/><polygon class="b" points="78.627 23.891 79.576 17.26 75.442 17.182 72.708 34.208 61.286 34.213 67.271 2.134 77.862 2.123 76.935 8.063 80.56 8.153 79.7 14.358 83.778 14.416 85.521 2.115 96.12 2.106 92.404 34.202 80.97 34.206 82.397 23.983 78.627 23.891"/><polygon class="b" points="124.317 27.584 124.027 34.191 96.773 34.201 100.169 2.103 125.433 2.077 125.184 7.76 110.319 7.774 109.851 14.322 124.896 14.361 124.624 20.566 109.299 20.575 108.782 27.526 124.317 27.584"/><path class="b" d="M272.53025,1.93167l1.8115,5.6997-7.3759.0054.0459.1757c.3037,1.2432.6377,2.5142.9912,3.8062.3554,1.2998.7334,2.6221,1.122,3.958.3946,1.3428.7998,2.7026,1.2149,4.0654q.627,2.0589,1.2637,4.1284.3852,1.25475.7734,2.5357c.26171.8579.5273,1.7217.7891,2.5884q.39542,1.30665.7832,2.6186.3867,1.3155.7646,2.6284l-11.5166.003L255.95605,7.646l-7.3828.0069-1.4551-5.6953Z"/><polygon class="b" points="246.021 14.119 247.592 20.491 232.185 20.499 235.04 34.154 223.544 34.158 217.657 1.985 243.043 1.96 244.441 7.656 229.5 7.67 230.847 14.112 246.021 14.119"/><path class="b" d="M201.85445,23.78517l1.418,10.3799-11.4834.0034-3.5566-32.1528,25.3545-.0259,5.5615,32.1714-11.4854.0029-1.4961-10.3657Zm7.4453-12.6279-.6484-4.0826-5.0176.0044.46191,3.7417-3.94231-.0302-.5078-3.7085-4.8565.0053.5107,4.0816,4.46-.003.2031,1.502-2.23919.0024.82029,6.2901,2.6904-.0034-.2031-2.1368,3.9902-.0166.335,2.1519,2.7246-.002-.958-6.2617-2.2227-.0117-.1904-1.5195,4.5898-.0034"/><path class="b" d="M181.93845,17.51957l3.7891-.0025,1.6777,16.6533-11.47259.0044-1.02051-13.5551-4.2481-.1031.8818,13.6582-11.4697.0054-1.2334-32.1377,25.3252-.0229,1.2012,11.9233-3.7774-.0034Zm-7.4844-3.19-.4931-6.6118-4.1231.002.42581,6.6128,4.19039-.003"/><polygon class="b" points="140.258 7.746 154.946 7.735 154.784 2.047 129.489 2.072 128.407 34.19 155.696 34.181 155.51 27.577 139.903 27.584 140.258 7.746"/><path class="c" d="M3.80775,34.23157c-.82318.00022-1.01044.46642-.41613,1.036L11.50778,43.046a4.30445,4.30445,0,0,0,2.57727,1.03561h7.1453c.82319,0,1.03656-.49183.47417-1.093l-7.17274-7.6667a3.9574,3.9574,0,0,0-2.51923-1.09255Z"/><path class="c" d="M31.23255,34.22309c-.82318.00032-1.06419.51687-.53556,1.14789l6.336,7.56328a3.65226,3.65226,0,0,0,2.45784,1.14731h7.4934c.82319,0,1.09476-.54043.6035-1.201l-5.5486-7.46039a3.36266,3.36266,0,0,0-2.3899-1.20038Z"/><path class="c" d="M21.362,27.23668c-.82318.00032-1.05006.5047-.50416,1.12085l7.05352,7.96118a3.25994,3.25994,0,0,0,2.21589,1.06191c.67284-.0321.83588-.60925.3623-1.28257l-.4917-.69907a3.607,3.607,0,0,1-.463-2.667l.13608-.49328a3.33514,3.33514,0,0,0-.52957-2.61742L28.18393,28.409a3.50228,3.50228,0,0,0-2.42428-1.174Z"/><path class="c" d="M46.97715,34.29779c-.82318.00032-1.09762.54312-.60985,1.20623l5.4226,7.37189a3.33981,3.33981,0,0,0,2.38355,1.20566h7.3792c.82319,0,1.13808-.57011.69977-1.2669l-4.56294-7.25381a3.02275,3.02275,0,0,0-2.29363-1.26632Z"/><path class="c" d="M62.78236,34.21222c-.82319.00036-1.14561.57541-.71649,1.2779l4.39658,7.19749a2.9716,2.9716,0,0,0,2.27691,1.27726h7.26249a.85972.85972,0,0,0,.83706-1.3435l-3.47122-7.06991a2.63315,2.63315,0,0,0-2.15634-1.34285Z"/><path class="c" d="M82.46645,34.20549a.8851.8851,0,0,0-.86832,1.359l3.31154,7.1587a2.55757,2.55757,0,0,0,2.12508,1.3584h7.4959a.97857.97857,0,0,0,.9814-1.4052l-2.5925-7.06951a2.30527,2.30527,0,0,0-2.012-1.40462Z"/><path class="c" d="M98.27015,34.20016a.98871.98871,0,0,0-.99272,1.4098l2.44225,6.82941a2.28331,2.28331,0,0,0,2.00068,1.4093h22.17649a1.26621,1.26621,0,0,0,1.287-1.48195l-.9469-6.69341a1.77882,1.77882,0,0,0-1.70635-1.48143Z"/><path class="c" d="M129.904,34.18948a1.31883,1.31883,0,0,0-1.33642,1.48858l.74485,6.91541a1.70921,1.70921,0,0,0,1.657,1.4881h22.06229a1.73033,1.73033,0,0,0,1.672-1.4864l.81722-6.92761a1.30171,1.30171,0,0,0-1.32136-1.48591Z"/><path class="c" d="M161.57285,34.17946A1.74937,1.74937,0,0,0,159.8881,35.665l-.8631,6.815a1.28878,1.28878,0,0,0,1.30865,1.48484h7.3816A1.99446,1.99446,0,0,0,169.559,42.509l1.63974-6.8783a1.12939,1.12939,0,0,0-1.14962-1.4552Z"/><path class="c" d="M177.42936,34.17419a1.99246,1.99246,0,0,0-1.842,1.45689L173.984,42.39235a1.13169,1.13169,0,0,0,1.15136,1.45632h7.37869a2.266,2.266,0,0,0,1.99206-1.41235l2.40378-6.8536a.99528.99528,0,0,0-1.00134-1.41178Z"/><path class="c" d="M193.28575,34.168a2.27449,2.27449,0,0,0-1.99589,1.41145l-2.46742,6.9744a.99243.99243,0,0,0,.99751,1.411h7.3767a2.57017,2.57017,0,0,0,2.1303-1.356l3.3119-7.08785a.88016.88016,0,0,0-.8631-1.35553Z"/><path class="c" d="M209.15975,34.16369a2.62523,2.62523,0,0,0-2.15228,1.34586l-3.46423,7.10983a.86294.86294,0,0,0,.84112,1.34549h7.61209a2.8742,2.8742,0,0,0,2.24456-1.29646l4.15957-7.21078c.41133-.71306.07435-1.29629-.74883-1.29609Z"/><path class="c" d="M225.04065,34.15766a2.96773,2.96773,0,0,0-2.27523,1.27879l-4.41564,7.25013c-.4282.70306-.105,1.27829.71817,1.27829h7.4949a3.26758,3.26758,0,0,0,2.36441-1.21951l5.24508-7.37159c.47724-.67073.19419-1.21928-.629-1.219Z"/><path class="c" d="M264.69395,34.14418a3.795,3.795,0,0,0-2.4874,1.12228l-6.58791,7.46032c-.54488.617-.31718,1.12189.506,1.12189h7.1462a4.24381,4.24381,0,0,0,2.56782-1.04537l7.80405-7.61637c.58912-.57495.39761-1.04519-.42557-1.045Z"/><g class="d"><path class="a" d="M10.70315,7.51932c-.076.20853.53531.38181,1.35849.38507l7.844.031c.82318.00326,1.50637-.17434,1.51819-.39467s-.652-.4006-1.4752-.4006h-7.6106C11.51487,7.14017,10.77916,7.31078,10.70315,7.51932Z"/><path class="a" d="M10.15807,23.82812a1.02018,1.02018,0,0,0-1.02932-1.42185H7.21105c-.82318,0-1.4967.15732-1.4967.3496s.67352.3496,1.4967.3496h.9514a1.02029,1.02029,0,0,1,1.02944,1.42189L7.44581,29.84077a1.0203,1.0203,0,0,0,1.02944,1.4219h5.8806c.82319,0,1.4967-.15732,1.4967-.3496s-.67351-.3496-1.4967-.3496H9.44155a1.02035,1.02035,0,0,1-1.0295-1.42192l.1378-.41937a2.21061,2.21061,0,0,1,1.9639-1.42191h4.5403c.82319,0,1.4967-.15732,1.4967-.3496s-.67351-.3496-1.4967-.3496h-4.3108a1.02018,1.02018,0,0,1-1.02931-1.42185Z"/><path class="a" d="M41.45542,8.89483a1.27367,1.27367,0,0,0-1.29587-1.48151l-2.2708.0025c-.82318.0009-1.557.15777-1.6307.3486s.53952.347,1.3627.347h1.739a1.27552,1.27552,0,0,1,1.296,1.48318L40.337,11.95038a1.76657,1.76657,0,0,1-1.69741,1.48319h-7.1907c-.82318,0-1.4967.15711-1.4967.34915s.67352.34915,1.4967.34915h14.1365c.82319,0,1.4967-.15712,1.4967-.34915s-.67351-.34915-1.4967-.34915h-3.2478a1.27539,1.27539,0,0,1-1.29587-1.48317Z"/><path class="a" d="M51.3302,30.30109c.14737-.80989.052-1.12821-.212-.70737a8.02622,8.02622,0,0,0-.75721,2.23595l-.22388,1.18779a4.17478,4.17478,0,0,0,.56483,2.70817l.37842.55607a9.17477,9.17477,0,0,0,1.64184,1.83087c.43989.32642.42557.03352-.03182-.6509L51.42877,35.574a4.27107,4.27107,0,0,1-.56367-2.71691Z"/><path class="a" d="M62.58205,8.65477c0-.192-.67339-.336-1.49642-.32l-2.94956.05743c-.823.016-1.15552.1602-.73887.32039a8.07448,8.07448,0,0,0,2.25425.29125h1.4339C61.90854,9.00387,62.58205,8.84677,62.58205,8.65477Z"/><path class="a" d="M66.91972,31.99611c.17761-.80379.08916-1.10592-.19656-.67139a6.86016,6.86016,0,0,0-.76516,1.833,4.72963,4.72963,0,0,0,.24,2.31615,9.35806,9.35806,0,0,0,1.02785,1.96825c.29824.38227.32981.05591.07015-.72525l-.3805-1.14471a6.42108,6.42108,0,0,1-.14916-2.88174Z"/><path class="a" d="M64.09445,23.8811c-.82213-.04149-1.5026.08146-1.51215.27322s.65531.38266,1.47744.42423l8.36592.423a2.80758,2.80758,0,0,1,1.97159.81629c.26224.40738.60917.65544.77095.55125s.03632-.59056-.2788-1.0808a2.89188,2.89188,0,0,0-2.06775-.96679Z"/><path class="a" d="M72.95335,7.543a4.70654,4.70654,0,0,0,2.0795.4038h.636c.82319,0,1.4967-.15732,1.4967-.3496s-.67334-.36483-1.49632-.38343L73.86687,7.173C73.04389,7.15439,72.63281,7.32088,72.95335,7.543Z"/><path class="a" d="M82.94162,24.09072c-.82245.03467-1.4892.22039-1.48167.4127s.68662.32123,1.50907.28649l4.86076-.20529a1.18914,1.18914,0,0,1,1.27172,1.41674l-1.0156,6.72041a7.95064,7.95064,0,0,0,.20687,2.91334l.21126.70341a9.65093,9.65093,0,0,0,1.05652,2.31555c.3443.48515.43326.23675.19768-.552L89.00647,35.585a7.98182,7.98182,0,0,1-.20479-2.914L89.92,25.267a1.18936,1.18936,0,0,0-1.27184-1.41686Z"/><path class="a" d="M84.60645,7.374c-.03223.18961.60556.45659,1.41732.5933l8.28476.97183c.817.10088,1.48542.02587,1.48542-.16668s-.66832-.43359-1.48516-.53562L86.141,7.27761C85.32923,7.141,84.63868,7.1844,84.60645,7.374Z"/><path class="a" d="M102.63,28.447a1.43971,1.43971,0,0,0-1.445-1.4958H98.22425c-.82319,0-1.4967.15732-1.4967.3496s.67351.3496,1.4967.3496h2.2371a1.43972,1.43972,0,0,1,1.445,1.4958l-.11938,3.45619a12.55838,12.55838,0,0,0,.3194,2.94578l.55278,2.16005a11.99261,11.99261,0,0,0,.85351,2.316c.26535.4763.3335.20916.15145-.59364l-.8957-3.94992a13.935,13.935,0,0,1-.27933-2.95545Z"/><path class="a" d="M98.47555,11.45292c0,.19241.67351.34985,1.4967.34985h2.8308a5.9396,5.9396,0,0,0,2.25455-.4082c.41682-.22451.08442-.3975-.73866-.38441l-4.34688.06911C99.149,11.09236,98.47555,11.2605,98.47555,11.45292Z"/><path class="a" d="M117.74105,15.04511c-.02035-.82293-.19475-1.49624-.38755-1.49624s-.35055.67351-.35055,1.4967v3.4167c0,.82318.18369,1.10351.4082.62295a6.50384,6.50384,0,0,0,.3712-2.37Z"/><path class="a" d="M121.14554,27.786a1.56653,1.56653,0,0,1-1.54949,1.49577h-2.2615a1.50109,1.50109,0,0,0-1.4967,1.4967v2.2507c0,.82318.15712,1.4967.34915,1.4967s.34915-.67352.34915-1.4967v-1.5515a1.50109,1.50109,0,0,1,1.4967-1.4967h2.241a1.56434,1.56434,0,0,0,1.54776-1.49583l.02478-.72564c.02808-.82271-.10583-1.50144-.29759-1.50828s-.37241.66064-.40144,1.48332Z"/><path class="a" d="M149.8076,29.34352a4.90188,4.90188,0,0,0-.13333,2.04571l.14946,1.41047a14.79555,14.79555,0,0,1-.04709,2.971l-.98488,7.12946c-.11265.81544-.01212,1.47373.22339,1.46287s.51079-.68819.61174-1.50516l.87411-7.07409a15.71908,15.71908,0,0,0,.02536-2.97372l-.26951-2.53557C150.16984,29.45591,149.96768,29.037,149.8076,29.34352Z"/><path class="a" d="M128.77245,40.35257c0,.19228.67351.3496,1.4967.3496h.3875c.82318,0,1.4967-.15732,1.4967-.3496s-.67352-.3496-1.4967-.3496h-.3875C129.446,40.003,128.77245,40.16029,128.77245,40.35257Z"/><path class="a" d="M131.4541,12.384a12.32016,12.32016,0,0,0,2.15921.67993l5.76517,1.0302c.756.32583,1.43731.44794,1.51412.27137s-.49957-.53324-1.28084-.79258l-7.38686-1.2581C131.41637,12.1602,131.06951,12.19132,131.4541,12.384Z"/><path class="a" d="M131.335,18.85157c.3201-.22451-.09107-.3838-.91372-.354l-.26826.00973c-.82265.02983-1.49572.21133-1.49572.40334s.47153.3491,1.04785.3491A3.38847,3.38847,0,0,0,131.335,18.85157Z"/><path class="a" d="M163.9131,12.73292c.05.44877.76436.816,1.58755.816h.655a12.256,12.256,0,0,1,1.7218.0769c.1238.04229.58631.373.75095.27365s.04447-.37337-.26705-.6089a4.52311,4.52311,0,0,0-2.09339-.43611l-.14041-.00029a1.72091,1.72091,0,0,1-1.66232-1.49056L163.54647,3.112c-.09109-.81813-.32184-1.46991-.51277-1.4484s-.27276.70849-.18183,1.52664l.727,6.541a1.31291,1.31291,0,0,1-1.33138,1.48754h-2.3787c-.82319,0-1.4967.15709-1.4967.3491s.67351.3491,1.4967.3491h2.4568C163.14873,11.917,163.86313,12.28414,163.9131,12.73292Z"/><path class="a" d="M162.91294,29.1538a5.78566,5.78566,0,0,1-.64463,2.78992l-.62448.70428c-.19188.80051-.1953,1.48832-.00758,1.52847s.54661-.56846.79755-1.35247a2.84033,2.84033,0,0,1,.39825-.77423c.30294-.43291.63538-.7871.73875-.7871s.14164-.67192.085-1.49316l-.26-3.77249a1.38122,1.38122,0,0,1,1.3938-1.49315H170.394c.82318,0,1.4967-.15732,1.4967-.3496s-.67352-.3496-1.4967-.3496h-6.35231a1.38141,1.38141,0,0,0-1.394,1.49317Z"/><path class="a" d="M174.68745,26.25122c0,.19241.67351.34985,1.4967.34985h3.7635a5.8035,5.8035,0,0,0,2.1388-.35035c.35315-.1927-.03142-.35027-.8546-.35017l-5.0477.00063C175.361,25.90128,174.68745,26.0588,174.68745,26.25122Z"/><path class="a" d="M177.92085,16.38307a4.26434,4.26434,0,0,0,1.8756.3137h1.0858c.82318,0,1.4967-.15732,1.4967-.3496s-.67344-.33961-1.49654-.32739l-1.84393.02737C178.21539,16.05937,177.71245,16.21053,177.92085,16.38307Z"/><path class="a" d="M158.72215,40.93477c-.01425.19134.64586.39647,1.4669.45584l8.3181.60151c.821.05937,1.50445-.04892,1.5187-.24065s-.64587-.3971-1.46692-.45637l-8.31807-.60047C159.41982,40.63536,158.73639,40.74342,158.72215,40.93477Z"/><path class="a" d="M207.29447,26.003c-.82314.00856-1.4953.1729-1.49367.36518s.67643.34256,1.49957.334l10.17372,1.132c.81936.07918,1.5449-.00337,1.61231-.18344s-.54759-.39478-1.36665-.47713Z"/><path class="a" d="M239.01515,13.083c-.18128.06366-.29576.78841-.25439,1.61056l.931,4.68927c-.3531.74361-.50093,1.42233-.3285,1.50827S239.97,20.441,240.3284,19.7l-.91031-5.23781C239.37775,13.64,239.19643,13.01935,239.01515,13.083Z"/><path class="a" d="M233.6162,4.34327a2.01853,2.01853,0,0,1-1.76415-1.39135c-.23551-.76525-.57873-1.34532-.7627-1.289s-.13654.74606.10542,1.53288l.128.41613a2.05656,2.05656,0,0,0,1.78467,1.43059,2.14019,2.14019,0,0,1,1.83045,1.4157l.347,1.0114c.26714.77863.634,1.36482.81526,1.30265s.11141-.75026-.15521-1.52907l-.508-1.48386A2.13275,2.13275,0,0,0,233.6162,4.34327Z"/><path class="a" d="M261.25455,24.62107c-.82319,0-1.4967.15732-1.4967.3496s.67351.3496,1.4967.3496h9.5935c.82318,0,1.4967-.15732,1.4967-.3496s-.67352-.3496-1.4967-.3496Z"/><path class="a" d="M268.49655,8.189c.18557-.05049.1603-.74162-.05615-1.53584L267.48049,3.131c-.21645-.79422-.54517-1.40239-.73049-1.35148s-.1599.74237.05649,1.53661l.95921,3.52058C267.9821,7.63094,268.311,8.23946,268.49655,8.189Z"/></g><path class="a" d="M35.95555,7.98487h3.1337c.82319,0,.83573-.12939.02788-.28752l-1.08335-.21207c-.80786-.15813-1.42882-.01175-1.37993.32529Z"/><path class="a" d="M18.41555,39.01127a2.77744,2.77744,0,0,0-2.06815-.46l-1.8066.22078c-.81711.09985-.81675.26027.0008.35647l2.97.34948C18.32915,39.57416,18.73593,39.36415,18.41555,39.01127Z"/><path class="a" d="M48.0735,42.85767a2.3306,2.3306,0,0,0-1.8988-.51452l-3.89189.32983c-.82025.06951-.82061.18738-.00081.26192l4.7084.42813C47.8102,43.43758,48.2976,43.21016,48.0735,42.85767Z"/><path class="a" d="M83.96675,41.40062c-.09614-.32024.49843-.56251,1.32126-.53839l.97078.02847c.82283.02413.84922.23153.05863.4609l-.73844.21424C84.78839,41.7952,84.06289,41.72085,83.96675,41.40062Z"/><path class="a" d="M125.044,39.12867c-.06336-.48087-.78195-.779-1.59686-.66263l-2.74768.39255c-.81492.11642-.81629.31613-.00307.44379l2.98422.46847C124.49378,39.89852,125.10731,39.60953,125.044,39.12867Z"/><path class="a" d="M128.4785,40.79442c-.04029-.48046.59582-.79631,1.41357-.70191l.085.00981c.81776.09441.87933.46245.13683.81788l-.2121.10153C129.15925,41.37716,128.51879,41.27487,128.4785,40.79442Z"/><path class="a" d="M102.4956,32.77732c-.09639-.705-.28028-.75748-.40865-.1167a6.47165,6.47165,0,0,0,.19634,2.59872l.18832.62825c.23636.78852.38227.76184.32425-.0593l-.01952-.27625C102.71832,34.73091,102.592,33.48228,102.4956,32.77732Z"/><path class="a" d="M116.1289,33.30152c-.16008-.28829-.26771.149-.23918.97165l.01346.3883c.02853.82269.15647.97119.28432.33A3.16266,3.16266,0,0,0,116.1289,33.30152Z"/><path class="a" d="M88.51075,33.00952c-.03223-.70508-.1632-.70508-.291,0a6.52685,6.52685,0,0,0,.24032,2.702l.21856.65646c.26.781.36219.75569.227-.05632l-.09052-.54383C88.67993,34.95584,88.543,33.71459,88.51075,33.00952Z"/><path class="a" d="M66.3113,33.53492c-.12823-.28829-.33829-.236-.4668.1162a1.94363,1.94363,0,0,0,.29175,1.45655c.289.44891.499.39662.4668-.1162A5.2927,5.2927,0,0,0,66.3113,33.53492Z"/><path class="a" d="M50.81225,33.04027c-.15994-.7051-.44838-.62718-.641.17315l-.00034.00139a2.964,2.964,0,0,0,.69842,2.50471c.57673.57725.86525.499.64115-.17385S50.97219,33.74537,50.81225,33.04027Z"/><path class="a" d="M22.90355,32.02027c-.22412-.28859.26349-.46643,1.08359-.39521l2.37672.20641c.8201.07122.82307.21535.0066.32029l-1.57492.20241A2.50657,2.50657,0,0,1,22.90355,32.02027Z"/><path class="a" d="M150.0039,32.51c.11657-.81489.35306-.823.52554-.01813l.072.33614a7.4361,7.4361,0,0,1-.07,2.91018l-.28358,1.06949c-.211.79569-.40318.77348-.4271-.04936l-.02822-.97077a21.09736,21.09736,0,0,1,.16846-2.97768Z"/><path class="a" d="M140.65915,14.53977c0,.35222-.55708.26187-1.238-.20077l-.43808-.29767c-.68088-.46264-.583-.684.21743-.492l.00322.00077C140.00422,13.74222,140.65915,14.18755,140.65915,14.53977Z"/><path class="a" d="M186.1655,38.25362c.09534-.32079-.49989-.56381-1.32273-.54005l-1.084.0313c-.82284.02376-.84771.22553-.05526.44838l.84787.23843C185.34378,38.65453,186.07016,38.5744,186.1655,38.25362Z"/><path class="a" d="M180.33885,33.301c-.224-.48057-.38234-.2007-.352.62193l.00571.15464c.03038.82262.21233,1.181.40434.79643A2.076,2.076,0,0,0,180.33885,33.301Z"/><path class="a" d="M201.024,39.71117c.12864-.3525-.43748-.58723-1.258-.52164l-2.84431.22737c-.82057.0656-.8261.22061-.01229.34448l2.40108.36547C200.1242,40.25072,200.8953,40.06366,201.024,39.71117Z"/><path class="a" d="M198.11135,33.47607c-.12782-.38429-.31129-.41032-.4077-.05785a4.70584,4.70584,0,0,0,.0571,1.7478c.12782.60882.31128.63485.4077.05785A4.44,4.44,0,0,0,198.11135,33.47607Z"/><path class="a" d="M239.4214,21.06572c-.28818-.09628-.262-.77787.0581-1.51465s.55623-.66658.52468.156l-.00146.0381C239.97116,20.56775,239.70957,21.162,239.4214,21.06572Z"/><path class="a" d="M219.84375,38.89527a2.49873,2.49873,0,0,1,2.00456-.419l4.03288.6046c.81409.122.80693.24144-.01591.26532l-5.04986.14656C219.99258,39.51663,219.55533,39.24776,219.84375,38.89527Z"/><path class="a" d="M258.0664,38.895a2.296,2.296,0,0,1,2.11023-.59094l3.70533.71508c.80827.156.79724.32321-.02453.3716l-4.93757.29081C258.0981,39.73,257.714,39.376,258.0664,38.895Z"/><path class="a" d="M259.58205,24.91037c-.16-.5445.37523-.89123,1.18951-.7705l3.33.4937c.81428.12072.81806.341.00838.48956l-2.76473.50718A1.5101,1.5101,0,0,1,259.58205,24.91037Z"/><g class="e"><path class="a" d="M255.67875,8.71262a3.39263,3.39263,0,0,1-.5221-1.90363l-.0057-.15415c-.03041-.82262.11725-.84464.32814-.04892l.283,1.06789C255.973,8.46953,255.93549,8.937,255.67875,8.71262Z"/></g><path class="a" d="M218.61915,28.23337l-2.10557-.84275c-.76424-.30588-.71895-.49337.10065-.41663l2.23832.20958"/><g class="e"><path class="a" d="M138.6201,34.991a2.63722,2.63722,0,0,0,0-1.5735c-.16008-.41652-.96457-.7573-1.78775-.7573h-.8523a2.57149,2.57149,0,0,0-2.0211.87475c-.28842.48111.12323,1.05966.91478,1.28567l2.01613.57565C137.68142,35.62225,138.46,35.43988,138.6201,34.991Z"/></g><path class="a" d="M137.22165,33.82617c-.54516-.57684-.519-1.0488.0581-1.0488a2.28177,2.28177,0,0,1,1.57275.64085,1.933,1.933,0,0,1-.26935,1.91033l-.1614.25844c-.436.69821-.66142.82364-.50085.27873A2.46372,2.46372,0,0,0,137.22165,33.82617Z"/><path class="a" d="M84.49025,7.60572c.06391-.44861.76956-.65212,1.56811-.45224l.35788.08957c.79855.19988.796.51639-.00567.70336l-.57894.135C85.03,8.26839,84.42634,8.05432,84.49025,7.60572Z"/><path class="a" d="M46.79125,13.95682c-.15994.28828-.94551.36613-1.74572.173l-.46856-.11309c-.8002-.19313-.78257-.3907.0392-.439l.97176-.05715C46.4097,13.47221,46.95119,13.66853,46.79125,13.95682Z"/><path class="a" d="M16.4343,26.83472c.12851-.3847-.4275-.571-1.23557-.414l-1.25536.24393c-.80807.157-.80382.38976.00943.51721l.7692.12055C15.53526,27.42989,16.3058,27.21941,16.4343,26.83472Z"/><path class="c" d="M18.7661,39.12867a2.576,2.576,0,0,1-.04394-1.96021l.32078-1.09179c.232-.7898.39065-.76321.35244.05908l-.094,2.022C19.26321,38.98008,19.02232,39.417,18.7661,39.12867Z"/><path class="c" d="M47.89945,42.97317c-.25673-.1606-.25673-.86845,0-1.573s.4668-.60749.4668.2157v.1526C48.36625,42.59165,48.15619,43.13377,47.89945,42.97317Z"/><path class="c" d="M74.177,25.43582c-.03154-.51307.18857-.30584.48914.46051l.18723.47737c.30056.76635.28424,1.07873-.03627.69417A3.30166,3.30166,0,0,1,74.177,25.43582Z"/><path class="c" d="M220.19385,39.36157c.28814-.2244.33877-1.05558.1125-1.84705l-.3432-1.2005c-.22627-.79148-.39514-.76573-.37527.05721l.04593,1.90207C219.65369,39.09625,219.9057,39.586,220.19385,39.36157Z"/><path class="c" d="M258.6499,39.128c.41654-.22451.47509-1.01972.13011-1.76713l-1.54243-3.34174c-.345-.74742-.50377-.69683-.35287.1124l.73347,3.93333C257.76908,38.87406,258.23335,39.35248,258.6499,39.128Z"/><path class="c" d="M260.28125,24.853c-.1606-.32041-.58841.02223-.95068.76142l-1.59575,3.256c-.36227.73918-.26093.80044.22521.13613l1.72933-2.36313C260.1755,25.97909,260.44185,25.17342,260.28125,24.853Z"/><path class="a" d="M235.28415,8.88867l.06532-1.8836c.02853-.82269.22013-.84364.42578-.04656l.5578,2.16206"/><path class="f" d="M13.23045,39.94412c-.73716-.22438-.68465-.35544.1167-.29125s1.98139.19536,2.6223.2915.5884.2272-.1167.29125A8.24706,8.24706,0,0,1,13.23045,39.94412Z"/><path class="f" d="M50.1229,35.817c-.58215-.582-.66694-.51017-.18843.15966l.59006.826a8.02245,8.02245,0,0,0,1.68617,1.74276c.44888.28869.42274.05282-.0581-.52415S50.80205,36.496,50.2199,35.914Z"/><path class="f" d="M65.146,34.17477c-.19255,0-.08784.55086.2327,1.22415s.47809.67328.3501,0S65.33851,34.17477,65.146,34.17477Z"/><path class="f" d="M86.58935,41.63427c-.641-.06419-.50286-.23724.307-.38457l.89863-.16347c.80989-.14732,1.13217-.058.71618.19844A3.62845,3.62845,0,0,1,86.58935,41.63427Z"/><path class="f" d="M101.5625,35.399c-.28845-.41707-.39348-.15494-.2334.5825a11.183,11.183,0,0,0,.93165,2.5061c.35233.64091.48778.50935.301-.29237l-.1352-.58027A8.00479,8.00479,0,0,0,101.5625,35.399Z"/><path class="f" d="M151.08935,36.68117c-.09586-.4807-.33162-.40216-.5239.17455a9.3792,9.3792,0,0,0-.3496,2.447c0,.76914.21283.75944.47295-.02156l.10191-.306A5.66666,5.66666,0,0,0,151.08935,36.68117Z"/><path class="f" d="M134.5874,33.47147c-.16409-.49132-.53631-.40782-.82715.18555a1.37135,1.37135,0,0,0,.81772,1.7323l.03356.01629c.74059.3594,1.10525.27224.81037-.19369A9.65653,9.65653,0,0,1,134.5874,33.47147Z"/><path class="f" d="M162.27685,41.86717c-.73717-.19228-.66679-.3496.1564-.3496h.2702a10.36705,10.36705,0,0,1,2.8361.46585c.73667.25621.66759.418-.15351.35943l-.276-.01967A18.9028,18.9028,0,0,1,162.27685,41.86717Z"/><path class="f" d="M180.98045,35.39942c-.06391-.28845-.29989-.02633-.5244.5825s-.17222.84482.1162.52445A1.4996,1.4996,0,0,0,180.98045,35.39942Z"/><path class="f" d="M198.97265,34.76317c-.06446-.2887-.30044-.02655-.5244.58255s-.17122.8453.1172.5249A1.4968,1.4968,0,0,0,198.97265,34.76317Z"/><path class="f" d="M196.084,40.16912c-.80835-.15557-.79936-.34781.02-.4272l.63385-.06141a4.42253,4.42253,0,0,1,2.247.32221c.41651.2566.28511.46655-.292.46655a16.56521,16.56521,0,0,1-2.519-.28286Z"/><path class="f" d="M222.5254,40.11917c-.73692.06391-.73692-.06749,0-.292a8.99422,8.99422,0,0,1,2.83105-.28l1.0957.0942c.82016.07051.81878.16668-.00306.21372l-1.08959.06236C224.53766,39.96448,223.26231,40.05526,222.5254,40.11917Z"/><path class="c" d="M239.59665,21.29862a3.528,3.528,0,0,0-1.27479,1.67284l-.01383.03321c-.31657.75988-.16851.845.329.1892l.75419-.99411C239.88877,21.54394,239.98121,21.13843,239.59665,21.29862Z"/><path class="a" d="M268.55615,8.53807c-.35261,0-.70616-.67037-.78567-1.48971L267.709,6.415c-.07951-.81934.13282-.876.47184-.12583l.4.88505C268.91986,7.92432,268.90875,8.53807,268.55615,8.53807Z"/><path class="a" d="M158.43065,11.85887c-.03223-.41652.61454-.73492,1.43727-.70757l.50335.01673c.82274.02736.87358.30736.113.62223l-.61214.25341C159.11155,12.35854,158.46288,12.27538,158.43065,11.85887Z"/><path class="a" d="M117.46925,13.37407c-.32038-.16033-.4962.37646-.39073,1.19286l.08326.64447c.10547.8164.343.828.52782.02588l.02609-.11323C117.90052,14.32188,117.78962,13.53439,117.46925,13.37407Z"/><path class="a" d="M80.81885,24.73657c-.09641-.32054.49822-.5828,1.3214-.5828h3.1834c.82319,0,.83627.13212.02908.29361l-2.891.57837C81.65458,25.18724,80.91527,25.05711,80.81885,24.73657Z"/><path class="a" d="M15.7649,31.14547c.04821-.24063-.58586-.4375-1.40905-.4375H13.59c-.82318,0-.8424.15974-.0427.355l.676.165C15.023,31.42323,15.71669,31.38609,15.7649,31.14547Z"/><path class="g" d="M4.17966,33.80878c-.82314.00929-1.36532.14829-1.20486.30889a3.904,3.904,0,0,0,1.78845.292h6.097a3.342,3.342,0,0,0,1.7877-.34985c.16005-.19242-.38247-.34226-1.2056-.333Z"/><path class="g" d="M31.79886,33.80878c-.82314.00929-1.36521.14829-1.20461.30889a3.90579,3.90579,0,0,0,1.7887.292h6.0945a3.34753,3.34753,0,0,0,1.78865-.34985c.16057-.19242-.38152-.34226-1.20465-.333Z"/><path class="g" d="M47.32641,33.68811c-.82272.02759-1.451.18156-1.39626.34216s.77312.292,1.5963.292h.1043c.82319,0,1.54141-.15777,1.596-.3506s-.57379-.328-1.39651-.30045Z"/><path class="g" d="M19.62081,20.14126c-.82272.02756-1.45113.18108-1.39646.34116s.77292.291,1.5961.291h.1042c.82319,0,1.54152-.15732,1.5963-.3496s-.57354-.327-1.39626-.29949Z"/><path class="g" d="M31.06961,20.14126c-.82272.02756-1.45115.18108-1.39651.34116s.77287.291,1.596.291h.1067c.82319,0,1.54109-.15732,1.59535-.3496s-.57449-.32706-1.39721-.2995Z"/><path class="g" d="M8.17192,21.97087c-.82262.03052-1.45589.18656-1.40727.34675s.71593.29125,1.4829.29125,1.43482-.15732,1.4841-.3496-.58345-.32463-1.40607-.2941Z"/><path class="g" d="M21.89341,26.6314c-.823.01472-1.41372.15817-1.31261.31877a3.19314,3.19314,0,0,0,1.68056.292h2.73949c.82319,0,1.57932-.15744,1.6803-.34985s-.48981-.33781-1.31286-.32308Z"/><path class="g" d="M15.60041,6.705c-.82305.01485-1.41384.15783-1.31286.31775a3.20324,3.20324,0,0,0,1.6803.29075h2.74c.82319,0,1.57943-.1571,1.68055-.3491s-.48955-.33695-1.3126-.3221Z"/><path class="g" d="M63.23271,33.68811c-.82272.02759-1.451.18156-1.39626.34216s.77312.292,1.5963.292H63.537c.82318,0,1.54143-.15777,1.59609-.3506s-.57374-.328-1.39646-.30045Z"/><path class="g" d="M90.41461,33.68256c-.82261.03064-1.45568.18711-1.40681.34771s.7164.292,1.4834.292,1.435-.15777,1.4844-.3506-.5832-.32553-1.40581-.29489Z"/><path class="g" d="M68.30253,33.7074c-.823.017-1.42386.16227-1.33523.32287a3.05462,3.05462,0,0,0,1.65785.292h2.0437c.82319,0,1.5692-.15777,1.6578-.3506s-.51227-.33671-1.33528-.31974Z"/><path class="g" d="M82.724,33.7104c-.823.01533-1.416.15927-1.31774.31987a3.16137,3.16137,0,0,0,1.6754.292h2.5828c.82319,0,1.57757-.15777,1.6764-.3506s-.4937-.33806-1.31674-.32273Z"/><path class="g" d="M98.63,33.70042c-.82292.02081-1.43689.16925-1.36437.32985a2.88143,2.88143,0,0,0,1.62855.292h1.1121c.82318,0,1.556-.15777,1.6285-.3506s-.5415-.33357-1.36442-.31275Z"/><path class="g" d="M130.18177,33.70042c-.82292.02082-1.43669.16925-1.36392.32985a2.884,2.884,0,0,0,1.629.292H131.558c.82318,0,1.55625-.15777,1.629-.3506s-.541-.33357-1.36387-.31276Z"/><path class="g" d="M152.64254,33.69561c-.82285.02346-1.44358.17406-1.37939.33466s.79021.292,1.6134.292h.6482c.82318,0,1.54966-.15777,1.6144-.3506s-.55554-.33141-1.37839-.308Z"/><path class="g" d="M163.83152,33.71853c-.82312.01085-1.383.15114-1.24412.31174a3.63488,3.63488,0,0,0,1.74915.292H169.22a3.116,3.116,0,0,0,1.74915-.3506c.13885-.19283-.421-.34172-1.24411-.33087Z"/><path class="g" d="M177.63947,33.69014c-.82276.02647-1.44912.17953-1.39192.34013s.77751.292,1.6007.292h.2351c.82318,0,1.54307-.15777,1.59975-.3506s-.57012-.32894-1.39288-.30247Z"/><path class="g" d="M182.62134,33.70772c-.823.0168-1.42277.16195-1.33279.32255a3.06936,3.06936,0,0,0,1.6603.292h2.0955c.82318,0,1.57007-.15777,1.65975-.3506s-.51033-.33686-1.33334-.32006Z"/><path class="g" d="M193.63592,33.70223c-.82294.01982-1.43408.16744-1.35807.328a2.91842,2.91842,0,0,0,1.6349.292h1.3171c.82318,0,1.55954-.15777,1.63635-.3506s-.53367-.33439-1.35662-.31457Z"/><path class="g" d="M200.1894,33.69434c-.82283.02416-1.44487.17533-1.3823.33593s.78726.292,1.61045.292h.5438c.82318,0,1.54766-.15777,1.60995-.3506s-.56-.33083-1.38281-.30667Z"/><path class="g" d="M209.45466,33.7223c-.82314.00878-1.35621.14737-1.18461.308a4.04732,4.04732,0,0,0,1.8087.292h6.741a3.46289,3.46289,0,0,0,1.8092-.3506c.17187-.19283-.361-.34342-1.18412-.33463Z"/><path class="g" d="M225.18706,33.7223c-.82314.00878-1.35644.14737-1.18511.308a4.04373,4.04373,0,0,0,1.8082.292h6.7429a3.46587,3.46587,0,0,0,1.8097-.3506c.17215-.19283-.36048-.34342-1.18362-.33464Z"/><path class="g" d="M264.95366,33.7223c-.82314.00878-1.356.14737-1.18411.308a4.05089,4.05089,0,0,0,1.8092.292h6.741a3.46289,3.46289,0,0,0,1.8092-.3506c.17187-.19283-.361-.34342-1.18412-.33464Z"/><path class="g" d="M250.35678,7.228c-.823.01561-1.4169.15934-1.31968.31939a3.15852,3.15852,0,0,0,1.67345.291h2.4793c.82318,0,1.576-.15732,1.67295-.3496s-.49715-.33683-1.32018-.32122Z"/><path class="g" d="M237.94664,7.23149c-.82307.01368-1.40618.15583-1.29579.31588a3.308,3.308,0,0,0,1.6974.291H241.603a2.84432,2.84432,0,0,0,1.69784-.3496c.11063-.19228-.47228-.33841-1.29535-.32473Z"/><path class="g" d="M231.65253,7.221c-.823.01946-1.433.16634-1.35568.32639a2.94091,2.94091,0,0,0,1.6373.291h1.3973c.82318,0,1.56062-.15732,1.63875-.3496s-.53128-.33368-1.35424-.31422Z"/><path class="g" d="M233.75229,20.077c-.823.01512-1.41515.15856-1.31579.31875a3.18032,3.18032,0,0,0,1.67735.29125h2.6355c.82318,0,1.578-.15732,1.6774-.3496s-.4927-.33723-1.31575-.32211Z"/><path class="g" d="M195.382,6.34739c-.823.01946-1.43234.16646-1.35418.32668a2.94724,2.94724,0,0,0,1.6388.2913H197.061c.82318,0,1.56-.15744,1.63729-.34985s-.53273-.33393-1.35568-.31448Z"/><path class="g" d="M204.297,6.34739c-.823.01946-1.433.16646-1.35563.32668a2.93869,2.93869,0,0,0,1.63735.2913H205.977c.82318,0,1.55976-.15744,1.63684-.34985s-.53318-.33394-1.35613-.31448Z"/><path class="g" d="M198.5913,12.00487c-.6652.03168-1.17847.189-1.1406.3496s.55136.292,1.1411.292,1.103-.15732,1.1406-.3496S199.25649,11.97319,198.5913,12.00487Z"/><path class="g" d="M201.76411,10.17012c-.82256.03209-1.45734.18954-1.41061.3499s.68941.29155,1.4282.29155,1.3817-.15777,1.4287-.3506-.58756-.32435-1.41012-.29226Z"/><path class="g" d="M162.08346,10.51958c-.82259.0314-1.45716.18849-1.41016.34909s.69014.292,1.4292.292,1.38265-.15744,1.4302-.34985-.58658-.32417-1.40916-.29277Z"/><path class="g" d="M172.0457,19.7949c-.82277.02605-1.44893.17811-1.39145.33792s.778.29055,1.6012.29055h.26051c.82318,0,1.54329-.1569,1.60024-.34865s-.56963-.32734-1.3924-.30129Z"/><path class="g" d="M165.05494,23.133c-.823.01683-1.42342.16156-1.33424.32161a3.06947,3.06947,0,0,0,1.65885.291h2.0388c.82318,0,1.56964-.1571,1.6588-.3491s-.51128-.33533-1.33429-.31849Z"/><path class="g" d="M263.99153,23.8319c-.823.017-1.42344.16184-1.33428.32192a3.06879,3.06879,0,0,0,1.6588.29105h2.0398c.82318,0,1.56964-.15735,1.6588-.34965s-.51128-.33576-1.33429-.31879Z"/><path class="g" d="M99.417,26.44363c-.82289.02213-1.44122.17141-1.37406.33174s.79561.2915,1.6188.2915h.8015c.82318,0,1.55162-.1571,1.61875-.3491s-.55122-.331-1.37411-.30886Z"/><path class="g" d="M85.4327,23.6472c-.82288.02242-1.44123.17183-1.3741.332s.79557.29125,1.61876.29125h.80149c.82319,0,1.55165-.15732,1.6188-.3496s-.55116-.33126-1.374-.30884Z"/><path class="g" d="M65.5054,23.38549c-.82288.02243-1.4412.17195-1.374.33228s.79562.2915,1.6188.2915h.8029c.82319,0,1.55108-.15744,1.61755-.34985s-.55241-.33151-1.37529-.30908Z"/><path class="g" d="M35.35485,12.72461c-.82307.01345-1.42211.15583-1.3312.31641a3.09178,3.09178,0,0,0,1.662.29731l2.19562.00787c.82318.003,1.57249-.15173,1.66514-.34373s-.505-.3381-1.328-.32465Z"/><path class="g" d="M91.944,7.65536c-.81837-.08893-1.45147-.02426-1.40689.14371s.7484.39631,1.56405.50743l.7938.10814c.81565.11111,1.559.0535,1.65195-.128s-.50062-.40281-1.319-.49174Z"/><path class="g" d="M177.72659,25.3074c-.82288.02242-1.4412.17183-1.374.332s.79562.29125,1.61881.29125h.80249c.82318,0,1.5514-.15732,1.61825-.3496s-.55171-.33126-1.37459-.30884Z"/><path class="g" d="M202.89848,22.85975c-.82287.02262-1.441.17229-1.37358.33262s.79606.2915,1.61925.2915h.7996c.82318,0,1.55184-.15766,1.61925-.35035s-.55071-.33185-1.37359-.30924Z"/><path class="g" d="M142.41749,6.98155c-.82315.00721-1.32523.14418-1.11574.30437a4.56968,4.56968,0,0,0,1.87761.29125h8.85809a3.89056,3.89056,0,0,0,1.8771-.34985c.20922-.19242-.29309-.34395-1.11624-.33674Z"/><path class="g" d="M112.441,7.06942c-.82316.00695-1.31955.14348-1.1031.3034a4.675,4.675,0,0,0,1.89025.29075h9.2419a3.98,3.98,0,0,0,1.8898-.3491c.2162-.192-.28039-.34341-1.10355-.33646Z"/><path class="g" d="M110.86667,19.81913c-.82309.01273-1.40029.15388-1.28267.31369a3.39646,3.39646,0,0,0,1.71055.29055h3.6677a2.91858,2.91858,0,0,0,1.7106-.34865c.11764-.19176-.45954-.33824-1.28262-.32552Z"/><path class="g" d="M118.90565,19.81771c-.82308.0135-1.40553.1553-1.29435.31511a3.32162,3.32162,0,0,0,1.69885.29055h3.2781a2.8559,2.8559,0,0,0,1.69885-.34865c.11118-.19176-.47128-.3376-1.29435-.32409Z"/><path class="g" d="M136.12477,32.02674c-.8227.02829-1.4521.18238-1.39867.34243s.77066.291,1.59385.291h.0261c.82318,0,1.54064-.15732,1.59435-.3496s-.57547-.32646-1.39817-.29818Z"/><path class="g" d="M133.75935,11.53869c-.8178-.09406-1.44075-.03182-1.38435.13833s.76975.40135,1.58522.5138l1.50336.2073c.81547.11244,1.5688.05745,1.67407-.1222s-.4777-.40361-1.2955-.49767Z"/><path class="g" d="M208.92348,25.348c-.81781-.0939-1.44036-.03209-1.38343.13737a2.96519,2.96519,0,0,0,1.58608.51316l1.50063.20757c.81542.11279,1.56872.05805,1.674-.12163s-.47772-.40353-1.29553-.49744Z"/><path class="g" d="M206.1958,12.00487c-.61686.03168-1.093.189-1.0581.3496s.51081.292,1.0576.292,1.02292-.15732,1.0581-.3496S206.81265,11.97319,206.1958,12.00487Z"/><path class="g" d="M241.70544,20.07969c-.82307.01363-1.4064.15584-1.29629.316a3.30251,3.30251,0,0,0,1.6969.29125h3.2566a2.83673,2.83673,0,0,0,1.6964-.3496c.10983-.19228-.47373-.33846-1.2968-.32483Z"/><path class="g" d="M270.54605,7.22177c-.823.019-1.43126.16555-1.35175.3256a2.96421,2.96421,0,0,0,1.64125.291h1.4988c.82318,0,1.56152-.15732,1.64075-.3496s-.52929-.334-1.35225-.315Z"/><path class="g" d="M141.19484,33.72019c-.82313.00994-1.37266.14948-1.22119.31008a3.7906,3.7906,0,0,0,1.7721.292H147.35a3.25154,3.25154,0,0,0,1.77309-.3506c.152-.19283-.39707-.34247-1.22019-.33252Z"/><path class="g" d="M104.48789,33.72452c-.82315.00756-1.33383.14515-1.13484.30575a4.41339,4.41339,0,0,0,1.8585.292h8.3171a3.76549,3.76549,0,0,0,1.85855-.3506c.199-.19283-.31164-.34442-1.13479-.33685Z"/><path class="g" d="M118.12144,33.71318c-.82307.0138-1.40705.15649-1.29774.31709a3.286,3.286,0,0,0,1.69545.292h3.2029a2.82528,2.82528,0,0,0,1.69545-.3506c.10931-.19283-.47467-.33931-1.29774-.32552Z"/><path class="g" d="M53.24183,33.79029c-.82295.01946-1.43409.16678-1.35808.32738a2.91845,2.91845,0,0,0,1.6349.292h1.345c.82319,0,1.55954-.15744,1.63635-.34985s-.53367-.33394-1.35663-.31448Z"/><polygon class="h" points="70.453 65.416 63.384 53.512 67.099 36.424 210.512 36.424 214.226 53.512 207.157 65.416 70.453 65.416"/><polygon class="i" points="209.306 37.92 139.805 37.92 137.806 37.92 68.305 37.92 64.971 53.254 71.305 63.92 137.639 63.92 138.472 63.92 139.139 63.92 139.972 63.92 206.306 63.92 212.639 53.254 209.306 37.92"/><polygon class="j" points="65.044 53.087 64.972 53.421 71.305 64.087 137.64 64.087 138.472 64.087 139.14 64.087 139.972 64.087 206.307 64.087 212.639 53.421 212.566 53.087 65.044 53.087"/><path class="k" d="M83.36035,64.42087l-6.3335-11.4165a16.59561,16.59561,0,0,1,1.0835-4.6665s.833-1.25.583.4165-.916,2.5835-.083,4,6,10.5835,6.416,11.5835Z"/><path class="k" d="M68.61035,60.42087s6.25-.0835,7.1665-.25,4.1665-1.1665-7.8335-.9165Z"/><path class="k" d="M66.11035,44.83737s7.25,1.417,10.75,1.3335l-.0835-.9165s-6.3335-.9165-10.5-1.5Z"/><path class="k" d="M106.02635,64.42087a4.64175,4.64175,0,0,1-2.416-4.083c-.084-3,.584-.9165,1.166,0a11.71451,11.71451,0,0,0,4.167,3.75C110.86035,65.00437,106.02635,64.42087,106.02635,64.42087Z"/><path class="k" d="M121.86035,48.83737s-1.333,1.6665-2.75,3.75,1.334,5.167,2.25,5.417.583-1.5-.334-3.5C120.11035,52.50437,123.69435,49.75387,121.86035,48.83737Z"/><path class="k" d="M142.02635,64.50437a74.361,74.361,0,0,1-1.75-8.0835c-.166-2.1665-1.249-2.8335.834-5.5835s.583,3.1665.333,4.75.917,7.667,1.917,8.917Z"/><path class="k" d="M157.19335,54.67087s-1.666-1.75-.583-3.25S157.69335,53.17087,157.19335,54.67087Z"/><path class="k" d="M161.19335,64.58737a13.86447,13.86447,0,0,0,.167-5.4165c-.584-2.1665-.667,4.667-2.167,5.3335Z"/><path class="k" d="M178.52635,49.83737s-.582,3.417-2.166,5.167-1.4043,5.9453,2,.333C181.44335,50.25437,178.10935,46.33737,178.52635,49.83737Z"/><path class="k" d="M209.86035,59.75437h-7.75s-.417-1,2.75-1,5.333-.5,6-1.25Z"/><path class="k" d="M211.02635,43.42087h-8.833s.083-1.1665,8.583-1.1665Z"/><path class="k" d="M183.77635,36.92087s1.667,3.0005,1.417,3.917h.833s.834-1.75-1.083-4Z"/><path class="k" d="M92.36035,36.92087s-.5,2.417.583,3.3335l.667-.6665s-.75-2.7505.416-2.7505Z"/><polygon class="k" points="122.61 36.921 122.276 39.754 123.026 39.587 123.776 36.837 122.61 36.921"/><path class="k" d="M72.19335,48.25437s-1.917.4995-1.75,3.333,1.3335,3.5,2.25,4.5835,1.417.25-.333-2a4.2212,4.2212,0,0,1-.667-4.0835C72.02685,49.33737,74.94335,47.92137,72.19335,48.25437Z"/><path d="M120.44335,51.54587s-2.5,1.625-.5,3.75a1.57076,1.57076,0,0,1,.625-1.75C121.56835,52.67087,121.56835,50.17087,120.44335,51.54587Z"/><path d="M140.19335,53.92087s0-2.625,1.375-2.875-.666.8911-.375,3C141.69335,57.67087,140.94335,60.17087,140.19335,53.92087Z"/><path d="M179.31835,51.42087s-.625,3.25-2.25,4.5S178.06835,52.92087,179.31835,51.42087Z"/><path d="M156.56835,52.54587s.5,2.875.625-.125S156.56835,52.54587,156.56835,52.54587Z"/><path d="M77.69335,51.42087s-1.375,1.5,1.125,4S78.44335,53.29587,77.69335,51.42087Z"/><path d="M70.56835,51.54587s1.25,5.375,1.375,3.375S70.81835,49.92087,70.56835,51.54587Z"/><path d="M68.61035,60.42087s10.333-.875-1.292-.875Z"/><path d="M211.44335,43.67087s-9.375-1.25-.25-1.25"/><path class="l" d="M80.36225,52.90527c-.8232.0024-.9824.1357-.3544.2964a12.975,12.975,0,0,0,2.6396.292h32.6953a10.90591,10.90591,0,0,0,2.6397-.3506c.6279-.1929.4687-.3486-.3545-.3462Z"/><path class="l" d="M123.48725,52.89987c-.8232.0054-1.2714.1411-.996.3018a5.53433,5.53433,0,0,0,1.996.292H137.128a4.69991,4.69991,0,0,0,1.9961-.3506c.2754-.1929-.1729-.3462-.9961-.3408Z"/><path class="l" d="M143.36225,52.897c-.8232.0068-1.3193.144-1.1025.3047a4.65467,4.65467,0,0,0,1.8897.292h9.3154a3.96714,3.96714,0,0,0,1.8906-.3506c.2168-.1929-.2793-.3447-1.1025-.3379Z"/><path class="l" d="M159.11225,52.90037c-.8232.0054-1.25.1406-.9472.3013a5.97954,5.97954,0,0,0,2.0469.292h14.1904a5.06741,5.06741,0,0,0,2.0469-.3506c.3027-.1929-.1231-.3467-.9463-.3413Z"/><path class="l" d="M201.93066,42.30027c-.82131.0552-1.39751.2276-1.28031.3824a3.29327,3.29327,0,0,0,1.709.2065l3.2139-.1626a2.82677,2.82677,0,0,0,1.6767-.4356c.09971-.1982-.4912-.3149-1.3125-.2597Z"/><path class="l" d="M181.11225,52.90427c-.8232.003-1.0791.1367-.5673.2974a10.06758,10.06758,0,0,0,2.42571.292h26.04689a8.501,8.501,0,0,0,2.4278-.3506c.5107-.1929.2558-.3481-.5674-.3452Z"/><path class="l" d="M73.10205,52.87847c-.8232.017-1.4253.1625-1.3379.3232a3.03943,3.03943,0,0,0,1.6553.292h1.9599c.82331,0,1.5679-.1577,1.65531-.3506s-.51461-.3364-1.33791-.3193Z"/><path class="m" d="M73.10205,60.38237c-.8232.0151-1.4141.1586-1.313.3193a3.1911,3.1911,0,0,0,1.6802.292h2.7353c.8233,0,1.57911-.1577,1.6802-.3506s-.4897-.3384-1.313-.3232Z"/><path class="l" d="M71.03515,43.80617c-.8149-.1182-1.4136-.0703-1.3311.1059a3.29289,3.29289,0,0,0,1.6285.5591l3.2094.5186a2.834,2.834,0,0,0,1.7315-.0757c.1391-.1724-.4131-.4102-1.228-.5283Z"/><path class="l" d="M66.86135,52.87407c-.8228.0195-1.4336.1669-1.357.3276a2.92391,2.92391,0,0,0,1.6358.292h1.3564c.8233,0,1.55911-.1577,1.6358-.3506.0766-.1929-.5342-.3345-1.357-.3149Z"/><path class="m" d="M70.56835,54.61867s2.625,4.0962,1.875,1.7558C71.69335,54.03367,70.06835,53.35107,70.56835,54.61867Z"/><path class="m" d="M76.84615,55.12307s3.4048,6.5683,2.4322,2.8154C78.30566,54.18507,76.19775,53.09037,76.84615,55.12307Z"/><path class="m" d="M117.959,53.937s2.2256,5.294,1.7285,2.3438C119.19045,53.33007,117.59275,52.32957,117.959,53.937Z"/><path class="m" d="M157.27245,53.29057s-.6641,4.4311.4209,2.0053C158.77835,52.86817,157.78905,51.91647,157.27245,53.29057Z"/><path class="m" d="M139.93845,53.25637s.8604,4.9018-.4121,2.1987C138.254,52.74947,139.32715,51.72807,139.93845,53.25637Z"/><path class="m" d="M179.44335,52.54587s-3.0644,6.0855-.875,3.75C180.44335,54.29587,180.24025,51.90967,179.44335,52.54587Z"/><path d="M92.38085,40.08787c-4.5088,0-5.3877,2.375-6.125,5.5s2.9531,4.0938,2.9531,4.0938h4.9424c2.125,0,2.7744-1.292,3.1211-4.125C97.62015,42.72367,96.88966,40.08787,92.38085,40.08787Zm2.0996,5.501c-.1416,1.3945-.4053,2.0303-1.2695,2.0303h-2.0108s-.8281-.1436-.5283-1.6817c.29981-1.539.1944-2.3183,2.0283-2.3183C94.53315,43.61917,94.62105,44.19337,94.48045,45.58887Z"/><path d="M182.56735,45.55667c.3477,2.833.9961,4.125,3.1211,4.125h4.9434s3.92381-1.4688,3.1865-4.5938-1.1162-5.0625-5.625-5.0625C183.68355,40.02537,182.21975,42.72367,182.56735,45.55667Zm4.57331-1.9375c1.834,0,1.72749.7793,2.02829,2.3183.2988,1.5381-.52929,1.6817-.52929,1.6817h-2.00981c-.86519,0-1.1289-.6358-1.2695-2.0303C185.21975,44.19337,185.30766,43.61917,187.14066,43.61917Z"/><polygon points="111.173 49.546 108.173 49.546 106.381 47.963 108.173 41.63 109.193 40.025 111.089 41.63 111.089 44.546 112.256 44.546 114.506 41.713 115.256 40.213 117.214 41.713 117.214 43.338 115.36 45.192 115.36 46.296 117.079 48.015 117.079 49.63 114.631 49.63 112.006 47.005 111.151 47.067 111.173 49.546"/><polygon points="118.131 49.63 127.089 49.63 127.089 48.836 127.089 47.713 125.006 46.088 121.256 47.713 121.256 46.671 127.089 46.671 127.089 45.65 127.089 44.63 125.193 43.088 121.173 44.63 121.173 43.671 127.089 43.671 127.089 42.591 127.089 41.63 125.131 40.025 118.131 41.63 116.318 48.025 118.131 49.63"/><polygon points="140.464 49.63 149.423 49.63 151.381 47.963 149.423 47.713 143.589 47.713 143.589 46.671 149.423 46.671 151.318 45.025 149.423 44.63 143.506 44.63 143.506 43.671 149.423 43.671 151.193 41.963 149.423 41.63 142.381 40.025 140.464 41.63 140.464 49.63"/><polygon points="130.173 49.588 128.381 47.838 130.173 47.63 131.131 47.63 131.131 43.63 130.131 43.63 130.131 45.588 128.173 45.588 126.318 43.775 128.173 41.671 135.318 40.088 137.173 41.671 137.173 45.588 135.818 45.588 135.048 45.588 133.193 43.9 135.048 43.546 134.048 43.546 134.048 47.588 133.256 46.025 135.131 47.588 135.131 49.546 130.173 49.588"/><polygon points="168.59 49.588 168.59 47.63 170.631 46.088 169.548 47.63 169.548 43.63 168.548 43.63 170.443 43.838 168.548 45.588 166.59 45.588 166.59 41.671 168.506 40.088 175.59 41.671 177.443 43.838 175.59 45.588 173.465 45.588 173.465 43.546 172.465 43.546 172.465 47.588 173.548 47.588 175.443 47.838 173.548 49.546 168.59 49.588"/><path d="M102.96385,49.54637h2.417s1.875-.0835,1.875-1.8335v-1.083l-2-1.542-.917,1.542s.042,1.0415-1.416,1.0415c-.875,0-1.75.042-1.75-2.1665,0-2.042,1.7705-1.771,1.7705-1.771s1.2295-.104,1.2295.8125h3v-1.4165s-1.167-3.292-3.667-3.292c-1.4795,0-3.625,1.6875-3.625,1.6875s-1.667.8125-1.667,2.146-1.583,3.1665-1.583,3.1665,1.958,2.7085,3.375,2.7085Z"/><polygon points="163.34 49.546 160.548 49.546 160.548 47.63 162.568 46.025 161.465 47.63 161.465 43.588 160.548 43.588 160.548 41.671 162.568 40.088 165.465 41.671 167.318 41.838 165.465 43.546 164.548 43.546 164.548 47.546 165.506 47.546 167.318 47.9 165.506 49.588 163.34 49.546"/><polygon points="179.382 49.546 176.59 49.546 176.59 47.63 178.631 46.025 177.507 47.63 177.507 43.588 176.59 43.588 176.59 41.671 178.506 40.088 181.507 41.671 183.381 41.9 181.507 43.546 180.59 43.546 180.59 47.546 181.548 47.546 183.381 47.963 181.548 49.588 179.382 49.546"/><polygon points="196.59 49.588 193.298 49.588 192.34 41.629 194.318 40.088 195.34 41.629 198.506 44.713 198.506 41.629 200.506 40.088 201.256 41.629 204.318 47.963 202.381 49.629 199.506 49.629 195.964 45.713 198.568 47.9 196.59 49.588"/><path d="M157.71485,41.62987l-5.2715-1.4795-2.0205,1.4795v7.958s5.708.1045,7.1875.1045,3.3955-2.667,3.3955-2.667a3.316,3.316,0,0,1-1.583-2.854A2.62268,2.62268,0,0,0,157.71485,41.62987Zm-1.8545,5.9375c-1.417,0-2.1465-.021-2.1465-.021l-.208-3.9585h1.542a1.32149,1.32149,0,0,1,1.5,1.375C156.58105,46.18217,157.27735,47.56737,155.86035,47.56737Z"/><path d="M83.56835,40.21287c-.542,0-4.8955,1.5-4.8955,1.5l-3.667,6.3125,1.875,1.6875h3.375l.9375-2.9375s3.0625-.0205,4.0205-.0205c.959,0,1.834-.8335,1.959-2.667C87.26655,42.71047,85.06835,40.21287,83.56835,40.21287Zm.3125,4.417h-2.667l.209-.917,2.583-.083a.34848.34848,0,0,1,.292.458C84.21385,44.50487,84.13085,44.62987,83.88085,44.62987Z"/><path class="n" d="M91.01855,39.93167c-4.5078,0-4.248,1.583-4.9844,4.708-.7373,3.125,1.2998,3.417,1.2998,3.417h4.9424c2.125,0,2.7744-1.292,3.1211-4.125C95.74515,41.09867,95.52835,39.93167,91.01855,39.93167Zm1.5869,4.0322c-.1416,1.3945-.4053,2.0303-1.2695,2.0303h-2.0108s-.8281-.1436-.5283-1.6817c.29981-1.539.1944-2.3183,2.0283-2.3183C92.65815,41.99417,92.74605,42.56837,92.60545,43.96387Z"/><path class="n" d="M184.44235,43.93167c.3477,2.833.9961,4.125,3.1211,4.125h4.9434s2.0371-.292,1.29981-3.417-.47661-4.708-4.98541-4.708C184.31155,39.93167,184.09475,41.09867,184.44235,43.93167Zm4.57331-1.9375c1.834,0,1.72749.7793,2.02829,2.3183.2988,1.5381-.52929,1.6817-.52929,1.6817h-2.00981c-.86519,0-1.1289-.6358-1.2695-2.0303C187.09475,42.56837,187.18266,41.99417,189.01566,41.99417Z"/><polygon class="n" points="109.298 47.921 106.298 47.921 106.298 40.005 109.214 40.005 109.214 42.921 110.381 42.921 112.631 40.088 115.339 40.088 115.339 41.713 113.485 43.567 113.485 44.671 115.204 46.39 115.204 48.005 112.756 48.005 110.131 45.38 109.276 45.442 109.298 47.921"/><polygon class="n" points="116.256 48.005 125.214 48.005 125.214 46.088 119.381 46.088 119.381 45.046 125.214 45.046 125.214 43.005 119.298 43.005 119.298 42.046 125.214 42.046 125.214 40.005 116.256 40.005 116.256 48.005"/><polygon class="n" points="142.339 48.005 151.298 48.005 151.298 46.088 145.464 46.088 145.464 45.046 151.298 45.046 151.298 43.005 145.381 43.005 145.381 42.046 151.298 42.046 151.298 40.005 142.339 40.005 142.339 48.005"/><polygon class="n" points="128.298 47.963 128.298 46.005 129.256 46.005 129.256 42.005 128.256 42.005 128.256 43.963 126.298 43.963 126.298 40.046 135.298 40.046 135.298 43.963 133.173 43.963 133.173 41.921 132.173 41.921 132.173 45.963 133.256 45.963 133.256 47.921 128.298 47.963"/><polygon class="n" points="170.465 47.963 170.465 46.005 171.423 46.005 171.423 42.005 170.423 42.005 170.423 43.963 168.465 43.963 168.465 40.046 177.465 40.046 177.465 43.963 175.34 43.963 175.34 41.921 174.34 41.921 174.34 45.963 175.423 45.963 175.423 47.921 170.465 47.963"/><path class="n" d="M100.93555,47.92137h2.5034s1.9419-.0835,1.9419-1.8335v-1.083h-2.9453s.0156,1.0415-1.4702,1.0415c-.8916,0-1.78569.042-1.666-2.1665.1108-2.042,1.83831-1.771,1.83831-1.771s1.21239-.104,1.18749.8125h2.9737l.0009-1.4165s-.1196-1.6045-1.5463-1.6045H98.269s-1.6729.8125-1.7798,2.146c-.1074,1.3335-.3394,4.2085-.3394,4.2085s.2544,1.6665,1.7222,1.6665Z"/><polygon class="n" points="165.215 47.921 162.423 47.921 162.423 46.005 163.34 46.005 163.34 41.963 162.423 41.963 162.423 40.046 167.34 40.046 167.34 41.921 166.423 41.921 166.423 45.921 167.381 45.921 167.381 47.963 165.215 47.921"/><polygon class="n" points="181.388 47.921 178.465 47.921 178.465 46.005 179.402 46.005 179.354 41.963 178.465 41.963 178.465 40.046 183.11 40.046 183.229 41.921 182.341 41.921 182.549 45.921 183.527 45.921 183.658 47.963 181.388 47.921"/><polygon class="n" points="198.465 47.963 195.173 47.963 194.215 40.004 197.215 40.004 200.381 43.088 200.381 40.004 203.131 40.004 204.256 48.004 201.381 48.004 197.839 44.088 198.465 47.963"/><path class="n" d="M159.58985,40.00487h-7.292v7.958s5.708.1045,7.1875.1045,1.8125-1.8125,1.8125-1.8125v-3.7085A2.62268,2.62268,0,0,0,159.58985,40.00487Zm-1.8545,5.9375c-1.417,0-2.1465-.021-2.1465-.021l-.208-3.9585h1.542a1.32149,1.32149,0,0,1,1.5,1.375C158.45605,44.55717,159.15235,45.94237,157.73535,45.94237Z"/><path class="n" d="M83.38085,40.12987c-.542,0-6.583-.042-6.583-.042l-1.792,8h3.375l.9375-2.9375s3.0625-.0205,4.0205-.0205c.959,0,1.834-.8335,1.959-2.667A2.21974,2.21974,0,0,0,83.38085,40.12987Zm-1.375,2.875h-2.6665l.2085-.917,2.583-.083a.34848.34848,0,0,1,.292.458C82.33885,42.87987,82.25585,43.00487,82.00585,43.00487Z"/></svg>